# Created by Kenney (www.kenney.nl)

mtllib detail-overhang-wide.mtl

g detail-overhang-wide

v 0.5 0.3 0.25 1 1 1
v 0.5 0.4 0.25 1 1 1
v 0.5 0.3 0.08000001 1 1 1
v 0.5 0.4 0.08000001 1 1 1
v 0.4912132 0.3 0.05878681 1 1 1
v 0.4912132 0.4 0.05878681 1 1 1
v 0.47 0.4 0.05 1 1 1
v 0.47 0.3 0.05 1 1 1
v -0.47 0.4 0.05 1 1 1
v -0.47 0.3 0.05 1 1 1
v -0.4912132 0.4 0.05878681 1 1 1
v -0.4912132 0.3 0.05878681 1 1 1
v -0.5 0.3 0.08000001 1 1 1
v -0.5 0.4 0.08000001 1 1 1
v -0.5 0.3 0.25 1 1 1
v -0.5 0.4 0.25 1 1 1
v -0.47 0.4 0.25 1 1 1
v -0.47 0.4 0.08000001 1 1 1
v 0.47 0.4 0.08000001 1 1 1
v 0.47 0.4 0.25 1 1 1
v -0.47 0.35 0.08000001 1 1 1
v -0.47 0.35 0.25 1 1 1
v 0.47 0.35 0.08000001 1 1 1
v 0.47 0.35 0.25 1 1 1
v 0.44 3.981129E-17 0.08 1 1 1
v 0.47 3.981129E-17 0.08 1 1 1
v 0.44 0.3 0.08 1 1 1
v 0.47 0.3 0.08 1 1 1
v 0.47 -6.261583E-34 0.11 1 1 1
v 0.44 -6.261583E-34 0.11 1 1 1
v 0.47 0.3 0.11 1 1 1
v 0.44 0.3 0.11 1 1 1
v -0.47 1.300502E-16 0.08 1 1 1
v -0.44 1.300502E-16 0.08 1 1 1
v -0.47 0.3 0.08 1 1 1
v -0.44 0.3 0.08 1 1 1
v -0.44 9.023893E-17 0.11 1 1 1
v -0.47 9.023893E-17 0.11 1 1 1
v -0.44 0.3 0.11 1 1 1
v -0.47 0.3 0.11 1 1 1

vn 1 0 0
vn 0.9807853 0 -0.1950903
vn 0.7071068 0 -0.7071068
vn 0.1950903 0 -0.9807853
vn -0.1950903 0 -0.9807853
vn -0.7071068 0 -0.7071068
vn -0.9807853 0 -0.1950903
vn -1 0 0
vn 0 1 0
vn 0 0 1
vn 0 -1 0
vn 0 0 -1

vt 0.46875 0.275
vt 0.46875 0.475
vt 0.46875 0.375
vt 0.21875 0.375
vt 0.21875 0.475
vt 0.21875 0.275

usemtl colormap

f 3/1/2 2/2/1 1/1/1
f 2/2/1 3/1/2 4/2/2
f 5/1/3 4/2/2 3/1/2
f 4/2/2 5/1/3 6/2/3
f 5/1/3 7/2/4 6/2/3
f 7/2/4 5/1/3 8/1/4
f 8/1/4 9/2/5 7/2/4
f 9/2/5 8/1/4 10/1/5
f 10/1/5 11/2/6 9/2/5
f 11/2/6 10/1/5 12/1/6
f 13/1/7 11/2/6 12/1/6
f 11/2/6 13/1/7 14/2/7
f 15/1/8 14/2/7 13/1/7
f 14/2/7 15/1/8 16/2/8
f 16/2/9 11/2/9 14/2/9
f 17/2/9 11/2/9 16/2/9
f 18/2/9 11/2/9 17/2/9
f 18/2/9 9/2/9 11/2/9
f 19/2/9 9/2/9 18/2/9
f 9/2/9 19/2/9 7/2/9
f 20/2/9 7/2/9 19/2/9
f 20/2/9 6/2/9 7/2/9
f 2/2/9 6/2/9 20/2/9
f 6/2/9 2/2/9 4/2/9
f 17/2/1 21/3/1 18/2/1
f 21/3/1 17/2/1 22/3/1
f 24/3/8 19/2/8 23/3/8
f 19/2/8 24/3/8 20/2/8
f 24/3/10 2/2/10 20/2/10
f 24/3/10 1/1/10 2/2/10
f 1/1/10 24/3/10 15/1/10
f 22/3/10 15/1/10 24/3/10
f 15/1/10 22/3/10 16/2/10
f 16/2/10 22/3/10 17/2/10
f 15/1/11 3/1/11 1/1/11
f 3/1/11 15/1/11 5/1/11
f 5/1/11 15/1/11 8/1/11
f 8/1/11 15/1/11 10/1/11
f 10/1/11 15/1/11 12/1/11
f 12/1/11 15/1/11 13/1/11
f 19/2/10 21/3/10 23/3/10
f 21/3/10 19/2/10 18/2/10
f 21/4/9 24/4/9 23/4/9
f 24/4/9 21/4/9 22/4/9
f 27/6/12 26/5/12 25/5/12
f 26/5/12 27/6/12 28/6/12
f 30/5/11 26/5/11 29/5/11
f 26/5/11 30/5/11 25/5/11
f 31/6/1 26/5/1 28/6/1
f 26/5/1 31/6/1 29/5/1
f 30/5/8 27/6/8 25/5/8
f 27/6/8 30/5/8 32/6/8
f 31/6/10 30/5/10 29/5/10
f 30/5/10 31/6/10 32/6/10
f 35/6/12 34/5/12 33/5/12
f 34/5/12 35/6/12 36/6/12
f 38/5/11 34/5/11 37/5/11
f 34/5/11 38/5/11 33/5/11
f 39/6/1 34/5/1 36/6/1
f 34/5/1 39/6/1 37/5/1
f 38/5/8 35/6/8 33/5/8
f 35/6/8 38/5/8 40/6/8
f 39/6/10 38/5/10 37/5/10
f 38/5/10 39/6/10 40/6/10

g detail-overhang-wide




usemtl colormap

f 3/1/2 2/2/1 1/1/1
f 2/2/1 3/1/2 4/2/2
f 5/1/3 4/2/2 3/1/2
f 4/2/2 5/1/3 6/2/3
f 5/1/3 7/2/4 6/2/3
f 7/2/4 5/1/3 8/1/4
f 8/1/4 9/2/5 7/2/4
f 9/2/5 8/1/4 10/1/5
f 10/1/5 11/2/6 9/2/5
f 11/2/6 10/1/5 12/1/6
f 13/1/7 11/2/6 12/1/6
f 11/2/6 13/1/7 14/2/7
f 15/1/8 14/2/7 13/1/7
f 14/2/7 15/1/8 16/2/8
f 16/2/9 11/2/9 14/2/9
f 17/2/9 11/2/9 16/2/9
f 18/2/9 11/2/9 17/2/9
f 18/2/9 9/2/9 11/2/9
f 19/2/9 9/2/9 18/2/9
f 9/2/9 19/2/9 7/2/9
f 20/2/9 7/2/9 19/2/9
f 20/2/9 6/2/9 7/2/9
f 2/2/9 6/2/9 20/2/9
f 6/2/9 2/2/9 4/2/9
f 17/2/1 21/3/1 18/2/1
f 21/3/1 17/2/1 22/3/1
f 24/3/8 19/2/8 23/3/8
f 19/2/8 24/3/8 20/2/8
f 24/3/10 2/2/10 20/2/10
f 24/3/10 1/1/10 2/2/10
f 1/1/10 24/3/10 15/1/10
f 22/3/10 15/1/10 24/3/10
f 15/1/10 22/3/10 16/2/10
f 16/2/10 22/3/10 17/2/10
f 15/1/11 3/1/11 1/1/11
f 3/1/11 15/1/11 5/1/11
f 5/1/11 15/1/11 8/1/11
f 8/1/11 15/1/11 10/1/11
f 10/1/11 15/1/11 12/1/11
f 12/1/11 15/1/11 13/1/11
f 19/2/10 21/3/10 23/3/10
f 21/3/10 19/2/10 18/2/10
f 21/4/9 24/4/9 23/4/9
f 24/4/9 21/4/9 22/4/9
f 27/6/12 26/5/12 25/5/12
f 26/5/12 27/6/12 28/6/12
f 30/5/11 26/5/11 29/5/11
f 26/5/11 30/5/11 25/5/11
f 31/6/1 26/5/1 28/6/1
f 26/5/1 31/6/1 29/5/1
f 30/5/8 27/6/8 25/5/8
f 27/6/8 30/5/8 32/6/8
f 31/6/10 30/5/10 29/5/10
f 30/5/10 31/6/10 32/6/10
f 35/6/12 34/5/12 33/5/12
f 34/5/12 35/6/12 36/6/12
f 38/5/11 34/5/11 37/5/11
f 34/5/11 38/5/11 33/5/11
f 39/6/1 34/5/1 36/6/1
f 34/5/1 39/6/1 37/5/1
f 38/5/8 35/6/8 33/5/8
f 35/6/8 38/5/8 40/6/8
f 39/6/10 38/5/10 37/5/10
f 38/5/10 39/6/10 40/6/10

