# Created by Kenney (www.kenney.nl)

mtllib detail-awning.mtl

g detail-awning

v -0.2 0.3316326 0.12 1 1 1
v -0.2 0.3616326 0.12 1 1 1
v -0.2 0.37 0.2478913 1 1 1
v -0.2 0.4 0.2478913 1 1 1
v -0.18 0.3256326 0.09999999 1 1 1
v 0.18 0.3256326 0.09999999 1 1 1
v -0.18 0.3556326 0.09999999 1 1 1
v 0.18 0.3556326 0.09999999 1 1 1
v 0.2 0.3316326 0.12 1 1 1
v 0.2 0.3616326 0.12 1 1 1
v 0.2 0.4 0.2478913 1 1 1
v 0.2 0.37 0.2478913 1 1 1
v -0.14 4.511946E-17 0.1778913 1 1 1
v -0.17 4.511946E-17 0.1778913 1 1 1
v -0.14 0.349 0.1778913 1 1 1
v -0.17 0.349 0.1778913 1 1 1
v -0.14 0.34 0.1478913 1 1 1
v -0.14 9.023893E-17 0.1478913 1 1 1
v -0.17 9.023893E-17 0.1478913 1 1 1
v -0.17 0.34 0.1478913 1 1 1
v 0.14 -2.707168E-16 0.1478913 1 1 1
v 0.17 -2.707168E-16 0.1478913 1 1 1
v 0.14 0.34 0.1478913 1 1 1
v 0.17 0.34 0.1478913 1 1 1
v 0.17 -3.158362E-16 0.1778913 1 1 1
v 0.14 -3.158362E-16 0.1778913 1 1 1
v 0.17 0.349 0.1778913 1 1 1
v 0.14 0.349 0.1778913 1 1 1

vn -0.8958917 0 -0.4442728
vn -0.946532 0 -0.3226101
vn -1 0 0
vn -0.3552509 0 -0.934771
vn 0.3552509 0 -0.934771
vn -0.406422 0 -0.9136855
vn 0.406422 0 -0.9136855
vn 0.8958917 0 -0.4442728
vn 0.946532 0 -0.3226101
vn 1 0 0
vn 0 0.9578263 -0.2873479
vn 0 -0.9578263 0.2873479
vn 0 0 1
vn 0 0 -1
vn 0 -1 0

vt 0.09375 0.5411361
vt 0.09375 0.6218166
vt 0.09375 0.6443195
vt 0.09375 0.725
vt 0.09375 0.525
vt 0.09375 0.6056805
vt 0.09375 0.475
vt 0.09375 0.275
vt 0.09375 0.2801576

usemtl colormap

f 3/3/3 2/2/2 1/1/1
f 2/2/2 3/3/3 4/4/3
f 7/6/6 6/5/5 5/5/4
f 6/5/5 7/6/6 8/6/7
f 8/6/7 9/1/8 6/5/5
f 9/1/8 8/6/7 10/2/9
f 11/4/10 9/1/8 10/2/9
f 9/1/8 11/4/10 12/3/10
f 1/1/1 7/6/6 5/5/4
f 7/6/6 1/1/1 2/2/2
f 8/6/11 11/4/11 10/2/11
f 11/4/11 8/6/11 4/4/11
f 4/4/11 8/6/11 7/6/11
f 4/4/11 7/6/11 2/2/11
f 3/3/12 9/1/12 12/3/12
f 9/1/12 3/3/12 6/5/12
f 6/5/12 3/3/12 5/5/12
f 5/5/12 3/3/12 1/1/12
f 11/4/13 3/3/13 12/3/13
f 3/3/13 11/4/13 4/4/13
f 15/8/13 14/7/13 13/7/13
f 14/7/13 15/8/13 16/8/13
f 15/8/10 18/7/10 17/9/10
f 18/7/10 15/8/10 13/7/10
f 14/7/3 20/9/3 19/7/3
f 20/9/3 14/7/3 16/8/3
f 20/9/14 18/7/14 19/7/14
f 18/7/14 20/9/14 17/9/14
f 14/7/15 18/7/15 13/7/15
f 18/7/15 14/7/15 19/7/15
f 23/9/14 22/7/14 21/7/14
f 22/7/14 23/9/14 24/9/14
f 26/7/15 22/7/15 25/7/15
f 22/7/15 26/7/15 21/7/15
f 27/8/10 22/7/10 24/9/10
f 22/7/10 27/8/10 25/7/10
f 26/7/3 23/9/3 21/7/3
f 23/9/3 26/7/3 28/8/3
f 27/8/13 26/7/13 25/7/13
f 26/7/13 27/8/13 28/8/13

g detail-awning




usemtl colormap

f 3/3/3 2/2/2 1/1/1
f 2/2/2 3/3/3 4/4/3
f 7/6/6 6/5/5 5/5/4
f 6/5/5 7/6/6 8/6/7
f 8/6/7 9/1/8 6/5/5
f 9/1/8 8/6/7 10/2/9
f 11/4/10 9/1/8 10/2/9
f 9/1/8 11/4/10 12/3/10
f 1/1/1 7/6/6 5/5/4
f 7/6/6 1/1/1 2/2/2
f 8/6/11 11/4/11 10/2/11
f 11/4/11 8/6/11 4/4/11
f 4/4/11 8/6/11 7/6/11
f 4/4/11 7/6/11 2/2/11
f 3/3/12 9/1/12 12/3/12
f 9/1/12 3/3/12 6/5/12
f 6/5/12 3/3/12 5/5/12
f 5/5/12 3/3/12 1/1/12
f 11/4/13 3/3/13 12/3/13
f 3/3/13 11/4/13 4/4/13
f 15/8/13 14/7/13 13/7/13
f 14/7/13 15/8/13 16/8/13
f 15/8/10 18/7/10 17/9/10
f 18/7/10 15/8/10 13/7/10
f 14/7/3 20/9/3 19/7/3
f 20/9/3 14/7/3 16/8/3
f 20/9/14 18/7/14 19/7/14
f 18/7/14 20/9/14 17/9/14
f 14/7/15 18/7/15 13/7/15
f 18/7/15 14/7/15 19/7/15
f 23/9/14 22/7/14 21/7/14
f 22/7/14 23/9/14 24/9/14
f 26/7/15 22/7/15 25/7/15
f 22/7/15 26/7/15 21/7/15
f 27/8/10 22/7/10 24/9/10
f 22/7/10 27/8/10 25/7/10
f 26/7/3 23/9/3 21/7/3
f 23/9/3 26/7/3 28/8/3
f 27/8/13 26/7/13 25/7/13
f 26/7/13 27/8/13 28/8/13

