# Created by Kenney (www.kenney.nl)

mtllib detail-parasol-a.mtl

g detail-parasol-a

v 0.1732051 0.35 -0.1 1 1 1
v 0.1732051 0.3 -0.1 1 1 1
v 0.1732051 0.35 0.1 1 1 1
v 0.1732051 0.3 0.1 1 1 1
v -0.1732051 0.3 -0.1 1 1 1
v 0 0.3 -0.2 1 1 1
v -0.1732051 0.35 -0.1 1 1 1
v 0 0.35 -0.2 1 1 1
v 0.03117692 0.45 -0.018 1 1 1
v 0.03117692 0.45 0.018 1 1 1
v 0 0.45 -0.036 1 1 1
v 0 0.45 0.036 1 1 1
v -0.03117692 0.45 -0.018 1 1 1
v -0.03117692 0.45 0.018 1 1 1
v 0 0.3 0.2 1 1 1
v -0.1732051 0.3 0.1 1 1 1
v 0 0.35 0.2 1 1 1
v -0.1732051 0.35 0.1 1 1 1
v 0.0125 0.3 -0.0125 1 1 1
v 0.0125 0.02 -0.0125 1 1 1
v 0.0125 0.3 0.0125 1 1 1
v 0.0125 0.02 0.0125 1 1 1
v -0.0125 0.02 -0.0125 1 1 1
v -0.0125 0.3 -0.0125 1 1 1
v -0.0125 0.02 0.0125 1 1 1
v -0.0125 0.3 0.0125 1 1 1
v 0.16 0.12 1.804779E-15 1 1 1
v 0.1131371 0.12 0.1131371 1 1 1
v 0.1131371 0.12 -0.1131371 1 1 1
v 0 0.12 -0.16 1 1 1
v 0 0.12 0.16 1 1 1
v -0.1131371 0.12 -0.1131371 1 1 1
v -0.1131371 0.12 0.1131371 1 1 1
v -0.16 0.12 1.804779E-15 1 1 1
v -0.1131371 0.1 -0.1131371 1 1 1
v -0.16 0.1 1.804779E-15 1 1 1
v 0 0.1 0.16 1 1 1
v -0.1131371 0.1 0.1131371 1 1 1
v 0 0.1 -0.16 1 1 1
v 0.1131371 0.1 -0.1131371 1 1 1
v 0.16 0.1 1.804779E-15 1 1 1
v 0.1131371 0.1 0.1131371 1 1 1
v 0.08 0.02 1.624301E-15 1 1 1
v 0.05656854 0.02 0.05656854 1 1 1
v 0.05656854 0.02 -0.05656854 1 1 1
v 7.219114E-16 0.02 -0.08 1 1 1
v 7.219114E-16 0.02 0.08 1 1 1
v -0.05656854 0.02 -0.05656854 1 1 1
v -0.05656854 0.02 0.05656854 1 1 1
v -0.08 0.02 1.624301E-15 1 1 1
v -0.05656854 0 -0.05656854 1 1 1
v -0.08 0 1.624301E-15 1 1 1
v 7.219114E-16 0 0.08 1 1 1
v -0.05656854 0 0.05656854 1 1 1
v 7.219114E-16 0 -0.08 1 1 1
v 0.05656854 0 -0.05656854 1 1 1
v 0.08 0 1.624301E-15 1 1 1
v 0.05656854 0 0.05656854 1 1 1

vn 0.8660254 0 -0.5
vn 0.8660254 0 0.5
vn -0.8660254 0 -0.5
vn 0 0 -1
vn 0 1 0
vn 0 -1 0
vn 0 0 1
vn -0.8660254 0 0.5
vn 0.4508592 0.8537962 -0.2603037
vn 0.4508592 0.8537962 0.2603037
vn 0 0.8537962 0.5206074
vn -0.4508592 0.8537962 0.2603037
vn 0 0.8537962 -0.5206074
vn -0.4508592 0.8537962 -0.2603037
vn 1 0 0
vn -1 0 0
vn -0.7071068 0 -0.7071068
vn -0.7071068 0 0.7071068
vn 0.7071068 0 -0.7071068
vn 0.7071068 0 0.7071068
vn -0.7071068 0 -0.7071068
vn -0.7071068 0 0.7071068
vn 0.7071068 0 -0.7071068
vn 0.7071068 0 0.7071068

vt 0.09375 0.5916666
vt 0.09375 0.525
vt 0.09375 0.725
vt 0.21875 0.275
vt 0.21875 0.4616666
vt 0.46875 0.425
vt 0.09375 0.325
vt 0.09375 0.425

usemtl colormap

f 3/1/2 2/2/1 1/1/1
f 2/2/1 3/1/2 4/2/2
f 7/1/3 6/2/4 5/2/3
f 6/2/4 7/1/3 8/1/4
f 11/3/5 10/3/5 9/3/5
f 10/3/5 11/3/5 12/3/5
f 12/3/5 11/3/5 13/3/5
f 12/3/5 13/3/5 14/3/5
f 15/2/6 2/2/6 4/2/6
f 2/2/6 15/2/6 6/2/6
f 6/2/6 15/2/6 16/2/6
f 6/2/6 16/2/6 5/2/6
f 17/1/7 16/2/8 15/2/7
f 16/2/8 17/1/7 18/1/8
f 9/3/9 3/1/10 1/1/9
f 3/1/10 9/3/9 10/3/10
f 14/3/12 17/1/11 12/3/11
f 17/1/11 14/3/12 18/1/12
f 8/1/13 9/3/9 1/1/9
f 9/3/9 8/1/13 11/3/13
f 10/3/10 17/1/11 3/1/10
f 17/1/11 10/3/10 12/3/11
f 8/1/4 2/2/1 6/2/4
f 2/2/1 8/1/4 1/1/1
f 7/1/14 14/3/12 13/3/14
f 14/3/12 7/1/14 18/1/12
f 3/1/2 15/2/7 4/2/2
f 15/2/7 3/1/2 17/1/7
f 7/1/14 11/3/13 8/1/13
f 11/3/13 7/1/14 13/3/14
f 16/2/8 7/1/3 5/2/3
f 7/1/3 16/2/8 18/1/8
f 21/4/15 20/5/15 19/4/15
f 20/5/15 21/4/15 22/5/15
f 24/4/4 20/5/4 23/5/4
f 20/5/4 24/4/4 19/4/4
f 21/4/7 25/5/7 22/5/7
f 25/5/7 21/4/7 26/4/7
f 25/5/16 24/4/16 23/5/16
f 24/4/16 25/5/16 26/4/16
f 29/6/5 28/6/5 27/6/5
f 28/6/5 29/6/5 30/6/5
f 28/6/5 30/6/5 31/6/5
f 31/6/5 30/6/5 32/6/5
f 31/6/5 32/6/5 33/6/5
f 33/6/5 32/6/5 34/6/5
f 36/7/16 32/8/17 35/7/17
f 32/8/17 36/7/16 34/8/16
f 31/8/7 38/7/18 37/7/7
f 38/7/18 31/8/7 33/8/18
f 30/8/4 40/7/19 39/7/4
f 40/7/19 30/8/4 29/8/19
f 38/7/18 34/8/16 36/7/16
f 34/8/16 38/7/18 33/8/18
f 27/8/15 40/7/19 29/8/19
f 40/7/19 27/8/15 41/7/15
f 28/8/20 41/7/15 27/8/15
f 41/7/15 28/8/20 42/7/20
f 32/8/17 39/7/4 35/7/17
f 39/7/4 32/8/17 30/8/4
f 28/8/20 37/7/7 42/7/20
f 37/7/7 28/8/20 31/8/7
f 42/7/6 40/7/6 41/7/6
f 40/7/6 42/7/6 37/7/6
f 40/7/6 37/7/6 39/7/6
f 39/7/6 37/7/6 38/7/6
f 39/7/6 38/7/6 35/7/6
f 35/7/6 38/7/6 36/7/6
f 45/8/5 44/8/5 43/8/5
f 44/8/5 45/8/5 46/8/5
f 44/8/5 46/8/5 47/8/5
f 47/8/5 46/8/5 48/8/5
f 47/8/5 48/8/5 49/8/5
f 49/8/5 48/8/5 50/8/5
f 52/7/16 48/8/21 51/7/21
f 48/8/21 52/7/16 50/8/16
f 47/8/7 54/7/22 53/7/7
f 54/7/22 47/8/7 49/8/22
f 46/8/4 56/7/23 55/7/4
f 56/7/23 46/8/4 45/8/23
f 54/7/22 50/8/16 52/7/16
f 50/8/16 54/7/22 49/8/22
f 43/8/15 56/7/23 45/8/23
f 56/7/23 43/8/15 57/7/15
f 44/8/24 57/7/15 43/8/15
f 57/7/15 44/8/24 58/7/24
f 48/8/21 55/7/4 51/7/21
f 55/7/4 48/8/21 46/8/4
f 44/8/24 53/7/7 58/7/24
f 53/7/7 44/8/24 47/8/7
f 58/7/6 56/7/6 57/7/6
f 56/7/6 58/7/6 53/7/6
f 56/7/6 53/7/6 55/7/6
f 55/7/6 53/7/6 54/7/6
f 55/7/6 54/7/6 51/7/6
f 51/7/6 54/7/6 52/7/6

g detail-parasol-a




usemtl colormap

f 3/1/2 2/2/1 1/1/1
f 2/2/1 3/1/2 4/2/2
f 7/1/3 6/2/4 5/2/3
f 6/2/4 7/1/3 8/1/4
f 11/3/5 10/3/5 9/3/5
f 10/3/5 11/3/5 12/3/5
f 12/3/5 11/3/5 13/3/5
f 12/3/5 13/3/5 14/3/5
f 15/2/6 2/2/6 4/2/6
f 2/2/6 15/2/6 6/2/6
f 6/2/6 15/2/6 16/2/6
f 6/2/6 16/2/6 5/2/6
f 17/1/7 16/2/8 15/2/7
f 16/2/8 17/1/7 18/1/8
f 9/3/9 3/1/10 1/1/9
f 3/1/10 9/3/9 10/3/10
f 14/3/12 17/1/11 12/3/11
f 17/1/11 14/3/12 18/1/12
f 8/1/13 9/3/9 1/1/9
f 9/3/9 8/1/13 11/3/13
f 10/3/10 17/1/11 3/1/10
f 17/1/11 10/3/10 12/3/11
f 8/1/4 2/2/1 6/2/4
f 2/2/1 8/1/4 1/1/1
f 7/1/14 14/3/12 13/3/14
f 14/3/12 7/1/14 18/1/12
f 3/1/2 15/2/7 4/2/2
f 15/2/7 3/1/2 17/1/7
f 7/1/14 11/3/13 8/1/13
f 11/3/13 7/1/14 13/3/14
f 16/2/8 7/1/3 5/2/3
f 7/1/3 16/2/8 18/1/8
f 21/4/15 20/5/15 19/4/15
f 20/5/15 21/4/15 22/5/15
f 24/4/4 20/5/4 23/5/4
f 20/5/4 24/4/4 19/4/4
f 21/4/7 25/5/7 22/5/7
f 25/5/7 21/4/7 26/4/7
f 25/5/16 24/4/16 23/5/16
f 24/4/16 25/5/16 26/4/16
f 29/6/5 28/6/5 27/6/5
f 28/6/5 29/6/5 30/6/5
f 28/6/5 30/6/5 31/6/5
f 31/6/5 30/6/5 32/6/5
f 31/6/5 32/6/5 33/6/5
f 33/6/5 32/6/5 34/6/5
f 36/7/16 32/8/17 35/7/17
f 32/8/17 36/7/16 34/8/16
f 31/8/7 38/7/18 37/7/7
f 38/7/18 31/8/7 33/8/18
f 30/8/4 40/7/19 39/7/4
f 40/7/19 30/8/4 29/8/19
f 38/7/18 34/8/16 36/7/16
f 34/8/16 38/7/18 33/8/18
f 27/8/15 40/7/19 29/8/19
f 40/7/19 27/8/15 41/7/15
f 28/8/20 41/7/15 27/8/15
f 41/7/15 28/8/20 42/7/20
f 32/8/17 39/7/4 35/7/17
f 39/7/4 32/8/17 30/8/4
f 28/8/20 37/7/7 42/7/20
f 37/7/7 28/8/20 31/8/7
f 42/7/6 40/7/6 41/7/6
f 40/7/6 42/7/6 37/7/6
f 40/7/6 37/7/6 39/7/6
f 39/7/6 37/7/6 38/7/6
f 39/7/6 38/7/6 35/7/6
f 35/7/6 38/7/6 36/7/6
f 45/8/5 44/8/5 43/8/5
f 44/8/5 45/8/5 46/8/5
f 44/8/5 46/8/5 47/8/5
f 47/8/5 46/8/5 48/8/5
f 47/8/5 48/8/5 49/8/5
f 49/8/5 48/8/5 50/8/5
f 52/7/16 48/8/21 51/7/21
f 48/8/21 52/7/16 50/8/16
f 47/8/7 54/7/22 53/7/7
f 54/7/22 47/8/7 49/8/22
f 46/8/4 56/7/23 55/7/4
f 56/7/23 46/8/4 45/8/23
f 54/7/22 50/8/16 52/7/16
f 50/8/16 54/7/22 49/8/22
f 43/8/15 56/7/23 45/8/23
f 56/7/23 43/8/15 57/7/15
f 44/8/24 57/7/15 43/8/15
f 57/7/15 44/8/24 58/7/24
f 48/8/21 55/7/4 51/7/21
f 55/7/4 48/8/21 46/8/4
f 44/8/24 53/7/7 58/7/24
f 53/7/7 44/8/24 47/8/7
f 58/7/6 56/7/6 57/7/6
f 56/7/6 58/7/6 53/7/6
f 56/7/6 53/7/6 55/7/6
f 55/7/6 53/7/6 54/7/6
f 55/7/6 54/7/6 51/7/6
f 51/7/6 54/7/6 52/7/6

