# Created by Kenney (www.kenney.nl)

mtllib detail-awning-wide.mtl

g detail-awning-wide

v -0.4 0.3316326 0.12 1 1 1
v -0.4 0.3616326 0.12 1 1 1
v -0.4 0.37 0.2478913 1 1 1
v -0.4 0.4 0.2478913 1 1 1
v -0.38 0.3256326 0.09999999 1 1 1
v 0.38 0.3256326 0.09999999 1 1 1
v -0.38 0.3556326 0.09999999 1 1 1
v 0.38 0.3556326 0.09999999 1 1 1
v 0.4 0.3316326 0.12 1 1 1
v 0.4 0.3616326 0.12 1 1 1
v 0.4 0.4 0.2478913 1 1 1
v 0.4 0.37 0.2478913 1 1 1
v 0.34 -2.255973E-16 0.1478913 1 1 1
v 0.37 -2.255973E-16 0.1478913 1 1 1
v 0.34 0.34 0.1478913 1 1 1
v 0.37 0.34 0.1478913 1 1 1
v 0.37 -2.707168E-16 0.1778913 1 1 1
v 0.34 -2.707168E-16 0.1778913 1 1 1
v 0.37 0.349 0.1778913 1 1 1
v 0.34 0.349 0.1778913 1 1 1
v -0.34 9.023893E-17 0.1778913 1 1 1
v -0.37 9.023893E-17 0.1778913 1 1 1
v -0.34 0.349 0.1778913 1 1 1
v -0.37 0.349 0.1778913 1 1 1
v -0.34 0.34 0.1478913 1 1 1
v -0.34 1.353584E-16 0.1478913 1 1 1
v -0.37 1.353584E-16 0.1478913 1 1 1
v -0.37 0.34 0.1478913 1 1 1

vn -0.8958917 0 -0.4442728
vn -0.946532 0 -0.3226101
vn -1 0 0
vn -0.3552509 0 -0.934771
vn 0.3552509 0 -0.934771
vn -0.406422 0 -0.9136855
vn 0.406422 0 -0.9136855
vn 0.8958917 0 -0.4442728
vn 0.946532 0 -0.3226101
vn 1 0 0
vn 0 0.9578263 -0.2873479
vn 0 -0.9578263 0.2873479
vn 0 0 1
vn 0 0 -1
vn 0 -1 0

vt 0.09375 0.5411361
vt 0.09375 0.6218166
vt 0.09375 0.6443195
vt 0.09375 0.725
vt 0.09375 0.525
vt 0.09375 0.6056805
vt 0.09375 0.475
vt 0.09375 0.2801576
vt 0.09375 0.275

usemtl colormap

f 3/3/3 2/2/2 1/1/1
f 2/2/2 3/3/3 4/4/3
f 7/6/6 6/5/5 5/5/4
f 6/5/5 7/6/6 8/6/7
f 8/6/7 9/1/8 6/5/5
f 9/1/8 8/6/7 10/2/9
f 11/4/10 9/1/8 10/2/9
f 9/1/8 11/4/10 12/3/10
f 1/1/1 7/6/6 5/5/4
f 7/6/6 1/1/1 2/2/2
f 8/6/11 11/4/11 10/2/11
f 11/4/11 8/6/11 4/4/11
f 4/4/11 8/6/11 7/6/11
f 4/4/11 7/6/11 2/2/11
f 3/3/12 9/1/12 12/3/12
f 9/1/12 3/3/12 6/5/12
f 6/5/12 3/3/12 5/5/12
f 5/5/12 3/3/12 1/1/12
f 11/4/13 3/3/13 12/3/13
f 3/3/13 11/4/13 4/4/13
f 15/8/14 14/7/14 13/7/14
f 14/7/14 15/8/14 16/8/14
f 18/7/15 14/7/15 17/7/15
f 14/7/15 18/7/15 13/7/15
f 19/9/10 14/7/10 16/8/10
f 14/7/10 19/9/10 17/7/10
f 18/7/3 15/8/3 13/7/3
f 15/8/3 18/7/3 20/9/3
f 19/9/13 18/7/13 17/7/13
f 18/7/13 19/9/13 20/9/13
f 23/9/13 22/7/13 21/7/13
f 22/7/13 23/9/13 24/9/13
f 23/9/10 26/7/10 25/8/10
f 26/7/10 23/9/10 21/7/10
f 22/7/3 28/8/3 27/7/3
f 28/8/3 22/7/3 24/9/3
f 28/8/14 26/7/14 27/7/14
f 26/7/14 28/8/14 25/8/14
f 22/7/15 26/7/15 21/7/15
f 26/7/15 22/7/15 27/7/15

g detail-awning-wide




usemtl colormap

f 3/3/3 2/2/2 1/1/1
f 2/2/2 3/3/3 4/4/3
f 7/6/6 6/5/5 5/5/4
f 6/5/5 7/6/6 8/6/7
f 8/6/7 9/1/8 6/5/5
f 9/1/8 8/6/7 10/2/9
f 11/4/10 9/1/8 10/2/9
f 9/1/8 11/4/10 12/3/10
f 1/1/1 7/6/6 5/5/4
f 7/6/6 1/1/1 2/2/2
f 8/6/11 11/4/11 10/2/11
f 11/4/11 8/6/11 4/4/11
f 4/4/11 8/6/11 7/6/11
f 4/4/11 7/6/11 2/2/11
f 3/3/12 9/1/12 12/3/12
f 9/1/12 3/3/12 6/5/12
f 6/5/12 3/3/12 5/5/12
f 5/5/12 3/3/12 1/1/12
f 11/4/13 3/3/13 12/3/13
f 3/3/13 11/4/13 4/4/13
f 15/8/14 14/7/14 13/7/14
f 14/7/14 15/8/14 16/8/14
f 18/7/15 14/7/15 17/7/15
f 14/7/15 18/7/15 13/7/15
f 19/9/10 14/7/10 16/8/10
f 14/7/10 19/9/10 17/7/10
f 18/7/3 15/8/3 13/7/3
f 15/8/3 18/7/3 20/9/3
f 19/9/13 18/7/13 17/7/13
f 18/7/13 19/9/13 20/9/13
f 23/9/13 22/7/13 21/7/13
f 22/7/13 23/9/13 24/9/13
f 23/9/10 26/7/10 25/8/10
f 26/7/10 23/9/10 21/7/10
f 22/7/3 28/8/3 27/7/3
f 28/8/3 22/7/3 24/9/3
f 28/8/14 26/7/14 27/7/14
f 26/7/14 28/8/14 25/8/14
f 22/7/15 26/7/15 21/7/15
f 26/7/15 22/7/15 27/7/15

