# Created by Kenney (www.kenney.nl)

mtllib detail-parasol-b.mtl

g detail-parasol-b

v 0 0.35 -0.2 1 1 1
v 0 0.45 -0.036 1 1 1
v -0.1732051 0.35 -0.1 1 1 1
v -0.03117692 0.45 -0.018 1 1 1
v 0.08660254 0.3 0.15 1 1 1
v 0.1732051 0.325 0.1 1 1 1
v 0 0.325 0.2 1 1 1
v 0 0.35 0.2 1 1 1
v 0.1732051 0.35 0.1 1 1 1
v -0.08660254 0.3 -0.15 1 1 1
v 0 0.325 -0.2 1 1 1
v -0.1732051 0.325 -0.1 1 1 1
v 0 0.45 0.036 1 1 1
v -0.03117692 0.45 0.018 1 1 1
v -0.1732051 0.35 0.1 1 1 1
v 0.03117692 0.45 -0.018 1 1 1
v 0.03117692 0.45 0.018 1 1 1
v 0.1732051 0.35 -0.1 1 1 1
v -0.1732051 0.3 2.346212E-15 1 1 1
v -0.1732051 0.325 0.1 1 1 1
v 0.1732051 0.325 -0.1 1 1 1
v 0.1732051 0.3 1.624301E-15 1 1 1
v -0.08660254 0.3 0.15 1 1 1
v 0.08660254 0.3 -0.15 1 1 1
v 0.0125 0.35 -0.0125 1 1 1
v 0.0125 0.02 -0.0125 1 1 1
v 0.0125 0.35 0.0125 1 1 1
v 0.0125 0.02 0.0125 1 1 1
v -0.0125 0.02 -0.0125 1 1 1
v -0.0125 0.35 -0.0125 1 1 1
v -0.0125 0.02 0.0125 1 1 1
v -0.0125 0.35 0.0125 1 1 1
v 0.16 0.12 1.804779E-15 1 1 1
v 0.1131371 0.12 0.1131371 1 1 1
v 0.1131371 0.12 -0.1131371 1 1 1
v 0 0.12 -0.16 1 1 1
v 0 0.12 0.16 1 1 1
v -0.1131371 0.12 -0.1131371 1 1 1
v -0.1131371 0.12 0.1131371 1 1 1
v -0.16 0.12 1.804779E-15 1 1 1
v -0.1131371 0.1 -0.1131371 1 1 1
v -0.16 0.1 1.804779E-15 1 1 1
v 0 0.1 0.16 1 1 1
v -0.1131371 0.1 0.1131371 1 1 1
v 0 0.1 -0.16 1 1 1
v 0.1131371 0.1 -0.1131371 1 1 1
v 0.16 0.1 1.804779E-15 1 1 1
v 0.1131371 0.1 0.1131371 1 1 1
v 0.08 0.02 1.624301E-15 1 1 1
v 0.05656854 0.02 0.05656854 1 1 1
v 0.05656854 0.02 -0.05656854 1 1 1
v 7.219114E-16 0.02 -0.08 1 1 1
v 7.219114E-16 0.02 0.08 1 1 1
v -0.05656854 0.02 -0.05656854 1 1 1
v -0.05656854 0.02 0.05656854 1 1 1
v -0.08 0.02 1.624301E-15 1 1 1
v -0.05656854 0 -0.05656854 1 1 1
v -0.08 0 1.624301E-15 1 1 1
v 7.219114E-16 0 0.08 1 1 1
v -0.05656854 0 0.05656854 1 1 1
v 7.219114E-16 0 -0.08 1 1 1
v 0.05656854 0 -0.05656854 1 1 1
v 0.08 0 1.624301E-15 1 1 1
v 0.05656854 0 0.05656854 1 1 1

vn 0 0.8537962 -0.5206074
vn -0.4508592 0.8537962 -0.2603037
vn -0.5 0 -0.8660254
vn -0.8660254 0 -0.5
vn 0 0 -1
vn 0 0 1
vn 0.8660254 0 0.5
vn 0.5 0 0.8660254
vn 0 0.8537962 0.5206074
vn -0.4508592 0.8537962 0.2603037
vn 0 1 0
vn 0 -1 0
vn 0.4508592 0.8537962 -0.2603037
vn 0.4508592 0.8537962 0.2603037
vn -0.6933752 0 0.7205767
vn -1 0 0
vn -0.7230453 0 0.6908006
vn 0.6933752 0 -0.7205767
vn 1 0 0
vn 0.7230453 0 -0.6908006
vn 0.5 0 -0.8660254
vn -0.5 0 0.8660254
vn -0.7071068 0 -0.7071068
vn -0.7071068 0 0.7071068
vn 0.7071068 0 -0.7071068
vn 0.7071068 0 0.7071068
vn -0.7071068 0 -0.7071068
vn -0.7071068 0 0.7071068
vn 0.7071068 0 -0.7071068
vn 0.7071068 0 0.7071068

vt 0.09375 0.5916666
vt 0.09375 0.725
vt 0.09375 0.525
vt 0.09375 0.5583333
vt 0.21875 0.275
vt 0.21875 0.4635714
vt 0.46875 0.425
vt 0.09375 0.325
vt 0.09375 0.425

usemtl colormap

f 3/1/2 2/2/1 1/1/1
f 2/2/1 3/1/2 4/2/2
f 7/4/5 6/4/4 5/3/3
f 6/4/4 7/4/5 8/1/5
f 6/4/4 8/1/5 9/1/4
f 5/3/8 6/4/7 7/4/6
f 8/1/6 7/4/6 6/4/7
f 9/1/7 8/1/6 6/4/7
f 12/4/4 11/4/5 10/3/3
f 11/4/5 12/4/4 3/1/4
f 11/4/5 3/1/4 1/1/5
f 10/3/8 11/4/6 12/4/7
f 3/1/7 12/4/7 11/4/6
f 1/1/6 3/1/7 11/4/6
f 14/2/10 8/1/9 13/2/9
f 8/1/9 14/2/10 15/1/10
f 2/2/11 17/2/11 16/2/11
f 17/2/11 2/2/11 13/2/11
f 13/2/11 2/2/11 4/2/11
f 13/2/11 4/2/11 14/2/11
f 8/1/12 18/1/12 9/1/12
f 18/1/12 8/1/12 1/1/12
f 1/1/12 8/1/12 15/1/12
f 1/1/12 15/1/12 3/1/12
f 3/1/2 14/2/10 4/2/2
f 14/2/10 3/1/2 15/1/10
f 16/2/13 9/1/14 18/1/13
f 9/1/14 16/2/13 17/2/14
f 1/1/1 16/2/13 18/1/13
f 16/2/13 1/1/1 2/2/1
f 17/2/14 8/1/9 9/1/14
f 8/1/9 17/2/14 13/2/9
f 12/4/4 15/1/15 3/1/4
f 15/1/15 12/4/4 19/3/16
f 15/1/15 19/3/16 20/4/17
f 3/1/7 15/1/18 12/4/7
f 19/3/19 12/4/7 15/1/18
f 20/4/20 19/3/19 15/1/18
f 22/3/16 18/1/15 21/4/17
f 18/1/15 22/3/16 9/1/4
f 9/1/4 22/3/16 6/4/4
f 21/4/20 18/1/18 22/3/19
f 9/1/7 22/3/19 18/1/18
f 6/4/7 22/3/19 9/1/7
f 20/4/20 7/4/5 23/3/21
f 7/4/5 20/4/20 15/1/18
f 7/4/5 15/1/18 8/1/5
f 23/3/22 7/4/6 20/4/17
f 15/1/15 20/4/17 7/4/6
f 8/1/6 15/1/15 7/4/6
f 11/4/5 21/4/20 24/3/21
f 21/4/20 11/4/5 1/1/5
f 21/4/20 1/1/5 18/1/18
f 24/3/22 21/4/17 11/4/6
f 1/1/6 11/4/6 21/4/17
f 18/1/15 1/1/6 21/4/17
f 27/5/19 26/6/19 25/5/19
f 26/6/19 27/5/19 28/6/19
f 30/5/5 26/6/5 29/6/5
f 26/6/5 30/5/5 25/5/5
f 27/5/6 31/6/6 28/6/6
f 31/6/6 27/5/6 32/5/6
f 31/6/16 30/5/16 29/6/16
f 30/5/16 31/6/16 32/5/16
f 35/7/11 34/7/11 33/7/11
f 34/7/11 35/7/11 36/7/11
f 34/7/11 36/7/11 37/7/11
f 37/7/11 36/7/11 38/7/11
f 37/7/11 38/7/11 39/7/11
f 39/7/11 38/7/11 40/7/11
f 42/8/16 38/9/23 41/8/23
f 38/9/23 42/8/16 40/9/16
f 37/9/6 44/8/24 43/8/6
f 44/8/24 37/9/6 39/9/24
f 36/9/5 46/8/25 45/8/5
f 46/8/25 36/9/5 35/9/25
f 44/8/24 40/9/16 42/8/16
f 40/9/16 44/8/24 39/9/24
f 33/9/19 46/8/25 35/9/25
f 46/8/25 33/9/19 47/8/19
f 34/9/26 47/8/19 33/9/19
f 47/8/19 34/9/26 48/8/26
f 38/9/23 45/8/5 41/8/23
f 45/8/5 38/9/23 36/9/5
f 34/9/26 43/8/6 48/8/26
f 43/8/6 34/9/26 37/9/6
f 48/8/12 46/8/12 47/8/12
f 46/8/12 48/8/12 43/8/12
f 46/8/12 43/8/12 45/8/12
f 45/8/12 43/8/12 44/8/12
f 45/8/12 44/8/12 41/8/12
f 41/8/12 44/8/12 42/8/12
f 51/9/11 50/9/11 49/9/11
f 50/9/11 51/9/11 52/9/11
f 50/9/11 52/9/11 53/9/11
f 53/9/11 52/9/11 54/9/11
f 53/9/11 54/9/11 55/9/11
f 55/9/11 54/9/11 56/9/11
f 58/8/16 54/9/27 57/8/27
f 54/9/27 58/8/16 56/9/16
f 53/9/6 60/8/28 59/8/6
f 60/8/28 53/9/6 55/9/28
f 52/9/5 62/8/29 61/8/5
f 62/8/29 52/9/5 51/9/29
f 60/8/28 56/9/16 58/8/16
f 56/9/16 60/8/28 55/9/28
f 49/9/19 62/8/29 51/9/29
f 62/8/29 49/9/19 63/8/19
f 50/9/30 63/8/19 49/9/19
f 63/8/19 50/9/30 64/8/30
f 54/9/27 61/8/5 57/8/27
f 61/8/5 54/9/27 52/9/5
f 50/9/30 59/8/6 64/8/30
f 59/8/6 50/9/30 53/9/6
f 64/8/12 62/8/12 63/8/12
f 62/8/12 64/8/12 59/8/12
f 62/8/12 59/8/12 61/8/12
f 61/8/12 59/8/12 60/8/12
f 61/8/12 60/8/12 57/8/12
f 57/8/12 60/8/12 58/8/12

g detail-parasol-b




usemtl colormap

f 3/1/2 2/2/1 1/1/1
f 2/2/1 3/1/2 4/2/2
f 7/4/5 6/4/4 5/3/3
f 6/4/4 7/4/5 8/1/5
f 6/4/4 8/1/5 9/1/4
f 5/3/8 6/4/7 7/4/6
f 8/1/6 7/4/6 6/4/7
f 9/1/7 8/1/6 6/4/7
f 12/4/4 11/4/5 10/3/3
f 11/4/5 12/4/4 3/1/4
f 11/4/5 3/1/4 1/1/5
f 10/3/8 11/4/6 12/4/7
f 3/1/7 12/4/7 11/4/6
f 1/1/6 3/1/7 11/4/6
f 14/2/10 8/1/9 13/2/9
f 8/1/9 14/2/10 15/1/10
f 2/2/11 17/2/11 16/2/11
f 17/2/11 2/2/11 13/2/11
f 13/2/11 2/2/11 4/2/11
f 13/2/11 4/2/11 14/2/11
f 8/1/12 18/1/12 9/1/12
f 18/1/12 8/1/12 1/1/12
f 1/1/12 8/1/12 15/1/12
f 1/1/12 15/1/12 3/1/12
f 3/1/2 14/2/10 4/2/2
f 14/2/10 3/1/2 15/1/10
f 16/2/13 9/1/14 18/1/13
f 9/1/14 16/2/13 17/2/14
f 1/1/1 16/2/13 18/1/13
f 16/2/13 1/1/1 2/2/1
f 17/2/14 8/1/9 9/1/14
f 8/1/9 17/2/14 13/2/9
f 12/4/4 15/1/15 3/1/4
f 15/1/15 12/4/4 19/3/16
f 15/1/15 19/3/16 20/4/17
f 3/1/7 15/1/18 12/4/7
f 19/3/19 12/4/7 15/1/18
f 20/4/20 19/3/19 15/1/18
f 22/3/16 18/1/15 21/4/17
f 18/1/15 22/3/16 9/1/4
f 9/1/4 22/3/16 6/4/4
f 21/4/20 18/1/18 22/3/19
f 9/1/7 22/3/19 18/1/18
f 6/4/7 22/3/19 9/1/7
f 20/4/20 7/4/5 23/3/21
f 7/4/5 20/4/20 15/1/18
f 7/4/5 15/1/18 8/1/5
f 23/3/22 7/4/6 20/4/17
f 15/1/15 20/4/17 7/4/6
f 8/1/6 15/1/15 7/4/6
f 11/4/5 21/4/20 24/3/21
f 21/4/20 11/4/5 1/1/5
f 21/4/20 1/1/5 18/1/18
f 24/3/22 21/4/17 11/4/6
f 1/1/6 11/4/6 21/4/17
f 18/1/15 1/1/6 21/4/17
f 27/5/19 26/6/19 25/5/19
f 26/6/19 27/5/19 28/6/19
f 30/5/5 26/6/5 29/6/5
f 26/6/5 30/5/5 25/5/5
f 27/5/6 31/6/6 28/6/6
f 31/6/6 27/5/6 32/5/6
f 31/6/16 30/5/16 29/6/16
f 30/5/16 31/6/16 32/5/16
f 35/7/11 34/7/11 33/7/11
f 34/7/11 35/7/11 36/7/11
f 34/7/11 36/7/11 37/7/11
f 37/7/11 36/7/11 38/7/11
f 37/7/11 38/7/11 39/7/11
f 39/7/11 38/7/11 40/7/11
f 42/8/16 38/9/23 41/8/23
f 38/9/23 42/8/16 40/9/16
f 37/9/6 44/8/24 43/8/6
f 44/8/24 37/9/6 39/9/24
f 36/9/5 46/8/25 45/8/5
f 46/8/25 36/9/5 35/9/25
f 44/8/24 40/9/16 42/8/16
f 40/9/16 44/8/24 39/9/24
f 33/9/19 46/8/25 35/9/25
f 46/8/25 33/9/19 47/8/19
f 34/9/26 47/8/19 33/9/19
f 47/8/19 34/9/26 48/8/26
f 38/9/23 45/8/5 41/8/23
f 45/8/5 38/9/23 36/9/5
f 34/9/26 43/8/6 48/8/26
f 43/8/6 34/9/26 37/9/6
f 48/8/12 46/8/12 47/8/12
f 46/8/12 48/8/12 43/8/12
f 46/8/12 43/8/12 45/8/12
f 45/8/12 43/8/12 44/8/12
f 45/8/12 44/8/12 41/8/12
f 41/8/12 44/8/12 42/8/12
f 51/9/11 50/9/11 49/9/11
f 50/9/11 51/9/11 52/9/11
f 50/9/11 52/9/11 53/9/11
f 53/9/11 52/9/11 54/9/11
f 53/9/11 54/9/11 55/9/11
f 55/9/11 54/9/11 56/9/11
f 58/8/16 54/9/27 57/8/27
f 54/9/27 58/8/16 56/9/16
f 53/9/6 60/8/28 59/8/6
f 60/8/28 53/9/6 55/9/28
f 52/9/5 62/8/29 61/8/5
f 62/8/29 52/9/5 51/9/29
f 60/8/28 56/9/16 58/8/16
f 56/9/16 60/8/28 55/9/28
f 49/9/19 62/8/29 51/9/29
f 62/8/29 49/9/19 63/8/19
f 50/9/30 63/8/19 49/9/19
f 63/8/19 50/9/30 64/8/30
f 54/9/27 61/8/5 57/8/27
f 61/8/5 54/9/27 52/9/5
f 50/9/30 59/8/6 64/8/30
f 59/8/6 50/9/30 53/9/6
f 64/8/12 62/8/12 63/8/12
f 62/8/12 64/8/12 59/8/12
f 62/8/12 59/8/12 61/8/12
f 61/8/12 59/8/12 60/8/12
f 61/8/12 60/8/12 57/8/12
f 57/8/12 60/8/12 58/8/12

