# Created by Kenney (www.kenney.nl)

mtllib low-detail-building-wide-a.mtl

g low-detail-building-wide-a

v 0.45 0 -0.2 1 1 1
v 0.45 0 0.2 1 1 1
v -0.45 0 -0.2 1 1 1
v -0.45 0 0.2 1 1 1
v -0.45 0.1 0.2 1 1 1
v 0.45 0.1 0.2 1 1 1
v -0.45 0.1 -0.2 1 1 1
v 0.45 0.1 -0.2 1 1 1
v 0.4 0.2 0.25 1 1 1
v 0.4 0.2 0.2 1 1 1
v -0.4 0.2 0.25 1 1 1
v -0.4 0.2 0.2 1 1 1
v -0.4 0.9 0.25 1 1 1
v -0.4 0.9 0.2 1 1 1
v 0.4 0.9 0.25 1 1 1
v 0.4 0.9 0.2 1 1 1
v 0.45 0.2 0.15 1 1 1
v 0.45 0.9 0.15 1 1 1
v 0.5 0.2 0.15 1 1 1
v 0.5 0.9 0.15 1 1 1
v 0.5 0.2 -0.15 1 1 1
v 0.45 0.2 -0.15 1 1 1
v 0.45 0.9 -0.15 1 1 1
v 0.5 0.9 -0.15 1 1 1
v 0.4 0.2 -0.2 1 1 1
v 0.4 0.9 -0.2 1 1 1
v 0.4 0.2 -0.25 1 1 1
v 0.4 0.9 -0.25 1 1 1
v -0.4 0.2 -0.2 1 1 1
v -0.4 0.2 -0.25 1 1 1
v -0.4 0.9 -0.2 1 1 1
v -0.4 0.9 -0.25 1 1 1
v -0.45 0.2 -0.15 1 1 1
v -0.45 0.9 -0.15 1 1 1
v -0.5 0.2 -0.15 1 1 1
v -0.5 0.9 -0.15 1 1 1
v -0.45 0.2 0.15 1 1 1
v -0.5 0.2 0.15 1 1 1
v -0.45 0.9 0.15 1 1 1
v -0.5 0.9 0.15 1 1 1
v 0.5 0.1 0.23 1 1 1
v 0.48 0.1 0.25 1 1 1
v 0.5 0.1 -0.23 1 1 1
v 0.48 0.1 -0.25 1 1 1
v -0.48 0.1 -0.25 1 1 1
v -0.48 0.1 0.25 1 1 1
v -0.5 0.1 -0.23 1 1 1
v -0.5 0.1 0.23 1 1 1
v 0.5 1 0.23 1 1 1
v 0.5 1 -0.23 1 1 1
v 0.48 1 0.25 1 1 1
v 0.48 1 -0.25 1 1 1
v -0.48 1 0.25 1 1 1
v -0.48 1 -0.25 1 1 1
v -0.5 1 0.23 1 1 1
v -0.5 1 -0.23 1 1 1
v -0.3 1.1 0.05 1 1 1
v -0.3 1.05 0.05 1 1 1
v -0.3 1.1 -0.05 1 1 1
v -0.3 1.05 -0.05 1 1 1
v 0.3 1.05 0.05 1 1 1
v 0.3 1.1 0.05 1 1 1
v 0.3 1.05 -0.05 1 1 1
v 0.3 1.1 -0.05 1 1 1
v -0.45 1.05 -0.2 1 1 1
v 0.45 1.05 -0.2 1 1 1
v -0.45 1.1 -0.2 1 1 1
v 0.45 1.1 -0.2 1 1 1
v 0.45 1.05 0.2 1 1 1
v 0.45 1.1 0.2 1 1 1
v -0.45 1.05 0.2 1 1 1
v -0.45 1.1 0.2 1 1 1
v 0.5 1.1 0.23 1 1 1
v 0.5 1.1 -0.23 1 1 1
v 0.48 1.1 0.25 1 1 1
v 0.48 1.1 -0.25 1 1 1
v -0.48 1.1 0.25 1 1 1
v -0.48 1.1 -0.25 1 1 1
v -0.5 1.1 0.23 1 1 1
v -0.5 1.1 -0.23 1 1 1

vn 0 -1 0
vn 0 0 1
vn -1 0 0
vn 0 0 -1
vn 1 0 0
vn 0 1 0
vn -0.9238795 0 -0.3826834
vn -0.9238795 0 0.3826834
vn -0.3826834 0 -0.9238795
vn -0.3826834 0 0.9238795
vn 0.3826834 0 0.9238795
vn 0.9238795 0 0.3826834
vn 0.9238795 0 -0.3826834
vn 0.3826834 0 -0.9238795

vt 0.46875 0.325
vt 0.46875 0.335
vt 0.46875 0.345
vt 0.46875 0.415
vt 0.46875 0.425
vt 0.46875 0.375
vt 0.09375 0.345
vt 0.09375 0.415
vt 0.09375 0.375

usemtl colormap

f 52/5/14 32/4/4 54/5/9
f 32/4/4 30/3/4 54/5/9
f 54/5/9 30/3/4 45/2/9
f 32/4/4 52/5/14 28/4/4
f 27/3/4 45/2/9 30/3/4
f 28/4/4 52/5/14 27/3/4
f 45/2/9 27/3/4 44/2/14
f 52/5/14 44/2/14 27/3/4
f 44/2/14 52/5/14 43/2/13
f 50/5/13 43/2/13 52/5/14
f 50/5/13 21/3/5 43/2/13
f 21/3/5 19/3/5 43/2/13
f 21/3/5 50/5/13 24/4/5
f 43/2/13 19/3/5 41/2/12
f 24/4/5 50/5/13 20/4/5
f 20/4/5 41/2/12 19/3/5
f 50/5/13 49/5/12 20/4/5
f 41/2/12 20/4/5 49/5/12
f 49/5/12 51/5/11 41/2/12
f 42/2/11 41/2/12 51/5/11
f 51/5/11 9/3/2 42/2/11
f 15/4/2 9/3/2 51/5/11
f 11/3/2 42/2/11 9/3/2
f 53/5/10 15/4/2 51/5/11
f 15/4/2 53/5/10 13/4/2
f 13/4/2 53/5/10 11/3/2
f 42/2/11 11/3/2 46/2/10
f 53/5/10 46/2/10 11/3/2
f 45/2/9 47/2/7 54/5/9
f 53/5/10 55/5/8 46/2/10
f 48/2/8 46/2/10 55/5/8
f 55/5/8 38/3/3 48/2/8
f 47/2/7 48/2/8 38/3/3
f 56/5/7 54/5/9 47/2/7
f 35/3/3 47/2/7 38/3/3
f 47/2/7 35/3/3 56/5/7
f 40/4/3 38/3/3 55/5/8
f 55/5/8 56/5/7 40/4/3
f 35/3/3 36/4/3 56/5/7
f 36/4/3 40/4/3 56/5/7
f 56/5/6 55/5/6 54/5/6
f 55/5/6 53/5/6 54/5/6
f 54/5/6 53/5/6 52/5/6
f 53/5/6 51/5/6 52/5/6
f 52/5/6 51/5/6 50/5/6
f 49/5/6 50/5/6 51/5/6
f 48/2/1 47/2/1 46/2/1
f 47/2/1 45/2/1 46/2/1
f 45/2/1 5/2/1 46/2/1
f 5/2/1 6/2/1 46/2/1
f 5/2/1 45/2/1 7/2/1
f 46/2/1 6/2/1 42/2/1
f 7/2/1 45/2/1 8/2/1
f 8/2/1 42/2/1 6/2/1
f 45/2/1 44/2/1 8/2/1
f 8/2/1 44/2/1 42/2/1
f 44/2/1 43/2/1 42/2/1
f 41/2/1 42/2/1 43/2/1
f 31/4/1 32/4/1 26/4/1
f 28/4/1 26/4/1 32/4/1
f 18/4/1 23/4/1 20/4/1
f 24/4/1 20/4/1 23/4/1
f 36/4/1 34/4/1 40/4/1
f 39/4/1 40/4/1 34/4/1
f 13/4/1 14/4/1 15/4/1
f 16/4/1 15/4/1 14/4/1
f 35/3/6 38/3/6 33/3/6
f 37/3/6 33/3/6 38/3/6
f 40/4/4 39/4/4 38/3/4
f 37/3/4 38/3/4 39/4/4
f 36/4/2 35/3/2 34/4/2
f 33/3/2 34/4/2 35/3/2
f 32/4/5 31/4/5 30/3/5
f 29/3/5 30/3/5 31/4/5
f 30/3/6 29/3/6 27/3/6
f 25/3/6 27/3/6 29/3/6
f 28/4/3 27/3/3 26/4/3
f 25/3/3 26/4/3 27/3/3
f 24/4/2 23/4/2 21/3/2
f 22/3/2 21/3/2 23/4/2
f 17/3/6 19/3/6 22/3/6
f 21/3/6 22/3/6 19/3/6
f 20/4/4 19/3/4 18/4/4
f 17/3/4 18/4/4 19/3/4
f 16/4/3 10/3/3 15/4/3
f 9/3/3 15/4/3 10/3/3
f 12/3/5 14/4/5 11/3/5
f 13/4/5 11/3/5 14/4/5
f 12/3/6 11/3/6 10/3/6
f 9/3/6 10/3/6 11/3/6
f 1/1/5 8/2/5 2/1/5
f 6/2/5 2/1/5 8/2/5
f 7/2/4 8/2/4 3/1/4
f 1/1/4 3/1/4 8/2/4
f 7/2/3 3/1/3 5/2/3
f 4/1/3 5/2/3 3/1/3
f 6/2/2 5/2/2 2/1/2
f 4/1/2 2/1/2 5/2/2
f 4/1/1 3/1/1 2/1/1
f 1/1/1 2/1/1 3/1/1
f 59/5/3 58/1/3 57/5/3
f 58/1/3 59/5/3 60/1/3
f 62/5/2 58/1/2 61/1/2
f 58/1/2 62/5/2 57/5/2
f 59/5/4 63/1/4 60/1/4
f 63/1/4 59/5/4 64/5/4
f 63/1/5 62/5/5 61/1/5
f 62/5/5 63/1/5 64/5/5
f 62/5/6 59/5/6 57/5/6
f 59/5/6 62/5/6 64/5/6
f 55/1/8 79/5/8 56/1/7
f 55/1/8 53/1/10 79/5/8
f 80/5/7 56/1/7 79/5/8
f 77/5/10 79/5/8 53/1/10
f 80/5/7 78/5/9 56/1/7
f 54/1/9 56/1/7 78/5/9
f 53/1/10 51/1/11 77/5/10
f 75/5/11 77/5/10 51/1/11
f 78/5/9 76/5/14 54/1/9
f 51/1/11 49/1/12 75/5/11
f 52/1/14 54/1/9 76/5/14
f 73/5/12 75/5/11 49/1/12
f 76/5/14 74/5/13 52/1/14
f 73/5/12 49/1/12 74/5/13
f 50/1/13 52/1/14 74/5/13
f 50/1/13 74/5/13 49/1/12
f 80/5/6 79/5/6 78/5/6
f 79/5/6 77/5/6 78/5/6
f 77/5/6 67/5/6 78/5/6
f 67/5/6 68/5/6 78/5/6
f 67/5/6 77/5/6 72/5/6
f 78/5/6 68/5/6 76/5/6
f 72/5/6 77/5/6 70/5/6
f 70/5/6 76/5/6 68/5/6
f 77/5/6 75/5/6 70/5/6
f 70/5/6 75/5/6 76/5/6
f 76/5/6 75/5/6 74/5/6
f 73/5/6 74/5/6 75/5/6
f 65/6/5 67/5/5 71/6/5
f 72/5/5 71/6/5 67/5/5
f 72/5/4 70/5/4 71/6/4
f 69/6/4 71/6/4 70/5/4
f 68/5/3 66/6/3 70/5/3
f 69/6/3 70/5/3 66/6/3
f 68/5/2 67/5/2 66/6/2
f 65/6/2 66/6/2 67/5/2
f 34/8/3 33/7/3 39/8/3
f 37/7/3 39/8/3 33/7/3
f 31/8/4 26/8/4 29/7/4
f 25/7/4 29/7/4 26/8/4
f 23/8/5 18/8/5 22/7/5
f 17/7/5 22/7/5 18/8/5
f 16/8/2 14/8/2 10/7/2
f 12/7/2 10/7/2 14/8/2
f 65/9/6 71/9/6 66/9/6
f 69/9/6 66/9/6 71/9/6

g low-detail-building-wide-a




usemtl colormap

f 52/5/14 32/4/4 54/5/9
f 32/4/4 30/3/4 54/5/9
f 54/5/9 30/3/4 45/2/9
f 32/4/4 52/5/14 28/4/4
f 27/3/4 45/2/9 30/3/4
f 28/4/4 52/5/14 27/3/4
f 45/2/9 27/3/4 44/2/14
f 52/5/14 44/2/14 27/3/4
f 44/2/14 52/5/14 43/2/13
f 50/5/13 43/2/13 52/5/14
f 50/5/13 21/3/5 43/2/13
f 21/3/5 19/3/5 43/2/13
f 21/3/5 50/5/13 24/4/5
f 43/2/13 19/3/5 41/2/12
f 24/4/5 50/5/13 20/4/5
f 20/4/5 41/2/12 19/3/5
f 50/5/13 49/5/12 20/4/5
f 41/2/12 20/4/5 49/5/12
f 49/5/12 51/5/11 41/2/12
f 42/2/11 41/2/12 51/5/11
f 51/5/11 9/3/2 42/2/11
f 15/4/2 9/3/2 51/5/11
f 11/3/2 42/2/11 9/3/2
f 53/5/10 15/4/2 51/5/11
f 15/4/2 53/5/10 13/4/2
f 13/4/2 53/5/10 11/3/2
f 42/2/11 11/3/2 46/2/10
f 53/5/10 46/2/10 11/3/2
f 45/2/9 47/2/7 54/5/9
f 53/5/10 55/5/8 46/2/10
f 48/2/8 46/2/10 55/5/8
f 55/5/8 38/3/3 48/2/8
f 47/2/7 48/2/8 38/3/3
f 56/5/7 54/5/9 47/2/7
f 35/3/3 47/2/7 38/3/3
f 47/2/7 35/3/3 56/5/7
f 40/4/3 38/3/3 55/5/8
f 55/5/8 56/5/7 40/4/3
f 35/3/3 36/4/3 56/5/7
f 36/4/3 40/4/3 56/5/7
f 56/5/6 55/5/6 54/5/6
f 55/5/6 53/5/6 54/5/6
f 54/5/6 53/5/6 52/5/6
f 53/5/6 51/5/6 52/5/6
f 52/5/6 51/5/6 50/5/6
f 49/5/6 50/5/6 51/5/6
f 48/2/1 47/2/1 46/2/1
f 47/2/1 45/2/1 46/2/1
f 45/2/1 5/2/1 46/2/1
f 5/2/1 6/2/1 46/2/1
f 5/2/1 45/2/1 7/2/1
f 46/2/1 6/2/1 42/2/1
f 7/2/1 45/2/1 8/2/1
f 8/2/1 42/2/1 6/2/1
f 45/2/1 44/2/1 8/2/1
f 8/2/1 44/2/1 42/2/1
f 44/2/1 43/2/1 42/2/1
f 41/2/1 42/2/1 43/2/1
f 31/4/1 32/4/1 26/4/1
f 28/4/1 26/4/1 32/4/1
f 18/4/1 23/4/1 20/4/1
f 24/4/1 20/4/1 23/4/1
f 36/4/1 34/4/1 40/4/1
f 39/4/1 40/4/1 34/4/1
f 13/4/1 14/4/1 15/4/1
f 16/4/1 15/4/1 14/4/1
f 35/3/6 38/3/6 33/3/6
f 37/3/6 33/3/6 38/3/6
f 40/4/4 39/4/4 38/3/4
f 37/3/4 38/3/4 39/4/4
f 36/4/2 35/3/2 34/4/2
f 33/3/2 34/4/2 35/3/2
f 32/4/5 31/4/5 30/3/5
f 29/3/5 30/3/5 31/4/5
f 30/3/6 29/3/6 27/3/6
f 25/3/6 27/3/6 29/3/6
f 28/4/3 27/3/3 26/4/3
f 25/3/3 26/4/3 27/3/3
f 24/4/2 23/4/2 21/3/2
f 22/3/2 21/3/2 23/4/2
f 17/3/6 19/3/6 22/3/6
f 21/3/6 22/3/6 19/3/6
f 20/4/4 19/3/4 18/4/4
f 17/3/4 18/4/4 19/3/4
f 16/4/3 10/3/3 15/4/3
f 9/3/3 15/4/3 10/3/3
f 12/3/5 14/4/5 11/3/5
f 13/4/5 11/3/5 14/4/5
f 12/3/6 11/3/6 10/3/6
f 9/3/6 10/3/6 11/3/6
f 1/1/5 8/2/5 2/1/5
f 6/2/5 2/1/5 8/2/5
f 7/2/4 8/2/4 3/1/4
f 1/1/4 3/1/4 8/2/4
f 7/2/3 3/1/3 5/2/3
f 4/1/3 5/2/3 3/1/3
f 6/2/2 5/2/2 2/1/2
f 4/1/2 2/1/2 5/2/2
f 4/1/1 3/1/1 2/1/1
f 1/1/1 2/1/1 3/1/1
f 59/5/3 58/1/3 57/5/3
f 58/1/3 59/5/3 60/1/3
f 62/5/2 58/1/2 61/1/2
f 58/1/2 62/5/2 57/5/2
f 59/5/4 63/1/4 60/1/4
f 63/1/4 59/5/4 64/5/4
f 63/1/5 62/5/5 61/1/5
f 62/5/5 63/1/5 64/5/5
f 62/5/6 59/5/6 57/5/6
f 59/5/6 62/5/6 64/5/6
f 55/1/8 79/5/8 56/1/7
f 55/1/8 53/1/10 79/5/8
f 80/5/7 56/1/7 79/5/8
f 77/5/10 79/5/8 53/1/10
f 80/5/7 78/5/9 56/1/7
f 54/1/9 56/1/7 78/5/9
f 53/1/10 51/1/11 77/5/10
f 75/5/11 77/5/10 51/1/11
f 78/5/9 76/5/14 54/1/9
f 51/1/11 49/1/12 75/5/11
f 52/1/14 54/1/9 76/5/14
f 73/5/12 75/5/11 49/1/12
f 76/5/14 74/5/13 52/1/14
f 73/5/12 49/1/12 74/5/13
f 50/1/13 52/1/14 74/5/13
f 50/1/13 74/5/13 49/1/12
f 80/5/6 79/5/6 78/5/6
f 79/5/6 77/5/6 78/5/6
f 77/5/6 67/5/6 78/5/6
f 67/5/6 68/5/6 78/5/6
f 67/5/6 77/5/6 72/5/6
f 78/5/6 68/5/6 76/5/6
f 72/5/6 77/5/6 70/5/6
f 70/5/6 76/5/6 68/5/6
f 77/5/6 75/5/6 70/5/6
f 70/5/6 75/5/6 76/5/6
f 76/5/6 75/5/6 74/5/6
f 73/5/6 74/5/6 75/5/6
f 65/6/5 67/5/5 71/6/5
f 72/5/5 71/6/5 67/5/5
f 72/5/4 70/5/4 71/6/4
f 69/6/4 71/6/4 70/5/4
f 68/5/3 66/6/3 70/5/3
f 69/6/3 70/5/3 66/6/3
f 68/5/2 67/5/2 66/6/2
f 65/6/2 66/6/2 67/5/2
f 34/8/3 33/7/3 39/8/3
f 37/7/3 39/8/3 33/7/3
f 31/8/4 26/8/4 29/7/4
f 25/7/4 29/7/4 26/8/4
f 23/8/5 18/8/5 22/7/5
f 17/7/5 22/7/5 18/8/5
f 16/8/2 14/8/2 10/7/2
f 12/7/2 10/7/2 14/8/2
f 65/9/6 71/9/6 66/9/6
f 69/9/6 66/9/6 71/9/6

