# Created by Kenney (www.kenney.nl)

mtllib low-detail-building-f.mtl

g low-detail-building-f

v 0.1 1.975 0.1 1 1 1
v 0.1 1.975 -0.1 1 1 1
v -0.1 1.975 0.1 1 1 1
v -0.1 1.975 -0.1 1 1 1
v 0.2 1.5 0.18 1 1 1
v 0.2 1.5 -0.18 1 1 1
v 0.18 1.5 0.2 1 1 1
v 0.18 1.5 -0.2 1 1 1
v -0.18 1.5 0.2 1 1 1
v -0.18 1.5 -0.2 1 1 1
v -0.2 1.5 0.18 1 1 1
v -0.2 1.5 -0.18 1 1 1
v 0.1 2 0.1 1 1 1
v 0.1 2 -0.1 1 1 1
v -0.1 2 0.1 1 1 1
v -0.1 2 -0.1 1 1 1
v 0.15 2 0.13 1 1 1
v 0.15 2 -0.13 1 1 1
v 0.13 2 0.15 1 1 1
v 0.13 2 -0.15 1 1 1
v -0.13 2 0.15 1 1 1
v -0.13 2 -0.15 1 1 1
v -0.15 2 0.13 1 1 1
v -0.15 2 -0.13 1 1 1
v 0.15 1.5 -0.13 1 1 1
v 0.15 1.5 0.13 1 1 1
v 0.13 1.5 -0.15 1 1 1
v -0.13 1.5 -0.15 1 1 1
v 0.13 1.5 0.15 1 1 1
v -0.15 1.5 -0.13 1 1 1
v -0.13 1.5 0.15 1 1 1
v -0.15 1.5 0.13 1 1 1
v 0.2 1 -0.18 1 1 1
v 0.2 1 0.18 1 1 1
v 0.18 1 -0.2 1 1 1
v -0.18 1 -0.2 1 1 1
v 0.18 1 0.2 1 1 1
v -0.2 1 -0.18 1 1 1
v -0.18 1 0.2 1 1 1
v -0.2 1 0.18 1 1 1
v 0.25 0 -0.23 1 1 1
v 0.25 0 0.23 1 1 1
v 0.23 0 -0.25 1 1 1
v 0.23 0 0.25 1 1 1
v -0.23 0 -0.25 1 1 1
v -0.23 0 0.25 1 1 1
v -0.25 0 -0.23 1 1 1
v -0.25 0 0.23 1 1 1
v 0.25 1 0.23 1 1 1
v 0.25 1 -0.23 1 1 1
v 0.23 1 0.25 1 1 1
v 0.23 1 -0.25 1 1 1
v -0.23 1 0.25 1 1 1
v -0.23 1 -0.25 1 1 1
v -0.25 1 0.23 1 1 1
v -0.25 1 -0.23 1 1 1

vn 0 1 0
vn -1 0 0
vn 0 0 -1
vn 1 0 0
vn 0 0 1
vn 0.9238795 0 -0.3826834
vn 0.9238795 0 0.3826834
vn 0.3826834 0 -0.9238795
vn 0.3826834 0 0.9238795
vn -0.3826834 0 -0.9238795
vn -0.3826834 0 0.9238795
vn -0.9238795 0 -0.3826834
vn -0.9238795 0 0.3826834
vn 0 -1 0
vn 0.9238796 0 -0.3826835
vn 0.9238796 0 0.3826835
vn 0.3826835 0 -0.9238796
vn 0.3826835 0 0.9238796
vn -0.3826835 0 -0.9238796
vn -0.3826835 0 0.9238796
vn -0.9238796 0 -0.3826835
vn -0.9238796 0 0.3826835

vt 0.09375 0.42
vt 0.09375 0.425
vt 0.46875 0.42
vt 0.46875 0.425
vt 0.46875 0.325

usemtl colormap

f 4/1/1 3/1/1 2/1/1
f 1/1/1 2/1/1 3/1/1
f 12/2/1 11/2/1 10/2/1
f 11/2/1 9/2/1 10/2/1
f 10/2/1 9/2/1 8/2/1
f 9/2/1 7/2/1 8/2/1
f 8/2/1 7/2/1 6/2/1
f 5/2/1 6/2/1 7/2/1
f 32/5/13 31/5/11 23/4/13
f 23/4/13 24/4/12 32/5/13
f 30/5/12 32/5/13 24/4/12
f 21/4/11 23/4/13 31/5/11
f 24/4/12 22/4/10 30/5/12
f 31/5/11 29/5/9 21/4/11
f 28/5/10 30/5/12 22/4/10
f 19/4/9 21/4/11 29/5/9
f 22/4/10 20/4/8 28/5/10
f 29/5/9 26/5/7 19/4/9
f 27/5/8 28/5/10 20/4/8
f 17/4/7 19/4/9 26/5/7
f 20/4/8 18/4/6 27/5/8
f 17/4/7 26/5/7 18/4/6
f 25/5/6 27/5/8 18/4/6
f 25/5/6 18/4/6 26/5/7
f 24/4/1 23/4/1 22/4/1
f 23/4/1 21/4/1 22/4/1
f 21/4/1 16/4/1 22/4/1
f 16/4/1 14/4/1 22/4/1
f 16/4/1 21/4/1 15/4/1
f 22/4/1 14/4/1 20/4/1
f 15/4/1 21/4/1 13/4/1
f 13/4/1 20/4/1 14/4/1
f 21/4/1 19/4/1 13/4/1
f 13/4/1 19/4/1 20/4/1
f 20/4/1 19/4/1 18/4/1
f 17/4/1 18/4/1 19/4/1
f 14/4/5 16/4/5 2/3/5
f 4/3/5 2/3/5 16/4/5
f 4/3/4 16/4/4 3/3/4
f 15/4/4 3/3/4 16/4/4
f 15/4/3 13/4/3 3/3/3
f 1/3/3 3/3/3 13/4/3
f 14/4/2 2/3/2 13/4/2
f 1/3/2 13/4/2 2/3/2
f 40/5/13 39/5/11 11/4/13
f 11/4/13 12/4/12 40/5/13
f 38/5/12 40/5/13 12/4/12
f 9/4/11 11/4/13 39/5/11
f 12/4/12 10/4/10 38/5/12
f 39/5/11 37/5/9 9/4/11
f 36/5/10 38/5/12 10/4/10
f 7/4/9 9/4/11 37/5/9
f 10/4/10 8/4/8 36/5/10
f 37/5/9 34/5/7 7/4/9
f 35/5/8 36/5/10 8/4/8
f 5/4/7 7/4/9 34/5/7
f 8/4/8 6/4/6 35/5/8
f 5/4/7 34/5/7 6/4/6
f 33/5/6 35/5/8 6/4/6
f 33/5/6 6/4/6 34/5/7
f 48/5/22 55/4/22 47/5/21
f 48/5/22 46/5/20 55/4/22
f 56/4/21 47/5/21 55/4/22
f 53/4/20 55/4/22 46/5/20
f 56/4/21 54/4/19 47/5/21
f 45/5/19 47/5/21 54/4/19
f 46/5/20 44/5/18 53/4/20
f 51/4/18 53/4/20 44/5/18
f 54/4/19 52/4/17 45/5/19
f 44/5/18 42/5/16 51/4/18
f 43/5/17 45/5/19 52/4/17
f 49/4/16 51/4/18 42/5/16
f 52/4/17 50/4/15 43/5/17
f 49/4/16 42/5/16 50/4/15
f 41/5/15 43/5/17 50/4/15
f 41/5/15 50/4/15 42/5/16
f 56/4/1 55/4/1 54/4/1
f 55/4/1 53/4/1 54/4/1
f 54/4/1 53/4/1 52/4/1
f 53/4/1 51/4/1 52/4/1
f 52/4/1 51/4/1 50/4/1
f 49/4/1 50/4/1 51/4/1
f 48/5/14 47/5/14 46/5/14
f 47/5/14 45/5/14 46/5/14
f 46/5/14 45/5/14 44/5/14
f 45/5/14 43/5/14 44/5/14
f 44/5/14 43/5/14 42/5/14
f 41/5/14 42/5/14 43/5/14

g low-detail-building-f




usemtl colormap

f 4/1/1 3/1/1 2/1/1
f 1/1/1 2/1/1 3/1/1
f 12/2/1 11/2/1 10/2/1
f 11/2/1 9/2/1 10/2/1
f 10/2/1 9/2/1 8/2/1
f 9/2/1 7/2/1 8/2/1
f 8/2/1 7/2/1 6/2/1
f 5/2/1 6/2/1 7/2/1
f 32/5/13 31/5/11 23/4/13
f 23/4/13 24/4/12 32/5/13
f 30/5/12 32/5/13 24/4/12
f 21/4/11 23/4/13 31/5/11
f 24/4/12 22/4/10 30/5/12
f 31/5/11 29/5/9 21/4/11
f 28/5/10 30/5/12 22/4/10
f 19/4/9 21/4/11 29/5/9
f 22/4/10 20/4/8 28/5/10
f 29/5/9 26/5/7 19/4/9
f 27/5/8 28/5/10 20/4/8
f 17/4/7 19/4/9 26/5/7
f 20/4/8 18/4/6 27/5/8
f 17/4/7 26/5/7 18/4/6
f 25/5/6 27/5/8 18/4/6
f 25/5/6 18/4/6 26/5/7
f 24/4/1 23/4/1 22/4/1
f 23/4/1 21/4/1 22/4/1
f 21/4/1 16/4/1 22/4/1
f 16/4/1 14/4/1 22/4/1
f 16/4/1 21/4/1 15/4/1
f 22/4/1 14/4/1 20/4/1
f 15/4/1 21/4/1 13/4/1
f 13/4/1 20/4/1 14/4/1
f 21/4/1 19/4/1 13/4/1
f 13/4/1 19/4/1 20/4/1
f 20/4/1 19/4/1 18/4/1
f 17/4/1 18/4/1 19/4/1
f 14/4/5 16/4/5 2/3/5
f 4/3/5 2/3/5 16/4/5
f 4/3/4 16/4/4 3/3/4
f 15/4/4 3/3/4 16/4/4
f 15/4/3 13/4/3 3/3/3
f 1/3/3 3/3/3 13/4/3
f 14/4/2 2/3/2 13/4/2
f 1/3/2 13/4/2 2/3/2
f 40/5/13 39/5/11 11/4/13
f 11/4/13 12/4/12 40/5/13
f 38/5/12 40/5/13 12/4/12
f 9/4/11 11/4/13 39/5/11
f 12/4/12 10/4/10 38/5/12
f 39/5/11 37/5/9 9/4/11
f 36/5/10 38/5/12 10/4/10
f 7/4/9 9/4/11 37/5/9
f 10/4/10 8/4/8 36/5/10
f 37/5/9 34/5/7 7/4/9
f 35/5/8 36/5/10 8/4/8
f 5/4/7 7/4/9 34/5/7
f 8/4/8 6/4/6 35/5/8
f 5/4/7 34/5/7 6/4/6
f 33/5/6 35/5/8 6/4/6
f 33/5/6 6/4/6 34/5/7
f 48/5/22 55/4/22 47/5/21
f 48/5/22 46/5/20 55/4/22
f 56/4/21 47/5/21 55/4/22
f 53/4/20 55/4/22 46/5/20
f 56/4/21 54/4/19 47/5/21
f 45/5/19 47/5/21 54/4/19
f 46/5/20 44/5/18 53/4/20
f 51/4/18 53/4/20 44/5/18
f 54/4/19 52/4/17 45/5/19
f 44/5/18 42/5/16 51/4/18
f 43/5/17 45/5/19 52/4/17
f 49/4/16 51/4/18 42/5/16
f 52/4/17 50/4/15 43/5/17
f 49/4/16 42/5/16 50/4/15
f 41/5/15 43/5/17 50/4/15
f 41/5/15 50/4/15 42/5/16
f 56/4/1 55/4/1 54/4/1
f 55/4/1 53/4/1 54/4/1
f 54/4/1 53/4/1 52/4/1
f 53/4/1 51/4/1 52/4/1
f 52/4/1 51/4/1 50/4/1
f 49/4/1 50/4/1 51/4/1
f 48/5/14 47/5/14 46/5/14
f 47/5/14 45/5/14 46/5/14
f 46/5/14 45/5/14 44/5/14
f 45/5/14 43/5/14 44/5/14
f 44/5/14 43/5/14 42/5/14
f 41/5/14 42/5/14 43/5/14

