# Created by Kenney (www.kenney.nl)

mtllib low-detail-building-n.mtl

g low-detail-building-n

v 0.15 0.7 -0.15 1 1 1
v -0.15 0.7 -0.15 1 1 1
v 0.2 0.65 -0.2 1 1 1
v -0.2 0.65 -0.2 1 1 1
v 0.2 0.5 -0.2 1 1 1
v -0.2 0.5 -0.2 1 1 1
v -0.1 0.65 0.1 1 1 1
v -0.1 0.7 0.1 1 1 1
v -0.1 0.65 -0.1 1 1 1
v -0.1 0.7 -0.1 1 1 1
v -0.15 0.7 0.15 1 1 1
v 0.15 0.7 0.15 1 1 1
v -0.2 0.65 0.2 1 1 1
v 0.2 0.65 0.2 1 1 1
v -0.2 0.5 0.2 1 1 1
v 0.2 0.5 0.2 1 1 1
v 0.1 0.65 0.1 1 1 1
v 0.1 0.7 0.1 1 1 1
v 0.1 0.7 -0.1 1 1 1
v 0.1 0.65 -0.1 1 1 1
v 0.25 0 -0.23 1 1 1
v 0.25 0 0.23 1 1 1
v 0.23 0 -0.25 1 1 1
v 0.23 0 0.25 1 1 1
v -0.23 0 -0.25 1 1 1
v -0.23 0 0.25 1 1 1
v -0.25 0 -0.23 1 1 1
v -0.25 0 0.23 1 1 1
v 0.25 0.5 -0.23 1 1 1
v 0.25 0.5 0.23 1 1 1
v 0.23 0.5 -0.25 1 1 1
v 0.23 0.5 0.25 1 1 1
v -0.23 0.5 -0.25 1 1 1
v -0.23 0.5 0.25 1 1 1
v -0.25 0.5 -0.23 1 1 1
v -0.25 0.5 0.23 1 1 1

vn 0 0.7071068 -0.7071068
vn 0 0.2879809 -0.9576361
vn 0 0 -1
vn 1 0 0
vn 0 0.7071068 0.7071068
vn 0 0.2879809 0.9576361
vn 0 0 1
vn 0.7071068 0.7071068 0
vn 0.9576361 0.2879809 0
vn -1 0 0
vn -0.9576361 0.2879809 0
vn -0.7071068 0.7071068 0
vn 0 1 0
vn 0 -1 0
vn 0.9238795 0 -0.3826834
vn 0.9238795 0 0.3826834
vn 0.3826834 0 -0.9238795
vn 0.3826834 0 0.9238795
vn -0.3826834 0 -0.9238795
vn -0.3826834 0 0.9238795
vn -0.9238795 0 -0.3826834
vn -0.9238795 0 0.3826834

vt 0.46875 0.425
vt 0.46875 0.4
vt 0.46875 0.325
vt 0.09375 0.4
vt 0.09375 0.425

usemtl colormap

f 3/2/2 2/1/1 1/1/1
f 2/1/1 3/2/2 4/2/2
f 5/3/3 4/2/2 3/2/2
f 4/2/2 5/3/3 6/3/3
f 9/2/4 8/1/4 7/2/4
f 8/1/4 9/2/4 10/1/4
f 13/2/6 12/1/5 11/1/5
f 12/1/5 13/2/6 14/2/6
f 15/3/7 14/2/6 13/2/6
f 14/2/6 15/3/7 16/3/7
f 14/2/9 1/1/8 12/1/8
f 1/1/8 14/2/9 3/2/9
f 14/2/9 5/3/4 3/2/9
f 5/3/4 14/2/9 16/3/4
f 8/1/3 17/2/3 7/2/3
f 17/2/3 8/1/3 18/1/3
f 19/1/10 17/2/10 18/1/10
f 17/2/10 19/1/10 20/2/10
f 19/1/7 9/2/7 20/2/7
f 9/2/7 19/1/7 10/1/7
f 15/3/10 4/2/11 6/3/10
f 4/2/11 15/3/10 13/2/11
f 11/1/12 4/2/11 13/2/11
f 4/2/11 11/1/12 2/1/12
f 8/1/13 12/1/13 18/1/13
f 18/1/13 12/1/13 19/1/13
f 8/1/13 11/1/13 12/1/13
f 1/1/13 19/1/13 12/1/13
f 11/1/13 8/1/13 2/1/13
f 1/1/13 10/1/13 19/1/13
f 2/1/13 10/1/13 1/1/13
f 10/1/13 2/1/13 8/1/13
f 28/3/22 36/1/22 27/3/21
f 28/3/22 26/3/20 36/1/22
f 35/1/21 27/3/21 36/1/22
f 34/1/20 36/1/22 26/3/20
f 35/1/21 33/1/19 27/3/21
f 25/3/19 27/3/21 33/1/19
f 26/3/20 24/3/18 34/1/20
f 32/1/18 34/1/20 24/3/18
f 33/1/19 31/1/17 25/3/19
f 24/3/18 22/3/16 32/1/18
f 23/3/17 25/3/19 31/1/17
f 30/1/16 32/1/18 22/3/16
f 31/1/17 29/1/15 23/3/17
f 30/1/16 22/3/16 29/1/15
f 21/3/15 23/3/17 29/1/15
f 21/3/15 29/1/15 22/3/16
f 28/3/14 27/3/14 26/3/14
f 27/3/14 25/3/14 26/3/14
f 26/3/14 25/3/14 24/3/14
f 25/3/14 23/3/14 24/3/14
f 24/3/14 23/3/14 22/3/14
f 21/3/14 22/3/14 23/3/14
f 17/4/13 9/4/13 7/4/13
f 9/4/13 17/4/13 20/4/13
f 35/5/13 36/5/13 33/5/13
f 36/5/13 34/5/13 33/5/13
f 33/5/13 34/5/13 31/5/13
f 34/5/13 32/5/13 31/5/13
f 31/5/13 32/5/13 29/5/13
f 30/5/13 29/5/13 32/5/13

g low-detail-building-n




usemtl colormap

f 3/2/2 2/1/1 1/1/1
f 2/1/1 3/2/2 4/2/2
f 5/3/3 4/2/2 3/2/2
f 4/2/2 5/3/3 6/3/3
f 9/2/4 8/1/4 7/2/4
f 8/1/4 9/2/4 10/1/4
f 13/2/6 12/1/5 11/1/5
f 12/1/5 13/2/6 14/2/6
f 15/3/7 14/2/6 13/2/6
f 14/2/6 15/3/7 16/3/7
f 14/2/9 1/1/8 12/1/8
f 1/1/8 14/2/9 3/2/9
f 14/2/9 5/3/4 3/2/9
f 5/3/4 14/2/9 16/3/4
f 8/1/3 17/2/3 7/2/3
f 17/2/3 8/1/3 18/1/3
f 19/1/10 17/2/10 18/1/10
f 17/2/10 19/1/10 20/2/10
f 19/1/7 9/2/7 20/2/7
f 9/2/7 19/1/7 10/1/7
f 15/3/10 4/2/11 6/3/10
f 4/2/11 15/3/10 13/2/11
f 11/1/12 4/2/11 13/2/11
f 4/2/11 11/1/12 2/1/12
f 8/1/13 12/1/13 18/1/13
f 18/1/13 12/1/13 19/1/13
f 8/1/13 11/1/13 12/1/13
f 1/1/13 19/1/13 12/1/13
f 11/1/13 8/1/13 2/1/13
f 1/1/13 10/1/13 19/1/13
f 2/1/13 10/1/13 1/1/13
f 10/1/13 2/1/13 8/1/13
f 28/3/22 36/1/22 27/3/21
f 28/3/22 26/3/20 36/1/22
f 35/1/21 27/3/21 36/1/22
f 34/1/20 36/1/22 26/3/20
f 35/1/21 33/1/19 27/3/21
f 25/3/19 27/3/21 33/1/19
f 26/3/20 24/3/18 34/1/20
f 32/1/18 34/1/20 24/3/18
f 33/1/19 31/1/17 25/3/19
f 24/3/18 22/3/16 32/1/18
f 23/3/17 25/3/19 31/1/17
f 30/1/16 32/1/18 22/3/16
f 31/1/17 29/1/15 23/3/17
f 30/1/16 22/3/16 29/1/15
f 21/3/15 23/3/17 29/1/15
f 21/3/15 29/1/15 22/3/16
f 28/3/14 27/3/14 26/3/14
f 27/3/14 25/3/14 26/3/14
f 26/3/14 25/3/14 24/3/14
f 25/3/14 23/3/14 24/3/14
f 24/3/14 23/3/14 22/3/14
f 21/3/14 22/3/14 23/3/14
f 17/4/13 9/4/13 7/4/13
f 9/4/13 17/4/13 20/4/13
f 35/5/13 36/5/13 33/5/13
f 36/5/13 34/5/13 33/5/13
f 33/5/13 34/5/13 31/5/13
f 34/5/13 32/5/13 31/5/13
f 31/5/13 32/5/13 29/5/13
f 30/5/13 29/5/13 32/5/13

