# Created by Kenney (www.kenney.nl)

mtllib low-detail-building-j.mtl

g low-detail-building-j

v 0.075 1.5 0.175 1 1 1
v 0.175 1.5 0.175 1 1 1
v 0.07499999 1.5 0.075 1 1 1
v 0.175 1.5 0.07499999 1 1 1
v 0.07499999 1.45 0.075 1 1 1
v 0.075 1.45 0.175 1 1 1
v 0.175 1.45 0.175 1 1 1
v 0.175 1.45 0.07499999 1 1 1
v -0.25 1 2.980232E-08 1 1 1
v -0.25 0.5 2.980232E-08 1 1 1
v -0.25 1 0.2300001 1 1 1
v -0.25 0.5 0.2300001 1 1 1
v -0.23 1 0.2500001 1 1 1
v -0.23 0.5 0.2500001 1 1 1
v 0.2300001 1 0.25 1 1 1
v 0.2300001 0.5 0.25 1 1 1
v 0.2500001 1 0.23 1 1 1
v 0.2500001 0.5 0.23 1 1 1
v 0.25 0.5 -0.2300001 1 1 1
v 0.25 1 -0.2300001 1 1 1
v 0.23 1 -0.2500001 1 1 1
v 0.23 0.5 -0.2500001 1 1 1
v -2.980232E-08 1 -0.25 1 1 1
v -2.980232E-08 0.5 -0.25 1 1 1
v -0.2 0.15 0.25 1 1 1
v -0.2 0.15 0.2 1 1 1
v 0.2 0.15 0.25 1 1 1
v 0.2 0.15 0.2 1 1 1
v -0.25 0.15 0.2 1 1 1
v -0.25 0.15 -0.2 1 1 1
v -0.2 0.15 -0.2 1 1 1
v 0.2 0.15 -0.2 1 1 1
v 0.25 0.15 0.2 1 1 1
v 0.25 0.15 -0.2 1 1 1
v -0.2 0.15 -0.25 1 1 1
v 0.2 0.15 -0.25 1 1 1
v -0.2 9.023893E-17 0.2 1 1 1
v -0.2 0 0.25 1 1 1
v -0.25 0 0.2 1 1 1
v -0.23 0 0.25 1 1 1
v -0.25 0 0.23 1 1 1
v -0.2 0 -0.25 1 1 1
v -0.2 9.023893E-17 -0.2 1 1 1
v -0.23 0 -0.25 1 1 1
v -0.25 0 -0.2 1 1 1
v -0.25 0 -0.23 1 1 1
v 0.2 9.023893E-17 -0.2 1 1 1
v 0.2 0 -0.25 1 1 1
v 0.25 0 -0.2 1 1 1
v 0.25 0 0.2 1 1 1
v 0.25 0 0.23 1 1 1
v 0.2 9.023893E-17 0.2 1 1 1
v 0.23 0 0.25 1 1 1
v 0.2 0 0.25 1 1 1
v -0.23 0.5 -0.25 1 1 1
v 0.23 0.5 -0.25 1 1 1
v 0.23 0 -0.25 1 1 1
v 0.25 0.5 -0.23 1 1 1
v 0.25 0 -0.23 1 1 1
v 0.25 0.5 0.23 1 1 1
v -0.25 0.5 -0.23 1 1 1
v 0.23 0.5 0.25 1 1 1
v -0.23 0.5 0.25 1 1 1
v -0.25 0.5 0.23 1 1 1
v -0.175 1.45 0.175 1 1 1
v -0.075 1.45 0.175 1 1 1
v -0.175 1.55 0.175 1 1 1
v -0.075 1.55 0.175 1 1 1
v -0.175 1.45 0.075 1 1 1
v -0.175 1.55 0.075 1 1 1
v -0.075 1.45 0.075 1 1 1
v -0.075 1.55 0.075 1 1 1
v 0.075 1.5 0.05000002 1 1 1
v 0.175 1.5 0.05 1 1 1
v 0.07499999 1.5 -0.05 1 1 1
v 0.175 1.5 -0.05000002 1 1 1
v 0.07499999 1.45 -0.05 1 1 1
v 0.075 1.45 0.05000002 1 1 1
v 0.175 1.45 0.05 1 1 1
v 0.175 1.45 -0.05000002 1 1 1
v -0.1125 1.75 0.1125 1 1 1
v -0.1125 1.75 0.1375 1 1 1
v -0.1375 1.75 0.1125 1 1 1
v -0.1375 1.75 0.1375 1 1 1
v -0.140625 1.55 0.140625 1 1 1
v -0.140625 1.55 0.109375 1 1 1
v -0.109375 1.55 0.140625 1 1 1
v -0.109375 1.55 0.109375 1 1 1
v -0.25 1.5 2.980232E-08 1 1 1
v -0.25 1.5 0.2300001 1 1 1
v -0.23 1.5 0.2500001 1 1 1
v 0.2300001 1.5 0.25 1 1 1
v 0.2500001 1.5 0.23 1 1 1
v 0.25 1.5 -0.2300001 1 1 1
v 0.23 1.5 -0.2500001 1 1 1
v -2.980232E-08 1.5 -0.25 1 1 1
v -0.2 1.45 0.2000001 1 1 1
v 0.2000001 1.45 0.2 1 1 1
v -0.2 1.45 0.0207107 1 1 1
v 0.2 1.45 -0.2000001 1 1 1
v 0.02071066 1.45 -0.2 1 1 1
v 0.2 1.5 -0.2000001 1 1 1
v 0.2000001 1.5 0.2 1 1 1
v -0.2 1.5 0.2000001 1 1 1
v -0.2 1.5 0.0207107 1 1 1
v 0.02071066 1.5 -0.2 1 1 1

vn 0 0.9999999 0
vn -1 0 1.192093E-07
vn 1.192093E-07 0 1
vn 1 0 -1.192093E-07
vn -1.192093E-07 0 -1
vn -0.9238794 0 0.3826835
vn -0.3826833 0 0.9238796
vn 0.3826835 0 0.9238794
vn 0.9238796 0 0.3826833
vn 0.9238794 0 -0.3826835
vn 0.3826833 0 -0.9238796
vn -0.7071068 0 -0.7071067
vn 0 -1 0
vn 1 0 0
vn 0 0 -1
vn 0 0 1
vn -1 0 0
vn -0.3826834 0 -0.9238795
vn -0.9238795 0 -0.3826834
vn 0.3826834 0 -0.9238795
vn 0.9238795 0 -0.3826834
vn 0.9238795 0 0.3826834
vn 0.3826834 0 0.9238795
vn -0.3826834 0 0.9238795
vn -0.9238795 0 0.3826834
vn 0 1 0
vn -0.7069342 0.02209169 0.7069342
vn -0.7069342 0.02209169 -0.7069342
vn 0.7069342 0.02209169 0.7069342
vn 0.7069342 0.02209169 -0.7069342
vn 0.7071068 0 0.7071067
vn 0 -0.9999999 0

vt 0.46875 0.425
vt 0.46875 0.325
vt 0.46875 0.355
vt 0.46875 0.415
vt 0.09375 0.325
vt 0.09375 0.355

usemtl colormap

f 4/1/5 8/2/5 3/1/5
f 5/2/5 3/1/5 8/2/5
f 4/1/4 2/1/4 8/2/4
f 7/2/4 8/2/4 2/1/4
f 7/2/3 2/1/3 6/2/3
f 1/1/3 6/2/3 2/1/3
f 1/1/2 3/1/2 6/2/2
f 5/2/2 6/2/2 3/1/2
f 4/1/1 3/1/1 2/1/1
f 1/1/1 2/1/1 3/1/1
f 23/1/12 24/2/12 9/1/12
f 10/2/12 9/1/12 24/2/12
f 24/2/5 23/1/5 22/2/11
f 21/1/11 22/2/11 23/1/5
f 22/2/11 21/1/11 19/2/10
f 20/1/10 19/2/10 21/1/11
f 20/1/10 17/1/9 19/2/10
f 18/2/9 19/2/10 17/1/9
f 18/2/9 17/1/9 16/2/8
f 15/1/8 16/2/8 17/1/9
f 16/2/8 15/1/8 14/2/7
f 13/1/7 14/2/7 15/1/8
f 14/2/7 13/1/7 12/2/6
f 11/1/6 12/2/6 13/1/7
f 12/2/6 11/1/6 10/2/2
f 9/1/2 10/2/2 11/1/6
f 48/2/13 57/2/13 47/2/13
f 47/2/13 57/2/13 49/2/13
f 59/2/13 49/2/13 57/2/13
f 61/1/26 64/1/26 55/1/26
f 64/1/26 63/1/26 55/1/26
f 55/1/26 63/1/26 56/1/26
f 63/1/26 62/1/26 56/1/26
f 56/1/26 62/1/26 58/1/26
f 60/1/26 58/1/26 62/1/26
f 45/2/17 30/3/17 46/2/19
f 46/2/19 30/3/17 61/1/19
f 30/3/17 29/3/17 61/1/19
f 61/1/19 29/3/17 64/1/25
f 29/3/17 39/2/17 64/1/25
f 41/2/25 64/1/25 39/2/17
f 41/2/25 40/2/24 64/1/25
f 63/1/24 64/1/25 40/2/24
f 40/2/24 38/2/16 63/1/24
f 25/3/16 63/1/24 38/2/16
f 27/3/16 63/1/24 25/3/16
f 63/1/24 27/3/16 62/1/23
f 54/2/16 53/2/23 27/3/16
f 62/1/23 27/3/16 53/2/23
f 53/2/23 51/2/22 62/1/23
f 60/1/22 62/1/23 51/2/22
f 33/3/14 51/2/22 50/2/14
f 51/2/22 33/3/14 60/1/22
f 61/1/19 55/1/18 46/2/19
f 58/1/21 60/1/22 33/3/14
f 34/3/14 58/1/21 33/3/14
f 49/2/14 58/1/21 34/3/14
f 59/2/21 58/1/21 49/2/14
f 59/2/21 57/2/20 58/1/21
f 56/1/20 58/1/21 57/2/20
f 57/2/20 48/2/15 56/1/20
f 36/3/15 56/1/20 48/2/15
f 35/3/15 56/1/20 36/3/15
f 56/1/20 35/3/15 55/1/18
f 44/2/18 46/2/19 55/1/18
f 55/1/18 35/3/15 44/2/18
f 42/2/15 44/2/18 35/3/15
f 28/3/17 52/2/17 27/3/17
f 54/2/17 27/3/17 52/2/17
f 28/3/15 33/3/15 52/2/15
f 50/2/15 52/2/15 33/3/15
f 54/2/13 52/2/13 53/2/13
f 53/2/13 52/2/13 51/2/13
f 50/2/13 51/2/13 52/2/13
f 32/3/16 47/2/16 34/3/16
f 49/2/16 34/3/16 47/2/16
f 36/3/17 48/2/17 32/3/17
f 47/2/17 32/3/17 48/2/17
f 42/2/14 35/3/14 43/2/14
f 31/3/14 43/2/14 35/3/14
f 31/3/16 30/3/16 43/2/16
f 45/2/16 43/2/16 30/3/16
f 46/2/13 44/2/13 45/2/13
f 45/2/13 44/2/13 43/2/13
f 42/2/13 43/2/13 44/2/13
f 26/3/15 37/2/15 29/3/15
f 39/2/15 29/3/15 37/2/15
f 37/2/14 26/3/14 38/2/14
f 25/3/14 38/2/14 26/3/14
f 41/2/13 39/2/13 40/2/13
f 40/2/13 39/2/13 38/2/13
f 37/2/13 38/2/13 39/2/13
f 36/3/13 32/3/13 35/3/13
f 31/3/13 35/3/13 32/3/13
f 34/3/13 33/3/13 32/3/13
f 28/3/13 32/3/13 33/3/13
f 31/3/13 26/3/13 30/3/13
f 29/3/13 30/3/13 26/3/13
f 28/3/13 27/3/13 26/3/13
f 25/3/13 26/3/13 27/3/13
f 70/1/26 67/1/26 72/1/26
f 68/1/26 72/1/26 67/1/26
f 71/2/14 72/1/14 66/2/14
f 68/1/14 66/2/14 72/1/14
f 70/1/15 72/1/15 69/2/15
f 71/2/15 69/2/15 72/1/15
f 70/1/17 69/2/17 67/1/17
f 65/2/17 67/1/17 69/2/17
f 68/1/16 67/1/16 66/2/16
f 65/2/16 66/2/16 67/1/16
f 76/1/5 80/2/5 75/1/5
f 77/2/5 75/1/5 80/2/5
f 76/1/4 74/1/4 80/2/4
f 79/2/4 80/2/4 74/1/4
f 79/2/3 74/1/3 78/2/3
f 73/1/3 78/2/3 74/1/3
f 73/1/2 75/1/2 78/2/2
f 77/2/2 78/2/2 75/1/2
f 76/1/1 75/1/1 74/1/1
f 73/1/1 74/1/1 75/1/1
f 83/1/26 82/1/26 81/1/26
f 82/1/26 83/1/26 84/1/26
f 83/1/28 85/2/27 84/1/27
f 85/2/27 82/1/29 84/1/27
f 85/2/27 83/1/28 86/2/28
f 82/1/29 85/2/27 87/2/29
f 83/1/28 88/2/30 86/2/28
f 87/2/29 81/1/30 82/1/29
f 81/1/30 87/2/29 88/2/30
f 88/2/30 83/1/28 81/1/30
f 21/2/32 20/2/32 23/2/32
f 23/2/32 20/2/32 9/2/32
f 9/2/32 20/2/32 11/2/32
f 20/2/32 17/2/32 11/2/32
f 11/2/32 17/2/32 13/2/32
f 15/2/32 13/2/32 17/2/32
f 94/1/1 96/1/1 102/1/1
f 102/1/1 96/1/1 106/1/1
f 102/1/1 103/1/1 94/1/1
f 95/1/1 96/1/1 94/1/1
f 96/1/1 89/1/1 106/1/1
f 94/1/1 103/1/1 93/1/1
f 106/1/1 89/1/1 105/1/1
f 105/1/1 89/1/1 104/1/1
f 104/1/1 93/1/1 103/1/1
f 89/1/1 90/1/1 104/1/1
f 104/1/1 90/1/1 93/1/1
f 90/1/1 91/1/1 93/1/1
f 92/1/1 93/1/1 91/1/1
f 100/4/3 102/1/3 101/4/3
f 106/1/3 101/4/3 102/1/3
f 101/4/31 106/1/31 99/4/31
f 105/1/31 99/4/31 106/1/31
f 105/1/4 104/1/4 99/4/4
f 97/4/4 99/4/4 104/1/4
f 103/1/5 98/4/5 104/1/5
f 97/4/5 104/1/5 98/4/5
f 103/1/2 102/1/2 98/4/2
f 100/4/2 98/4/2 102/1/2
f 101/4/1 99/4/1 100/4/1
f 100/4/1 99/4/1 98/4/1
f 97/4/1 98/4/1 99/4/1
f 96/1/12 23/2/12 89/1/12
f 9/2/12 89/1/12 23/2/12
f 23/2/5 96/1/5 21/2/11
f 95/1/11 21/2/11 96/1/5
f 21/2/11 95/1/11 20/2/10
f 94/1/10 20/2/10 95/1/11
f 94/1/10 93/1/9 20/2/10
f 17/2/9 20/2/10 93/1/9
f 17/2/9 93/1/9 15/2/8
f 92/1/8 15/2/8 93/1/9
f 15/2/8 92/1/8 13/2/7
f 91/1/7 13/2/7 92/1/8
f 13/2/7 91/1/7 11/2/6
f 90/1/6 11/2/6 91/1/7
f 11/2/6 90/1/6 9/2/2
f 89/1/2 9/2/2 90/1/6
f 47/5/14 32/6/14 52/5/14
f 28/6/14 52/5/14 32/6/14
f 31/6/15 32/6/15 43/5/15
f 47/5/15 43/5/15 32/6/15
f 28/6/16 26/6/16 52/5/16
f 37/5/16 52/5/16 26/6/16
f 31/6/17 43/5/17 26/6/17
f 37/5/17 26/6/17 43/5/17
f 37/5/13 43/5/13 52/5/13
f 47/5/13 52/5/13 43/5/13

g low-detail-building-j




usemtl colormap

f 4/1/5 8/2/5 3/1/5
f 5/2/5 3/1/5 8/2/5
f 4/1/4 2/1/4 8/2/4
f 7/2/4 8/2/4 2/1/4
f 7/2/3 2/1/3 6/2/3
f 1/1/3 6/2/3 2/1/3
f 1/1/2 3/1/2 6/2/2
f 5/2/2 6/2/2 3/1/2
f 4/1/1 3/1/1 2/1/1
f 1/1/1 2/1/1 3/1/1
f 23/1/12 24/2/12 9/1/12
f 10/2/12 9/1/12 24/2/12
f 24/2/5 23/1/5 22/2/11
f 21/1/11 22/2/11 23/1/5
f 22/2/11 21/1/11 19/2/10
f 20/1/10 19/2/10 21/1/11
f 20/1/10 17/1/9 19/2/10
f 18/2/9 19/2/10 17/1/9
f 18/2/9 17/1/9 16/2/8
f 15/1/8 16/2/8 17/1/9
f 16/2/8 15/1/8 14/2/7
f 13/1/7 14/2/7 15/1/8
f 14/2/7 13/1/7 12/2/6
f 11/1/6 12/2/6 13/1/7
f 12/2/6 11/1/6 10/2/2
f 9/1/2 10/2/2 11/1/6
f 48/2/13 57/2/13 47/2/13
f 47/2/13 57/2/13 49/2/13
f 59/2/13 49/2/13 57/2/13
f 61/1/26 64/1/26 55/1/26
f 64/1/26 63/1/26 55/1/26
f 55/1/26 63/1/26 56/1/26
f 63/1/26 62/1/26 56/1/26
f 56/1/26 62/1/26 58/1/26
f 60/1/26 58/1/26 62/1/26
f 45/2/17 30/3/17 46/2/19
f 46/2/19 30/3/17 61/1/19
f 30/3/17 29/3/17 61/1/19
f 61/1/19 29/3/17 64/1/25
f 29/3/17 39/2/17 64/1/25
f 41/2/25 64/1/25 39/2/17
f 41/2/25 40/2/24 64/1/25
f 63/1/24 64/1/25 40/2/24
f 40/2/24 38/2/16 63/1/24
f 25/3/16 63/1/24 38/2/16
f 27/3/16 63/1/24 25/3/16
f 63/1/24 27/3/16 62/1/23
f 54/2/16 53/2/23 27/3/16
f 62/1/23 27/3/16 53/2/23
f 53/2/23 51/2/22 62/1/23
f 60/1/22 62/1/23 51/2/22
f 33/3/14 51/2/22 50/2/14
f 51/2/22 33/3/14 60/1/22
f 61/1/19 55/1/18 46/2/19
f 58/1/21 60/1/22 33/3/14
f 34/3/14 58/1/21 33/3/14
f 49/2/14 58/1/21 34/3/14
f 59/2/21 58/1/21 49/2/14
f 59/2/21 57/2/20 58/1/21
f 56/1/20 58/1/21 57/2/20
f 57/2/20 48/2/15 56/1/20
f 36/3/15 56/1/20 48/2/15
f 35/3/15 56/1/20 36/3/15
f 56/1/20 35/3/15 55/1/18
f 44/2/18 46/2/19 55/1/18
f 55/1/18 35/3/15 44/2/18
f 42/2/15 44/2/18 35/3/15
f 28/3/17 52/2/17 27/3/17
f 54/2/17 27/3/17 52/2/17
f 28/3/15 33/3/15 52/2/15
f 50/2/15 52/2/15 33/3/15
f 54/2/13 52/2/13 53/2/13
f 53/2/13 52/2/13 51/2/13
f 50/2/13 51/2/13 52/2/13
f 32/3/16 47/2/16 34/3/16
f 49/2/16 34/3/16 47/2/16
f 36/3/17 48/2/17 32/3/17
f 47/2/17 32/3/17 48/2/17
f 42/2/14 35/3/14 43/2/14
f 31/3/14 43/2/14 35/3/14
f 31/3/16 30/3/16 43/2/16
f 45/2/16 43/2/16 30/3/16
f 46/2/13 44/2/13 45/2/13
f 45/2/13 44/2/13 43/2/13
f 42/2/13 43/2/13 44/2/13
f 26/3/15 37/2/15 29/3/15
f 39/2/15 29/3/15 37/2/15
f 37/2/14 26/3/14 38/2/14
f 25/3/14 38/2/14 26/3/14
f 41/2/13 39/2/13 40/2/13
f 40/2/13 39/2/13 38/2/13
f 37/2/13 38/2/13 39/2/13
f 36/3/13 32/3/13 35/3/13
f 31/3/13 35/3/13 32/3/13
f 34/3/13 33/3/13 32/3/13
f 28/3/13 32/3/13 33/3/13
f 31/3/13 26/3/13 30/3/13
f 29/3/13 30/3/13 26/3/13
f 28/3/13 27/3/13 26/3/13
f 25/3/13 26/3/13 27/3/13
f 70/1/26 67/1/26 72/1/26
f 68/1/26 72/1/26 67/1/26
f 71/2/14 72/1/14 66/2/14
f 68/1/14 66/2/14 72/1/14
f 70/1/15 72/1/15 69/2/15
f 71/2/15 69/2/15 72/1/15
f 70/1/17 69/2/17 67/1/17
f 65/2/17 67/1/17 69/2/17
f 68/1/16 67/1/16 66/2/16
f 65/2/16 66/2/16 67/1/16
f 76/1/5 80/2/5 75/1/5
f 77/2/5 75/1/5 80/2/5
f 76/1/4 74/1/4 80/2/4
f 79/2/4 80/2/4 74/1/4
f 79/2/3 74/1/3 78/2/3
f 73/1/3 78/2/3 74/1/3
f 73/1/2 75/1/2 78/2/2
f 77/2/2 78/2/2 75/1/2
f 76/1/1 75/1/1 74/1/1
f 73/1/1 74/1/1 75/1/1
f 83/1/26 82/1/26 81/1/26
f 82/1/26 83/1/26 84/1/26
f 83/1/28 85/2/27 84/1/27
f 85/2/27 82/1/29 84/1/27
f 85/2/27 83/1/28 86/2/28
f 82/1/29 85/2/27 87/2/29
f 83/1/28 88/2/30 86/2/28
f 87/2/29 81/1/30 82/1/29
f 81/1/30 87/2/29 88/2/30
f 88/2/30 83/1/28 81/1/30
f 21/2/32 20/2/32 23/2/32
f 23/2/32 20/2/32 9/2/32
f 9/2/32 20/2/32 11/2/32
f 20/2/32 17/2/32 11/2/32
f 11/2/32 17/2/32 13/2/32
f 15/2/32 13/2/32 17/2/32
f 94/1/1 96/1/1 102/1/1
f 102/1/1 96/1/1 106/1/1
f 102/1/1 103/1/1 94/1/1
f 95/1/1 96/1/1 94/1/1
f 96/1/1 89/1/1 106/1/1
f 94/1/1 103/1/1 93/1/1
f 106/1/1 89/1/1 105/1/1
f 105/1/1 89/1/1 104/1/1
f 104/1/1 93/1/1 103/1/1
f 89/1/1 90/1/1 104/1/1
f 104/1/1 90/1/1 93/1/1
f 90/1/1 91/1/1 93/1/1
f 92/1/1 93/1/1 91/1/1
f 100/4/3 102/1/3 101/4/3
f 106/1/3 101/4/3 102/1/3
f 101/4/31 106/1/31 99/4/31
f 105/1/31 99/4/31 106/1/31
f 105/1/4 104/1/4 99/4/4
f 97/4/4 99/4/4 104/1/4
f 103/1/5 98/4/5 104/1/5
f 97/4/5 104/1/5 98/4/5
f 103/1/2 102/1/2 98/4/2
f 100/4/2 98/4/2 102/1/2
f 101/4/1 99/4/1 100/4/1
f 100/4/1 99/4/1 98/4/1
f 97/4/1 98/4/1 99/4/1
f 96/1/12 23/2/12 89/1/12
f 9/2/12 89/1/12 23/2/12
f 23/2/5 96/1/5 21/2/11
f 95/1/11 21/2/11 96/1/5
f 21/2/11 95/1/11 20/2/10
f 94/1/10 20/2/10 95/1/11
f 94/1/10 93/1/9 20/2/10
f 17/2/9 20/2/10 93/1/9
f 17/2/9 93/1/9 15/2/8
f 92/1/8 15/2/8 93/1/9
f 15/2/8 92/1/8 13/2/7
f 91/1/7 13/2/7 92/1/8
f 13/2/7 91/1/7 11/2/6
f 90/1/6 11/2/6 91/1/7
f 11/2/6 90/1/6 9/2/2
f 89/1/2 9/2/2 90/1/6
f 47/5/14 32/6/14 52/5/14
f 28/6/14 52/5/14 32/6/14
f 31/6/15 32/6/15 43/5/15
f 47/5/15 43/5/15 32/6/15
f 28/6/16 26/6/16 52/5/16
f 37/5/16 52/5/16 26/6/16
f 31/6/17 43/5/17 26/6/17
f 37/5/17 26/6/17 43/5/17
f 37/5/13 43/5/13 52/5/13
f 47/5/13 52/5/13 43/5/13

