# Created by Kenney (www.kenney.nl)

mtllib low-detail-building-k.mtl

g low-detail-building-k

v -0.15 1.55 -0.05 1 1 1
v -0.15 1.55 0.15 1 1 1
v -0.05 1.55 -0.05 1 1 1
v -0.05 1.55 0.15 1 1 1
v -0.05 1.45 -0.05 1 1 1
v -0.15 1.45 -0.05 1 1 1
v -0.15 1.45 0.15 1 1 1
v -0.05 1.45 0.15 1 1 1
v -0.2 1.45 -0.2 1 1 1
v -0.2 1.5 -0.2 1 1 1
v -0.2 1.45 0.2 1 1 1
v -0.2 1.5 0.2 1 1 1
v 0.2 1.45 -0.2 1 1 1
v 0.2 1.5 -0.2 1 1 1
v 0.2 1.5 0.2 1 1 1
v 0.2 1.45 0.2 1 1 1
v 0.25 1.5 -0.23 1 1 1
v 0.23 1.5 -0.25 1 1 1
v 0.25 1.5 0.23 1 1 1
v 0.23 1.5 0.25 1 1 1
v -0.23 1.5 -0.25 1 1 1
v -0.23 1.5 0.25 1 1 1
v -0.25 1.5 0.23 1 1 1
v -0.25 1.5 -0.23 1 1 1
v -0.23 0.5 0.25 1 1 1
v 0.23 0.5 0.25 1 1 1
v -0.25 0.5 0.23 1 1 1
v 0.25 0.5 0.23 1 1 1
v 0.25 0.5 -0.23 1 1 1
v 0.23 0.5 -0.25 1 1 1
v -0.23 0.5 -0.25 1 1 1
v -0.25 0.5 -0.23 1 1 1
v -0.2 0.15 -0.2 1 1 1
v -0.2 0.15 -0.25 1 1 1
v 0.2 0.15 -0.2 1 1 1
v 0.2 0.15 -0.25 1 1 1
v -0.2 0 -0.25 1 1 1
v -0.2 0 -0.2 1 1 1
v 0.2 9.023893E-17 -0.25 1 1 1
v 0.2 9.023893E-17 -0.2 1 1 1
v -0.23 0 -0.25 1 1 1
v -0.25 0 -0.23 1 1 1
v -0.25 0 0.23 1 1 1
v -0.23 0 0.25 1 1 1
v 0.23 0 0.25 1 1 1
v 0.23 9.023893E-17 -0.25 1 1 1
v 0.25 1.842378E-18 0.23 1 1 1
v 0.25 8.843415E-17 -0.23 1 1 1

vn 0 1 0
vn 5.481726E-14 0 -1
vn -1 0 -5.481726E-14
vn -5.481726E-14 0 1
vn 1 0 5.481726E-14
vn -0.3826834 0 0.9238795
vn 0.3826834 0 0.9238795
vn -0.9238795 0 0.3826834
vn 0.9238795 0 0.3826834
vn 0.9238795 0 -0.3826834
vn 0.3826834 0 -0.9238795
vn -0.3826834 0 -0.9238795
vn -0.9238795 0 -0.3826834
vn 0 -1 0

vt 0.46875 0.425
vt 0.46875 0.325
vt 0.46875 0.415
vt 0.46875 0.355
vt 0.09375 0.415
vt 0.09375 0.325
vt 0.09375 0.355

usemtl colormap

f 4/1/5 8/2/5 3/1/5
f 5/2/5 3/1/5 8/2/5
f 4/1/4 2/1/4 8/2/4
f 7/2/4 8/2/4 2/1/4
f 7/2/3 2/1/3 6/2/3
f 1/1/3 6/2/3 2/1/3
f 1/1/2 3/1/2 6/2/2
f 5/2/2 6/2/2 3/1/2
f 4/1/1 3/1/1 2/1/1
f 1/1/1 2/1/1 3/1/1
f 24/1/13 21/1/12 32/2/13
f 24/1/13 32/2/13 23/1/8
f 31/2/12 32/2/13 21/1/12
f 27/2/8 23/1/8 32/2/13
f 21/1/12 18/1/11 31/2/12
f 30/2/11 31/2/12 18/1/11
f 18/1/11 17/1/10 30/2/11
f 29/2/10 30/2/11 17/1/10
f 17/1/10 19/1/9 29/2/10
f 28/2/9 29/2/10 19/1/9
f 19/1/9 20/1/7 28/2/9
f 26/2/7 28/2/9 20/1/7
f 23/1/8 27/2/8 22/1/6
f 20/1/7 22/1/6 26/2/7
f 25/2/6 22/1/6 27/2/8
f 25/2/6 26/2/7 22/1/6
f 24/1/1 23/1/1 21/1/1
f 22/1/1 21/1/1 23/1/1
f 12/1/1 21/1/1 22/1/1
f 20/1/1 12/1/1 22/1/1
f 12/1/1 10/1/1 21/1/1
f 18/1/1 21/1/1 10/1/1
f 15/1/1 12/1/1 20/1/1
f 14/1/1 18/1/1 10/1/1
f 14/1/1 15/1/1 20/1/1
f 20/1/1 18/1/1 14/1/1
f 19/1/1 18/1/1 20/1/1
f 17/1/1 18/1/1 19/1/1
f 12/1/2 15/1/2 11/3/2
f 16/3/2 11/3/2 15/1/2
f 16/3/3 15/1/3 13/3/3
f 14/1/3 13/3/3 15/1/3
f 14/1/4 10/1/4 13/3/4
f 9/3/4 13/3/4 10/1/4
f 12/1/5 11/3/5 10/1/5
f 9/3/5 10/1/5 11/3/5
f 48/2/14 47/2/14 46/2/14
f 47/2/14 45/2/14 46/2/14
f 46/2/14 45/2/14 39/2/14
f 39/2/14 45/2/14 40/2/14
f 40/2/14 45/2/14 38/2/14
f 45/2/14 44/2/14 38/2/14
f 38/2/14 41/2/14 37/2/14
f 38/2/14 44/2/14 41/2/14
f 41/2/14 44/2/14 42/2/14
f 43/2/14 42/2/14 44/2/14
f 48/2/10 29/1/10 47/2/9
f 48/2/10 46/2/11 29/1/10
f 28/1/9 47/2/9 29/1/10
f 30/1/11 29/1/10 46/2/11
f 28/1/9 26/1/7 47/2/9
f 45/2/7 47/2/9 26/1/7
f 46/2/11 39/2/2 30/1/11
f 36/4/2 30/1/11 39/2/2
f 34/4/2 30/1/11 36/4/2
f 26/1/7 25/1/6 45/2/7
f 44/2/6 45/2/7 25/1/6
f 25/1/6 27/1/8 44/2/6
f 43/2/8 44/2/6 27/1/8
f 43/2/8 27/1/8 42/2/13
f 32/1/13 42/2/13 27/1/8
f 30/1/11 34/4/2 31/1/12
f 32/1/13 31/1/12 42/2/13
f 41/2/12 42/2/13 31/1/12
f 31/1/12 34/4/2 41/2/12
f 37/2/2 41/2/12 34/4/2
f 40/2/3 35/4/3 39/2/3
f 36/4/3 39/2/3 35/4/3
f 33/4/5 38/2/5 34/4/5
f 37/2/5 34/4/5 38/2/5
f 36/4/14 35/4/14 34/4/14
f 33/4/14 34/4/14 35/4/14
f 13/5/1 9/5/1 16/5/1
f 11/5/1 16/5/1 9/5/1
f 35/7/2 40/6/2 33/7/2
f 38/6/2 33/7/2 40/6/2

g low-detail-building-k




usemtl colormap

f 4/1/5 8/2/5 3/1/5
f 5/2/5 3/1/5 8/2/5
f 4/1/4 2/1/4 8/2/4
f 7/2/4 8/2/4 2/1/4
f 7/2/3 2/1/3 6/2/3
f 1/1/3 6/2/3 2/1/3
f 1/1/2 3/1/2 6/2/2
f 5/2/2 6/2/2 3/1/2
f 4/1/1 3/1/1 2/1/1
f 1/1/1 2/1/1 3/1/1
f 24/1/13 21/1/12 32/2/13
f 24/1/13 32/2/13 23/1/8
f 31/2/12 32/2/13 21/1/12
f 27/2/8 23/1/8 32/2/13
f 21/1/12 18/1/11 31/2/12
f 30/2/11 31/2/12 18/1/11
f 18/1/11 17/1/10 30/2/11
f 29/2/10 30/2/11 17/1/10
f 17/1/10 19/1/9 29/2/10
f 28/2/9 29/2/10 19/1/9
f 19/1/9 20/1/7 28/2/9
f 26/2/7 28/2/9 20/1/7
f 23/1/8 27/2/8 22/1/6
f 20/1/7 22/1/6 26/2/7
f 25/2/6 22/1/6 27/2/8
f 25/2/6 26/2/7 22/1/6
f 24/1/1 23/1/1 21/1/1
f 22/1/1 21/1/1 23/1/1
f 12/1/1 21/1/1 22/1/1
f 20/1/1 12/1/1 22/1/1
f 12/1/1 10/1/1 21/1/1
f 18/1/1 21/1/1 10/1/1
f 15/1/1 12/1/1 20/1/1
f 14/1/1 18/1/1 10/1/1
f 14/1/1 15/1/1 20/1/1
f 20/1/1 18/1/1 14/1/1
f 19/1/1 18/1/1 20/1/1
f 17/1/1 18/1/1 19/1/1
f 12/1/2 15/1/2 11/3/2
f 16/3/2 11/3/2 15/1/2
f 16/3/3 15/1/3 13/3/3
f 14/1/3 13/3/3 15/1/3
f 14/1/4 10/1/4 13/3/4
f 9/3/4 13/3/4 10/1/4
f 12/1/5 11/3/5 10/1/5
f 9/3/5 10/1/5 11/3/5
f 48/2/14 47/2/14 46/2/14
f 47/2/14 45/2/14 46/2/14
f 46/2/14 45/2/14 39/2/14
f 39/2/14 45/2/14 40/2/14
f 40/2/14 45/2/14 38/2/14
f 45/2/14 44/2/14 38/2/14
f 38/2/14 41/2/14 37/2/14
f 38/2/14 44/2/14 41/2/14
f 41/2/14 44/2/14 42/2/14
f 43/2/14 42/2/14 44/2/14
f 48/2/10 29/1/10 47/2/9
f 48/2/10 46/2/11 29/1/10
f 28/1/9 47/2/9 29/1/10
f 30/1/11 29/1/10 46/2/11
f 28/1/9 26/1/7 47/2/9
f 45/2/7 47/2/9 26/1/7
f 46/2/11 39/2/2 30/1/11
f 36/4/2 30/1/11 39/2/2
f 34/4/2 30/1/11 36/4/2
f 26/1/7 25/1/6 45/2/7
f 44/2/6 45/2/7 25/1/6
f 25/1/6 27/1/8 44/2/6
f 43/2/8 44/2/6 27/1/8
f 43/2/8 27/1/8 42/2/13
f 32/1/13 42/2/13 27/1/8
f 30/1/11 34/4/2 31/1/12
f 32/1/13 31/1/12 42/2/13
f 41/2/12 42/2/13 31/1/12
f 31/1/12 34/4/2 41/2/12
f 37/2/2 41/2/12 34/4/2
f 40/2/3 35/4/3 39/2/3
f 36/4/3 39/2/3 35/4/3
f 33/4/5 38/2/5 34/4/5
f 37/2/5 34/4/5 38/2/5
f 36/4/14 35/4/14 34/4/14
f 33/4/14 34/4/14 35/4/14
f 13/5/1 9/5/1 16/5/1
f 11/5/1 16/5/1 9/5/1
f 35/7/2 40/6/2 33/7/2
f 38/6/2 33/7/2 40/6/2

