# Created by Kenney (www.kenney.nl)

mtllib low-detail-building-i.mtl

g low-detail-building-i

v -0.125 0.5 -0.25 1 1 1
v -0.125 1.804779E-16 -0.25 1 1 1
v -0.23 0.5 -0.25 1 1 1
v -0.23 3.699796E-17 -0.25 1 1 1
v -0.25 0.5 -0.23 1 1 1
v -0.25 0 -0.23 1 1 1
v -0.25 0.5 0.23 1 1 1
v -0.25 0 0.23 1 1 1
v -0.23 0 0.25 1 1 1
v -0.23 0.5 0.25 1 1 1
v 0.23 0 0.25 1 1 1
v 0.23 0.5 0.25 1 1 1
v 0.25 0 0.23 1 1 1
v 0.25 0.5 0.23 1 1 1
v 0.25 0 -0.23 1 1 1
v 0.25 0.5 -0.23 1 1 1
v 0.23 3.699796E-17 -0.25 1 1 1
v 0.23 0.5 -0.25 1 1 1
v 0.125 1.804779E-16 -0.25 1 1 1
v 0.125 0.5 -0.25 1 1 1
v -0.125 0.5 -0.2 1 1 1
v -0.125 1.804779E-16 -0.2 1 1 1
v 0.125 0.5 -0.2 1 1 1
v 0.125 1.804779E-16 -0.2 1 1 1
v -0.1 1.475 -0.1 1 1 1
v -0.1 1.5 -0.1 1 1 1
v -0.1 1.475 0.1 1 1 1
v -0.1 1.5 0.1 1 1 1
v 0.1 1.475 -0.1 1 1 1
v 0.1 1.5 -0.1 1 1 1
v 0.1 1.5 0.1 1 1 1
v 0.1 1.475 0.1 1 1 1
v -0.15 1 -0.13 1 1 1
v -0.13 1 -0.15 1 1 1
v -0.15 1 0.13 1 1 1
v -0.13 1 0.15 1 1 1
v 0.13 1 0.15 1 1 1
v 0.13 1 -0.15 1 1 1
v 0.15 1 0.13 1 1 1
v 0.15 1 -0.13 1 1 1
v -0.15 1.5 -0.13 1 1 1
v -0.15 1.5 0.13 1 1 1
v -0.13 1.5 -0.15 1 1 1
v -0.13 1.5 0.15 1 1 1
v 0.13 1.5 -0.15 1 1 1
v 0.13 1.5 0.15 1 1 1
v 0.15 1.5 0.13 1 1 1
v 0.15 1.5 -0.13 1 1 1
v -0.05 1.475 0.05 1 1 1
v 0.05 1.475 0.05 1 1 1
v -0.05 1.575 0.05 1 1 1
v 0.05 1.575 0.05 1 1 1
v -0.05 1.475 -0.05 1 1 1
v -0.05 1.575 -0.05 1 1 1
v 0.05 1.475 -0.05 1 1 1
v 0.05 1.575 -0.05 1 1 1
v 0.0125 1.775 -0.0125 1 1 1
v 0.0125 1.775 0.0125 1 1 1
v -0.0125 1.775 -0.0125 1 1 1
v -0.0125 1.775 0.0125 1 1 1
v -0.015625 1.575 0.015625 1 1 1
v -0.015625 1.575 -0.015625 1 1 1
v 0.015625 1.575 0.015625 1 1 1
v 0.015625 1.575 -0.015625 1 1 1
v -0.05 1 -0.2 1 1 1
v -0.05 0.5 -0.2 1 1 1
v -0.18 1 -0.2 1 1 1
v -0.18 0.5 -0.2 1 1 1
v -0.2 1 -0.18 1 1 1
v -0.2 0.5 -0.18 1 1 1
v -0.2 1 0.18 1 1 1
v -0.2 0.5 0.18 1 1 1
v -0.18 0.5 0.2 1 1 1
v -0.18 1 0.2 1 1 1
v 0.18 0.5 0.2 1 1 1
v 0.18 1 0.2 1 1 1
v 0.2 0.5 0.18 1 1 1
v 0.2 1 0.18 1 1 1
v 0.2 0.5 -0.18 1 1 1
v 0.2 1 -0.18 1 1 1
v 0.18 0.5 -0.2 1 1 1
v 0.18 1 -0.2 1 1 1
v 0.05 0.5 -0.2 1 1 1
v 0.05 1 -0.2 1 1 1
v -0.05 0.5 -0.15 1 1 1
v -0.05 1 -0.15 1 1 1
v 0.05 1 -0.15 1 1 1
v 0.05 0.5 -0.15 1 1 1

vn -4.307665E-14 0 -1
vn -0.3826834 0 -0.9238795
vn -0.9238795 0 -0.3826834
vn -0.9238795 0 0.3826834
vn -0.3826834 0 0.9238795
vn 0.3826834 0 0.9238795
vn 0.9238795 0 0.3826834
vn 0.9238795 0 -0.3826834
vn 0.3826834 0 -0.9238795
vn 1 0 -4.307665E-14
vn -1 0 4.307665E-14
vn 0 -1 0
vn 4.307665E-14 0 1
vn 0 1 0
vn 0 0 1
vn -1 0 0
vn 0 0 -1
vn 1 0 0
vn -0.7069342 0.02209169 0.7069342
vn -0.7069342 0.02209169 -0.7069342
vn 0.7069342 0.02209169 0.7069342
vn 0.7069342 0.02209169 -0.7069342

vt 0.46875 0.425
vt 0.46875 0.325
vt 0.46875 0.42
vt 0.09375 0.325
vt 0.09375 0.425
vt 0.09375 0.42

usemtl colormap

f 15/2/12 13/2/12 17/2/12
f 13/2/12 11/2/12 17/2/12
f 17/2/12 11/2/12 19/2/12
f 19/2/12 11/2/12 24/2/12
f 24/2/12 11/2/12 22/2/12
f 22/2/12 4/2/12 2/2/12
f 22/2/12 11/2/12 4/2/12
f 11/2/12 9/2/12 4/2/12
f 4/2/12 9/2/12 6/2/12
f 8/2/12 6/2/12 9/2/12
f 24/2/11 23/1/11 19/2/11
f 20/1/11 19/2/11 23/1/11
f 22/2/10 2/2/10 21/1/10
f 1/1/10 21/1/10 2/2/10
f 20/1/1 18/1/9 19/2/1
f 17/2/9 19/2/1 18/1/9
f 18/1/9 16/1/8 17/2/9
f 15/2/8 17/2/9 16/1/8
f 16/1/8 14/1/7 15/2/8
f 13/2/7 15/2/8 14/1/7
f 14/1/7 12/1/6 13/2/7
f 11/2/6 13/2/7 12/1/6
f 12/1/6 10/1/5 11/2/6
f 9/2/5 11/2/6 10/1/5
f 10/1/5 7/1/4 9/2/5
f 8/2/4 9/2/5 7/1/4
f 8/2/4 7/1/4 6/2/3
f 5/1/3 6/2/3 7/1/4
f 6/2/3 5/1/3 4/2/2
f 3/1/2 4/2/2 5/1/3
f 4/2/2 3/1/2 2/2/1
f 1/1/1 2/2/1 3/1/2
f 40/2/8 38/2/9 48/1/8
f 48/1/8 47/1/7 40/2/8
f 39/2/7 40/2/8 47/1/7
f 45/1/9 48/1/8 38/2/9
f 47/1/7 46/1/6 39/2/7
f 38/2/9 34/2/2 45/1/9
f 37/2/6 39/2/7 46/1/6
f 43/1/2 45/1/9 34/2/2
f 46/1/6 44/1/5 37/2/6
f 34/2/2 33/2/3 43/1/2
f 36/2/5 37/2/6 44/1/5
f 41/1/3 43/1/2 33/2/3
f 44/1/5 42/1/4 36/2/5
f 41/1/3 33/2/3 42/1/4
f 35/2/4 36/2/5 42/1/4
f 35/2/4 42/1/4 33/2/3
f 48/1/14 45/1/14 47/1/14
f 47/1/14 45/1/14 46/1/14
f 46/1/14 45/1/14 31/1/14
f 31/1/14 45/1/14 30/1/14
f 31/1/14 28/1/14 46/1/14
f 46/1/14 28/1/14 44/1/14
f 30/1/14 45/1/14 26/1/14
f 26/1/14 44/1/14 28/1/14
f 45/1/14 43/1/14 26/1/14
f 26/1/14 43/1/14 44/1/14
f 44/1/14 43/1/14 42/1/14
f 41/1/14 42/1/14 43/1/14
f 40/2/12 39/2/12 38/2/12
f 39/2/12 37/2/12 38/2/12
f 38/2/12 37/2/12 34/2/12
f 37/2/12 36/2/12 34/2/12
f 36/2/12 35/2/12 34/2/12
f 33/2/12 34/2/12 35/2/12
f 28/1/1 31/1/1 27/3/1
f 32/3/1 27/3/1 31/1/1
f 32/3/11 31/1/11 29/3/11
f 30/1/11 29/3/11 31/1/11
f 30/1/13 26/1/13 29/3/13
f 25/3/13 29/3/13 26/1/13
f 28/1/10 27/3/10 26/1/10
f 25/3/10 26/1/10 27/3/10
f 54/1/14 51/1/14 56/1/14
f 52/1/14 56/1/14 51/1/14
f 55/2/18 56/1/18 50/2/18
f 52/1/18 50/2/18 56/1/18
f 54/1/17 56/1/17 53/2/17
f 55/2/17 53/2/17 56/1/17
f 54/1/16 53/2/16 51/1/16
f 49/2/16 51/1/16 53/2/16
f 52/1/15 51/1/15 50/2/15
f 49/2/15 50/2/15 51/1/15
f 59/1/14 58/1/14 57/1/14
f 58/1/14 59/1/14 60/1/14
f 59/1/20 61/2/19 60/1/19
f 61/2/19 58/1/21 60/1/19
f 61/2/19 59/1/20 62/2/20
f 58/1/21 61/2/19 63/2/21
f 59/1/20 64/2/22 62/2/20
f 63/2/21 57/1/22 58/1/21
f 57/1/22 63/2/21 64/2/22
f 64/2/22 59/1/20 57/1/22
f 79/2/12 77/2/12 81/2/12
f 77/2/12 75/2/12 81/2/12
f 83/2/12 81/2/12 88/2/12
f 75/2/12 88/2/12 81/2/12
f 88/2/12 75/2/12 85/2/12
f 66/2/12 85/2/12 68/2/12
f 85/2/12 75/2/12 68/2/12
f 75/2/12 73/2/12 68/2/12
f 73/2/12 72/2/12 68/2/12
f 70/2/12 68/2/12 72/2/12
f 88/2/11 87/1/11 83/2/11
f 84/1/11 83/2/11 87/1/11
f 86/1/10 85/2/10 65/1/10
f 66/2/10 65/1/10 85/2/10
f 84/1/1 82/1/9 83/2/1
f 81/2/9 83/2/1 82/1/9
f 82/1/9 80/1/8 81/2/9
f 79/2/8 81/2/9 80/1/8
f 80/1/8 78/1/7 79/2/8
f 77/2/7 79/2/8 78/1/7
f 78/1/7 76/1/6 77/2/7
f 75/2/6 77/2/7 76/1/6
f 76/1/6 74/1/5 75/2/6
f 73/2/5 75/2/6 74/1/5
f 74/1/5 71/1/4 73/2/5
f 72/2/4 73/2/5 71/1/4
f 72/2/4 71/1/4 70/2/3
f 69/1/3 70/2/3 71/1/4
f 70/2/3 69/1/3 68/2/2
f 67/1/2 68/2/2 69/1/3
f 68/2/2 67/1/2 66/2/1
f 65/1/1 66/2/1 67/1/2
f 14/5/14 16/5/14 12/5/14
f 16/5/14 18/5/14 12/5/14
f 18/5/14 20/5/14 12/5/14
f 20/5/14 23/5/14 12/5/14
f 23/5/14 21/5/14 12/5/14
f 10/5/14 12/5/14 21/5/14
f 21/5/14 1/5/14 10/5/14
f 1/5/14 3/5/14 10/5/14
f 10/5/14 3/5/14 7/5/14
f 5/5/14 7/5/14 3/5/14
f 21/5/1 23/5/1 22/4/1
f 24/4/1 22/4/1 23/5/1
f 32/6/14 29/6/14 27/6/14
f 25/6/14 27/6/14 29/6/14
f 69/5/14 71/5/14 67/5/14
f 74/5/14 67/5/14 71/5/14
f 65/5/14 67/5/14 74/5/14
f 86/5/14 65/5/14 74/5/14
f 76/5/14 86/5/14 74/5/14
f 87/5/14 86/5/14 76/5/14
f 78/5/14 80/5/14 76/5/14
f 80/5/14 82/5/14 76/5/14
f 82/5/14 87/5/14 76/5/14
f 84/5/14 87/5/14 82/5/14
f 86/5/1 87/5/1 85/4/1
f 88/4/1 85/4/1 87/5/1

g low-detail-building-i




usemtl colormap

f 15/2/12 13/2/12 17/2/12
f 13/2/12 11/2/12 17/2/12
f 17/2/12 11/2/12 19/2/12
f 19/2/12 11/2/12 24/2/12
f 24/2/12 11/2/12 22/2/12
f 22/2/12 4/2/12 2/2/12
f 22/2/12 11/2/12 4/2/12
f 11/2/12 9/2/12 4/2/12
f 4/2/12 9/2/12 6/2/12
f 8/2/12 6/2/12 9/2/12
f 24/2/11 23/1/11 19/2/11
f 20/1/11 19/2/11 23/1/11
f 22/2/10 2/2/10 21/1/10
f 1/1/10 21/1/10 2/2/10
f 20/1/1 18/1/9 19/2/1
f 17/2/9 19/2/1 18/1/9
f 18/1/9 16/1/8 17/2/9
f 15/2/8 17/2/9 16/1/8
f 16/1/8 14/1/7 15/2/8
f 13/2/7 15/2/8 14/1/7
f 14/1/7 12/1/6 13/2/7
f 11/2/6 13/2/7 12/1/6
f 12/1/6 10/1/5 11/2/6
f 9/2/5 11/2/6 10/1/5
f 10/1/5 7/1/4 9/2/5
f 8/2/4 9/2/5 7/1/4
f 8/2/4 7/1/4 6/2/3
f 5/1/3 6/2/3 7/1/4
f 6/2/3 5/1/3 4/2/2
f 3/1/2 4/2/2 5/1/3
f 4/2/2 3/1/2 2/2/1
f 1/1/1 2/2/1 3/1/2
f 40/2/8 38/2/9 48/1/8
f 48/1/8 47/1/7 40/2/8
f 39/2/7 40/2/8 47/1/7
f 45/1/9 48/1/8 38/2/9
f 47/1/7 46/1/6 39/2/7
f 38/2/9 34/2/2 45/1/9
f 37/2/6 39/2/7 46/1/6
f 43/1/2 45/1/9 34/2/2
f 46/1/6 44/1/5 37/2/6
f 34/2/2 33/2/3 43/1/2
f 36/2/5 37/2/6 44/1/5
f 41/1/3 43/1/2 33/2/3
f 44/1/5 42/1/4 36/2/5
f 41/1/3 33/2/3 42/1/4
f 35/2/4 36/2/5 42/1/4
f 35/2/4 42/1/4 33/2/3
f 48/1/14 45/1/14 47/1/14
f 47/1/14 45/1/14 46/1/14
f 46/1/14 45/1/14 31/1/14
f 31/1/14 45/1/14 30/1/14
f 31/1/14 28/1/14 46/1/14
f 46/1/14 28/1/14 44/1/14
f 30/1/14 45/1/14 26/1/14
f 26/1/14 44/1/14 28/1/14
f 45/1/14 43/1/14 26/1/14
f 26/1/14 43/1/14 44/1/14
f 44/1/14 43/1/14 42/1/14
f 41/1/14 42/1/14 43/1/14
f 40/2/12 39/2/12 38/2/12
f 39/2/12 37/2/12 38/2/12
f 38/2/12 37/2/12 34/2/12
f 37/2/12 36/2/12 34/2/12
f 36/2/12 35/2/12 34/2/12
f 33/2/12 34/2/12 35/2/12
f 28/1/1 31/1/1 27/3/1
f 32/3/1 27/3/1 31/1/1
f 32/3/11 31/1/11 29/3/11
f 30/1/11 29/3/11 31/1/11
f 30/1/13 26/1/13 29/3/13
f 25/3/13 29/3/13 26/1/13
f 28/1/10 27/3/10 26/1/10
f 25/3/10 26/1/10 27/3/10
f 54/1/14 51/1/14 56/1/14
f 52/1/14 56/1/14 51/1/14
f 55/2/18 56/1/18 50/2/18
f 52/1/18 50/2/18 56/1/18
f 54/1/17 56/1/17 53/2/17
f 55/2/17 53/2/17 56/1/17
f 54/1/16 53/2/16 51/1/16
f 49/2/16 51/1/16 53/2/16
f 52/1/15 51/1/15 50/2/15
f 49/2/15 50/2/15 51/1/15
f 59/1/14 58/1/14 57/1/14
f 58/1/14 59/1/14 60/1/14
f 59/1/20 61/2/19 60/1/19
f 61/2/19 58/1/21 60/1/19
f 61/2/19 59/1/20 62/2/20
f 58/1/21 61/2/19 63/2/21
f 59/1/20 64/2/22 62/2/20
f 63/2/21 57/1/22 58/1/21
f 57/1/22 63/2/21 64/2/22
f 64/2/22 59/1/20 57/1/22
f 79/2/12 77/2/12 81/2/12
f 77/2/12 75/2/12 81/2/12
f 83/2/12 81/2/12 88/2/12
f 75/2/12 88/2/12 81/2/12
f 88/2/12 75/2/12 85/2/12
f 66/2/12 85/2/12 68/2/12
f 85/2/12 75/2/12 68/2/12
f 75/2/12 73/2/12 68/2/12
f 73/2/12 72/2/12 68/2/12
f 70/2/12 68/2/12 72/2/12
f 88/2/11 87/1/11 83/2/11
f 84/1/11 83/2/11 87/1/11
f 86/1/10 85/2/10 65/1/10
f 66/2/10 65/1/10 85/2/10
f 84/1/1 82/1/9 83/2/1
f 81/2/9 83/2/1 82/1/9
f 82/1/9 80/1/8 81/2/9
f 79/2/8 81/2/9 80/1/8
f 80/1/8 78/1/7 79/2/8
f 77/2/7 79/2/8 78/1/7
f 78/1/7 76/1/6 77/2/7
f 75/2/6 77/2/7 76/1/6
f 76/1/6 74/1/5 75/2/6
f 73/2/5 75/2/6 74/1/5
f 74/1/5 71/1/4 73/2/5
f 72/2/4 73/2/5 71/1/4
f 72/2/4 71/1/4 70/2/3
f 69/1/3 70/2/3 71/1/4
f 70/2/3 69/1/3 68/2/2
f 67/1/2 68/2/2 69/1/3
f 68/2/2 67/1/2 66/2/1
f 65/1/1 66/2/1 67/1/2
f 14/5/14 16/5/14 12/5/14
f 16/5/14 18/5/14 12/5/14
f 18/5/14 20/5/14 12/5/14
f 20/5/14 23/5/14 12/5/14
f 23/5/14 21/5/14 12/5/14
f 10/5/14 12/5/14 21/5/14
f 21/5/14 1/5/14 10/5/14
f 1/5/14 3/5/14 10/5/14
f 10/5/14 3/5/14 7/5/14
f 5/5/14 7/5/14 3/5/14
f 21/5/1 23/5/1 22/4/1
f 24/4/1 22/4/1 23/5/1
f 32/6/14 29/6/14 27/6/14
f 25/6/14 27/6/14 29/6/14
f 69/5/14 71/5/14 67/5/14
f 74/5/14 67/5/14 71/5/14
f 65/5/14 67/5/14 74/5/14
f 86/5/14 65/5/14 74/5/14
f 76/5/14 86/5/14 74/5/14
f 87/5/14 86/5/14 76/5/14
f 78/5/14 80/5/14 76/5/14
f 80/5/14 82/5/14 76/5/14
f 82/5/14 87/5/14 76/5/14
f 84/5/14 87/5/14 82/5/14
f 86/5/1 87/5/1 85/4/1
f 88/4/1 85/4/1 87/5/1

