# Created by Kenney (www.kenney.nl)

mtllib low-detail-building-m.mtl

g low-detail-building-m

v 0.2 0 -0.2 1 1 1
v 0.2 0 0.2 1 1 1
v -0.2 0 -0.2 1 1 1
v -0.2 0 0.2 1 1 1
v -0.2 0.1 0.2 1 1 1
v 0.2 0.1 0.2 1 1 1
v -0.2 0.1 -0.2 1 1 1
v 0.2 0.1 -0.2 1 1 1
v 0.15 0.2 0.25 1 1 1
v 0.15 0.2 0.2 1 1 1
v -0.15 0.2 0.25 1 1 1
v -0.15 0.2 0.2 1 1 1
v 0.25 0.2 -0.15 1 1 1
v 0.2 0.2 -0.15 1 1 1
v 0.25 0.2 0.15 1 1 1
v 0.2 0.2 0.15 1 1 1
v 0.15 0.2 -0.2 1 1 1
v 0.15 0.2 -0.25 1 1 1
v -0.15 0.2 -0.2 1 1 1
v -0.15 0.2 -0.25 1 1 1
v -0.2 0.2 0.15 1 1 1
v -0.2 0.2 -0.15 1 1 1
v -0.25 0.2 0.15 1 1 1
v -0.25 0.2 -0.15 1 1 1
v -0.2 0.9 0.15 1 1 1
v -0.25 0.9 0.15 1 1 1
v -0.2 0.9 -0.15 1 1 1
v -0.25 0.9 -0.15 1 1 1
v -0.15 0.9 0.25 1 1 1
v -0.15 0.9 0.2 1 1 1
v 0.15 0.9 0.25 1 1 1
v 0.15 0.9 0.2 1 1 1
v -0.15 0.9 -0.2 1 1 1
v -0.15 0.9 -0.25 1 1 1
v 0.15 0.9 -0.25 1 1 1
v 0.15 0.9 -0.2 1 1 1
v 0.2 0.9 0.15 1 1 1
v 0.25 0.9 0.15 1 1 1
v 0.25 0.9 -0.15 1 1 1
v 0.2 0.9 -0.15 1 1 1
v 0.25 1 0.23 1 1 1
v 0.25 1 -0.23 1 1 1
v 0.23 1 0.25 1 1 1
v 0.23 1 -0.25 1 1 1
v -0.23 1 0.25 1 1 1
v -0.23 1 -0.25 1 1 1
v -0.25 1 0.23 1 1 1
v -0.25 1 -0.23 1 1 1
v 0.25 0.1 -0.23 1 1 1
v 0.25 0.1 0.23 1 1 1
v 0.23 0.1 -0.25 1 1 1
v 0.23 0.1 0.25 1 1 1
v -0.23 0.1 -0.25 1 1 1
v -0.23 0.1 0.25 1 1 1
v -0.25 0.1 -0.23 1 1 1
v -0.25 0.1 0.23 1 1 1
v 0.2 1 -0.18 1 1 1
v 0.2 1.5 -0.18 1 1 1
v 0.2 1 0.18 1 1 1
v 0.18 1 -0.2 1 1 1
v 0.2 1.5 0.18 1 1 1
v 0.18 1.5 -0.2 1 1 1
v 0.18 1.5 0.2 1 1 1
v -0.18 1 -0.2 1 1 1
v 0.18 1 0.2 1 1 1
v -0.18 1.5 -0.2 1 1 1
v -0.18 1.5 0.2 1 1 1
v -0.2 1 -0.18 1 1 1
v -0.18 1 0.2 1 1 1
v -0.2 1.5 -0.18 1 1 1
v -0.2 1.5 0.18 1 1 1
v -0.2 1 0.18 1 1 1
v -0.05 1.675 0.05359998 1 1 1
v 0.05 1.675 0.05359998 1 1 1
v -0.05 1.775 0.05359998 1 1 1
v 0.05 1.775 0.05359998 1 1 1
v -0.05 1.675 -0.04640003 1 1 1
v -0.05 1.775 -0.04640003 1 1 1
v 0.05 1.675 -0.04640003 1 1 1
v 0.05 1.775 -0.04640003 1 1 1
v 0.0125 1.975 -0.008900025 1 1 1
v 0.0125 1.975 0.01609998 1 1 1
v -0.0125 1.975 -0.008900025 1 1 1
v -0.0125 1.975 0.01609998 1 1 1
v -0.015625 1.775 0.01922498 1 1 1
v -0.015625 1.775 -0.01202502 1 1 1
v 0.015625 1.775 0.01922498 1 1 1
v 0.015625 1.775 -0.01202502 1 1 1
v 0.09999999 1.675 0.09999999 1 1 1
v 0.09999999 1.7 0.09999999 1 1 1
v 0.09999999 1.675 -0.09999999 1 1 1
v 0.09999999 1.7 -0.09999999 1 1 1
v -0.09999999 1.675 0.09999999 1 1 1
v -0.09999999 1.7 0.09999999 1 1 1
v -0.09999999 1.7 -0.09999999 1 1 1
v -0.09999999 1.675 -0.09999999 1 1 1
v 0.15 1.7 0.13 1 1 1
v 0.15 1.7 -0.13 1 1 1
v 0.13 1.7 0.15 1 1 1
v 0.13 1.7 -0.15 1 1 1
v -0.13 1.7 0.15 1 1 1
v -0.13 1.7 -0.15 1 1 1
v -0.15 1.7 0.13 1 1 1
v -0.15 1.7 -0.13 1 1 1
v 0.15 1.5 -0.13 1 1 1
v 0.15 1.5 0.13 1 1 1
v 0.13 1.5 -0.15 1 1 1
v -0.13 1.5 -0.15 1 1 1
v 0.13 1.5 0.15 1 1 1
v -0.15 1.5 -0.13 1 1 1
v -0.13 1.5 0.15 1 1 1
v -0.15 1.5 0.13 1 1 1

vn 0 -1 0
vn 0 0 1
vn -1 0 0
vn 0 0 -1
vn 1 0 0
vn 0 1 0
vn 0.9238795 0 -0.3826834
vn 0.9238795 0 0.3826834
vn 0.3826834 0 -0.9238795
vn 0.3826834 0 0.9238795
vn -0.3826834 0 -0.9238795
vn -0.9238795 0 -0.3826834
vn -0.3826834 0 0.9238795
vn -0.9238795 0 0.3826834
vn -0.7069342 0.02209169 0.7069342
vn -0.7069342 0.02209169 -0.7069342
vn 0.7069342 0.02209169 0.7069342
vn 0.7069342 0.02209169 -0.7069342

vt 0.46875 0.325
vt 0.46875 0.335
vt 0.46875 0.345
vt 0.46875 0.415
vt 0.46875 0.425
vt 0.46875 0.4125
vt 0.09375 0.345
vt 0.09375 0.415
vt 0.09375 0.425
vt 0.09375 0.4125

usemtl colormap

f 48/5/12 55/2/12 24/3/3
f 24/3/3 28/4/3 48/5/12
f 24/3/3 55/2/12 23/3/3
f 28/4/3 26/4/3 48/5/12
f 55/2/12 56/2/14 23/3/3
f 26/4/3 23/3/3 56/2/14
f 48/5/12 26/4/3 47/5/14
f 56/2/14 47/5/14 26/4/3
f 56/2/14 54/2/13 47/5/14
f 45/5/13 47/5/14 54/2/13
f 45/5/13 54/2/13 11/3/2
f 52/2/10 11/3/2 54/2/13
f 29/4/2 45/5/13 11/3/2
f 31/4/2 45/5/13 29/4/2
f 45/5/13 31/4/2 43/5/10
f 11/3/2 52/2/10 9/3/2
f 31/4/2 9/3/2 43/5/10
f 43/5/10 9/3/2 52/2/10
f 48/5/12 46/5/11 55/2/12
f 53/2/11 55/2/12 46/5/11
f 46/5/11 20/3/4 53/2/11
f 34/4/4 20/3/4 46/5/11
f 18/3/4 53/2/11 20/3/4
f 44/5/9 34/4/4 46/5/11
f 34/4/4 44/5/9 35/4/4
f 35/4/4 44/5/9 18/3/4
f 53/2/11 18/3/4 51/2/9
f 44/5/9 51/2/9 18/3/4
f 52/2/10 50/2/8 43/5/10
f 44/5/9 42/5/7 51/2/9
f 41/5/8 43/5/10 50/2/8
f 50/2/8 38/4/5 41/5/8
f 42/5/7 41/5/8 38/4/5
f 49/2/7 51/2/9 42/5/7
f 38/4/5 50/2/8 15/3/5
f 49/2/7 15/3/5 50/2/8
f 13/3/5 15/3/5 49/2/7
f 42/5/7 13/3/5 49/2/7
f 13/3/5 42/5/7 39/4/5
f 39/4/5 42/5/7 38/4/5
f 56/2/1 55/2/1 54/2/1
f 55/2/1 53/2/1 54/2/1
f 53/2/1 5/2/1 54/2/1
f 5/2/1 6/2/1 54/2/1
f 5/2/1 53/2/1 7/2/1
f 54/2/1 6/2/1 52/2/1
f 7/2/1 53/2/1 8/2/1
f 8/2/1 52/2/1 6/2/1
f 53/2/1 51/2/1 8/2/1
f 8/2/1 51/2/1 52/2/1
f 52/2/1 51/2/1 50/2/1
f 49/2/1 50/2/1 51/2/1
f 48/5/6 47/5/6 46/5/6
f 47/5/6 45/5/6 46/5/6
f 46/5/6 45/5/6 44/5/6
f 45/5/6 43/5/6 44/5/6
f 44/5/6 43/5/6 42/5/6
f 41/5/6 42/5/6 43/5/6
f 29/4/1 30/4/1 31/4/1
f 32/4/1 31/4/1 30/4/1
f 39/4/2 40/4/2 13/3/2
f 14/3/2 13/3/2 40/4/2
f 37/4/1 40/4/1 38/4/1
f 39/4/1 38/4/1 40/4/1
f 38/4/4 15/3/4 37/4/4
f 16/3/4 37/4/4 15/3/4
f 35/4/3 18/3/3 36/4/3
f 17/3/3 36/4/3 18/3/3
f 28/4/1 27/4/1 26/4/1
f 25/4/1 26/4/1 27/4/1
f 33/4/1 34/4/1 36/4/1
f 35/4/1 36/4/1 34/4/1
f 34/4/5 33/4/5 20/3/5
f 19/3/5 20/3/5 33/4/5
f 10/3/3 9/3/3 32/4/3
f 31/4/3 32/4/3 9/3/3
f 12/3/5 30/4/5 11/3/5
f 29/4/5 11/3/5 30/4/5
f 28/4/2 24/3/2 27/4/2
f 22/3/2 27/4/2 24/3/2
f 26/4/4 25/4/4 23/3/4
f 21/3/4 23/3/4 25/4/4
f 24/3/6 23/3/6 22/3/6
f 21/3/6 22/3/6 23/3/6
f 20/3/6 19/3/6 18/3/6
f 17/3/6 18/3/6 19/3/6
f 16/3/6 15/3/6 14/3/6
f 13/3/6 14/3/6 15/3/6
f 12/3/6 11/3/6 10/3/6
f 9/3/6 10/3/6 11/3/6
f 1/1/5 8/2/5 2/1/5
f 6/2/5 2/1/5 8/2/5
f 7/2/4 8/2/4 3/1/4
f 1/1/4 3/1/4 8/2/4
f 7/2/3 3/1/3 5/2/3
f 4/1/3 5/2/3 3/1/3
f 6/2/2 5/2/2 2/1/2
f 4/1/2 2/1/2 5/2/2
f 4/1/1 3/1/1 2/1/1
f 1/1/1 2/1/1 3/1/1
f 72/1/14 69/1/13 71/5/14
f 71/5/14 70/5/12 72/1/14
f 68/1/12 72/1/14 70/5/12
f 67/5/13 71/5/14 69/1/13
f 70/5/12 66/5/11 68/1/12
f 69/1/13 65/1/10 67/5/13
f 64/1/11 68/1/12 66/5/11
f 63/5/10 67/5/13 65/1/10
f 66/5/11 62/5/9 64/1/11
f 65/1/10 59/1/8 63/5/10
f 60/1/9 64/1/11 62/5/9
f 61/5/8 63/5/10 59/1/8
f 62/5/9 58/5/7 60/1/9
f 61/5/8 59/1/8 58/5/7
f 57/1/7 60/1/9 58/5/7
f 57/1/7 58/5/7 59/1/8
f 78/5/6 75/5/6 80/5/6
f 76/5/6 80/5/6 75/5/6
f 79/1/5 80/5/5 74/1/5
f 76/5/5 74/1/5 80/5/5
f 78/5/4 80/5/4 77/1/4
f 79/1/4 77/1/4 80/5/4
f 78/5/3 77/1/3 75/5/3
f 73/1/3 75/5/3 77/1/3
f 76/5/2 75/5/2 74/1/2
f 73/1/2 74/1/2 75/5/2
f 83/5/6 82/5/6 81/5/6
f 82/5/6 83/5/6 84/5/6
f 83/5/16 85/1/15 84/5/15
f 85/1/15 82/5/17 84/5/15
f 85/1/15 83/5/16 86/1/16
f 82/5/17 85/1/15 87/1/17
f 83/5/16 88/1/18 86/1/16
f 87/1/17 81/5/18 82/5/17
f 81/5/18 87/1/17 88/1/18
f 88/1/18 83/5/16 81/5/18
f 112/1/14 111/1/13 103/5/14
f 103/5/14 104/5/12 112/1/14
f 110/1/12 112/1/14 104/5/12
f 101/5/13 103/5/14 111/1/13
f 104/5/12 102/5/11 110/1/12
f 111/1/13 109/1/10 101/5/13
f 108/1/11 110/1/12 102/5/11
f 99/5/10 101/5/13 109/1/10
f 102/5/11 100/5/9 108/1/11
f 109/1/10 106/1/8 99/5/10
f 107/1/9 108/1/11 100/5/9
f 97/5/8 99/5/10 106/1/8
f 100/5/9 98/5/7 107/1/9
f 97/5/8 106/1/8 98/5/7
f 105/1/7 107/1/9 98/5/7
f 105/1/7 98/5/7 106/1/8
f 104/5/6 103/5/6 102/5/6
f 103/5/6 101/5/6 102/5/6
f 101/5/6 95/5/6 102/5/6
f 95/5/6 92/5/6 102/5/6
f 95/5/6 101/5/6 94/5/6
f 102/5/6 92/5/6 100/5/6
f 94/5/6 101/5/6 90/5/6
f 90/5/6 100/5/6 92/5/6
f 101/5/6 99/5/6 90/5/6
f 90/5/6 99/5/6 100/5/6
f 100/5/6 99/5/6 98/5/6
f 97/5/6 98/5/6 99/5/6
f 92/5/2 95/5/2 91/6/2
f 96/6/2 91/6/2 95/5/2
f 96/6/5 95/5/5 93/6/5
f 94/5/5 93/6/5 95/5/5
f 94/5/4 90/5/4 93/6/4
f 89/6/4 93/6/4 90/5/4
f 92/5/3 91/6/3 90/5/3
f 89/6/3 90/5/3 91/6/3
f 22/7/3 21/7/3 27/8/3
f 25/8/3 27/8/3 21/7/3
f 14/7/5 40/8/5 16/7/5
f 37/8/5 16/7/5 40/8/5
f 32/8/2 30/8/2 10/7/2
f 12/7/2 10/7/2 30/8/2
f 33/8/4 36/8/4 19/7/4
f 17/7/4 19/7/4 36/8/4
f 70/9/6 71/9/6 66/9/6
f 71/9/6 67/9/6 66/9/6
f 66/9/6 67/9/6 62/9/6
f 67/9/6 63/9/6 62/9/6
f 62/9/6 63/9/6 58/9/6
f 61/9/6 58/9/6 63/9/6
f 96/10/6 93/10/6 91/10/6
f 89/10/6 91/10/6 93/10/6

g low-detail-building-m




usemtl colormap

f 48/5/12 55/2/12 24/3/3
f 24/3/3 28/4/3 48/5/12
f 24/3/3 55/2/12 23/3/3
f 28/4/3 26/4/3 48/5/12
f 55/2/12 56/2/14 23/3/3
f 26/4/3 23/3/3 56/2/14
f 48/5/12 26/4/3 47/5/14
f 56/2/14 47/5/14 26/4/3
f 56/2/14 54/2/13 47/5/14
f 45/5/13 47/5/14 54/2/13
f 45/5/13 54/2/13 11/3/2
f 52/2/10 11/3/2 54/2/13
f 29/4/2 45/5/13 11/3/2
f 31/4/2 45/5/13 29/4/2
f 45/5/13 31/4/2 43/5/10
f 11/3/2 52/2/10 9/3/2
f 31/4/2 9/3/2 43/5/10
f 43/5/10 9/3/2 52/2/10
f 48/5/12 46/5/11 55/2/12
f 53/2/11 55/2/12 46/5/11
f 46/5/11 20/3/4 53/2/11
f 34/4/4 20/3/4 46/5/11
f 18/3/4 53/2/11 20/3/4
f 44/5/9 34/4/4 46/5/11
f 34/4/4 44/5/9 35/4/4
f 35/4/4 44/5/9 18/3/4
f 53/2/11 18/3/4 51/2/9
f 44/5/9 51/2/9 18/3/4
f 52/2/10 50/2/8 43/5/10
f 44/5/9 42/5/7 51/2/9
f 41/5/8 43/5/10 50/2/8
f 50/2/8 38/4/5 41/5/8
f 42/5/7 41/5/8 38/4/5
f 49/2/7 51/2/9 42/5/7
f 38/4/5 50/2/8 15/3/5
f 49/2/7 15/3/5 50/2/8
f 13/3/5 15/3/5 49/2/7
f 42/5/7 13/3/5 49/2/7
f 13/3/5 42/5/7 39/4/5
f 39/4/5 42/5/7 38/4/5
f 56/2/1 55/2/1 54/2/1
f 55/2/1 53/2/1 54/2/1
f 53/2/1 5/2/1 54/2/1
f 5/2/1 6/2/1 54/2/1
f 5/2/1 53/2/1 7/2/1
f 54/2/1 6/2/1 52/2/1
f 7/2/1 53/2/1 8/2/1
f 8/2/1 52/2/1 6/2/1
f 53/2/1 51/2/1 8/2/1
f 8/2/1 51/2/1 52/2/1
f 52/2/1 51/2/1 50/2/1
f 49/2/1 50/2/1 51/2/1
f 48/5/6 47/5/6 46/5/6
f 47/5/6 45/5/6 46/5/6
f 46/5/6 45/5/6 44/5/6
f 45/5/6 43/5/6 44/5/6
f 44/5/6 43/5/6 42/5/6
f 41/5/6 42/5/6 43/5/6
f 29/4/1 30/4/1 31/4/1
f 32/4/1 31/4/1 30/4/1
f 39/4/2 40/4/2 13/3/2
f 14/3/2 13/3/2 40/4/2
f 37/4/1 40/4/1 38/4/1
f 39/4/1 38/4/1 40/4/1
f 38/4/4 15/3/4 37/4/4
f 16/3/4 37/4/4 15/3/4
f 35/4/3 18/3/3 36/4/3
f 17/3/3 36/4/3 18/3/3
f 28/4/1 27/4/1 26/4/1
f 25/4/1 26/4/1 27/4/1
f 33/4/1 34/4/1 36/4/1
f 35/4/1 36/4/1 34/4/1
f 34/4/5 33/4/5 20/3/5
f 19/3/5 20/3/5 33/4/5
f 10/3/3 9/3/3 32/4/3
f 31/4/3 32/4/3 9/3/3
f 12/3/5 30/4/5 11/3/5
f 29/4/5 11/3/5 30/4/5
f 28/4/2 24/3/2 27/4/2
f 22/3/2 27/4/2 24/3/2
f 26/4/4 25/4/4 23/3/4
f 21/3/4 23/3/4 25/4/4
f 24/3/6 23/3/6 22/3/6
f 21/3/6 22/3/6 23/3/6
f 20/3/6 19/3/6 18/3/6
f 17/3/6 18/3/6 19/3/6
f 16/3/6 15/3/6 14/3/6
f 13/3/6 14/3/6 15/3/6
f 12/3/6 11/3/6 10/3/6
f 9/3/6 10/3/6 11/3/6
f 1/1/5 8/2/5 2/1/5
f 6/2/5 2/1/5 8/2/5
f 7/2/4 8/2/4 3/1/4
f 1/1/4 3/1/4 8/2/4
f 7/2/3 3/1/3 5/2/3
f 4/1/3 5/2/3 3/1/3
f 6/2/2 5/2/2 2/1/2
f 4/1/2 2/1/2 5/2/2
f 4/1/1 3/1/1 2/1/1
f 1/1/1 2/1/1 3/1/1
f 72/1/14 69/1/13 71/5/14
f 71/5/14 70/5/12 72/1/14
f 68/1/12 72/1/14 70/5/12
f 67/5/13 71/5/14 69/1/13
f 70/5/12 66/5/11 68/1/12
f 69/1/13 65/1/10 67/5/13
f 64/1/11 68/1/12 66/5/11
f 63/5/10 67/5/13 65/1/10
f 66/5/11 62/5/9 64/1/11
f 65/1/10 59/1/8 63/5/10
f 60/1/9 64/1/11 62/5/9
f 61/5/8 63/5/10 59/1/8
f 62/5/9 58/5/7 60/1/9
f 61/5/8 59/1/8 58/5/7
f 57/1/7 60/1/9 58/5/7
f 57/1/7 58/5/7 59/1/8
f 78/5/6 75/5/6 80/5/6
f 76/5/6 80/5/6 75/5/6
f 79/1/5 80/5/5 74/1/5
f 76/5/5 74/1/5 80/5/5
f 78/5/4 80/5/4 77/1/4
f 79/1/4 77/1/4 80/5/4
f 78/5/3 77/1/3 75/5/3
f 73/1/3 75/5/3 77/1/3
f 76/5/2 75/5/2 74/1/2
f 73/1/2 74/1/2 75/5/2
f 83/5/6 82/5/6 81/5/6
f 82/5/6 83/5/6 84/5/6
f 83/5/16 85/1/15 84/5/15
f 85/1/15 82/5/17 84/5/15
f 85/1/15 83/5/16 86/1/16
f 82/5/17 85/1/15 87/1/17
f 83/5/16 88/1/18 86/1/16
f 87/1/17 81/5/18 82/5/17
f 81/5/18 87/1/17 88/1/18
f 88/1/18 83/5/16 81/5/18
f 112/1/14 111/1/13 103/5/14
f 103/5/14 104/5/12 112/1/14
f 110/1/12 112/1/14 104/5/12
f 101/5/13 103/5/14 111/1/13
f 104/5/12 102/5/11 110/1/12
f 111/1/13 109/1/10 101/5/13
f 108/1/11 110/1/12 102/5/11
f 99/5/10 101/5/13 109/1/10
f 102/5/11 100/5/9 108/1/11
f 109/1/10 106/1/8 99/5/10
f 107/1/9 108/1/11 100/5/9
f 97/5/8 99/5/10 106/1/8
f 100/5/9 98/5/7 107/1/9
f 97/5/8 106/1/8 98/5/7
f 105/1/7 107/1/9 98/5/7
f 105/1/7 98/5/7 106/1/8
f 104/5/6 103/5/6 102/5/6
f 103/5/6 101/5/6 102/5/6
f 101/5/6 95/5/6 102/5/6
f 95/5/6 92/5/6 102/5/6
f 95/5/6 101/5/6 94/5/6
f 102/5/6 92/5/6 100/5/6
f 94/5/6 101/5/6 90/5/6
f 90/5/6 100/5/6 92/5/6
f 101/5/6 99/5/6 90/5/6
f 90/5/6 99/5/6 100/5/6
f 100/5/6 99/5/6 98/5/6
f 97/5/6 98/5/6 99/5/6
f 92/5/2 95/5/2 91/6/2
f 96/6/2 91/6/2 95/5/2
f 96/6/5 95/5/5 93/6/5
f 94/5/5 93/6/5 95/5/5
f 94/5/4 90/5/4 93/6/4
f 89/6/4 93/6/4 90/5/4
f 92/5/3 91/6/3 90/5/3
f 89/6/3 90/5/3 91/6/3
f 22/7/3 21/7/3 27/8/3
f 25/8/3 27/8/3 21/7/3
f 14/7/5 40/8/5 16/7/5
f 37/8/5 16/7/5 40/8/5
f 32/8/2 30/8/2 10/7/2
f 12/7/2 10/7/2 30/8/2
f 33/8/4 36/8/4 19/7/4
f 17/7/4 19/7/4 36/8/4
f 70/9/6 71/9/6 66/9/6
f 71/9/6 67/9/6 66/9/6
f 66/9/6 67/9/6 62/9/6
f 67/9/6 63/9/6 62/9/6
f 62/9/6 63/9/6 58/9/6
f 61/9/6 58/9/6 63/9/6
f 96/10/6 93/10/6 91/10/6
f 89/10/6 91/10/6 93/10/6

