# Created by Kenney (www.kenney.nl)

mtllib low-detail-building-h.mtl

g low-detail-building-h

v 0.225 1.1 0.225 1 1 1
v 0.225 1 0.225 1 1 1
v 0.225 1.1 -0.225 1 1 1
v 0.225 1 -0.225 1 1 1
v -0.225 1 0.225 1 1 1
v -0.225 1.1 0.225 1 1 1
v -0.225 1 -0.225 1 1 1
v -0.225 1.1 -0.225 1 1 1
v 0.225 1.35 0.225 1 1 1
v 0.225 1.25 0.225 1 1 1
v 0.225 1.35 -0.225 1 1 1
v 0.225 1.25 -0.225 1 1 1
v -0.225 1.25 0.225 1 1 1
v -0.225 1.35 0.225 1 1 1
v -0.225 1.25 -0.225 1 1 1
v -0.225 1.35 -0.225 1 1 1
v 0.225 1.6 0.225 1 1 1
v 0.225 1.5 0.225 1 1 1
v 0.225 1.6 -0.225 1 1 1
v 0.225 1.5 -0.225 1 1 1
v -0.225 1.5 0.225 1 1 1
v -0.225 1.6 0.225 1 1 1
v -0.225 1.5 -0.225 1 1 1
v -0.225 1.6 -0.225 1 1 1
v 0.225 1.85 0.225 1 1 1
v 0.225 1.75 0.225 1 1 1
v 0.225 1.85 -0.225 1 1 1
v 0.225 1.75 -0.225 1 1 1
v -0.225 1.75 0.225 1 1 1
v -0.225 1.85 0.225 1 1 1
v -0.225 1.75 -0.225 1 1 1
v -0.225 1.85 -0.225 1 1 1
v 0.225 0.6 0.225 1 1 1
v 0.225 0.5 0.225 1 1 1
v 0.225 0.6 -0.225 1 1 1
v 0.225 0.5 -0.225 1 1 1
v -0.225 0.5 0.225 1 1 1
v -0.225 0.6 0.225 1 1 1
v -0.225 0.5 -0.225 1 1 1
v -0.225 0.6 -0.225 1 1 1
v 0.225 0.85 0.225 1 1 1
v 0.225 0.75 0.225 1 1 1
v 0.225 0.85 -0.225 1 1 1
v 0.225 0.75 -0.225 1 1 1
v -0.225 0.75 0.225 1 1 1
v -0.225 0.85 0.225 1 1 1
v -0.225 0.75 -0.225 1 1 1
v -0.225 0.85 -0.225 1 1 1
v 0.2 2.05 0.2 1 1 1
v 0.2 2.05 -0.2 1 1 1
v -0.2 2.05 0.2 1 1 1
v -0.2 2.05 -0.2 1 1 1
v 0.25 1.1 -0.23 1 1 1
v 0.25 1.1 0.23 1 1 1
v 0.23 1.1 -0.25 1 1 1
v 0.23 1.1 0.25 1 1 1
v -0.23 1.1 -0.25 1 1 1
v -0.23 1.1 0.25 1 1 1
v -0.25 1.1 -0.23 1 1 1
v -0.25 1.1 0.23 1 1 1
v 0.25 1.25 0.23 1 1 1
v 0.25 1.25 -0.23 1 1 1
v 0.23 1.25 0.25 1 1 1
v 0.23 1.25 -0.25 1 1 1
v -0.23 1.25 0.25 1 1 1
v -0.23 1.25 -0.25 1 1 1
v -0.25 1.25 0.23 1 1 1
v -0.25 1.25 -0.23 1 1 1
v 0.25 1.5 0.23 1 1 1
v 0.25 1.5 -0.23 1 1 1
v 0.23 1.5 0.25 1 1 1
v 0.23 1.5 -0.25 1 1 1
v -0.23 1.5 0.25 1 1 1
v -0.23 1.5 -0.25 1 1 1
v -0.25 1.5 0.23 1 1 1
v -0.25 1.5 -0.23 1 1 1
v 0.25 1.35 -0.23 1 1 1
v 0.25 1.35 0.23 1 1 1
v 0.23 1.35 -0.25 1 1 1
v 0.23 1.35 0.25 1 1 1
v -0.23 1.35 -0.25 1 1 1
v -0.23 1.35 0.25 1 1 1
v -0.25 1.35 -0.23 1 1 1
v -0.25 1.35 0.23 1 1 1
v 0.25 1.6 -0.23 1 1 1
v 0.25 1.6 0.23 1 1 1
v 0.23 1.6 -0.25 1 1 1
v 0.23 1.6 0.25 1 1 1
v -0.23 1.6 -0.25 1 1 1
v -0.23 1.6 0.25 1 1 1
v -0.25 1.6 -0.23 1 1 1
v -0.25 1.6 0.23 1 1 1
v 0.25 1.75 0.23 1 1 1
v 0.25 1.75 -0.23 1 1 1
v 0.23 1.75 0.25 1 1 1
v 0.23 1.75 -0.25 1 1 1
v -0.23 1.75 0.25 1 1 1
v -0.23 1.75 -0.25 1 1 1
v -0.25 1.75 0.23 1 1 1
v -0.25 1.75 -0.23 1 1 1
v 0.25 2 0.23 1 1 1
v 0.25 2 -0.23 1 1 1
v 0.23 2 0.25 1 1 1
v 0.23 2 -0.25 1 1 1
v -0.23 2 0.25 1 1 1
v -0.23 2 -0.25 1 1 1
v -0.25 2 0.23 1 1 1
v -0.25 2 -0.23 1 1 1
v 0.25 1.85 -0.23 1 1 1
v 0.25 1.85 0.23 1 1 1
v 0.23 1.85 -0.25 1 1 1
v 0.23 1.85 0.25 1 1 1
v -0.23 1.85 -0.25 1 1 1
v -0.23 1.85 0.25 1 1 1
v -0.25 1.85 -0.23 1 1 1
v -0.25 1.85 0.23 1 1 1
v 0.2 0 -0.2 1 1 1
v 0.2 0 0.2 1 1 1
v -0.2 0 -0.2 1 1 1
v -0.2 0 0.2 1 1 1
v -0.2 0.1 0.2 1 1 1
v 0.2 0.1 0.2 1 1 1
v -0.2 0.1 -0.2 1 1 1
v 0.2 0.1 -0.2 1 1 1
v 0.25 0.5 0.23 1 1 1
v 0.25 0.5 -0.23 1 1 1
v 0.23 0.5 0.25 1 1 1
v 0.23 0.5 -0.25 1 1 1
v -0.23 0.5 0.25 1 1 1
v -0.23 0.5 -0.25 1 1 1
v -0.25 0.5 0.23 1 1 1
v -0.25 0.5 -0.23 1 1 1
v 0.25 0.1 -0.23 1 1 1
v 0.25 0.1 0.23 1 1 1
v 0.23 0.1 -0.25 1 1 1
v 0.23 0.1 0.25 1 1 1
v -0.23 0.1 -0.25 1 1 1
v -0.23 0.1 0.25 1 1 1
v -0.25 0.1 -0.23 1 1 1
v -0.25 0.1 0.23 1 1 1
v 0.175 2.1 -0.075 1 1 1
v 0.175 2.1 -0.175 1 1 1
v 0.075 2.1 -0.075 1 1 1
v 0.075 2.1 -0.175 1 1 1
v 0.075 2.05 -0.075 1 1 1
v 0.175 2.05 -0.075 1 1 1
v 0.175 2.05 -0.175 1 1 1
v 0.075 2.05 -0.175 1 1 1
v -0.075 2.1 -0.075 1 1 1
v -0.075 2.1 -0.175 1 1 1
v -0.175 2.1 -0.075 1 1 1
v -0.175 2.1 -0.175 1 1 1
v -0.175 2.05 -0.075 1 1 1
v -0.075 2.05 -0.075 1 1 1
v -0.075 2.05 -0.175 1 1 1
v -0.175 2.05 -0.175 1 1 1
v 0.25 0.6 -0.23 1 1 1
v 0.25 0.6 0.23 1 1 1
v 0.23 0.6 -0.25 1 1 1
v 0.23 0.6 0.25 1 1 1
v -0.23 0.6 -0.25 1 1 1
v -0.23 0.6 0.25 1 1 1
v -0.25 0.6 -0.23 1 1 1
v -0.25 0.6 0.23 1 1 1
v 0.25 0.75 0.23 1 1 1
v 0.25 0.75 -0.23 1 1 1
v 0.23 0.75 0.25 1 1 1
v 0.23 0.75 -0.25 1 1 1
v -0.23 0.75 0.25 1 1 1
v -0.23 0.75 -0.25 1 1 1
v -0.25 0.75 0.23 1 1 1
v -0.25 0.75 -0.23 1 1 1
v 0.25 1 0.23 1 1 1
v 0.25 1 -0.23 1 1 1
v 0.23 1 0.25 1 1 1
v 0.23 1 -0.25 1 1 1
v -0.23 1 0.25 1 1 1
v -0.23 1 -0.25 1 1 1
v -0.25 1 0.23 1 1 1
v -0.25 1 -0.23 1 1 1
v 0.25 0.85 -0.23 1 1 1
v 0.25 0.85 0.23 1 1 1
v 0.23 0.85 -0.25 1 1 1
v 0.23 0.85 0.25 1 1 1
v -0.23 0.85 -0.25 1 1 1
v -0.23 0.85 0.25 1 1 1
v -0.25 0.85 -0.23 1 1 1
v -0.25 0.85 0.23 1 1 1
v -0.2 2.1 -0.2 1 1 1
v 0.2 2.1 -0.2 1 1 1
v 0.2 2.1 0.2 1 1 1
v -0.2 2.1 0.2 1 1 1
v 0.25 2.1 0.23 1 1 1
v 0.25 2.1 -0.23 1 1 1
v 0.23 2.1 0.25 1 1 1
v 0.23 2.1 -0.25 1 1 1
v -0.23 2.1 0.25 1 1 1
v -0.23 2.1 -0.25 1 1 1
v -0.25 2.1 0.23 1 1 1
v -0.25 2.1 -0.23 1 1 1

vn 1 0 0
vn 0 0 1
vn 0 0 -1
vn -1 0 0
vn 0 1 0
vn 0 -1 0
vn -0.9238795 0 -0.3826834
vn -0.9238795 0 0.3826834
vn -0.3826834 0 -0.9238795
vn -0.3826834 0 0.9238795
vn 0.3826834 0 -0.9238795
vn 0.3826834 0 0.9238795
vn 0.9238795 0 -0.3826834
vn 0.9238795 0 0.3826834

vt 0.09375 0.345
vt 0.09375 0.325
vt 0.09375 0.395
vt 0.09375 0.375
vt 0.46875 0.345
vt 0.46875 0.375
vt 0.46875 0.425
vt 0.46875 0.395
vt 0.46875 0.325

usemtl colormap

f 16/3/3 11/3/3 15/4/3
f 12/4/3 15/4/3 11/3/3
f 16/3/4 15/4/4 14/3/4
f 13/4/4 14/3/4 15/4/4
f 9/3/2 14/3/2 10/4/2
f 13/4/2 10/4/2 14/3/2
f 12/4/1 11/3/1 10/4/1
f 9/3/1 10/4/1 11/3/1
f 8/1/4 7/2/4 6/1/4
f 5/2/4 6/1/4 7/2/4
f 8/1/3 3/1/3 7/2/3
f 4/2/3 7/2/3 3/1/3
f 1/1/2 6/1/2 2/2/2
f 5/2/2 2/2/2 6/1/2
f 4/2/1 3/1/1 2/2/1
f 1/1/1 2/2/1 3/1/1
f 32/3/3 27/3/3 31/4/3
f 28/4/3 31/4/3 27/3/3
f 32/3/4 31/4/4 30/3/4
f 29/4/4 30/3/4 31/4/4
f 25/3/2 30/3/2 26/4/2
f 29/4/2 26/4/2 30/3/2
f 28/4/1 27/3/1 26/4/1
f 25/3/1 26/4/1 27/3/1
f 24/1/4 23/2/4 22/1/4
f 21/2/4 22/1/4 23/2/4
f 24/1/3 19/1/3 23/2/3
f 20/2/3 23/2/3 19/1/3
f 17/1/2 22/1/2 18/2/2
f 21/2/2 18/2/2 22/1/2
f 20/2/1 19/1/1 18/2/1
f 17/1/1 18/2/1 19/1/1
f 48/3/3 43/3/3 47/4/3
f 44/4/3 47/4/3 43/3/3
f 48/3/4 47/4/4 46/3/4
f 45/4/4 46/3/4 47/4/4
f 41/3/2 46/3/2 42/4/2
f 45/4/2 42/4/2 46/3/2
f 44/4/1 43/3/1 42/4/1
f 41/3/1 42/4/1 43/3/1
f 40/1/4 39/2/4 38/1/4
f 37/2/4 38/1/4 39/2/4
f 40/1/3 35/1/3 39/2/3
f 36/2/3 39/2/3 35/1/3
f 33/1/2 38/1/2 34/2/2
f 37/2/2 34/2/2 38/1/2
f 36/2/1 35/1/1 34/2/1
f 33/1/1 34/2/1 35/1/1
f 52/4/5 51/4/5 50/4/5
f 49/4/5 50/4/5 51/4/5
f 61/6/14 54/5/14 62/6/13
f 61/6/14 63/6/12 54/5/14
f 53/5/13 62/6/13 54/5/14
f 56/5/12 54/5/14 63/6/12
f 53/5/13 55/5/11 62/6/13
f 64/6/11 62/6/13 55/5/11
f 63/6/12 65/6/10 56/5/12
f 58/5/10 56/5/12 65/6/10
f 55/5/11 57/5/9 64/6/11
f 65/6/10 67/6/8 58/5/10
f 66/6/9 64/6/11 57/5/9
f 60/5/8 58/5/10 67/6/8
f 57/5/9 59/5/7 66/6/9
f 60/5/8 67/6/8 59/5/7
f 68/6/7 66/6/9 59/5/7
f 68/6/7 59/5/7 67/6/8
f 69/7/14 78/8/14 70/7/13
f 69/7/14 71/7/12 78/8/14
f 77/8/13 70/7/13 78/8/14
f 80/8/12 78/8/14 71/7/12
f 77/8/13 79/8/11 70/7/13
f 72/7/11 70/7/13 79/8/11
f 71/7/12 73/7/10 80/8/12
f 82/8/10 80/8/12 73/7/10
f 79/8/11 81/8/9 72/7/11
f 73/7/10 75/7/8 82/8/10
f 74/7/9 72/7/11 81/8/9
f 84/8/8 82/8/10 75/7/8
f 81/8/9 83/8/7 74/7/9
f 84/8/8 75/7/8 83/8/7
f 76/7/7 74/7/9 83/8/7
f 76/7/7 83/8/7 75/7/8
f 84/8/6 83/8/6 82/8/6
f 83/8/6 81/8/6 82/8/6
f 81/8/6 14/8/6 82/8/6
f 14/8/6 9/8/6 82/8/6
f 14/8/6 81/8/6 16/8/6
f 82/8/6 9/8/6 80/8/6
f 16/8/6 81/8/6 11/8/6
f 11/8/6 80/8/6 9/8/6
f 81/8/6 79/8/6 11/8/6
f 11/8/6 79/8/6 80/8/6
f 80/8/6 79/8/6 78/8/6
f 77/8/6 78/8/6 79/8/6
f 76/7/5 75/7/5 74/7/5
f 75/7/5 73/7/5 74/7/5
f 74/7/5 73/7/5 72/7/5
f 73/7/5 71/7/5 72/7/5
f 72/7/5 71/7/5 70/7/5
f 69/7/5 70/7/5 71/7/5
f 68/6/5 67/6/5 66/6/5
f 67/6/5 65/6/5 66/6/5
f 65/6/5 15/6/5 66/6/5
f 15/6/5 12/6/5 66/6/5
f 15/6/5 65/6/5 13/6/5
f 66/6/5 12/6/5 64/6/5
f 13/6/5 65/6/5 10/6/5
f 10/6/5 64/6/5 12/6/5
f 65/6/5 63/6/5 10/6/5
f 10/6/5 63/6/5 64/6/5
f 64/6/5 63/6/5 62/6/5
f 61/6/5 62/6/5 63/6/5
f 60/5/6 59/5/6 58/5/6
f 59/5/6 57/5/6 58/5/6
f 57/5/6 6/5/6 58/5/6
f 6/5/6 1/5/6 58/5/6
f 6/5/6 57/5/6 8/5/6
f 58/5/6 1/5/6 56/5/6
f 8/5/6 57/5/6 3/5/6
f 3/5/6 56/5/6 1/5/6
f 57/5/6 55/5/6 3/5/6
f 3/5/6 55/5/6 56/5/6
f 56/5/6 55/5/6 54/5/6
f 53/5/6 54/5/6 55/5/6
f 93/6/14 86/5/14 94/6/13
f 93/6/14 95/6/12 86/5/14
f 85/5/13 94/6/13 86/5/14
f 88/5/12 86/5/14 95/6/12
f 85/5/13 87/5/11 94/6/13
f 96/6/11 94/6/13 87/5/11
f 95/6/12 97/6/10 88/5/12
f 90/5/10 88/5/12 97/6/10
f 87/5/11 89/5/9 96/6/11
f 97/6/10 99/6/8 90/5/10
f 98/6/9 96/6/11 89/5/9
f 92/5/8 90/5/10 99/6/8
f 89/5/9 91/5/7 98/6/9
f 92/5/8 99/6/8 91/5/7
f 100/6/7 98/6/9 91/5/7
f 100/6/7 91/5/7 99/6/8
f 101/7/14 110/8/14 102/7/13
f 101/7/14 103/7/12 110/8/14
f 109/8/13 102/7/13 110/8/14
f 112/8/12 110/8/14 103/7/12
f 109/8/13 111/8/11 102/7/13
f 104/7/11 102/7/13 111/8/11
f 103/7/12 105/7/10 112/8/12
f 114/8/10 112/8/12 105/7/10
f 111/8/11 113/8/9 104/7/11
f 105/7/10 107/7/8 114/8/10
f 106/7/9 104/7/11 113/8/9
f 116/8/8 114/8/10 107/7/8
f 113/8/9 115/8/7 106/7/9
f 116/8/8 107/7/8 115/8/7
f 108/7/7 106/7/9 115/8/7
f 108/7/7 115/8/7 107/7/8
f 116/8/6 115/8/6 114/8/6
f 115/8/6 113/8/6 114/8/6
f 113/8/6 30/8/6 114/8/6
f 30/8/6 25/8/6 114/8/6
f 30/8/6 113/8/6 32/8/6
f 114/8/6 25/8/6 112/8/6
f 32/8/6 113/8/6 27/8/6
f 27/8/6 112/8/6 25/8/6
f 113/8/6 111/8/6 27/8/6
f 27/8/6 111/8/6 112/8/6
f 112/8/6 111/8/6 110/8/6
f 109/8/6 110/8/6 111/8/6
f 108/7/5 107/7/5 106/7/5
f 107/7/5 105/7/5 106/7/5
f 106/7/5 105/7/5 104/7/5
f 105/7/5 103/7/5 104/7/5
f 104/7/5 103/7/5 102/7/5
f 101/7/5 102/7/5 103/7/5
f 100/6/5 99/6/5 98/6/5
f 99/6/5 97/6/5 98/6/5
f 97/6/5 31/6/5 98/6/5
f 31/6/5 28/6/5 98/6/5
f 31/6/5 97/6/5 29/6/5
f 98/6/5 28/6/5 96/6/5
f 29/6/5 97/6/5 26/6/5
f 26/6/5 96/6/5 28/6/5
f 97/6/5 95/6/5 26/6/5
f 26/6/5 95/6/5 96/6/5
f 96/6/5 95/6/5 94/6/5
f 93/6/5 94/6/5 95/6/5
f 92/5/6 91/5/6 90/5/6
f 91/5/6 89/5/6 90/5/6
f 89/5/6 22/5/6 90/5/6
f 22/5/6 17/5/6 90/5/6
f 22/5/6 89/5/6 24/5/6
f 90/5/6 17/5/6 88/5/6
f 24/5/6 89/5/6 19/5/6
f 19/5/6 88/5/6 17/5/6
f 89/5/6 87/5/6 19/5/6
f 19/5/6 87/5/6 88/5/6
f 88/5/6 87/5/6 86/5/6
f 85/5/6 86/5/6 87/5/6
f 140/5/8 131/7/8 139/5/7
f 140/5/8 138/5/10 131/7/8
f 132/7/7 139/5/7 131/7/8
f 129/7/10 131/7/8 138/5/10
f 132/7/7 130/7/9 139/5/7
f 137/5/9 139/5/7 130/7/9
f 138/5/10 136/5/12 129/7/10
f 127/7/12 129/7/10 136/5/12
f 130/7/9 128/7/11 137/5/9
f 136/5/12 134/5/14 127/7/12
f 135/5/11 137/5/9 128/7/11
f 125/7/14 127/7/12 134/5/14
f 128/7/11 126/7/13 135/5/11
f 125/7/14 134/5/14 126/7/13
f 133/5/13 135/5/11 126/7/13
f 133/5/13 126/7/13 134/5/14
f 140/5/6 139/5/6 138/5/6
f 139/5/6 137/5/6 138/5/6
f 137/5/6 121/5/6 138/5/6
f 121/5/6 122/5/6 138/5/6
f 121/5/6 137/5/6 123/5/6
f 138/5/6 122/5/6 136/5/6
f 123/5/6 137/5/6 124/5/6
f 124/5/6 136/5/6 122/5/6
f 137/5/6 135/5/6 124/5/6
f 124/5/6 135/5/6 136/5/6
f 136/5/6 135/5/6 134/5/6
f 133/5/6 134/5/6 135/5/6
f 132/7/5 131/7/5 130/7/5
f 131/7/5 129/7/5 130/7/5
f 130/7/5 129/7/5 128/7/5
f 129/7/5 127/7/5 128/7/5
f 128/7/5 127/7/5 126/7/5
f 125/7/5 126/7/5 127/7/5
f 117/9/1 124/5/1 118/9/1
f 122/5/1 118/9/1 124/5/1
f 123/5/3 124/5/3 119/9/3
f 117/9/3 119/9/3 124/5/3
f 123/5/4 119/9/4 121/5/4
f 120/9/4 121/5/4 119/9/4
f 122/5/2 121/5/2 118/9/2
f 120/9/2 118/9/2 121/5/2
f 120/9/6 119/9/6 118/9/6
f 117/9/6 118/9/6 119/9/6
f 144/7/4 148/9/4 143/7/4
f 145/9/4 143/7/4 148/9/4
f 144/7/3 142/7/3 148/9/3
f 147/9/3 148/9/3 142/7/3
f 147/9/1 142/7/1 146/9/1
f 141/7/1 146/9/1 142/7/1
f 141/7/2 143/7/2 146/9/2
f 145/9/2 146/9/2 143/7/2
f 144/7/5 143/7/5 142/7/5
f 141/7/5 142/7/5 143/7/5
f 152/7/4 156/9/4 151/7/4
f 153/9/4 151/7/4 156/9/4
f 152/7/3 150/7/3 156/9/3
f 155/9/3 156/9/3 150/7/3
f 155/9/1 150/7/1 154/9/1
f 149/7/1 154/9/1 150/7/1
f 149/7/2 151/7/2 154/9/2
f 153/9/2 154/9/2 151/7/2
f 152/7/5 151/7/5 150/7/5
f 149/7/5 150/7/5 151/7/5
f 165/6/14 158/5/14 166/6/13
f 165/6/14 167/6/12 158/5/14
f 157/5/13 166/6/13 158/5/14
f 160/5/12 158/5/14 167/6/12
f 157/5/13 159/5/11 166/6/13
f 168/6/11 166/6/13 159/5/11
f 167/6/12 169/6/10 160/5/12
f 162/5/10 160/5/12 169/6/10
f 159/5/11 161/5/9 168/6/11
f 169/6/10 171/6/8 162/5/10
f 170/6/9 168/6/11 161/5/9
f 164/5/8 162/5/10 171/6/8
f 161/5/9 163/5/7 170/6/9
f 164/5/8 171/6/8 163/5/7
f 172/6/7 170/6/9 163/5/7
f 172/6/7 163/5/7 171/6/8
f 173/7/14 182/8/14 174/7/13
f 173/7/14 175/7/12 182/8/14
f 181/8/13 174/7/13 182/8/14
f 184/8/12 182/8/14 175/7/12
f 181/8/13 183/8/11 174/7/13
f 176/7/11 174/7/13 183/8/11
f 175/7/12 177/7/10 184/8/12
f 186/8/10 184/8/12 177/7/10
f 183/8/11 185/8/9 176/7/11
f 177/7/10 179/7/8 186/8/10
f 178/7/9 176/7/11 185/8/9
f 188/8/8 186/8/10 179/7/8
f 185/8/9 187/8/7 178/7/9
f 188/8/8 179/7/8 187/8/7
f 180/7/7 178/7/9 187/8/7
f 180/7/7 187/8/7 179/7/8
f 188/8/6 187/8/6 186/8/6
f 187/8/6 185/8/6 186/8/6
f 185/8/6 46/8/6 186/8/6
f 46/8/6 41/8/6 186/8/6
f 46/8/6 185/8/6 48/8/6
f 186/8/6 41/8/6 184/8/6
f 48/8/6 185/8/6 43/8/6
f 43/8/6 184/8/6 41/8/6
f 185/8/6 183/8/6 43/8/6
f 43/8/6 183/8/6 184/8/6
f 184/8/6 183/8/6 182/8/6
f 181/8/6 182/8/6 183/8/6
f 180/7/5 179/7/5 178/7/5
f 179/7/5 177/7/5 178/7/5
f 178/7/5 177/7/5 176/7/5
f 177/7/5 175/7/5 176/7/5
f 176/7/5 175/7/5 174/7/5
f 173/7/5 174/7/5 175/7/5
f 172/6/5 171/6/5 170/6/5
f 171/6/5 169/6/5 170/6/5
f 169/6/5 47/6/5 170/6/5
f 47/6/5 44/6/5 170/6/5
f 47/6/5 169/6/5 45/6/5
f 170/6/5 44/6/5 168/6/5
f 45/6/5 169/6/5 42/6/5
f 42/6/5 168/6/5 44/6/5
f 169/6/5 167/6/5 42/6/5
f 42/6/5 167/6/5 168/6/5
f 168/6/5 167/6/5 166/6/5
f 165/6/5 166/6/5 167/6/5
f 164/5/6 163/5/6 162/5/6
f 163/5/6 161/5/6 162/5/6
f 161/5/6 38/5/6 162/5/6
f 38/5/6 33/5/6 162/5/6
f 38/5/6 161/5/6 40/5/6
f 162/5/6 33/5/6 160/5/6
f 40/5/6 161/5/6 35/5/6
f 35/5/6 160/5/6 33/5/6
f 161/5/6 159/5/6 35/5/6
f 35/5/6 159/5/6 160/5/6
f 160/5/6 159/5/6 158/5/6
f 157/5/6 158/5/6 159/5/6
f 107/9/8 199/7/8 108/9/7
f 107/9/8 105/9/10 199/7/8
f 200/7/7 108/9/7 199/7/8
f 197/7/10 199/7/8 105/9/10
f 200/7/7 198/7/9 108/9/7
f 106/9/9 108/9/7 198/7/9
f 105/9/10 103/9/12 197/7/10
f 195/7/12 197/7/10 103/9/12
f 198/7/9 196/7/11 106/9/9
f 103/9/12 101/9/14 195/7/12
f 104/9/11 106/9/9 196/7/11
f 193/7/14 195/7/12 101/9/14
f 196/7/11 194/7/13 104/9/11
f 193/7/14 101/9/14 194/7/13
f 102/9/13 104/9/11 194/7/13
f 102/9/13 194/7/13 101/9/14
f 107/9/6 108/9/6 105/9/6
f 108/9/6 106/9/6 105/9/6
f 105/9/6 106/9/6 103/9/6
f 106/9/6 104/9/6 103/9/6
f 103/9/6 104/9/6 101/9/6
f 102/9/6 101/9/6 104/9/6
f 200/7/5 199/7/5 198/7/5
f 199/7/5 197/7/5 198/7/5
f 197/7/5 189/7/5 198/7/5
f 189/7/5 190/7/5 198/7/5
f 189/7/5 197/7/5 192/7/5
f 198/7/5 190/7/5 196/7/5
f 192/7/5 197/7/5 191/7/5
f 191/7/5 196/7/5 190/7/5
f 197/7/5 195/7/5 191/7/5
f 191/7/5 195/7/5 196/7/5
f 196/7/5 195/7/5 194/7/5
f 193/7/5 194/7/5 195/7/5
f 52/6/1 189/7/1 51/6/1
f 192/7/1 51/6/1 189/7/1
f 192/7/3 191/7/3 51/6/3
f 49/6/3 51/6/3 191/7/3
f 190/7/4 50/6/4 191/7/4
f 49/6/4 191/7/4 50/6/4
f 190/7/2 189/7/2 50/6/2
f 52/6/2 50/6/2 189/7/2

g low-detail-building-h




usemtl colormap

f 16/3/3 11/3/3 15/4/3
f 12/4/3 15/4/3 11/3/3
f 16/3/4 15/4/4 14/3/4
f 13/4/4 14/3/4 15/4/4
f 9/3/2 14/3/2 10/4/2
f 13/4/2 10/4/2 14/3/2
f 12/4/1 11/3/1 10/4/1
f 9/3/1 10/4/1 11/3/1
f 8/1/4 7/2/4 6/1/4
f 5/2/4 6/1/4 7/2/4
f 8/1/3 3/1/3 7/2/3
f 4/2/3 7/2/3 3/1/3
f 1/1/2 6/1/2 2/2/2
f 5/2/2 2/2/2 6/1/2
f 4/2/1 3/1/1 2/2/1
f 1/1/1 2/2/1 3/1/1
f 32/3/3 27/3/3 31/4/3
f 28/4/3 31/4/3 27/3/3
f 32/3/4 31/4/4 30/3/4
f 29/4/4 30/3/4 31/4/4
f 25/3/2 30/3/2 26/4/2
f 29/4/2 26/4/2 30/3/2
f 28/4/1 27/3/1 26/4/1
f 25/3/1 26/4/1 27/3/1
f 24/1/4 23/2/4 22/1/4
f 21/2/4 22/1/4 23/2/4
f 24/1/3 19/1/3 23/2/3
f 20/2/3 23/2/3 19/1/3
f 17/1/2 22/1/2 18/2/2
f 21/2/2 18/2/2 22/1/2
f 20/2/1 19/1/1 18/2/1
f 17/1/1 18/2/1 19/1/1
f 48/3/3 43/3/3 47/4/3
f 44/4/3 47/4/3 43/3/3
f 48/3/4 47/4/4 46/3/4
f 45/4/4 46/3/4 47/4/4
f 41/3/2 46/3/2 42/4/2
f 45/4/2 42/4/2 46/3/2
f 44/4/1 43/3/1 42/4/1
f 41/3/1 42/4/1 43/3/1
f 40/1/4 39/2/4 38/1/4
f 37/2/4 38/1/4 39/2/4
f 40/1/3 35/1/3 39/2/3
f 36/2/3 39/2/3 35/1/3
f 33/1/2 38/1/2 34/2/2
f 37/2/2 34/2/2 38/1/2
f 36/2/1 35/1/1 34/2/1
f 33/1/1 34/2/1 35/1/1
f 52/4/5 51/4/5 50/4/5
f 49/4/5 50/4/5 51/4/5
f 61/6/14 54/5/14 62/6/13
f 61/6/14 63/6/12 54/5/14
f 53/5/13 62/6/13 54/5/14
f 56/5/12 54/5/14 63/6/12
f 53/5/13 55/5/11 62/6/13
f 64/6/11 62/6/13 55/5/11
f 63/6/12 65/6/10 56/5/12
f 58/5/10 56/5/12 65/6/10
f 55/5/11 57/5/9 64/6/11
f 65/6/10 67/6/8 58/5/10
f 66/6/9 64/6/11 57/5/9
f 60/5/8 58/5/10 67/6/8
f 57/5/9 59/5/7 66/6/9
f 60/5/8 67/6/8 59/5/7
f 68/6/7 66/6/9 59/5/7
f 68/6/7 59/5/7 67/6/8
f 69/7/14 78/8/14 70/7/13
f 69/7/14 71/7/12 78/8/14
f 77/8/13 70/7/13 78/8/14
f 80/8/12 78/8/14 71/7/12
f 77/8/13 79/8/11 70/7/13
f 72/7/11 70/7/13 79/8/11
f 71/7/12 73/7/10 80/8/12
f 82/8/10 80/8/12 73/7/10
f 79/8/11 81/8/9 72/7/11
f 73/7/10 75/7/8 82/8/10
f 74/7/9 72/7/11 81/8/9
f 84/8/8 82/8/10 75/7/8
f 81/8/9 83/8/7 74/7/9
f 84/8/8 75/7/8 83/8/7
f 76/7/7 74/7/9 83/8/7
f 76/7/7 83/8/7 75/7/8
f 84/8/6 83/8/6 82/8/6
f 83/8/6 81/8/6 82/8/6
f 81/8/6 14/8/6 82/8/6
f 14/8/6 9/8/6 82/8/6
f 14/8/6 81/8/6 16/8/6
f 82/8/6 9/8/6 80/8/6
f 16/8/6 81/8/6 11/8/6
f 11/8/6 80/8/6 9/8/6
f 81/8/6 79/8/6 11/8/6
f 11/8/6 79/8/6 80/8/6
f 80/8/6 79/8/6 78/8/6
f 77/8/6 78/8/6 79/8/6
f 76/7/5 75/7/5 74/7/5
f 75/7/5 73/7/5 74/7/5
f 74/7/5 73/7/5 72/7/5
f 73/7/5 71/7/5 72/7/5
f 72/7/5 71/7/5 70/7/5
f 69/7/5 70/7/5 71/7/5
f 68/6/5 67/6/5 66/6/5
f 67/6/5 65/6/5 66/6/5
f 65/6/5 15/6/5 66/6/5
f 15/6/5 12/6/5 66/6/5
f 15/6/5 65/6/5 13/6/5
f 66/6/5 12/6/5 64/6/5
f 13/6/5 65/6/5 10/6/5
f 10/6/5 64/6/5 12/6/5
f 65/6/5 63/6/5 10/6/5
f 10/6/5 63/6/5 64/6/5
f 64/6/5 63/6/5 62/6/5
f 61/6/5 62/6/5 63/6/5
f 60/5/6 59/5/6 58/5/6
f 59/5/6 57/5/6 58/5/6
f 57/5/6 6/5/6 58/5/6
f 6/5/6 1/5/6 58/5/6
f 6/5/6 57/5/6 8/5/6
f 58/5/6 1/5/6 56/5/6
f 8/5/6 57/5/6 3/5/6
f 3/5/6 56/5/6 1/5/6
f 57/5/6 55/5/6 3/5/6
f 3/5/6 55/5/6 56/5/6
f 56/5/6 55/5/6 54/5/6
f 53/5/6 54/5/6 55/5/6
f 93/6/14 86/5/14 94/6/13
f 93/6/14 95/6/12 86/5/14
f 85/5/13 94/6/13 86/5/14
f 88/5/12 86/5/14 95/6/12
f 85/5/13 87/5/11 94/6/13
f 96/6/11 94/6/13 87/5/11
f 95/6/12 97/6/10 88/5/12
f 90/5/10 88/5/12 97/6/10
f 87/5/11 89/5/9 96/6/11
f 97/6/10 99/6/8 90/5/10
f 98/6/9 96/6/11 89/5/9
f 92/5/8 90/5/10 99/6/8
f 89/5/9 91/5/7 98/6/9
f 92/5/8 99/6/8 91/5/7
f 100/6/7 98/6/9 91/5/7
f 100/6/7 91/5/7 99/6/8
f 101/7/14 110/8/14 102/7/13
f 101/7/14 103/7/12 110/8/14
f 109/8/13 102/7/13 110/8/14
f 112/8/12 110/8/14 103/7/12
f 109/8/13 111/8/11 102/7/13
f 104/7/11 102/7/13 111/8/11
f 103/7/12 105/7/10 112/8/12
f 114/8/10 112/8/12 105/7/10
f 111/8/11 113/8/9 104/7/11
f 105/7/10 107/7/8 114/8/10
f 106/7/9 104/7/11 113/8/9
f 116/8/8 114/8/10 107/7/8
f 113/8/9 115/8/7 106/7/9
f 116/8/8 107/7/8 115/8/7
f 108/7/7 106/7/9 115/8/7
f 108/7/7 115/8/7 107/7/8
f 116/8/6 115/8/6 114/8/6
f 115/8/6 113/8/6 114/8/6
f 113/8/6 30/8/6 114/8/6
f 30/8/6 25/8/6 114/8/6
f 30/8/6 113/8/6 32/8/6
f 114/8/6 25/8/6 112/8/6
f 32/8/6 113/8/6 27/8/6
f 27/8/6 112/8/6 25/8/6
f 113/8/6 111/8/6 27/8/6
f 27/8/6 111/8/6 112/8/6
f 112/8/6 111/8/6 110/8/6
f 109/8/6 110/8/6 111/8/6
f 108/7/5 107/7/5 106/7/5
f 107/7/5 105/7/5 106/7/5
f 106/7/5 105/7/5 104/7/5
f 105/7/5 103/7/5 104/7/5
f 104/7/5 103/7/5 102/7/5
f 101/7/5 102/7/5 103/7/5
f 100/6/5 99/6/5 98/6/5
f 99/6/5 97/6/5 98/6/5
f 97/6/5 31/6/5 98/6/5
f 31/6/5 28/6/5 98/6/5
f 31/6/5 97/6/5 29/6/5
f 98/6/5 28/6/5 96/6/5
f 29/6/5 97/6/5 26/6/5
f 26/6/5 96/6/5 28/6/5
f 97/6/5 95/6/5 26/6/5
f 26/6/5 95/6/5 96/6/5
f 96/6/5 95/6/5 94/6/5
f 93/6/5 94/6/5 95/6/5
f 92/5/6 91/5/6 90/5/6
f 91/5/6 89/5/6 90/5/6
f 89/5/6 22/5/6 90/5/6
f 22/5/6 17/5/6 90/5/6
f 22/5/6 89/5/6 24/5/6
f 90/5/6 17/5/6 88/5/6
f 24/5/6 89/5/6 19/5/6
f 19/5/6 88/5/6 17/5/6
f 89/5/6 87/5/6 19/5/6
f 19/5/6 87/5/6 88/5/6
f 88/5/6 87/5/6 86/5/6
f 85/5/6 86/5/6 87/5/6
f 140/5/8 131/7/8 139/5/7
f 140/5/8 138/5/10 131/7/8
f 132/7/7 139/5/7 131/7/8
f 129/7/10 131/7/8 138/5/10
f 132/7/7 130/7/9 139/5/7
f 137/5/9 139/5/7 130/7/9
f 138/5/10 136/5/12 129/7/10
f 127/7/12 129/7/10 136/5/12
f 130/7/9 128/7/11 137/5/9
f 136/5/12 134/5/14 127/7/12
f 135/5/11 137/5/9 128/7/11
f 125/7/14 127/7/12 134/5/14
f 128/7/11 126/7/13 135/5/11
f 125/7/14 134/5/14 126/7/13
f 133/5/13 135/5/11 126/7/13
f 133/5/13 126/7/13 134/5/14
f 140/5/6 139/5/6 138/5/6
f 139/5/6 137/5/6 138/5/6
f 137/5/6 121/5/6 138/5/6
f 121/5/6 122/5/6 138/5/6
f 121/5/6 137/5/6 123/5/6
f 138/5/6 122/5/6 136/5/6
f 123/5/6 137/5/6 124/5/6
f 124/5/6 136/5/6 122/5/6
f 137/5/6 135/5/6 124/5/6
f 124/5/6 135/5/6 136/5/6
f 136/5/6 135/5/6 134/5/6
f 133/5/6 134/5/6 135/5/6
f 132/7/5 131/7/5 130/7/5
f 131/7/5 129/7/5 130/7/5
f 130/7/5 129/7/5 128/7/5
f 129/7/5 127/7/5 128/7/5
f 128/7/5 127/7/5 126/7/5
f 125/7/5 126/7/5 127/7/5
f 117/9/1 124/5/1 118/9/1
f 122/5/1 118/9/1 124/5/1
f 123/5/3 124/5/3 119/9/3
f 117/9/3 119/9/3 124/5/3
f 123/5/4 119/9/4 121/5/4
f 120/9/4 121/5/4 119/9/4
f 122/5/2 121/5/2 118/9/2
f 120/9/2 118/9/2 121/5/2
f 120/9/6 119/9/6 118/9/6
f 117/9/6 118/9/6 119/9/6
f 144/7/4 148/9/4 143/7/4
f 145/9/4 143/7/4 148/9/4
f 144/7/3 142/7/3 148/9/3
f 147/9/3 148/9/3 142/7/3
f 147/9/1 142/7/1 146/9/1
f 141/7/1 146/9/1 142/7/1
f 141/7/2 143/7/2 146/9/2
f 145/9/2 146/9/2 143/7/2
f 144/7/5 143/7/5 142/7/5
f 141/7/5 142/7/5 143/7/5
f 152/7/4 156/9/4 151/7/4
f 153/9/4 151/7/4 156/9/4
f 152/7/3 150/7/3 156/9/3
f 155/9/3 156/9/3 150/7/3
f 155/9/1 150/7/1 154/9/1
f 149/7/1 154/9/1 150/7/1
f 149/7/2 151/7/2 154/9/2
f 153/9/2 154/9/2 151/7/2
f 152/7/5 151/7/5 150/7/5
f 149/7/5 150/7/5 151/7/5
f 165/6/14 158/5/14 166/6/13
f 165/6/14 167/6/12 158/5/14
f 157/5/13 166/6/13 158/5/14
f 160/5/12 158/5/14 167/6/12
f 157/5/13 159/5/11 166/6/13
f 168/6/11 166/6/13 159/5/11
f 167/6/12 169/6/10 160/5/12
f 162/5/10 160/5/12 169/6/10
f 159/5/11 161/5/9 168/6/11
f 169/6/10 171/6/8 162/5/10
f 170/6/9 168/6/11 161/5/9
f 164/5/8 162/5/10 171/6/8
f 161/5/9 163/5/7 170/6/9
f 164/5/8 171/6/8 163/5/7
f 172/6/7 170/6/9 163/5/7
f 172/6/7 163/5/7 171/6/8
f 173/7/14 182/8/14 174/7/13
f 173/7/14 175/7/12 182/8/14
f 181/8/13 174/7/13 182/8/14
f 184/8/12 182/8/14 175/7/12
f 181/8/13 183/8/11 174/7/13
f 176/7/11 174/7/13 183/8/11
f 175/7/12 177/7/10 184/8/12
f 186/8/10 184/8/12 177/7/10
f 183/8/11 185/8/9 176/7/11
f 177/7/10 179/7/8 186/8/10
f 178/7/9 176/7/11 185/8/9
f 188/8/8 186/8/10 179/7/8
f 185/8/9 187/8/7 178/7/9
f 188/8/8 179/7/8 187/8/7
f 180/7/7 178/7/9 187/8/7
f 180/7/7 187/8/7 179/7/8
f 188/8/6 187/8/6 186/8/6
f 187/8/6 185/8/6 186/8/6
f 185/8/6 46/8/6 186/8/6
f 46/8/6 41/8/6 186/8/6
f 46/8/6 185/8/6 48/8/6
f 186/8/6 41/8/6 184/8/6
f 48/8/6 185/8/6 43/8/6
f 43/8/6 184/8/6 41/8/6
f 185/8/6 183/8/6 43/8/6
f 43/8/6 183/8/6 184/8/6
f 184/8/6 183/8/6 182/8/6
f 181/8/6 182/8/6 183/8/6
f 180/7/5 179/7/5 178/7/5
f 179/7/5 177/7/5 178/7/5
f 178/7/5 177/7/5 176/7/5
f 177/7/5 175/7/5 176/7/5
f 176/7/5 175/7/5 174/7/5
f 173/7/5 174/7/5 175/7/5
f 172/6/5 171/6/5 170/6/5
f 171/6/5 169/6/5 170/6/5
f 169/6/5 47/6/5 170/6/5
f 47/6/5 44/6/5 170/6/5
f 47/6/5 169/6/5 45/6/5
f 170/6/5 44/6/5 168/6/5
f 45/6/5 169/6/5 42/6/5
f 42/6/5 168/6/5 44/6/5
f 169/6/5 167/6/5 42/6/5
f 42/6/5 167/6/5 168/6/5
f 168/6/5 167/6/5 166/6/5
f 165/6/5 166/6/5 167/6/5
f 164/5/6 163/5/6 162/5/6
f 163/5/6 161/5/6 162/5/6
f 161/5/6 38/5/6 162/5/6
f 38/5/6 33/5/6 162/5/6
f 38/5/6 161/5/6 40/5/6
f 162/5/6 33/5/6 160/5/6
f 40/5/6 161/5/6 35/5/6
f 35/5/6 160/5/6 33/5/6
f 161/5/6 159/5/6 35/5/6
f 35/5/6 159/5/6 160/5/6
f 160/5/6 159/5/6 158/5/6
f 157/5/6 158/5/6 159/5/6
f 107/9/8 199/7/8 108/9/7
f 107/9/8 105/9/10 199/7/8
f 200/7/7 108/9/7 199/7/8
f 197/7/10 199/7/8 105/9/10
f 200/7/7 198/7/9 108/9/7
f 106/9/9 108/9/7 198/7/9
f 105/9/10 103/9/12 197/7/10
f 195/7/12 197/7/10 103/9/12
f 198/7/9 196/7/11 106/9/9
f 103/9/12 101/9/14 195/7/12
f 104/9/11 106/9/9 196/7/11
f 193/7/14 195/7/12 101/9/14
f 196/7/11 194/7/13 104/9/11
f 193/7/14 101/9/14 194/7/13
f 102/9/13 104/9/11 194/7/13
f 102/9/13 194/7/13 101/9/14
f 107/9/6 108/9/6 105/9/6
f 108/9/6 106/9/6 105/9/6
f 105/9/6 106/9/6 103/9/6
f 106/9/6 104/9/6 103/9/6
f 103/9/6 104/9/6 101/9/6
f 102/9/6 101/9/6 104/9/6
f 200/7/5 199/7/5 198/7/5
f 199/7/5 197/7/5 198/7/5
f 197/7/5 189/7/5 198/7/5
f 189/7/5 190/7/5 198/7/5
f 189/7/5 197/7/5 192/7/5
f 198/7/5 190/7/5 196/7/5
f 192/7/5 197/7/5 191/7/5
f 191/7/5 196/7/5 190/7/5
f 197/7/5 195/7/5 191/7/5
f 191/7/5 195/7/5 196/7/5
f 196/7/5 195/7/5 194/7/5
f 193/7/5 194/7/5 195/7/5
f 52/6/1 189/7/1 51/6/1
f 192/7/1 51/6/1 189/7/1
f 192/7/3 191/7/3 51/6/3
f 49/6/3 51/6/3 191/7/3
f 190/7/4 50/6/4 191/7/4
f 49/6/4 191/7/4 50/6/4
f 190/7/2 189/7/2 50/6/2
f 52/6/2 50/6/2 189/7/2

