# Created by Kenney (www.kenney.nl)

mtllib bridge-pillar-wide.mtl

g bridge-pillar-wide

v 0.07 0 -0.07 1 1 1
v 0.07 0.04 -0.07 1 1 1
v -0.07 4.511946E-17 -0.07 1 1 1
v -0.07 0.04 -0.07 1 1 1
v -0.07 4.511946E-17 0.07 1 1 1
v -0.07 0.04 0.07 1 1 1
v 0.07 0.04 0.07 1 1 1
v 0.07 0 0.07 1 1 1
v 0.0575 0.1 0.0575 1 1 1
v -0.0575 0.1 0.0575 1 1 1
v 0.0575 0.1 -0.0575 1 1 1
v -0.0575 0.1 -0.0575 1 1 1
v -0.0575 0.47 -0.0575 1 1 1
v -0.0575 0.5 -0.0575 1 1 1
v -0.0575 0.47 0.0575 1 1 1
v -0.0575 0.5 0.0575 1 1 1
v 0.0575 0.5 0.0575 1 1 1
v 0.0575 0.5 -0.0575 1 1 1
v 0.0575 0.47 0.0575 1 1 1
v 0.0575 0.47 -0.0575 1 1 1
v -0.0475 0.1 -0.0475 1 1 1
v -0.0475 0.47 -0.0475 1 1 1
v -0.0475 0.1 0.0475 1 1 1
v -0.0475 0.47 0.0475 1 1 1
v 0.0475 0.1 0.0475 1 1 1
v 0.0475 0.47 0.0475 1 1 1
v 0.0475 0.1 -0.0475 1 1 1
v 0.0475 0.47 -0.0475 1 1 1

vn 0 0 -1
vn -1 0 0
vn 1 0 0
vn 0 -1 0
vn 0 1 0
vn 0 0.2039542 -0.9789804
vn 0 0.2039542 0.9789804
vn 0 0 1
vn 0.9789804 0.2039542 0
vn -0.9789804 0.2039542 0

vt 0.21875 0.075
vt 0.21875 0.115
vt 0.21875 0.175
vt 0.96875 0.075
vt 0.96875 0.175

usemtl colormap

f 3/1/1 2/2/1 1/1/1
f 2/2/1 3/1/1 4/2/1
f 5/1/2 4/2/2 3/1/2
f 4/2/2 5/1/2 6/2/2
f 7/2/3 1/1/3 2/2/3
f 1/1/3 7/2/3 8/1/3
f 5/1/4 1/1/4 8/1/4
f 1/1/4 5/1/4 3/1/4
f 11/3/5 10/3/5 9/3/5
f 10/3/5 11/3/5 12/3/5
f 4/2/6 11/3/6 2/2/6
f 11/3/6 4/2/6 12/3/6
f 9/3/7 6/2/7 7/2/7
f 6/2/7 9/3/7 10/3/7
f 7/2/8 5/1/8 8/1/8
f 5/1/8 7/2/8 6/2/8
f 11/3/9 7/2/9 2/2/9
f 7/2/9 11/3/9 9/3/9
f 6/2/10 12/3/10 4/2/10
f 12/3/10 6/2/10 10/3/10
f 15/1/2 14/3/2 13/1/2
f 14/3/2 15/1/2 16/3/2
f 18/3/5 16/3/5 17/3/5
f 16/3/5 18/3/5 14/3/5
f 17/3/8 15/1/8 19/1/8
f 15/1/8 17/3/8 16/3/8
f 15/1/4 20/1/4 19/1/4
f 20/1/4 15/1/4 13/1/4
f 14/3/1 20/1/1 13/1/1
f 20/1/1 14/3/1 18/3/1
f 17/3/3 20/1/3 18/3/3
f 20/1/3 17/3/3 19/1/3
f 23/4/2 22/5/2 21/4/2
f 22/5/2 23/4/2 24/5/2
f 26/5/8 23/4/8 25/4/8
f 23/4/8 26/5/8 24/5/8
f 21/4/1 28/5/1 27/4/1
f 28/5/1 21/4/1 22/5/1
f 26/5/3 27/4/3 28/5/3
f 27/4/3 26/5/3 25/4/3

g bridge-pillar-wide




usemtl colormap

f 3/1/1 2/2/1 1/1/1
f 2/2/1 3/1/1 4/2/1
f 5/1/2 4/2/2 3/1/2
f 4/2/2 5/1/2 6/2/2
f 7/2/3 1/1/3 2/2/3
f 1/1/3 7/2/3 8/1/3
f 5/1/4 1/1/4 8/1/4
f 1/1/4 5/1/4 3/1/4
f 11/3/5 10/3/5 9/3/5
f 10/3/5 11/3/5 12/3/5
f 4/2/6 11/3/6 2/2/6
f 11/3/6 4/2/6 12/3/6
f 9/3/7 6/2/7 7/2/7
f 6/2/7 9/3/7 10/3/7
f 7/2/8 5/1/8 8/1/8
f 5/1/8 7/2/8 6/2/8
f 11/3/9 7/2/9 2/2/9
f 7/2/9 11/3/9 9/3/9
f 6/2/10 12/3/10 4/2/10
f 12/3/10 6/2/10 10/3/10
f 15/1/2 14/3/2 13/1/2
f 14/3/2 15/1/2 16/3/2
f 18/3/5 16/3/5 17/3/5
f 16/3/5 18/3/5 14/3/5
f 17/3/8 15/1/8 19/1/8
f 15/1/8 17/3/8 16/3/8
f 15/1/4 20/1/4 19/1/4
f 20/1/4 15/1/4 13/1/4
f 14/3/1 20/1/1 13/1/1
f 20/1/1 14/3/1 18/3/1
f 17/3/3 20/1/3 18/3/3
f 20/1/3 17/3/3 19/1/3
f 23/4/2 22/5/2 21/4/2
f 22/5/2 23/4/2 24/5/2
f 26/5/8 23/4/8 25/4/8
f 23/4/8 26/5/8 24/5/8
f 21/4/1 28/5/1 27/4/1
f 28/5/1 21/4/1 22/5/1
f 26/5/3 27/4/3 28/5/3
f 27/4/3 26/5/3 25/4/3

