# Created by Kenney (www.kenney.nl)

mtllib bridge-pillar.mtl

g bridge-pillar

v 0.05 0.04 -0.05 1 1 1
v 0.05 0.04 0.05 1 1 1
v 0.0375 0.1 -0.0375 1 1 1
v 0.0375 0.1 0.0375 1 1 1
v -0.0375 0.1 0.0375 1 1 1
v -0.0375 0.1 -0.0375 1 1 1
v -0.05 0.04 0.05 1 1 1
v 0.05 0 0.05 1 1 1
v -0.05 0 0.05 1 1 1
v -0.05 0 -0.05 1 1 1
v -0.05 0.04 -0.05 1 1 1
v 0.05 0 -0.05 1 1 1
v 0.0375 0.47 0.0375 1 1 1
v 0.0375 0.47 -0.0375 1 1 1
v -0.0375 0.47 0.0375 1 1 1
v -0.0375 0.47 -0.0375 1 1 1
v 0.0375 0.5 0.0375 1 1 1
v -0.0375 0.5 0.0375 1 1 1
v 0.0375 0.5 -0.0375 1 1 1
v -0.0375 0.5 -0.0375 1 1 1
v 0.0275 0.47 -0.0275 1 1 1
v 0.0275 0.1 -0.0275 1 1 1
v 0.0275 0.47 0.0275 1 1 1
v 0.0275 0.1 0.0275 1 1 1
v -0.0275 0.1 0.0275 1 1 1
v -0.0275 0.47 0.0275 1 1 1
v -0.0275 0.1 -0.0275 1 1 1
v -0.0275 0.47 -0.0275 1 1 1

vn 0.9789804 0.2039542 0
vn 0 1 0
vn 0 0.2039542 0.9789804
vn 0 0 1
vn -1 0 0
vn 0 0.2039542 -0.9789804
vn 1 0 0
vn 0 -1 0
vn -0.9789804 0.2039542 0
vn 0 0 -1

vt 0.21875 0.115
vt 0.21875 0.175
vt 0.21875 0.075
vt 0.96875 0.175
vt 0.96875 0.075

usemtl colormap

f 3/2/1 2/1/1 1/1/1
f 2/1/1 3/2/1 4/2/1
f 3/2/2 5/2/2 4/2/2
f 5/2/2 3/2/2 6/2/2
f 4/2/3 7/1/3 2/1/3
f 7/1/3 4/2/3 5/2/3
f 2/1/4 9/3/4 8/3/4
f 9/3/4 2/1/4 7/1/4
f 9/3/5 11/1/5 10/3/5
f 11/1/5 9/3/5 7/1/5
f 6/2/6 1/1/6 11/1/6
f 1/1/6 6/2/6 3/2/6
f 2/1/7 12/3/7 1/1/7
f 12/3/7 2/1/7 8/3/7
f 9/3/8 12/3/8 8/3/8
f 12/3/8 9/3/8 10/3/8
f 7/1/9 6/2/9 11/1/9
f 6/2/9 7/1/9 5/2/9
f 11/1/10 12/3/10 10/3/10
f 12/3/10 11/1/10 1/1/10
f 15/3/8 14/3/8 13/3/8
f 14/3/8 15/3/8 16/3/8
f 19/2/2 18/2/2 17/2/2
f 18/2/2 19/2/2 20/2/2
f 17/2/7 14/3/7 19/2/7
f 14/3/7 17/2/7 13/3/7
f 17/2/4 15/3/4 13/3/4
f 15/3/4 17/2/4 18/2/4
f 15/3/5 20/2/5 16/3/5
f 20/2/5 15/3/5 18/2/5
f 20/2/10 14/3/10 16/3/10
f 14/3/10 20/2/10 19/2/10
f 23/4/7 22/5/7 21/4/7
f 22/5/7 23/4/7 24/5/7
f 23/4/4 25/5/4 24/5/4
f 25/5/4 23/4/4 26/4/4
f 25/5/5 28/4/5 27/5/5
f 28/4/5 25/5/5 26/4/5
f 28/4/10 22/5/10 27/5/10
f 22/5/10 28/4/10 21/4/10

g bridge-pillar




usemtl colormap

f 3/2/1 2/1/1 1/1/1
f 2/1/1 3/2/1 4/2/1
f 3/2/2 5/2/2 4/2/2
f 5/2/2 3/2/2 6/2/2
f 4/2/3 7/1/3 2/1/3
f 7/1/3 4/2/3 5/2/3
f 2/1/4 9/3/4 8/3/4
f 9/3/4 2/1/4 7/1/4
f 9/3/5 11/1/5 10/3/5
f 11/1/5 9/3/5 7/1/5
f 6/2/6 1/1/6 11/1/6
f 1/1/6 6/2/6 3/2/6
f 2/1/7 12/3/7 1/1/7
f 12/3/7 2/1/7 8/3/7
f 9/3/8 12/3/8 8/3/8
f 12/3/8 9/3/8 10/3/8
f 7/1/9 6/2/9 11/1/9
f 6/2/9 7/1/9 5/2/9
f 11/1/10 12/3/10 10/3/10
f 12/3/10 11/1/10 1/1/10
f 15/3/8 14/3/8 13/3/8
f 14/3/8 15/3/8 16/3/8
f 19/2/2 18/2/2 17/2/2
f 18/2/2 19/2/2 20/2/2
f 17/2/7 14/3/7 19/2/7
f 14/3/7 17/2/7 13/3/7
f 17/2/4 15/3/4 13/3/4
f 15/3/4 17/2/4 18/2/4
f 15/3/5 20/2/5 16/3/5
f 20/2/5 15/3/5 18/2/5
f 20/2/10 14/3/10 16/3/10
f 14/3/10 20/2/10 19/2/10
f 23/4/7 22/5/7 21/4/7
f 22/5/7 23/4/7 24/5/7
f 23/4/4 25/5/4 24/5/4
f 25/5/4 23/4/4 26/4/4
f 25/5/5 28/4/5 27/5/5
f 28/4/5 25/5/5 26/4/5
f 28/4/10 22/5/10 27/5/10
f 22/5/10 28/4/10 21/4/10

