# Created by Kenney (www.kenney.nl)

mtllib construction-cone.mtl

g construction-cone

v -0.0275 0 -0.0375 1 1 1
v 0.0275 0 -0.0375 1 1 1
v -0.0275 0.01875 -0.0375 1 1 1
v 0.0275 0.01875 -0.0375 1 1 1
v -0.0375 0 -0.0275 1 1 1
v -0.0375 0.01875 -0.0275 1 1 1
v -0.0375 0 0.0275 1 1 1
v -0.0375 0.01875 0.0275 1 1 1
v 0.0275 0 0.0375 1 1 1
v -0.0275 0 0.0375 1 1 1
v 0.0275 0.01875 0.0375 1 1 1
v -0.0275 0.01875 0.0375 1 1 1
v 0.0375 0.01875 -0.0275 1 1 1
v 0.0375 0 -0.0275 1 1 1
v 0.0375 0.01875 0.0275 1 1 1
v 0.0375 0 0.0275 1 1 1
v -2.707168E-16 0.05625 0.01956082 1 1 1
v -0.01383159 0.05625 0.01383159 1 1 1
v -4.511947E-16 0.09375 0.01035573 1 1 1
v -0.007322606 0.09375 0.007322606 1 1 1
v 0.01035573 0.09375 -2.165734E-15 1 1 1
v 0.01956082 0.05625 -2.165734E-15 1 1 1
v 0.007322606 0.09375 0.007322606 1 1 1
v 0.01383159 0.05625 0.01383159 1 1 1
v 0.007322606 0.09375 -0.007322606 1 1 1
v -4.511947E-16 0.09375 -0.01035573 1 1 1
v -0.007322606 0.09375 -0.007322606 1 1 1
v -0.01035573 0.09375 -2.165734E-15 1 1 1
v -0.01383159 0.05625 -0.01383159 1 1 1
v -0.01956082 0.05625 -1.443823E-15 1 1 1
v -2.707168E-16 0.05625 -0.01956082 1 1 1
v 0.01383159 0.05625 -0.01383159 1 1 1
v 0.02034057 0.01875 0.02034057 1 1 1
v 0.01383159 0.05625 0.01383159 1 1 1
v 0.02876591 0.01875 -7.219114E-16 1 1 1
v -3.609557E-16 0.01875 0.02876591 1 1 1
v 0.01956082 0.05625 -2.165734E-15 1 1 1
v -2.707168E-16 0.05625 0.01956082 1 1 1
v 0.01383159 0.05625 -0.01383159 1 1 1
v -0.02034057 0.01875 0.02034057 1 1 1
v 0.02034057 0.01875 -0.02034057 1 1 1
v -0.01383159 0.05625 0.01383159 1 1 1
v -2.707168E-16 0.05625 -0.01956082 1 1 1
v -3.609557E-16 0.01875 -0.02876591 1 1 1
v -0.02876591 0.01875 -7.219114E-16 1 1 1
v -0.01956082 0.05625 -1.443823E-15 1 1 1
v -0.01383159 0.05625 -0.01383159 1 1 1
v -0.02034057 0.01875 -0.02034057 1 1 1

vn -0.3826834 0 -0.9238795
vn 0.3826834 0 -0.9238795
vn -0.9238795 0 -0.3826834
vn -0.9238795 0 0.3826834
vn 0.3826834 0 0.9238795
vn -0.3826834 0 0.9238795
vn 0.9238795 0 -0.3826834
vn 0.9238795 0 0.3826834
vn 0 1 0
vn 0 -1 0
vn 0 0.238392 0.971169
vn -0.6867202 0.238392 0.6867202
vn 0.971169 0.238392 0
vn 0.6867202 0.238392 0.6867202
vn -0.6867202 0.238392 -0.6867202
vn -0.971169 0.238392 0
vn 0 0.238392 -0.971169
vn 0.6867202 0.238392 -0.6867202

vt 0.96875 0.325
vt 0.96875 0.425
vt 0.09375 0.325
vt 0.09375 0.425

usemtl colormap

f 3/2/1 2/1/2 1/1/1
f 2/1/2 3/2/1 4/2/2
f 7/1/4 6/2/3 5/1/3
f 6/2/3 7/1/4 8/2/4
f 11/2/5 10/1/6 9/1/5
f 10/1/6 11/2/5 12/2/6
f 15/2/8 14/1/7 13/2/7
f 14/1/7 15/2/8 16/1/8
f 12/2/6 7/1/4 10/1/6
f 7/1/4 12/2/6 8/2/4
f 15/2/8 9/1/5 16/1/8
f 9/1/5 15/2/8 11/2/5
f 4/2/2 14/1/7 2/1/2
f 14/1/7 4/2/2 13/2/7
f 6/2/3 1/1/1 5/1/3
f 1/1/1 6/2/3 3/2/1
f 4/2/9 15/2/9 13/2/9
f 15/2/9 4/2/9 11/2/9
f 11/2/9 4/2/9 3/2/9
f 11/2/9 3/2/9 12/2/9
f 12/2/9 3/2/9 6/2/9
f 12/2/9 6/2/9 8/2/9
f 9/1/10 14/1/10 16/1/10
f 14/1/10 9/1/10 2/1/10
f 2/1/10 9/1/10 10/1/10
f 2/1/10 10/1/10 1/1/10
f 1/1/10 10/1/10 7/1/10
f 1/1/10 7/1/10 5/1/10
f 19/2/11 18/1/12 17/1/11
f 18/1/12 19/2/11 20/2/12
f 23/2/14 22/1/13 21/2/13
f 22/1/13 23/2/14 24/1/14
f 25/2/9 23/2/9 21/2/9
f 23/2/9 25/2/9 26/2/9
f 23/2/9 26/2/9 19/2/9
f 19/2/9 26/2/9 27/2/9
f 19/2/9 27/2/9 20/2/9
f 20/2/9 27/2/9 28/2/9
f 30/1/16 27/2/15 29/1/15
f 27/2/15 30/1/16 28/2/16
f 26/2/17 32/1/18 31/1/17
f 32/1/18 26/2/17 25/2/18
f 23/2/14 17/1/11 24/1/14
f 17/1/11 23/2/14 19/2/11
f 27/2/15 31/1/17 29/1/15
f 31/1/17 27/2/15 26/2/17
f 25/2/18 22/1/13 32/1/18
f 22/1/13 25/2/18 21/2/13
f 30/1/16 20/2/12 28/2/16
f 20/2/12 30/1/16 18/1/12
f 35/3/13 34/4/14 33/3/14
f 34/4/14 36/3/11 33/3/14
f 34/4/14 35/3/13 37/4/13
f 36/3/11 34/4/14 38/4/11
f 35/3/13 39/4/18 37/4/13
f 38/4/11 40/3/12 36/3/11
f 39/4/18 35/3/13 41/3/18
f 40/3/12 38/4/11 42/4/12
f 41/3/18 43/4/17 39/4/18
f 43/4/17 41/3/18 44/3/17
f 42/4/12 45/3/16 40/3/12
f 45/3/16 42/4/12 46/4/16
f 44/3/17 47/4/15 43/4/17
f 47/4/15 45/3/16 46/4/16
f 47/4/15 44/3/17 48/3/15
f 45/3/16 47/4/15 48/3/15

g construction-cone




usemtl colormap

f 3/2/1 2/1/2 1/1/1
f 2/1/2 3/2/1 4/2/2
f 7/1/4 6/2/3 5/1/3
f 6/2/3 7/1/4 8/2/4
f 11/2/5 10/1/6 9/1/5
f 10/1/6 11/2/5 12/2/6
f 15/2/8 14/1/7 13/2/7
f 14/1/7 15/2/8 16/1/8
f 12/2/6 7/1/4 10/1/6
f 7/1/4 12/2/6 8/2/4
f 15/2/8 9/1/5 16/1/8
f 9/1/5 15/2/8 11/2/5
f 4/2/2 14/1/7 2/1/2
f 14/1/7 4/2/2 13/2/7
f 6/2/3 1/1/1 5/1/3
f 1/1/1 6/2/3 3/2/1
f 4/2/9 15/2/9 13/2/9
f 15/2/9 4/2/9 11/2/9
f 11/2/9 4/2/9 3/2/9
f 11/2/9 3/2/9 12/2/9
f 12/2/9 3/2/9 6/2/9
f 12/2/9 6/2/9 8/2/9
f 9/1/10 14/1/10 16/1/10
f 14/1/10 9/1/10 2/1/10
f 2/1/10 9/1/10 10/1/10
f 2/1/10 10/1/10 1/1/10
f 1/1/10 10/1/10 7/1/10
f 1/1/10 7/1/10 5/1/10
f 19/2/11 18/1/12 17/1/11
f 18/1/12 19/2/11 20/2/12
f 23/2/14 22/1/13 21/2/13
f 22/1/13 23/2/14 24/1/14
f 25/2/9 23/2/9 21/2/9
f 23/2/9 25/2/9 26/2/9
f 23/2/9 26/2/9 19/2/9
f 19/2/9 26/2/9 27/2/9
f 19/2/9 27/2/9 20/2/9
f 20/2/9 27/2/9 28/2/9
f 30/1/16 27/2/15 29/1/15
f 27/2/15 30/1/16 28/2/16
f 26/2/17 32/1/18 31/1/17
f 32/1/18 26/2/17 25/2/18
f 23/2/14 17/1/11 24/1/14
f 17/1/11 23/2/14 19/2/11
f 27/2/15 31/1/17 29/1/15
f 31/1/17 27/2/15 26/2/17
f 25/2/18 22/1/13 32/1/18
f 22/1/13 25/2/18 21/2/13
f 30/1/16 20/2/12 28/2/16
f 20/2/12 30/1/16 18/1/12
f 35/3/13 34/4/14 33/3/14
f 34/4/14 36/3/11 33/3/14
f 34/4/14 35/3/13 37/4/13
f 36/3/11 34/4/14 38/4/11
f 35/3/13 39/4/18 37/4/13
f 38/4/11 40/3/12 36/3/11
f 39/4/18 35/3/13 41/3/18
f 40/3/12 38/4/11 42/4/12
f 41/3/18 43/4/17 39/4/18
f 43/4/17 41/3/18 44/3/17
f 42/4/12 45/3/16 40/3/12
f 45/3/16 42/4/12 46/4/16
f 44/3/17 47/4/15 43/4/17
f 47/4/15 45/3/16 46/4/16
f 47/4/15 44/3/17 48/3/15
f 45/3/16 47/4/15 48/3/15

