# Created by Kenney (www.kenney.nl)

mtllib construction-barrier.mtl

g construction-barrier

v 0.0525 0 0.1125 1 1 1
v 0.014375 0 0.1125 1 1 1
v 0.0525 0.02875 0.1125 1 1 1
v 0.014375 0.11875 0.1125 1 1 1
v 0.03375 0.09875 0.1125 1 1 1
v 0.03375 0.11875 0.1125 1 1 1
v -0.0525 0 -0.1125 1 1 1
v -0.014375 0 -0.1125 1 1 1
v -0.0525 0.02875 -0.1125 1 1 1
v -0.014375 0.11875 -0.1125 1 1 1
v -0.03375 0.09875 -0.1125 1 1 1
v -0.03375 0.11875 -0.1125 1 1 1
v 0.014375 0 -0.1125 1 1 1
v 0.0525 0 -0.1125 1 1 1
v 0.014375 0.11875 -0.1125 1 1 1
v 0.0525 0.02875 -0.1125 1 1 1
v 0.03375 0.09875 -0.1125 1 1 1
v 0.03375 0.11875 -0.1125 1 1 1
v -0.014375 0 0.1125 1 1 1
v -0.0525 0 0.1125 1 1 1
v -0.014375 0.11875 0.1125 1 1 1
v -0.0525 0.02875 0.1125 1 1 1
v -0.03375 0.09875 0.1125 1 1 1
v -0.03375 0.11875 0.1125 1 1 1
v -0.014375 0.11875 -0.09375 1 1 1
v -0.014375 0.11875 0.09375 1 1 1
v 0.014375 0.11875 0.09375 1 1 1
v 0.014375 0.11875 -0.09375 1 1 1
v -0.014375 0 0.09375 1 1 1
v -0.014375 0 -0.09375 1 1 1
v 0.014375 0 -0.09375 1 1 1
v 0.014375 0 0.09375 1 1 1

vn 0 0 1
vn 0 0 -1
vn 1 0 0
vn 0.9659481 0.2587361 0
vn -1 0 0
vn 0 1 0
vn 0 -1 0
vn -0.9659481 0.2587361 0
vn -0.7071068 0 0.7071068
vn -0.7071068 0 -0.7071068
vn 0.7071068 0 -0.7071068
vn 0.7071068 0 0.7071068

vt 0.96875 0.025
vt 0.96875 0.07342105
vt 0.96875 0.225
vt 0.96875 0.1913158
vt 0.96875 0.125

usemtl colormap

f 3/2/1 2/1/1 1/1/1
f 2/1/1 3/2/1 4/3/1
f 4/3/1 3/2/1 5/4/1
f 4/3/1 5/4/1 6/3/1
f 9/2/2 8/1/2 7/1/2
f 8/1/2 9/2/2 10/3/2
f 10/3/2 9/2/2 11/4/2
f 10/3/2 11/4/2 12/3/2
f 15/3/2 14/1/2 13/1/2
f 14/1/2 15/3/2 16/2/2
f 16/2/2 15/3/2 17/4/2
f 17/4/2 15/3/2 18/3/2
f 6/3/3 17/4/3 18/3/3
f 17/4/3 6/3/3 5/4/3
f 5/4/4 16/2/4 17/4/4
f 16/2/4 5/4/4 3/2/4
f 3/2/3 14/1/3 16/2/3
f 14/1/3 3/2/3 1/1/3
f 21/3/1 20/1/1 19/1/1
f 20/1/1 21/3/1 22/2/1
f 22/2/1 21/3/1 23/4/1
f 23/4/1 21/3/1 24/3/1
f 20/1/5 9/2/5 7/1/5
f 9/2/5 20/1/5 22/2/5
f 12/3/6 25/3/6 10/3/6
f 25/3/6 12/3/6 26/3/6
f 26/3/6 12/3/6 21/3/6
f 21/3/6 12/3/6 24/3/6
f 27/3/6 25/3/6 26/3/6
f 25/3/6 27/3/6 28/3/6
f 4/3/6 28/3/6 27/3/6
f 4/3/6 15/3/6 28/3/6
f 6/3/6 15/3/6 4/3/6
f 15/3/6 6/3/6 18/3/6
f 20/1/7 29/1/7 19/1/7
f 29/1/7 20/1/7 30/1/7
f 30/1/7 20/1/7 8/1/7
f 8/1/7 20/1/7 7/1/7
f 31/1/7 29/1/7 30/1/7
f 29/1/7 31/1/7 32/1/7
f 13/1/7 32/1/7 31/1/7
f 13/1/7 2/1/7 32/1/7
f 14/1/7 2/1/7 13/1/7
f 2/1/7 14/1/7 1/1/7
f 22/2/8 11/4/8 9/2/8
f 11/4/8 22/2/8 23/4/8
f 23/4/5 12/3/5 11/4/5
f 12/3/5 23/4/5 24/3/5
f 2/1/5 27/5/9 32/1/9
f 27/5/9 2/1/5 4/5/5
f 31/1/10 15/5/5 13/1/5
f 15/5/5 31/1/10 28/5/10
f 25/5/11 31/1/10 30/1/11
f 31/1/10 25/5/11 28/5/10
f 25/5/11 8/1/3 10/5/3
f 8/1/3 25/5/11 30/1/11
f 27/5/9 29/1/12 32/1/9
f 29/1/12 27/5/9 26/5/12
f 21/5/3 29/1/12 26/5/12
f 29/1/12 21/5/3 19/1/3

g construction-barrier




usemtl colormap

f 3/2/1 2/1/1 1/1/1
f 2/1/1 3/2/1 4/3/1
f 4/3/1 3/2/1 5/4/1
f 4/3/1 5/4/1 6/3/1
f 9/2/2 8/1/2 7/1/2
f 8/1/2 9/2/2 10/3/2
f 10/3/2 9/2/2 11/4/2
f 10/3/2 11/4/2 12/3/2
f 15/3/2 14/1/2 13/1/2
f 14/1/2 15/3/2 16/2/2
f 16/2/2 15/3/2 17/4/2
f 17/4/2 15/3/2 18/3/2
f 6/3/3 17/4/3 18/3/3
f 17/4/3 6/3/3 5/4/3
f 5/4/4 16/2/4 17/4/4
f 16/2/4 5/4/4 3/2/4
f 3/2/3 14/1/3 16/2/3
f 14/1/3 3/2/3 1/1/3
f 21/3/1 20/1/1 19/1/1
f 20/1/1 21/3/1 22/2/1
f 22/2/1 21/3/1 23/4/1
f 23/4/1 21/3/1 24/3/1
f 20/1/5 9/2/5 7/1/5
f 9/2/5 20/1/5 22/2/5
f 12/3/6 25/3/6 10/3/6
f 25/3/6 12/3/6 26/3/6
f 26/3/6 12/3/6 21/3/6
f 21/3/6 12/3/6 24/3/6
f 27/3/6 25/3/6 26/3/6
f 25/3/6 27/3/6 28/3/6
f 4/3/6 28/3/6 27/3/6
f 4/3/6 15/3/6 28/3/6
f 6/3/6 15/3/6 4/3/6
f 15/3/6 6/3/6 18/3/6
f 20/1/7 29/1/7 19/1/7
f 29/1/7 20/1/7 30/1/7
f 30/1/7 20/1/7 8/1/7
f 8/1/7 20/1/7 7/1/7
f 31/1/7 29/1/7 30/1/7
f 29/1/7 31/1/7 32/1/7
f 13/1/7 32/1/7 31/1/7
f 13/1/7 2/1/7 32/1/7
f 14/1/7 2/1/7 13/1/7
f 2/1/7 14/1/7 1/1/7
f 22/2/8 11/4/8 9/2/8
f 11/4/8 22/2/8 23/4/8
f 23/4/5 12/3/5 11/4/5
f 12/3/5 23/4/5 24/3/5
f 2/1/5 27/5/9 32/1/9
f 27/5/9 2/1/5 4/5/5
f 31/1/10 15/5/5 13/1/5
f 15/5/5 31/1/10 28/5/10
f 25/5/11 31/1/10 30/1/11
f 31/1/10 25/5/11 28/5/10
f 25/5/11 8/1/3 10/5/3
f 8/1/3 25/5/11 30/1/11
f 27/5/9 29/1/12 32/1/9
f 29/1/12 27/5/9 26/5/12
f 21/5/3 29/1/12 26/5/12
f 29/1/12 21/5/3 19/1/3

