# Created by Kenney (www.kenney.nl)

mtllib construction-light.mtl

g construction-light

v 0.01464844 0.1868046 0.01944544 1 1 1
v -0.01464844 0.1868046 0.01944544 1 1 1
v 0.01464844 0.20625 0.0275 1 1 1
v -0.01464844 0.20625 0.0275 1 1 1
v 0.01464844 0.17875 -8.662937E-15 1 1 1
v -0.01464844 0.17875 -8.662937E-15 1 1 1
v 0.01464844 0.1868046 -0.01944544 1 1 1
v -0.01464844 0.1868046 -0.01944544 1 1 1
v -0.01464844 0.20625 -0.0275 1 1 1
v 0.01464844 0.20625 -0.0275 1 1 1
v -0.01464844 0.2256954 -0.01944544 1 1 1
v 0.01464844 0.2256954 -0.01944544 1 1 1
v 0.01464844 0.23375 -8.662937E-15 1 1 1
v -0.01464844 0.23375 -8.662937E-15 1 1 1
v 0.01464844 0.2256954 0.01944544 1 1 1
v -0.01464844 0.2256954 0.01944544 1 1 1
v -0.01875 0.01875 -0.01875 1 1 1
v 0.01875 0.01875 -0.01875 1 1 1
v -0.009375 0.03625 -0.01875 1 1 1
v 0.009375 0.03625 -0.01875 1 1 1
v 0.009375 0.03625 0.01875 1 1 1
v 0.01875 0.01875 0.01875 1 1 1
v -0.009375 0.03625 0.01875 1 1 1
v -0.01875 0.01875 0.01875 1 1 1
v 0.01171875 0.17875 -0.0275 1 1 1
v 0.01171875 0.17875 0.0275 1 1 1
v -0.01171875 0.17875 -0.0275 1 1 1
v -0.01171875 0.17875 0.0275 1 1 1
v -0.01171875 0.16875 -0.0375 1 1 1
v 0.01171875 0.16875 -0.0375 1 1 1
v 0.01171875 0.03625 0.0275 1 1 1
v -0.01171875 0.03625 0.0275 1 1 1
v 0.01171875 0.04625 0.0375 1 1 1
v -0.01171875 0.04625 0.0375 1 1 1
v -0.01171875 0.1121361 0.0375 1 1 1
v 0.01171875 0.1121361 0.0375 1 1 1
v 0.01171875 0.16875 0.0375 1 1 1
v -0.01171875 0.16875 0.0375 1 1 1
v 0.01171875 0.03625 -0.0275 1 1 1
v -0.01171875 0.03625 -0.0275 1 1 1
v -0.01171875 0.04625 -0.0375 1 1 1
v 0.01171875 0.04625 -0.0375 1 1 1
v -0.01171875 0.1216487 -0.0375 1 1 1
v 0.01171875 0.1216487 -0.0375 1 1 1
v 0.01464844 0.23375 -9.023893E-15 1 1 1
v 0.01464844 0.17875 -9.023893E-15 1 1 1
v -0.01464844 0.17875 -9.023893E-15 1 1 1
v -0.01464844 0.23375 -9.023893E-15 1 1 1
v 0.0375 0.01875 -0.0275 1 1 1
v 0.0375 0 -0.0275 1 1 1
v 0.0375 0.01875 0.0275 1 1 1
v 0.0375 0 0.0275 1 1 1
v -0.0275 0 -0.0375 1 1 1
v 0.0275 0 -0.0375 1 1 1
v -0.0275 0.01875 -0.0375 1 1 1
v 0.0275 0.01875 -0.0375 1 1 1
v 0.0275 0.01875 0.0375 1 1 1
v 0.0275 0 0.0375 1 1 1
v -0.0275 0 0.0375 1 1 1
v -0.0275 0.01875 0.0375 1 1 1
v -0.0375 0 -0.0275 1 1 1
v -0.0375 0.01875 -0.0275 1 1 1
v -0.0375 0 0.0275 1 1 1
v -0.0375 0.01875 0.0275 1 1 1

vn 0 -0.7071068 0.7071068
vn 0 0 1
vn 0 -1 0
vn 0 -0.7071068 -0.7071068
vn 0 0 -1
vn 0 0.7071068 -0.7071068
vn 0 1 0
vn 0 0.7071068 0.7071068
vn 0.88148 0.4722214 0
vn -0.88148 0.4722214 0
vn 0 0.9238796 -0.3826835
vn 0 0.9238796 0.3826835
vn 0 0.3826835 -0.9238796
vn 0 -0.9238796 0.3826835
vn 0 -0.3826835 0.9238796
vn 0 0.3826835 0.9238796
vn 0 -0.9238796 -0.3826835
vn 0 -0.3826835 -0.9238796
vn 1 0 0
vn -1 0 0
vn 0.9238795 0 -0.3826834
vn 0.9238795 0 0.3826834
vn -0.3826834 0 -0.9238795
vn 0.3826834 0 -0.9238795
vn 0.3826834 0 0.9238795
vn -0.3826834 0 0.9238795
vn -0.9238795 0 -0.3826834
vn -0.9238795 0 0.3826834

vt 0.96875 0.05428933
vt 0.96875 0.125
vt 0.96875 0.025
vt 0.96875 0.1957107
vt 0.96875 0.225
vt 0.96875 0.2109649
vt 0.96875 0.03903509
vt 0.96875 0.1315069
vt 0.96875 0.1448578
vt 0.03125 0.375
vt 0.09375 0.2890351
vt 0.09375 0.3948578
vt 0.09375 0.3815069
vt 0.09375 0.475
vt 0.09375 0.4609649
vt 0.09375 0.175
vt 0.09375 0.075
vt 0.96875 0.2890351
vt 0.96875 0.275
vt 0.96875 0.3815069
vt 0.96875 0.4609649
vt 0.96875 0.3948578
vt 0.96875 0.475

usemtl colormap

f 3/2/2 2/1/1 1/1/1
f 2/1/1 3/2/2 4/2/2
f 2/1/1 5/3/3 1/1/1
f 5/3/3 2/1/1 6/3/3
f 6/3/3 7/1/4 5/3/3
f 7/1/4 6/3/3 8/1/4
f 9/2/5 7/1/4 8/1/4
f 7/1/4 9/2/5 10/2/5
f 11/4/6 10/2/5 9/2/5
f 10/2/5 11/4/6 12/4/6
f 11/4/6 13/5/7 12/4/6
f 13/5/7 11/4/6 14/5/7
f 14/5/7 15/4/8 13/5/7
f 15/4/8 14/5/7 16/4/8
f 15/4/8 4/2/2 3/2/2
f 4/2/2 15/4/8 16/4/8
f 19/3/5 18/5/5 17/5/5
f 18/5/5 19/3/5 20/3/5
f 21/3/9 18/5/9 20/3/9
f 18/5/9 21/3/9 22/5/9
f 17/5/10 23/3/10 19/3/10
f 23/3/10 17/5/10 24/5/10
f 21/3/2 24/5/2 22/5/2
f 24/5/2 21/3/2 23/3/2
f 27/5/11 26/5/12 25/5/11
f 26/5/12 27/5/11 28/5/12
f 27/5/11 30/6/13 29/6/13
f 30/6/13 27/5/11 25/5/11
f 33/7/15 32/3/14 31/3/14
f 32/3/14 33/7/15 34/7/15
f 33/7/15 35/8/2 34/7/15
f 35/8/2 33/7/15 36/8/2
f 35/8/2 36/8/2 37/6/16
f 35/8/2 37/6/16 38/6/16
f 32/3/14 39/3/17 31/3/14
f 39/3/17 32/3/14 40/3/17
f 43/9/5 42/7/18 41/7/18
f 42/7/18 43/9/5 44/9/5
f 44/9/5 43/9/5 29/6/13
f 44/9/5 29/6/13 30/6/13
f 41/7/18 39/3/17 40/3/17
f 39/3/17 41/7/18 42/7/18
f 28/5/12 37/6/16 26/5/12
f 37/6/16 28/5/12 38/6/16
f 12/10/19 7/10/19 10/10/19
f 7/10/19 12/10/19 45/10/19
f 7/10/19 45/10/19 46/10/19
f 46/10/19 45/10/19 15/10/19
f 46/10/19 15/10/19 1/10/19
f 1/10/19 15/10/19 3/10/19
f 8/10/20 11/10/20 9/10/20
f 11/10/20 8/10/20 47/10/20
f 11/10/20 47/10/20 48/10/20
f 48/10/20 47/10/20 2/10/20
f 48/10/20 2/10/20 16/10/20
f 16/10/20 2/10/20 4/10/20
f 35/13/20 43/12/20 41/11/20
f 43/12/20 35/13/20 28/14/20
f 28/14/20 35/13/20 38/15/20
f 26/14/19 42/11/19 44/12/19
f 42/11/19 26/14/19 36/13/19
f 36/13/19 26/14/19 37/15/19
f 51/16/22 50/17/21 49/16/21
f 50/17/21 51/16/22 52/17/22
f 55/16/23 54/17/24 53/17/23
f 54/17/24 55/16/23 56/16/24
f 57/16/25 52/17/22 51/16/22
f 52/17/22 57/16/25 58/17/25
f 57/16/25 59/17/26 58/17/25
f 59/17/26 57/16/25 60/16/26
f 63/17/28 62/16/27 61/17/27
f 62/16/27 63/17/28 64/16/28
f 59/17/26 64/16/28 63/17/28
f 64/16/28 59/17/26 60/16/26
f 58/17/3 50/17/3 52/17/3
f 50/17/3 58/17/3 54/17/3
f 54/17/3 58/17/3 59/17/3
f 54/17/3 59/17/3 53/17/3
f 53/17/3 59/17/3 63/17/3
f 53/17/3 63/17/3 61/17/3
f 49/16/7 57/16/7 51/16/7
f 57/16/7 49/16/7 56/16/7
f 57/16/7 56/16/7 60/16/7
f 60/16/7 56/16/7 55/16/7
f 60/16/7 55/16/7 62/16/7
f 60/16/7 62/16/7 64/16/7
f 56/16/24 50/17/21 54/17/24
f 50/17/21 56/16/24 49/16/21
f 62/16/27 53/17/23 61/17/27
f 53/17/23 62/16/27 55/16/23
f 36/20/19 39/19/19 42/18/19
f 39/19/19 36/20/19 31/19/19
f 31/19/19 36/20/19 33/18/19
f 25/23/19 44/22/19 30/21/19
f 44/22/19 25/23/19 26/23/19
f 28/23/20 29/21/20 43/22/20
f 29/21/20 28/23/20 27/23/20
f 40/19/20 35/20/20 41/18/20
f 35/20/20 40/19/20 32/19/20
f 35/20/20 32/19/20 34/18/20

g construction-light




usemtl colormap

f 3/2/2 2/1/1 1/1/1
f 2/1/1 3/2/2 4/2/2
f 2/1/1 5/3/3 1/1/1
f 5/3/3 2/1/1 6/3/3
f 6/3/3 7/1/4 5/3/3
f 7/1/4 6/3/3 8/1/4
f 9/2/5 7/1/4 8/1/4
f 7/1/4 9/2/5 10/2/5
f 11/4/6 10/2/5 9/2/5
f 10/2/5 11/4/6 12/4/6
f 11/4/6 13/5/7 12/4/6
f 13/5/7 11/4/6 14/5/7
f 14/5/7 15/4/8 13/5/7
f 15/4/8 14/5/7 16/4/8
f 15/4/8 4/2/2 3/2/2
f 4/2/2 15/4/8 16/4/8
f 19/3/5 18/5/5 17/5/5
f 18/5/5 19/3/5 20/3/5
f 21/3/9 18/5/9 20/3/9
f 18/5/9 21/3/9 22/5/9
f 17/5/10 23/3/10 19/3/10
f 23/3/10 17/5/10 24/5/10
f 21/3/2 24/5/2 22/5/2
f 24/5/2 21/3/2 23/3/2
f 27/5/11 26/5/12 25/5/11
f 26/5/12 27/5/11 28/5/12
f 27/5/11 30/6/13 29/6/13
f 30/6/13 27/5/11 25/5/11
f 33/7/15 32/3/14 31/3/14
f 32/3/14 33/7/15 34/7/15
f 33/7/15 35/8/2 34/7/15
f 35/8/2 33/7/15 36/8/2
f 35/8/2 36/8/2 37/6/16
f 35/8/2 37/6/16 38/6/16
f 32/3/14 39/3/17 31/3/14
f 39/3/17 32/3/14 40/3/17
f 43/9/5 42/7/18 41/7/18
f 42/7/18 43/9/5 44/9/5
f 44/9/5 43/9/5 29/6/13
f 44/9/5 29/6/13 30/6/13
f 41/7/18 39/3/17 40/3/17
f 39/3/17 41/7/18 42/7/18
f 28/5/12 37/6/16 26/5/12
f 37/6/16 28/5/12 38/6/16
f 12/10/19 7/10/19 10/10/19
f 7/10/19 12/10/19 45/10/19
f 7/10/19 45/10/19 46/10/19
f 46/10/19 45/10/19 15/10/19
f 46/10/19 15/10/19 1/10/19
f 1/10/19 15/10/19 3/10/19
f 8/10/20 11/10/20 9/10/20
f 11/10/20 8/10/20 47/10/20
f 11/10/20 47/10/20 48/10/20
f 48/10/20 47/10/20 2/10/20
f 48/10/20 2/10/20 16/10/20
f 16/10/20 2/10/20 4/10/20
f 35/13/20 43/12/20 41/11/20
f 43/12/20 35/13/20 28/14/20
f 28/14/20 35/13/20 38/15/20
f 26/14/19 42/11/19 44/12/19
f 42/11/19 26/14/19 36/13/19
f 36/13/19 26/14/19 37/15/19
f 51/16/22 50/17/21 49/16/21
f 50/17/21 51/16/22 52/17/22
f 55/16/23 54/17/24 53/17/23
f 54/17/24 55/16/23 56/16/24
f 57/16/25 52/17/22 51/16/22
f 52/17/22 57/16/25 58/17/25
f 57/16/25 59/17/26 58/17/25
f 59/17/26 57/16/25 60/16/26
f 63/17/28 62/16/27 61/17/27
f 62/16/27 63/17/28 64/16/28
f 59/17/26 64/16/28 63/17/28
f 64/16/28 59/17/26 60/16/26
f 58/17/3 50/17/3 52/17/3
f 50/17/3 58/17/3 54/17/3
f 54/17/3 58/17/3 59/17/3
f 54/17/3 59/17/3 53/17/3
f 53/17/3 59/17/3 63/17/3
f 53/17/3 63/17/3 61/17/3
f 49/16/7 57/16/7 51/16/7
f 57/16/7 49/16/7 56/16/7
f 57/16/7 56/16/7 60/16/7
f 60/16/7 56/16/7 55/16/7
f 60/16/7 55/16/7 62/16/7
f 60/16/7 62/16/7 64/16/7
f 56/16/24 50/17/21 54/17/24
f 50/17/21 56/16/24 49/16/21
f 62/16/27 53/17/23 61/17/27
f 53/17/23 62/16/27 55/16/23
f 36/20/19 39/19/19 42/18/19
f 39/19/19 36/20/19 31/19/19
f 31/19/19 36/20/19 33/18/19
f 25/23/19 44/22/19 30/21/19
f 44/22/19 25/23/19 26/23/19
f 28/23/20 29/21/20 43/22/20
f 29/21/20 28/23/20 27/23/20
f 40/19/20 35/20/20 41/18/20
f 35/20/20 40/19/20 32/19/20
f 35/20/20 32/19/20 34/18/20

