# Created by Kenney (www.kenney.nl)

mtllib light-curved-cross.mtl

g light-curved-cross

v -0.006629206 0.6258634 0.006629206 1 1 1
v 9.565326E-15 0.6131557 -1.010676E-14 1 1 1
v 0.006629206 0.6258634 0.006629206 1 1 1
v 0.006629206 0.6258634 -0.006629206 1 1 1
v -0.006629206 0.6258634 -0.006629206 1 1 1
v -0.15 0.6527778 0.025 1 1 1
v -0.2 0.6527778 0.025 1 1 1
v -0.15 0.675 0.025 1 1 1
v -0.2 0.675 0.025 1 1 1
v -0.07282919 0.6716933 0.0125 1 1 1
v -0.1 0.675 0.0125 1 1 1
v -0.07282919 0.6716933 -0.0125 1 1 1
v -0.1 0.675 -0.0125 1 1 1
v -0.02737827 0.6145604 -0.0125 1 1 1
v -0.04146447 0.6305226 -0.0125 1 1 1
v -0.02737827 0.6145604 0.0125 1 1 1
v -0.04146447 0.6305226 0.0125 1 1 1
v -0.01753183 0.5956856 -0.0125 1 1 1
v -0.01753183 0.5956856 0.0125 1 1 1
v 0.01753183 0.5956856 -0.0125 1 1 1
v 0.0125 0.575 -0.0125 1 1 1
v 0.01753183 0.5956856 0.0125 1 1 1
v 0.0125 0.575 0.0125 1 1 1
v -0.1 0.6527778 0.0125 1 1 1
v -0.2 0.6527778 -0.025 1 1 1
v -0.2 0.675 -0.025 1 1 1
v -0.04724465 0.661966 0.0125 1 1 1
v -0.04724465 0.661966 -0.0125 1 1 1
v 0.1 0.6527778 0.0125 1 1 1
v 0.1 0.6527778 -0.0125 1 1 1
v 0.07886714 0.6502059 0.0125 1 1 1
v 0.07886714 0.6502059 -0.0125 1 1 1
v 0.15 0.6527778 0.025 1 1 1
v 0.15 0.675 0.025 1 1 1
v 0.1 0.675 0.0125 1 1 1
v 0.2 0.6527778 0.025 1 1 1
v 0.2 0.675 0.025 1 1 1
v -0.05896806 0.6426402 0.0125 1 1 1
v -0.05896806 0.6426402 -0.0125 1 1 1
v -0.15 0.6527778 -0.025 1 1 1
v -0.1 0.6527778 -0.0125 1 1 1
v -0.15 0.675 -0.025 1 1 1
v 0.05896806 0.6426402 0.0125 1 1 1
v 0.05896806 0.6426402 -0.0125 1 1 1
v 0.04146447 0.6305226 0.0125 1 1 1
v 0.04146447 0.6305226 -0.0125 1 1 1
v -0.07886714 0.6502059 0.0125 1 1 1
v -0.07886714 0.6502059 -0.0125 1 1 1
v 0.2 0.675 -0.025 1 1 1
v 0.2 0.6527778 -0.025 1 1 1
v -0.02474003 0.6463862 0.0125 1 1 1
v -0.02474003 0.6463862 -0.0125 1 1 1
v 0.07282919 0.6716933 0.0125 1 1 1
v 0.04724465 0.661966 0.0125 1 1 1
v 0.07282919 0.6716933 -0.0125 1 1 1
v 0.04724465 0.661966 -0.0125 1 1 1
v -0.0125 0.6145604 -0.02737827 1 1 1
v 0.0125 0.6145604 -0.02737827 1 1 1
v -0.0125 0.6305226 -0.04146447 1 1 1
v 0.0125 0.6305226 -0.04146447 1 1 1
v 0.0125 0.675 0.1 1 1 1
v 0.0125 0.6527778 0.1 1 1 1
v 0.025 0.675 0.15 1 1 1
v 0.025 0.6527778 0.15 1 1 1
v -0.0125 0.675 0.1 1 1 1
v 0.0125 0.6716933 0.07282919 1 1 1
v -0.0125 0.6716933 0.07282919 1 1 1
v 0.025 0.6527778 0.2 1 1 1
v -0.025 0.6527778 0.2 1 1 1
v 0.025 0.675 0.2 1 1 1
v -0.025 0.675 0.2 1 1 1
v 0.025 0.675 -0.2 1 1 1
v 0.025 0.675 -0.15 1 1 1
v -0.025 0.675 -0.2 1 1 1
v 0.0125 0.675 -0.1 1 1 1
v -0.0125 0.675 -0.1 1 1 1
v -0.025 0.675 -0.15 1 1 1
v 0.0125 0.661966 -0.04724465 1 1 1
v 0.0125 0.6463862 -0.02474003 1 1 1
v -0.0125 0.661966 -0.04724465 1 1 1
v -0.0125 0.6463862 -0.02474003 1 1 1
v 0.0125 0.6426402 -0.05896806 1 1 1
v 0.0125 0.6502059 -0.07886714 1 1 1
v -0.0125 0.6426402 -0.05896806 1 1 1
v -0.0125 0.6502059 -0.07886714 1 1 1
v 0.0125 0.15 0.0125 1 1 1
v -0.0125 0.15 0.0125 1 1 1
v -0.0125 0.575 0.0125 1 1 1
v -0.0125 0.632516 0.0125 1 1 1
v 0.0125 0.632516 0.0125 1 1 1
v 0.02737827 0.6145604 0.0125 1 1 1
v 0.02474003 0.6463862 0.0125 1 1 1
v 0.0125 0.632516 -0.0125 1 1 1
v -0.0125 0.632516 -0.0125 1 1 1
v 0.0125 0.6716933 -0.07282919 1 1 1
v -0.0125 0.6716933 -0.07282919 1 1 1
v 0.02737827 0.6145604 -0.0125 1 1 1
v -0.025 0.675 0.15 1 1 1
v -0.0125 0.6527778 0.1 1 1 1
v -0.025 0.6527778 0.15 1 1 1
v 0.15 0.675 -0.025 1 1 1
v 0.1 0.675 -0.0125 1 1 1
v 0.15 0.6527778 -0.025 1 1 1
v -0.025 0.6527778 -0.15 1 1 1
v -0.0125 0.6527778 -0.1 1 1 1
v 0.0125 0.6527778 -0.1 1 1 1
v -0.0125 0.575 -0.0125 1 1 1
v 0.0125 0.6463862 0.02474003 1 1 1
v -0.0125 0.6463862 0.02474003 1 1 1
v 0.0125 0.6502059 0.07886714 1 1 1
v -0.0125 0.6502059 0.07886714 1 1 1
v 0.02474003 0.6463862 -0.0125 1 1 1
v -0.0125 0.5956856 0.01753183 1 1 1
v 0.0125 0.5956856 0.01753183 1 1 1
v 0.0125 0.6305226 0.04146447 1 1 1
v -0.0125 0.6305226 0.04146447 1 1 1
v 0.0125 0.6426402 0.05896806 1 1 1
v -0.0125 0.6426402 0.05896806 1 1 1
v 0.0125 0.15 -0.0125 1 1 1
v 0.0125 0.5956856 -0.01753183 1 1 1
v 0.0125 0.6145604 0.02737827 1 1 1
v 0.0125 0.661966 0.04724465 1 1 1
v -0.025 0.6527778 -0.2 1 1 1
v 0.025 0.6527778 -0.2 1 1 1
v -0.0125 0.5956856 -0.01753183 1 1 1
v -0.0125 0.661966 0.04724465 1 1 1
v -0.0125 0.15 -0.0125 1 1 1
v -0.0125 0.6145604 0.02737827 1 1 1
v 0.025 0.6527778 -0.15 1 1 1
v -0.025 0.1 -0.025 1 1 1
v -0.025 0.1 0.025 1 1 1
v 0.025 0.1 -0.025 1 1 1
v 0.025 0 -0.025 1 1 1
v 0.025 0.1 0.025 1 1 1
v 0.025 0 0.025 1 1 1
v -0.025 0 0.025 1 1 1
v -0.025 0 -0.025 1 1 1

vn 0 0.5968242 -0.802372
vn 0 0.4625177 -0.8866101
vn -0.8866101 0.4625177 0
vn -0.802372 0.5968242 0
vn 0 0.5968242 0.802372
vn 0 0.4625177 0.8866101
vn 0.802372 0.5968242 0
vn 0.8866101 0.4625177 0
vn 0.1221833 0 0.9925076
vn 0 0 1
vn 0.2398527 0.9708093 0
vn 0.05613833 0.998423 0
vn -0.8242387 -0.5662425 0
vn -0.6643638 -0.7474093 0
vn -0.9359934 -0.3520176 0
vn 0.9359934 -0.3520176 0
vn 0.9716654 -0.2363607 0
vn 0.2425356 0 0.9701425
vn -1 0 0
vn 0.4657024 0.8849414 0
vn 0.1208112 -0.9926755 0
vn 0.2398527 -0.9708093 0
vn -0.1221833 0 0.9925076
vn -0.2425356 0 0.9701425
vn -0.4657024 -0.8849414 0
vn 0.1221833 0 -0.9925076
vn 0.2425356 0 -0.9701425
vn 0.4657024 -0.8849414 0
vn 0.6643638 -0.7474093 0
vn -0.2398527 -0.9708093 0
vn -0.1208112 -0.9926755 0
vn 0 1 0
vn 1 0 0
vn 0.6643638 0.7474093 0
vn 0 0 -1
vn -0.2398527 0.9708093 0
vn -0.4657024 0.8849414 0
vn 0 -0.5662425 -0.8242387
vn 0 -0.7474093 -0.6643638
vn 0.9701425 0 -0.2425356
vn 0.9925076 0 -0.1221833
vn 0 0.998423 -0.05613833
vn 0 0.9708093 -0.2398527
vn 0 0.998423 0.05613833
vn 0 0.8849414 0.4657024
vn 0 0.7474093 0.6643638
vn 0 -0.8849414 -0.4657024
vn 0 -0.9708093 -0.2398527
vn 0 0.6616723 0.7497932
vn 0 0.9708093 0.2398527
vn 0.8242387 -0.5662425 0
vn -0.9701425 0 -0.2425356
vn -0.9925076 0 -0.1221833
vn -0.05613833 0.998423 0
vn -0.2425356 0 -0.9701425
vn -0.1221833 0 -0.9925076
vn -0.9925076 0 0.1221833
vn -0.9701425 0 0.2425356
vn 0 -0.9926755 -0.1208112
vn -0.9716654 -0.2363607 0
vn 0 0.6616723 -0.7497932
vn 0 0.7474093 -0.6643638
vn 0 -0.9926755 0.1208112
vn 0 -0.9708093 0.2398527
vn -0.6643638 0.7474093 0
vn 0 -0.2363607 0.9716654
vn 0 -0.3520176 0.9359934
vn 0 -0.7474093 0.6643638
vn 0 -0.8849414 0.4657024
vn 0 -0.2363607 -0.9716654
vn 0 -0.3520176 -0.9359934
vn 0 0.8849414 -0.4657024
vn 0 -0.5662425 0.8242387
vn 0.7497932 0.6616723 0
vn 0.9925076 0 0.1221833
vn 0.9701425 0 0.2425356
vn -0.7497932 0.6616723 0
vn -0.9936895 0.1121652 0
vn -0.9701425 0.2425356 0
vn 0.9936895 0.1121652 0
vn 0 -1 0
vn 0.9701425 0.2425356 0
vn 0 0.1121652 -0.9936895
vn 0 0.2425356 -0.9701425
vn 0 0.1121652 0.9936895
vn 0 0.2425356 0.9701425

vt 0.96875 0.210441
vt 0.96875 0.2066758
vt 0.96875 0.2184156
vt 0.96875 0.225
vt 0.96875 0.2240202
vt 0.96875 0.207092
vt 0.96875 0.2118215
vt 0.96875 0.2014994
vt 0.96875 0.1953704
vt 0.96875 0.2211381
vt 0.96875 0.2176536
vt 0.96875 0.2154119
vt 0.96875 0.2165218
vt 0.96875 0.06944445
vt 0.96875 0.2124122
vt 0.96875 0.1416667
vt 0.96875 0.175
vt 0.96875 0.075
vt 0.03125 0.375

usemtl colormap

f 3/1/1 2/2/2 1/1/1
f 3/1/4 4/1/4 2/2/3
f 5/1/5 2/2/6 4/1/5
f 1/1/7 2/2/8 5/1/7
f 8/4/9 7/3/10 6/3/9
f 7/3/10 8/4/9 9/4/10
f 12/5/11 11/4/12 10/5/11
f 11/4/12 12/5/11 13/4/12
f 16/6/13 15/7/14 14/6/13
f 15/7/14 16/6/13 17/7/14
f 19/8/15 14/6/13 18/8/15
f 14/6/13 19/8/15 16/6/13
f 22/8/16 21/9/17 20/8/16
f 21/9/17 22/8/16 23/9/17
f 11/4/18 6/3/9 24/3/18
f 6/3/9 11/4/18 8/4/9
f 7/3/19 26/4/19 25/3/19
f 26/4/19 7/3/19 9/4/19
f 28/10/20 10/5/11 27/10/20
f 10/5/11 28/10/20 12/5/11
f 31/11/22 30/3/21 29/3/21
f 30/3/21 31/11/22 32/11/22
f 34/4/23 29/3/24 33/3/23
f 29/3/24 34/4/23 35/4/24
f 37/4/10 33/3/23 36/3/10
f 33/3/23 37/4/10 34/4/23
f 38/12/25 15/7/14 17/7/14
f 15/7/14 38/12/25 39/12/25
f 42/4/26 41/3/27 40/3/26
f 41/3/27 42/4/26 13/4/27
f 45/7/29 44/12/28 43/12/28
f 44/12/28 45/7/29 46/7/29
f 24/3/31 48/11/30 47/11/30
f 48/11/30 24/3/31 41/3/31
f 13/4/12 8/4/32 11/4/12
f 8/4/32 13/4/12 42/4/32
f 8/4/32 42/4/32 9/4/32
f 9/4/32 42/4/32 26/4/32
f 37/4/33 50/3/33 49/4/33
f 50/3/33 37/4/33 36/3/33
f 47/11/30 39/12/25 38/12/25
f 39/12/25 47/11/30 48/11/30
f 52/13/34 27/10/20 51/13/34
f 27/10/20 52/13/34 28/10/20
f 26/4/35 40/3/26 25/3/35
f 40/3/26 26/4/35 42/4/26
f 55/5/36 54/10/37 53/5/36
f 54/10/37 55/5/36 56/10/37
f 59/7/39 58/6/38 57/6/38
f 58/6/38 59/7/39 60/7/39
f 63/4/41 62/3/40 61/4/40
f 62/3/40 63/4/41 64/3/41
f 66/5/43 65/4/42 61/4/42
f 65/4/42 66/5/43 67/5/43
f 70/4/10 69/3/10 68/3/10
f 69/3/10 70/4/10 71/4/10
f 74/4/32 73/4/32 72/4/32
f 73/4/32 74/4/32 75/4/44
f 75/4/44 74/4/32 76/4/44
f 76/4/44 74/4/32 77/4/32
f 80/10/45 79/13/46 78/10/45
f 79/13/46 80/10/45 81/13/46
f 84/12/47 83/11/48 82/12/47
f 83/11/48 84/12/47 85/11/48
f 23/9/10 87/14/10 86/14/10
f 87/14/10 23/9/10 88/9/10
f 89/15/10 19/8/10 88/9/10
f 19/8/10 89/15/10 16/6/10
f 16/6/10 89/15/10 17/7/10
f 17/7/10 89/15/10 38/12/10
f 38/12/10 89/15/10 51/13/10
f 38/12/10 51/13/10 47/11/10
f 47/11/10 51/13/10 27/10/10
f 47/11/10 27/10/10 24/3/10
f 24/3/10 27/10/10 11/4/10
f 11/4/10 27/10/10 10/5/10
f 22/8/10 90/15/10 23/9/10
f 90/15/10 22/8/10 91/6/10
f 90/15/10 91/6/10 45/7/10
f 90/15/10 45/7/10 43/12/10
f 90/15/10 43/12/10 92/13/10
f 92/13/10 43/12/10 31/11/10
f 92/13/10 31/11/10 54/10/10
f 54/10/10 31/11/10 29/3/10
f 54/10/10 29/3/10 35/4/10
f 54/10/10 35/4/10 53/5/10
f 93/15/49 5/1/5 4/1/5
f 5/1/5 93/15/49 94/15/49
f 94/15/49 93/15/49 81/13/46
f 81/13/46 93/15/49 79/13/46
f 75/4/44 96/5/50 95/5/50
f 96/5/50 75/4/44 76/4/44
f 91/6/51 20/8/16 97/6/51
f 20/8/16 91/6/51 22/8/16
f 99/3/52 98/4/53 65/4/52
f 98/4/53 99/3/52 100/3/53
f 49/4/32 34/4/32 37/4/32
f 34/4/32 49/4/32 101/4/32
f 34/4/32 101/4/32 35/4/54
f 35/4/54 101/4/32 102/4/54
f 102/4/55 103/3/56 30/3/55
f 103/3/56 102/4/55 101/4/56
f 70/4/33 64/3/41 63/4/41
f 64/3/41 70/4/33 68/3/33
f 102/4/54 53/5/36 35/4/54
f 53/5/36 102/4/54 55/5/36
f 61/4/42 70/4/32 63/4/32
f 70/4/32 61/4/42 71/4/32
f 71/4/32 61/4/42 65/4/42
f 71/4/32 65/4/42 98/4/32
f 101/4/56 50/3/35 103/3/56
f 50/3/35 101/4/56 49/4/35
f 105/3/58 77/4/57 104/3/57
f 77/4/57 105/3/58 76/4/58
f 85/11/48 106/3/59 83/11/48
f 106/3/59 85/11/48 105/3/59
f 88/9/60 18/8/15 107/9/60
f 18/8/15 88/9/60 19/8/15
f 45/7/29 97/6/51 46/7/29
f 97/6/51 45/7/29 91/6/51
f 89/15/61 3/1/1 1/1/1
f 3/1/1 89/15/61 90/15/61
f 90/15/61 89/15/61 108/13/62
f 108/13/62 89/15/61 109/13/62
f 99/3/63 110/11/64 62/3/63
f 110/11/64 99/3/63 111/11/64
f 56/10/37 92/13/65 54/10/37
f 92/13/65 56/10/37 112/13/65
f 43/12/28 32/11/22 31/11/22
f 32/11/22 43/12/28 44/12/28
f 69/3/19 98/4/53 100/3/53
f 98/4/53 69/3/19 71/4/19
f 23/9/66 113/8/67 88/9/66
f 113/8/67 23/9/66 114/8/67
f 117/12/69 116/7/68 115/7/68
f 116/7/68 117/12/69 118/12/69
f 119/14/33 23/9/33 86/14/33
f 23/9/33 119/14/33 21/9/33
f 120/8/33 93/15/33 21/9/33
f 120/8/33 79/13/33 93/15/33
f 58/6/33 79/13/33 120/8/33
f 60/7/33 79/13/33 58/6/33
f 60/7/33 78/10/33 79/13/33
f 82/12/33 78/10/33 60/7/33
f 82/12/33 95/5/33 78/10/33
f 83/11/33 95/5/33 82/12/33
f 83/11/33 75/4/33 95/5/33
f 75/4/33 83/11/33 106/3/33
f 108/13/33 23/9/33 90/15/33
f 23/9/33 108/13/33 114/8/33
f 114/8/33 108/13/33 121/6/33
f 121/6/33 108/13/33 122/10/33
f 121/6/33 122/10/33 115/7/33
f 115/7/33 122/10/33 117/12/33
f 117/12/33 122/10/33 66/5/33
f 117/12/33 66/5/33 110/11/33
f 110/11/33 66/5/33 61/4/33
f 110/11/33 61/4/33 62/3/33
f 74/4/35 124/3/35 123/3/35
f 124/3/35 74/4/35 72/4/35
f 125/8/71 21/9/70 107/9/70
f 21/9/70 125/8/71 120/8/71
f 59/7/39 82/12/47 60/7/39
f 82/12/47 59/7/39 84/12/47
f 109/13/62 122/10/72 108/13/62
f 122/10/72 109/13/62 126/10/72
f 102/4/35 56/10/35 55/5/35
f 30/3/35 56/10/35 102/4/35
f 32/11/35 56/10/35 30/3/35
f 32/11/35 112/13/35 56/10/35
f 44/12/35 112/13/35 32/11/35
f 44/12/35 93/15/35 112/13/35
f 46/7/35 93/15/35 44/12/35
f 97/6/35 93/15/35 46/7/35
f 20/8/35 93/15/35 97/6/35
f 93/15/35 20/8/35 21/9/35
f 119/14/35 107/9/35 21/9/35
f 107/9/35 119/14/35 127/14/35
f 18/8/35 94/15/35 107/9/35
f 94/15/35 18/8/35 14/6/35
f 94/15/35 14/6/35 15/7/35
f 94/15/35 15/7/35 39/12/35
f 94/15/35 39/12/35 52/13/35
f 52/13/35 39/12/35 48/11/35
f 52/13/35 48/11/35 28/10/35
f 28/10/35 48/11/35 41/3/35
f 28/10/35 41/3/35 13/4/35
f 28/10/35 13/4/35 12/5/35
f 57/6/38 120/8/71 125/8/71
f 120/8/71 57/6/38 58/6/38
f 126/10/72 66/5/43 122/10/72
f 66/5/43 126/10/72 67/5/43
f 115/7/68 128/6/73 121/6/73
f 128/6/73 115/7/68 116/7/68
f 104/3/57 74/4/19 123/3/19
f 74/4/19 104/3/57 77/4/57
f 96/5/50 78/10/45 95/5/50
f 78/10/45 96/5/50 80/10/45
f 85/11/19 76/4/19 105/3/19
f 76/4/19 85/11/19 96/5/19
f 96/5/19 85/11/19 84/12/19
f 96/5/19 84/12/19 80/10/19
f 80/10/19 84/12/19 59/7/19
f 80/10/19 59/7/19 81/13/19
f 81/13/19 59/7/19 57/6/19
f 81/13/19 57/6/19 125/8/19
f 81/13/19 125/8/19 94/15/19
f 94/15/19 125/8/19 107/9/19
f 87/14/19 107/9/19 127/14/19
f 107/9/19 87/14/19 88/9/19
f 113/8/19 89/15/19 88/9/19
f 89/15/19 113/8/19 109/13/19
f 109/13/19 113/8/19 128/6/19
f 109/13/19 128/6/19 126/10/19
f 126/10/19 128/6/19 116/7/19
f 126/10/19 116/7/19 118/12/19
f 126/10/19 118/12/19 67/5/19
f 67/5/19 118/12/19 111/11/19
f 67/5/19 111/11/19 65/4/19
f 65/4/19 111/11/19 99/3/19
f 52/13/34 5/1/7 94/15/74
f 5/1/7 52/13/34 51/13/34
f 5/1/7 51/13/34 1/1/7
f 1/1/7 51/13/34 89/15/74
f 110/11/64 118/12/69 117/12/69
f 118/12/69 110/11/64 111/11/64
f 73/4/75 124/3/33 72/4/33
f 124/3/33 73/4/75 129/3/75
f 75/4/76 129/3/75 73/4/75
f 129/3/75 75/4/76 106/3/76
f 121/6/73 113/8/67 114/8/67
f 113/8/67 121/6/73 128/6/73
f 93/15/77 92/13/65 112/13/65
f 92/13/65 93/15/77 4/1/4
f 92/13/65 4/1/4 3/1/4
f 92/13/65 3/1/4 90/15/77
f 131/16/78 127/17/79 130/16/78
f 127/17/79 131/16/78 87/17/79
f 134/16/80 133/18/33 132/16/80
f 133/18/33 134/16/80 135/18/33
f 136/18/81 133/18/81 135/18/81
f 133/18/81 136/18/81 137/18/81
f 119/17/82 134/16/80 132/16/80
f 134/16/80 119/17/82 86/17/82
f 127/17/84 132/16/83 130/16/83
f 132/16/83 127/17/84 119/17/84
f 134/16/85 136/18/10 135/18/10
f 136/18/10 134/16/85 131/16/85
f 130/16/83 133/18/35 137/18/35
f 133/18/35 130/16/83 132/16/83
f 136/18/19 130/16/78 137/18/19
f 130/16/78 136/18/19 131/16/78
f 86/17/86 131/16/85 134/16/85
f 131/16/85 86/17/86 87/17/86
f 6/19/81 41/19/81 24/19/81
f 41/19/81 6/19/81 40/19/81
f 40/19/81 6/19/81 7/19/81
f 40/19/81 7/19/81 25/19/81
f 68/19/81 62/19/81 64/19/81
f 62/19/81 68/19/81 69/19/81
f 62/19/81 69/19/81 99/19/81
f 99/19/81 69/19/81 100/19/81
f 33/19/81 50/19/81 36/19/81
f 50/19/81 33/19/81 103/19/81
f 103/19/81 33/19/81 29/19/81
f 103/19/81 29/19/81 30/19/81
f 106/19/81 124/19/81 129/19/81
f 124/19/81 106/19/81 123/19/81
f 123/19/81 106/19/81 105/19/81
f 123/19/81 105/19/81 104/19/81

g light-curved-cross




usemtl colormap

f 3/1/1 2/2/2 1/1/1
f 3/1/4 4/1/4 2/2/3
f 5/1/5 2/2/6 4/1/5
f 1/1/7 2/2/8 5/1/7
f 8/4/9 7/3/10 6/3/9
f 7/3/10 8/4/9 9/4/10
f 12/5/11 11/4/12 10/5/11
f 11/4/12 12/5/11 13/4/12
f 16/6/13 15/7/14 14/6/13
f 15/7/14 16/6/13 17/7/14
f 19/8/15 14/6/13 18/8/15
f 14/6/13 19/8/15 16/6/13
f 22/8/16 21/9/17 20/8/16
f 21/9/17 22/8/16 23/9/17
f 11/4/18 6/3/9 24/3/18
f 6/3/9 11/4/18 8/4/9
f 7/3/19 26/4/19 25/3/19
f 26/4/19 7/3/19 9/4/19
f 28/10/20 10/5/11 27/10/20
f 10/5/11 28/10/20 12/5/11
f 31/11/22 30/3/21 29/3/21
f 30/3/21 31/11/22 32/11/22
f 34/4/23 29/3/24 33/3/23
f 29/3/24 34/4/23 35/4/24
f 37/4/10 33/3/23 36/3/10
f 33/3/23 37/4/10 34/4/23
f 38/12/25 15/7/14 17/7/14
f 15/7/14 38/12/25 39/12/25
f 42/4/26 41/3/27 40/3/26
f 41/3/27 42/4/26 13/4/27
f 45/7/29 44/12/28 43/12/28
f 44/12/28 45/7/29 46/7/29
f 24/3/31 48/11/30 47/11/30
f 48/11/30 24/3/31 41/3/31
f 13/4/12 8/4/32 11/4/12
f 8/4/32 13/4/12 42/4/32
f 8/4/32 42/4/32 9/4/32
f 9/4/32 42/4/32 26/4/32
f 37/4/33 50/3/33 49/4/33
f 50/3/33 37/4/33 36/3/33
f 47/11/30 39/12/25 38/12/25
f 39/12/25 47/11/30 48/11/30
f 52/13/34 27/10/20 51/13/34
f 27/10/20 52/13/34 28/10/20
f 26/4/35 40/3/26 25/3/35
f 40/3/26 26/4/35 42/4/26
f 55/5/36 54/10/37 53/5/36
f 54/10/37 55/5/36 56/10/37
f 59/7/39 58/6/38 57/6/38
f 58/6/38 59/7/39 60/7/39
f 63/4/41 62/3/40 61/4/40
f 62/3/40 63/4/41 64/3/41
f 66/5/43 65/4/42 61/4/42
f 65/4/42 66/5/43 67/5/43
f 70/4/10 69/3/10 68/3/10
f 69/3/10 70/4/10 71/4/10
f 74/4/32 73/4/32 72/4/32
f 73/4/32 74/4/32 75/4/44
f 75/4/44 74/4/32 76/4/44
f 76/4/44 74/4/32 77/4/32
f 80/10/45 79/13/46 78/10/45
f 79/13/46 80/10/45 81/13/46
f 84/12/47 83/11/48 82/12/47
f 83/11/48 84/12/47 85/11/48
f 23/9/10 87/14/10 86/14/10
f 87/14/10 23/9/10 88/9/10
f 89/15/10 19/8/10 88/9/10
f 19/8/10 89/15/10 16/6/10
f 16/6/10 89/15/10 17/7/10
f 17/7/10 89/15/10 38/12/10
f 38/12/10 89/15/10 51/13/10
f 38/12/10 51/13/10 47/11/10
f 47/11/10 51/13/10 27/10/10
f 47/11/10 27/10/10 24/3/10
f 24/3/10 27/10/10 11/4/10
f 11/4/10 27/10/10 10/5/10
f 22/8/10 90/15/10 23/9/10
f 90/15/10 22/8/10 91/6/10
f 90/15/10 91/6/10 45/7/10
f 90/15/10 45/7/10 43/12/10
f 90/15/10 43/12/10 92/13/10
f 92/13/10 43/12/10 31/11/10
f 92/13/10 31/11/10 54/10/10
f 54/10/10 31/11/10 29/3/10
f 54/10/10 29/3/10 35/4/10
f 54/10/10 35/4/10 53/5/10
f 93/15/49 5/1/5 4/1/5
f 5/1/5 93/15/49 94/15/49
f 94/15/49 93/15/49 81/13/46
f 81/13/46 93/15/49 79/13/46
f 75/4/44 96/5/50 95/5/50
f 96/5/50 75/4/44 76/4/44
f 91/6/51 20/8/16 97/6/51
f 20/8/16 91/6/51 22/8/16
f 99/3/52 98/4/53 65/4/52
f 98/4/53 99/3/52 100/3/53
f 49/4/32 34/4/32 37/4/32
f 34/4/32 49/4/32 101/4/32
f 34/4/32 101/4/32 35/4/54
f 35/4/54 101/4/32 102/4/54
f 102/4/55 103/3/56 30/3/55
f 103/3/56 102/4/55 101/4/56
f 70/4/33 64/3/41 63/4/41
f 64/3/41 70/4/33 68/3/33
f 102/4/54 53/5/36 35/4/54
f 53/5/36 102/4/54 55/5/36
f 61/4/42 70/4/32 63/4/32
f 70/4/32 61/4/42 71/4/32
f 71/4/32 61/4/42 65/4/42
f 71/4/32 65/4/42 98/4/32
f 101/4/56 50/3/35 103/3/56
f 50/3/35 101/4/56 49/4/35
f 105/3/58 77/4/57 104/3/57
f 77/4/57 105/3/58 76/4/58
f 85/11/48 106/3/59 83/11/48
f 106/3/59 85/11/48 105/3/59
f 88/9/60 18/8/15 107/9/60
f 18/8/15 88/9/60 19/8/15
f 45/7/29 97/6/51 46/7/29
f 97/6/51 45/7/29 91/6/51
f 89/15/61 3/1/1 1/1/1
f 3/1/1 89/15/61 90/15/61
f 90/15/61 89/15/61 108/13/62
f 108/13/62 89/15/61 109/13/62
f 99/3/63 110/11/64 62/3/63
f 110/11/64 99/3/63 111/11/64
f 56/10/37 92/13/65 54/10/37
f 92/13/65 56/10/37 112/13/65
f 43/12/28 32/11/22 31/11/22
f 32/11/22 43/12/28 44/12/28
f 69/3/19 98/4/53 100/3/53
f 98/4/53 69/3/19 71/4/19
f 23/9/66 113/8/67 88/9/66
f 113/8/67 23/9/66 114/8/67
f 117/12/69 116/7/68 115/7/68
f 116/7/68 117/12/69 118/12/69
f 119/14/33 23/9/33 86/14/33
f 23/9/33 119/14/33 21/9/33
f 120/8/33 93/15/33 21/9/33
f 120/8/33 79/13/33 93/15/33
f 58/6/33 79/13/33 120/8/33
f 60/7/33 79/13/33 58/6/33
f 60/7/33 78/10/33 79/13/33
f 82/12/33 78/10/33 60/7/33
f 82/12/33 95/5/33 78/10/33
f 83/11/33 95/5/33 82/12/33
f 83/11/33 75/4/33 95/5/33
f 75/4/33 83/11/33 106/3/33
f 108/13/33 23/9/33 90/15/33
f 23/9/33 108/13/33 114/8/33
f 114/8/33 108/13/33 121/6/33
f 121/6/33 108/13/33 122/10/33
f 121/6/33 122/10/33 115/7/33
f 115/7/33 122/10/33 117/12/33
f 117/12/33 122/10/33 66/5/33
f 117/12/33 66/5/33 110/11/33
f 110/11/33 66/5/33 61/4/33
f 110/11/33 61/4/33 62/3/33
f 74/4/35 124/3/35 123/3/35
f 124/3/35 74/4/35 72/4/35
f 125/8/71 21/9/70 107/9/70
f 21/9/70 125/8/71 120/8/71
f 59/7/39 82/12/47 60/7/39
f 82/12/47 59/7/39 84/12/47
f 109/13/62 122/10/72 108/13/62
f 122/10/72 109/13/62 126/10/72
f 102/4/35 56/10/35 55/5/35
f 30/3/35 56/10/35 102/4/35
f 32/11/35 56/10/35 30/3/35
f 32/11/35 112/13/35 56/10/35
f 44/12/35 112/13/35 32/11/35
f 44/12/35 93/15/35 112/13/35
f 46/7/35 93/15/35 44/12/35
f 97/6/35 93/15/35 46/7/35
f 20/8/35 93/15/35 97/6/35
f 93/15/35 20/8/35 21/9/35
f 119/14/35 107/9/35 21/9/35
f 107/9/35 119/14/35 127/14/35
f 18/8/35 94/15/35 107/9/35
f 94/15/35 18/8/35 14/6/35
f 94/15/35 14/6/35 15/7/35
f 94/15/35 15/7/35 39/12/35
f 94/15/35 39/12/35 52/13/35
f 52/13/35 39/12/35 48/11/35
f 52/13/35 48/11/35 28/10/35
f 28/10/35 48/11/35 41/3/35
f 28/10/35 41/3/35 13/4/35
f 28/10/35 13/4/35 12/5/35
f 57/6/38 120/8/71 125/8/71
f 120/8/71 57/6/38 58/6/38
f 126/10/72 66/5/43 122/10/72
f 66/5/43 126/10/72 67/5/43
f 115/7/68 128/6/73 121/6/73
f 128/6/73 115/7/68 116/7/68
f 104/3/57 74/4/19 123/3/19
f 74/4/19 104/3/57 77/4/57
f 96/5/50 78/10/45 95/5/50
f 78/10/45 96/5/50 80/10/45
f 85/11/19 76/4/19 105/3/19
f 76/4/19 85/11/19 96/5/19
f 96/5/19 85/11/19 84/12/19
f 96/5/19 84/12/19 80/10/19
f 80/10/19 84/12/19 59/7/19
f 80/10/19 59/7/19 81/13/19
f 81/13/19 59/7/19 57/6/19
f 81/13/19 57/6/19 125/8/19
f 81/13/19 125/8/19 94/15/19
f 94/15/19 125/8/19 107/9/19
f 87/14/19 107/9/19 127/14/19
f 107/9/19 87/14/19 88/9/19
f 113/8/19 89/15/19 88/9/19
f 89/15/19 113/8/19 109/13/19
f 109/13/19 113/8/19 128/6/19
f 109/13/19 128/6/19 126/10/19
f 126/10/19 128/6/19 116/7/19
f 126/10/19 116/7/19 118/12/19
f 126/10/19 118/12/19 67/5/19
f 67/5/19 118/12/19 111/11/19
f 67/5/19 111/11/19 65/4/19
f 65/4/19 111/11/19 99/3/19
f 52/13/34 5/1/7 94/15/74
f 5/1/7 52/13/34 51/13/34
f 5/1/7 51/13/34 1/1/7
f 1/1/7 51/13/34 89/15/74
f 110/11/64 118/12/69 117/12/69
f 118/12/69 110/11/64 111/11/64
f 73/4/75 124/3/33 72/4/33
f 124/3/33 73/4/75 129/3/75
f 75/4/76 129/3/75 73/4/75
f 129/3/75 75/4/76 106/3/76
f 121/6/73 113/8/67 114/8/67
f 113/8/67 121/6/73 128/6/73
f 93/15/77 92/13/65 112/13/65
f 92/13/65 93/15/77 4/1/4
f 92/13/65 4/1/4 3/1/4
f 92/13/65 3/1/4 90/15/77
f 131/16/78 127/17/79 130/16/78
f 127/17/79 131/16/78 87/17/79
f 134/16/80 133/18/33 132/16/80
f 133/18/33 134/16/80 135/18/33
f 136/18/81 133/18/81 135/18/81
f 133/18/81 136/18/81 137/18/81
f 119/17/82 134/16/80 132/16/80
f 134/16/80 119/17/82 86/17/82
f 127/17/84 132/16/83 130/16/83
f 132/16/83 127/17/84 119/17/84
f 134/16/85 136/18/10 135/18/10
f 136/18/10 134/16/85 131/16/85
f 130/16/83 133/18/35 137/18/35
f 133/18/35 130/16/83 132/16/83
f 136/18/19 130/16/78 137/18/19
f 130/16/78 136/18/19 131/16/78
f 86/17/86 131/16/85 134/16/85
f 131/16/85 86/17/86 87/17/86
f 6/19/81 41/19/81 24/19/81
f 41/19/81 6/19/81 40/19/81
f 40/19/81 6/19/81 7/19/81
f 40/19/81 7/19/81 25/19/81
f 68/19/81 62/19/81 64/19/81
f 62/19/81 68/19/81 69/19/81
f 62/19/81 69/19/81 99/19/81
f 99/19/81 69/19/81 100/19/81
f 33/19/81 50/19/81 36/19/81
f 50/19/81 33/19/81 103/19/81
f 103/19/81 33/19/81 29/19/81
f 103/19/81 29/19/81 30/19/81
f 106/19/81 124/19/81 129/19/81
f 124/19/81 106/19/81 123/19/81
f 123/19/81 106/19/81 105/19/81
f 123/19/81 105/19/81 104/19/81

