# Created by Kenney (www.kenney.nl)

mtllib light-square-double.mtl

g light-square-double

v -0.0125 0.15 -0.0125 1 1 1
v 0.0125 0.15 -0.0125 1 1 1
v -0.0125 0.575 -0.0125 1 1 1
v 0.0125 0.575 -0.0125 1 1 1
v 0.0125 0.6 0.1125 1 1 1
v 0.0125 0.6 0.0125 1 1 1
v 0.0125 0.575 0.1125 1 1 1
v 0.0125 0.575 0.0125 1 1 1
v 0.0125 0.5958334 1.862633E-10 1 1 1
v 0.0125 0.15 0.0125 1 1 1
v 0.0125 0.6 -0.0125 1 1 1
v 0.0125 0.575 -0.1125 1 1 1
v 0.0125 0.6 -0.1125 1 1 1
v 0.025 0.6 -0.2125 1 1 1
v 0.025 0.575 -0.2125 1 1 1
v 0.025 0.6 -0.1625 1 1 1
v 0.025 0.575 -0.1625 1 1 1
v -0.025 0.575 -0.2125 1 1 1
v -0.025 0.6 -0.2125 1 1 1
v -0.025 0.575 -0.1625 1 1 1
v -0.025 0.6 -0.1625 1 1 1
v -0.0125 0.15 0.0125 1 1 1
v -0.0125 0.575 0.0125 1 1 1
v -0.0125 0.6 -0.1125 1 1 1
v -0.0125 0.6 -0.0125 1 1 1
v -0.0125 0.575 -0.1125 1 1 1
v -0.0125 0.5958334 7.219114E-16 1 1 1
v -0.0125 0.6 0.0125 1 1 1
v -0.0125 0.575 0.1125 1 1 1
v -0.0125 0.6 0.1125 1 1 1
v -0.025 0.575 0.1625 1 1 1
v -0.025 0.6 0.1625 1 1 1
v -0.025 0.575 0.2125 1 1 1
v -0.025 0.6 0.2125 1 1 1
v 0.025 0.6 0.1625 1 1 1
v 0.025 0.575 0.1625 1 1 1
v 0.025 0.575 0.2125 1 1 1
v 0.025 0.6 0.2125 1 1 1
v -0.025 0.1 -0.025 1 1 1
v -0.025 0.1 0.025 1 1 1
v 0.025 0.1 -0.025 1 1 1
v 0.025 0 -0.025 1 1 1
v 0.025 0.1 0.025 1 1 1
v 0.025 0 0.025 1 1 1
v -0.025 0 -0.025 1 1 1
v -0.025 0 0.025 1 1 1
v 0.0125 0.575 -0.1125 1 1 1
v 0.0125 0.575 0.1125 1 1 1
v -0.025 0.575 0.2125 1 1 1
v -0.0125 0.575 0.1125 1 1 1

vn 0 0 -1
vn 0.9925076 0 -0.1221833
vn 1 0 0
vn 0.9925076 0 0.1221833
vn 0.9925076 0 0.1221833
vn -1 0 0
vn -0.9925076 0 0.1221833
vn 0 0 1
vn 0 1 0
vn 0 0.9870875 0.1601822
vn -0.9925076 0 -0.1221833
vn 0 -1 0
vn 0 0.9486833 -0.3162278
vn 0 0.9870875 -0.1601822
vn 0 0.9486833 0.3162278
vn -0.9936895 0.1121652 0
vn -0.9701425 0.2425356 0
vn 0 0.1121652 -0.9936895
vn 0 0.2425356 -0.9701425
vn 0.9936895 0.1121652 0
vn 0 0.1121652 0.9936895
vn 0.9701425 0.2425356 0
vn 0 0.2425356 0.9701425

vt 0.96875 0.075
vt 0.96875 0.2166666
vt 0.96875 0.225
vt 0.96875 0.2236111
vt 0.96875 0.1416667
vt 0.96875 0.175
vt 0.03125 0.375

usemtl colormap

f 3/2/1 2/1/1 1/1/1
f 2/1/1 3/2/1 4/2/1
f 7/2/2 6/3/3 5/3/2
f 8/2/3 6/3/3 7/2/2
f 6/3/3 8/2/3 9/4/3
f 10/1/3 9/4/3 8/2/3
f 2/1/3 9/4/3 10/1/3
f 4/2/3 9/4/3 2/1/3
f 4/2/3 11/3/3 9/4/3
f 12/2/4 11/3/3 4/2/3
f 11/3/3 12/2/4 13/3/4
f 16/3/5 15/2/3 14/3/3
f 15/2/3 16/3/5 17/2/5
f 20/2/7 19/3/6 18/2/6
f 19/3/6 20/2/7 21/3/7
f 19/3/1 15/2/1 18/2/1
f 15/2/1 19/3/1 14/3/1
f 8/2/8 22/1/8 10/1/8
f 22/1/8 8/2/8 23/2/8
f 19/3/9 16/3/9 14/3/9
f 16/3/9 19/3/9 13/3/9
f 13/3/9 19/3/9 11/3/10
f 11/3/10 19/3/9 24/3/9
f 24/3/9 19/3/9 21/3/9
f 25/3/10 11/3/10 24/3/9
f 13/3/4 17/2/5 16/3/5
f 17/2/5 13/3/4 12/2/4
f 26/2/7 21/3/7 20/2/7
f 21/3/7 26/2/7 24/3/7
f 22/1/6 3/2/6 1/1/6
f 3/2/6 22/1/6 25/3/6
f 24/3/7 3/2/6 25/3/6
f 3/2/6 24/3/7 26/2/7
f 25/3/6 22/1/6 27/4/6
f 27/4/6 22/1/6 28/3/6
f 28/3/6 22/1/6 23/2/6
f 28/3/6 23/2/6 29/2/11
f 28/3/6 29/2/11 30/3/11
f 7/2/12 23/2/12 8/2/12
f 23/2/12 7/2/12 29/2/12
f 33/2/6 32/3/11 31/2/11
f 32/3/11 33/2/6 34/3/6
f 35/3/2 7/2/2 5/3/2
f 7/2/2 35/3/2 36/2/2
f 27/4/13 6/3/14 9/4/13
f 6/3/14 27/4/13 28/3/14
f 38/3/8 33/2/8 37/2/8
f 33/2/8 38/3/8 34/3/8
f 38/3/3 36/2/2 35/3/2
f 36/2/2 38/3/3 37/2/3
f 28/3/14 5/3/9 6/3/14
f 30/3/9 5/3/9 28/3/14
f 34/3/9 5/3/9 30/3/9
f 34/3/9 30/3/9 32/3/9
f 38/3/9 5/3/9 34/3/9
f 5/3/9 38/3/9 35/3/9
f 31/2/11 30/3/11 29/2/11
f 30/3/11 31/2/11 32/3/11
f 25/3/10 9/4/15 11/3/10
f 9/4/15 25/3/10 27/4/15
f 3/2/12 12/2/12 4/2/12
f 12/2/12 3/2/12 26/2/12
f 40/5/16 1/6/17 39/5/16
f 1/6/17 40/5/16 22/6/17
f 1/6/19 41/5/18 39/5/18
f 41/5/18 1/6/19 2/6/19
f 43/5/20 42/1/3 41/5/20
f 42/1/3 43/5/20 44/1/3
f 46/1/6 39/5/16 45/1/6
f 39/5/16 46/1/6 40/5/16
f 39/5/18 42/1/1 45/1/1
f 42/1/1 39/5/18 41/5/18
f 46/1/12 42/1/12 44/1/12
f 42/1/12 46/1/12 45/1/12
f 43/5/21 46/1/8 44/1/8
f 46/1/8 43/5/21 40/5/21
f 2/6/22 43/5/20 41/5/20
f 43/5/20 2/6/22 10/6/22
f 10/6/23 40/5/21 43/5/21
f 40/5/21 10/6/23 22/6/23
f 47/7/12 15/7/12 17/7/12
f 15/7/12 47/7/12 18/7/12
f 18/7/12 47/7/12 26/7/12
f 18/7/12 26/7/12 20/7/12
f 37/7/12 48/7/12 36/7/12
f 48/7/12 37/7/12 49/7/12
f 48/7/12 49/7/12 50/7/12
f 50/7/12 49/7/12 31/7/12

g light-square-double




usemtl colormap

f 3/2/1 2/1/1 1/1/1
f 2/1/1 3/2/1 4/2/1
f 7/2/2 6/3/3 5/3/2
f 8/2/3 6/3/3 7/2/2
f 6/3/3 8/2/3 9/4/3
f 10/1/3 9/4/3 8/2/3
f 2/1/3 9/4/3 10/1/3
f 4/2/3 9/4/3 2/1/3
f 4/2/3 11/3/3 9/4/3
f 12/2/4 11/3/3 4/2/3
f 11/3/3 12/2/4 13/3/4
f 16/3/5 15/2/3 14/3/3
f 15/2/3 16/3/5 17/2/5
f 20/2/7 19/3/6 18/2/6
f 19/3/6 20/2/7 21/3/7
f 19/3/1 15/2/1 18/2/1
f 15/2/1 19/3/1 14/3/1
f 8/2/8 22/1/8 10/1/8
f 22/1/8 8/2/8 23/2/8
f 19/3/9 16/3/9 14/3/9
f 16/3/9 19/3/9 13/3/9
f 13/3/9 19/3/9 11/3/10
f 11/3/10 19/3/9 24/3/9
f 24/3/9 19/3/9 21/3/9
f 25/3/10 11/3/10 24/3/9
f 13/3/4 17/2/5 16/3/5
f 17/2/5 13/3/4 12/2/4
f 26/2/7 21/3/7 20/2/7
f 21/3/7 26/2/7 24/3/7
f 22/1/6 3/2/6 1/1/6
f 3/2/6 22/1/6 25/3/6
f 24/3/7 3/2/6 25/3/6
f 3/2/6 24/3/7 26/2/7
f 25/3/6 22/1/6 27/4/6
f 27/4/6 22/1/6 28/3/6
f 28/3/6 22/1/6 23/2/6
f 28/3/6 23/2/6 29/2/11
f 28/3/6 29/2/11 30/3/11
f 7/2/12 23/2/12 8/2/12
f 23/2/12 7/2/12 29/2/12
f 33/2/6 32/3/11 31/2/11
f 32/3/11 33/2/6 34/3/6
f 35/3/2 7/2/2 5/3/2
f 7/2/2 35/3/2 36/2/2
f 27/4/13 6/3/14 9/4/13
f 6/3/14 27/4/13 28/3/14
f 38/3/8 33/2/8 37/2/8
f 33/2/8 38/3/8 34/3/8
f 38/3/3 36/2/2 35/3/2
f 36/2/2 38/3/3 37/2/3
f 28/3/14 5/3/9 6/3/14
f 30/3/9 5/3/9 28/3/14
f 34/3/9 5/3/9 30/3/9
f 34/3/9 30/3/9 32/3/9
f 38/3/9 5/3/9 34/3/9
f 5/3/9 38/3/9 35/3/9
f 31/2/11 30/3/11 29/2/11
f 30/3/11 31/2/11 32/3/11
f 25/3/10 9/4/15 11/3/10
f 9/4/15 25/3/10 27/4/15
f 3/2/12 12/2/12 4/2/12
f 12/2/12 3/2/12 26/2/12
f 40/5/16 1/6/17 39/5/16
f 1/6/17 40/5/16 22/6/17
f 1/6/19 41/5/18 39/5/18
f 41/5/18 1/6/19 2/6/19
f 43/5/20 42/1/3 41/5/20
f 42/1/3 43/5/20 44/1/3
f 46/1/6 39/5/16 45/1/6
f 39/5/16 46/1/6 40/5/16
f 39/5/18 42/1/1 45/1/1
f 42/1/1 39/5/18 41/5/18
f 46/1/12 42/1/12 44/1/12
f 42/1/12 46/1/12 45/1/12
f 43/5/21 46/1/8 44/1/8
f 46/1/8 43/5/21 40/5/21
f 2/6/22 43/5/20 41/5/20
f 43/5/20 2/6/22 10/6/22
f 10/6/23 40/5/21 43/5/21
f 40/5/21 10/6/23 22/6/23
f 47/7/12 15/7/12 17/7/12
f 15/7/12 47/7/12 18/7/12
f 18/7/12 47/7/12 26/7/12
f 18/7/12 26/7/12 20/7/12
f 37/7/12 48/7/12 36/7/12
f 48/7/12 37/7/12 49/7/12
f 48/7/12 49/7/12 50/7/12
f 50/7/12 49/7/12 31/7/12

