# Created by Kenney (www.kenney.nl)

mtllib light-curved.mtl

g light-curved

v 0.025 0.675 -0.15 1 1 1
v 0.025 0.6527778 -0.15 1 1 1
v 0.0125 0.675 -0.1 1 1 1
v 0.0125 0.6527778 -0.1 1 1 1
v 0.0125 0.6502059 -0.07886714 1 1 1
v 0.0125 0.6716933 -0.07282919 1 1 1
v 0.0125 0.6426402 -0.05896806 1 1 1
v 0.0125 0.661966 -0.04724465 1 1 1
v 0.0125 0.6305226 -0.04146447 1 1 1
v 0.0125 0.6463862 -0.02474003 1 1 1
v 0.0125 0.6145604 -0.02737827 1 1 1
v 0.0125 0.5956856 -0.01753183 1 1 1
v 0.0125 0.6258634 -0.006629206 1 1 1
v 0.0125 0.575 -0.0125 1 1 1
v 0.0125 0.15 -0.0125 1 1 1
v 0.0125 0.15 0.0125 1 1 1
v 0.0125 0.6015958 0.006030502 1 1 1
v 0.0125 0.575 0.0125 1 1 1
v -0.0125 0.6305226 -0.04146447 1 1 1
v -0.0125 0.6426402 -0.05896806 1 1 1
v -0.0125 0.6258634 -0.006629206 1 1 1
v -0.0125 0.6463862 -0.02474003 1 1 1
v -0.025 0.6527778 -0.2 1 1 1
v 0.025 0.6527778 -0.2 1 1 1
v -0.025 0.675 -0.2 1 1 1
v 0.025 0.675 -0.2 1 1 1
v -0.0125 0.15 -0.0125 1 1 1
v -0.0125 0.575 -0.0125 1 1 1
v -0.0125 0.6502059 -0.07886714 1 1 1
v -0.0125 0.6527778 -0.1 1 1 1
v -0.0125 0.15 0.0125 1 1 1
v -0.0125 0.575 0.0125 1 1 1
v -0.0125 0.6716933 -0.07282919 1 1 1
v -0.0125 0.661966 -0.04724465 1 1 1
v -0.0125 0.6015958 0.006030502 1 1 1
v -0.0125 0.5956856 -0.01753183 1 1 1
v -0.025 0.6527778 -0.15 1 1 1
v -0.025 0.675 -0.15 1 1 1
v -0.0125 0.675 -0.1 1 1 1
v -0.0125 0.6145604 -0.02737827 1 1 1
v -0.025 0 -0.025 1 1 1
v -0.025 0.1 -0.025 1 1 1
v -0.025 0 0.025 1 1 1
v -0.025 0.1 0.025 1 1 1
v 0.025 0.1 -0.025 1 1 1
v 0.025 0 -0.025 1 1 1
v 0.025 0.1 0.025 1 1 1
v 0.025 0 0.025 1 1 1
v 0.0125 0.6527778 -0.1 1 1 1
v -0.0125 0.6527778 -0.1 1 1 1

vn 0.9925076 0 0.1221833
vn 0.9701425 0 0.2425356
vn 1 0 0
vn 0 -0.7474093 -0.6643638
vn 0 -0.8849414 -0.4657024
vn 0 0.5662425 0.8242387
vn 0 0.7474093 0.6643638
vn 0 0 -1
vn 0 -0.9708093 -0.2398527
vn 0 -0.9926755 -0.1208112
vn 0 0 1
vn 0 0.1190265 0.9928911
vn 0 0.9708093 0.2398527
vn 0 0.8849414 0.4657024
vn 0 0.3520176 0.9359934
vn 0 -0.2363607 -0.9716654
vn 0 -0.3520176 -0.9359934
vn -0.9925076 0 0.1221833
vn -0.9701425 0 0.2425356
vn -1 0 0
vn 0 1 0
vn 0 0.998423 0.05613833
vn 0 -0.5662425 -0.8242387
vn -0.9936895 0.1121652 0
vn 0.9936895 0.1121652 0
vn 0 0.1121652 -0.9936895
vn 0 -1 0
vn 0.9701425 0.2425356 0
vn -0.9701425 0.2425356 0
vn 0 0.1121652 0.9936895
vn 0 0.2425356 -0.9701425
vn 0 0.2425356 0.9701425

vt 0.96875 0.225
vt 0.96875 0.2184156
vt 0.96875 0.2176536
vt 0.96875 0.2240202
vt 0.96875 0.2154119
vt 0.96875 0.2211381
vt 0.96875 0.2118215
vt 0.96875 0.2165218
vt 0.96875 0.207092
vt 0.96875 0.2014994
vt 0.96875 0.210441
vt 0.96875 0.1953704
vt 0.96875 0.06944445
vt 0.96875 0.2032506
vt 0.96875 0.075
vt 0.96875 0.1416667
vt 0.96875 0.175
vt 0.03125 0.375

usemtl colormap

f 3/1/2 2/2/1 1/1/1
f 2/2/1 3/1/2 4/2/2
f 3/1/3 5/3/3 4/2/3
f 5/3/3 3/1/3 6/4/3
f 5/3/3 6/4/3 7/5/3
f 7/5/3 6/4/3 8/6/3
f 7/5/3 8/6/3 9/7/3
f 9/7/3 8/6/3 10/8/3
f 9/7/3 10/8/3 11/9/3
f 11/9/3 10/8/3 12/10/3
f 12/10/3 10/8/3 13/11/3
f 12/10/3 13/11/3 14/12/3
f 14/12/3 13/11/3 15/13/3
f 15/13/3 13/11/3 16/13/3
f 16/13/3 13/11/3 17/14/3
f 16/13/3 17/14/3 18/12/3
f 19/7/4 7/5/5 9/7/4
f 7/5/5 19/7/4 20/5/5
f 10/8/7 21/11/6 13/11/6
f 21/11/6 10/8/7 22/8/7
f 25/1/8 24/2/8 23/2/8
f 24/2/8 25/1/8 26/1/8
f 28/12/8 15/13/8 27/13/8
f 15/13/8 28/12/8 14/12/8
f 29/3/9 4/2/10 5/3/9
f 4/2/10 29/3/9 30/2/10
f 1/1/1 24/2/3 26/1/3
f 24/2/3 1/1/1 2/2/1
f 18/12/12 31/13/11 16/13/11
f 31/13/11 18/12/12 32/12/12
f 33/4/13 8/6/14 6/4/13
f 8/6/14 33/4/13 34/6/14
f 17/14/15 32/12/12 18/12/12
f 32/12/12 17/14/15 35/14/15
f 36/10/17 14/12/16 28/12/16
f 14/12/16 36/10/17 12/10/17
f 30/2/19 38/1/18 37/2/18
f 38/1/18 30/2/19 39/1/19
f 34/6/14 10/8/7 8/6/14
f 10/8/7 34/6/14 22/8/7
f 37/2/18 25/1/20 23/2/20
f 25/1/20 37/2/18 38/1/18
f 20/5/5 5/3/9 7/5/5
f 5/3/9 20/5/5 29/3/9
f 25/1/21 1/1/21 26/1/21
f 1/1/21 25/1/21 3/1/22
f 3/1/22 25/1/21 39/1/22
f 39/1/22 25/1/21 38/1/21
f 40/9/23 12/10/17 36/10/17
f 12/10/17 40/9/23 11/9/23
f 13/11/6 35/14/15 17/14/15
f 35/14/15 13/11/6 21/11/6
f 19/7/4 11/9/23 40/9/23
f 11/9/23 19/7/4 9/7/4
f 3/1/22 33/4/13 6/4/13
f 33/4/13 3/1/22 39/1/22
f 31/13/20 28/12/20 27/13/20
f 28/12/20 31/13/20 21/11/20
f 21/11/20 36/10/20 28/12/20
f 21/11/20 31/13/20 35/14/20
f 35/14/20 31/13/20 32/12/20
f 22/8/20 36/10/20 21/11/20
f 22/8/20 40/9/20 36/10/20
f 22/8/20 19/7/20 40/9/20
f 34/6/20 19/7/20 22/8/20
f 34/6/20 20/5/20 19/7/20
f 33/4/20 20/5/20 34/6/20
f 33/4/20 29/3/20 20/5/20
f 39/1/20 29/3/20 33/4/20
f 29/3/20 39/1/20 30/2/20
f 43/15/20 42/16/24 41/15/20
f 42/16/24 43/15/20 44/16/24
f 47/16/25 46/15/3 45/16/25
f 46/15/3 47/16/25 48/15/3
f 42/16/26 46/15/8 41/15/8
f 46/15/8 42/16/26 45/16/26
f 43/15/27 46/15/27 48/15/27
f 46/15/27 43/15/27 41/15/27
f 15/17/28 47/16/25 45/16/25
f 47/16/25 15/17/28 16/17/28
f 44/16/24 27/17/29 42/16/24
f 27/17/29 44/16/24 31/17/29
f 47/16/30 43/15/11 48/15/11
f 43/15/11 47/16/30 44/16/30
f 27/17/31 45/16/26 42/16/26
f 45/16/26 27/17/31 15/17/31
f 16/17/32 44/16/30 47/16/30
f 44/16/30 16/17/32 31/17/32
f 49/18/27 24/18/27 2/18/27
f 24/18/27 49/18/27 23/18/27
f 23/18/27 49/18/27 50/18/27
f 23/18/27 50/18/27 37/18/27

g light-curved




usemtl colormap

f 3/1/2 2/2/1 1/1/1
f 2/2/1 3/1/2 4/2/2
f 3/1/3 5/3/3 4/2/3
f 5/3/3 3/1/3 6/4/3
f 5/3/3 6/4/3 7/5/3
f 7/5/3 6/4/3 8/6/3
f 7/5/3 8/6/3 9/7/3
f 9/7/3 8/6/3 10/8/3
f 9/7/3 10/8/3 11/9/3
f 11/9/3 10/8/3 12/10/3
f 12/10/3 10/8/3 13/11/3
f 12/10/3 13/11/3 14/12/3
f 14/12/3 13/11/3 15/13/3
f 15/13/3 13/11/3 16/13/3
f 16/13/3 13/11/3 17/14/3
f 16/13/3 17/14/3 18/12/3
f 19/7/4 7/5/5 9/7/4
f 7/5/5 19/7/4 20/5/5
f 10/8/7 21/11/6 13/11/6
f 21/11/6 10/8/7 22/8/7
f 25/1/8 24/2/8 23/2/8
f 24/2/8 25/1/8 26/1/8
f 28/12/8 15/13/8 27/13/8
f 15/13/8 28/12/8 14/12/8
f 29/3/9 4/2/10 5/3/9
f 4/2/10 29/3/9 30/2/10
f 1/1/1 24/2/3 26/1/3
f 24/2/3 1/1/1 2/2/1
f 18/12/12 31/13/11 16/13/11
f 31/13/11 18/12/12 32/12/12
f 33/4/13 8/6/14 6/4/13
f 8/6/14 33/4/13 34/6/14
f 17/14/15 32/12/12 18/12/12
f 32/12/12 17/14/15 35/14/15
f 36/10/17 14/12/16 28/12/16
f 14/12/16 36/10/17 12/10/17
f 30/2/19 38/1/18 37/2/18
f 38/1/18 30/2/19 39/1/19
f 34/6/14 10/8/7 8/6/14
f 10/8/7 34/6/14 22/8/7
f 37/2/18 25/1/20 23/2/20
f 25/1/20 37/2/18 38/1/18
f 20/5/5 5/3/9 7/5/5
f 5/3/9 20/5/5 29/3/9
f 25/1/21 1/1/21 26/1/21
f 1/1/21 25/1/21 3/1/22
f 3/1/22 25/1/21 39/1/22
f 39/1/22 25/1/21 38/1/21
f 40/9/23 12/10/17 36/10/17
f 12/10/17 40/9/23 11/9/23
f 13/11/6 35/14/15 17/14/15
f 35/14/15 13/11/6 21/11/6
f 19/7/4 11/9/23 40/9/23
f 11/9/23 19/7/4 9/7/4
f 3/1/22 33/4/13 6/4/13
f 33/4/13 3/1/22 39/1/22
f 31/13/20 28/12/20 27/13/20
f 28/12/20 31/13/20 21/11/20
f 21/11/20 36/10/20 28/12/20
f 21/11/20 31/13/20 35/14/20
f 35/14/20 31/13/20 32/12/20
f 22/8/20 36/10/20 21/11/20
f 22/8/20 40/9/20 36/10/20
f 22/8/20 19/7/20 40/9/20
f 34/6/20 19/7/20 22/8/20
f 34/6/20 20/5/20 19/7/20
f 33/4/20 20/5/20 34/6/20
f 33/4/20 29/3/20 20/5/20
f 39/1/20 29/3/20 33/4/20
f 29/3/20 39/1/20 30/2/20
f 43/15/20 42/16/24 41/15/20
f 42/16/24 43/15/20 44/16/24
f 47/16/25 46/15/3 45/16/25
f 46/15/3 47/16/25 48/15/3
f 42/16/26 46/15/8 41/15/8
f 46/15/8 42/16/26 45/16/26
f 43/15/27 46/15/27 48/15/27
f 46/15/27 43/15/27 41/15/27
f 15/17/28 47/16/25 45/16/25
f 47/16/25 15/17/28 16/17/28
f 44/16/24 27/17/29 42/16/24
f 27/17/29 44/16/24 31/17/29
f 47/16/30 43/15/11 48/15/11
f 43/15/11 47/16/30 44/16/30
f 27/17/31 45/16/26 42/16/26
f 45/16/26 27/17/31 15/17/31
f 16/17/32 44/16/30 47/16/30
f 44/16/30 16/17/32 31/17/32
f 49/18/27 24/18/27 2/18/27
f 24/18/27 49/18/27 23/18/27
f 23/18/27 49/18/27 50/18/27
f 23/18/27 50/18/27 37/18/27

