# Created by Kenney (www.kenney.nl)

mtllib light-square-cross.mtl

g light-square-cross

v -0.0125 0.6 -0.0125 1 1 1
v -4.656606E-10 0.5958334 4.656617E-10 1 1 1
v -0.0125 0.6 0.0125 1 1 1
v 0.0125 0.6 -0.0125 1 1 1
v 0.0125 0.6 0.0125 1 1 1
v -0.2125 0.575 -0.02500001 1 1 1
v -0.1625 0.575 -0.025 1 1 1
v -0.2125 0.6 -0.02500001 1 1 1
v -0.1625 0.6 -0.025 1 1 1
v 0.1625 0.575 -0.025 1 1 1
v 0.2125 0.575 -0.025 1 1 1
v 0.1625 0.6 -0.025 1 1 1
v 0.2125 0.6 -0.025 1 1 1
v -0.1125 0.575 -0.0125 1 1 1
v -0.1125 0.6 -0.0125 1 1 1
v 0.2125 0.575 0.025 1 1 1
v 0.1625 0.575 0.025 1 1 1
v 0.2125 0.6 0.025 1 1 1
v 0.1625 0.6 0.025 1 1 1
v 0.1125 0.575 0.0125 1 1 1
v 0.0125 0.575 0.0125 1 1 1
v 0.1125 0.6 0.0125 1 1 1
v 0.0125 0.15 0.0125 1 1 1
v -0.0125 0.15 0.0125 1 1 1
v -0.0125 0.575 0.0125 1 1 1
v -0.1125 0.575 0.0125 1 1 1
v -0.1125 0.6 0.0125 1 1 1
v 0.1125 0.575 -0.0125 1 1 1
v 0.0125 0.575 -0.0125 1 1 1
v 0.0125 0.575 -0.1125 1 1 1
v -0.0125 0.575 -0.0125 1 1 1
v -0.0125 0.575 -0.1125 1 1 1
v 0.0125 0.575 0.1125 1 1 1
v -0.0125 0.575 0.1125 1 1 1
v -0.1625 0.575 0.02499999 1 1 1
v -0.1625 0.6 0.02499999 1 1 1
v -0.0125 0.15 -0.0125 1 1 1
v 0.0125 0.15 -0.0125 1 1 1
v 0.1125 0.6 -0.0125 1 1 1
v -0.2125 0.575 0.02499999 1 1 1
v -0.2125 0.6 0.02499999 1 1 1
v -0.0125 0.6 0.1125 1 1 1
v -0.0125 0.6 -0.1125 1 1 1
v -0.025 0.575 -0.1625 1 1 1
v -0.025 0.6 -0.1625 1 1 1
v 0.0125 0.6 0.1125 1 1 1
v -0.025 0.6 0.2125 1 1 1
v -0.025 0.6 0.1625 1 1 1
v 0.02499999 0.6 0.2125 1 1 1
v 0.025 0.6 0.1625 1 1 1
v 0.02499999 0.575 0.2125 1 1 1
v -0.025 0.575 0.2125 1 1 1
v 0.0125 0.6 -0.1125 1 1 1
v -0.025 0.575 -0.2125 1 1 1
v 0.025 0.575 -0.2125 1 1 1
v -0.025 0.6 -0.2125 1 1 1
v 0.025 0.6 -0.2125 1 1 1
v 0.025 0.575 0.1625 1 1 1
v 0.025 0.6 -0.1625 1 1 1
v 0.025 0.575 -0.1625 1 1 1
v -0.025 0.575 0.1625 1 1 1
v 0.025 0 0.025 1 1 1
v -0.025 0 0.025 1 1 1
v 0.025 0.1 0.025 1 1 1
v -0.025 0.1 0.025 1 1 1
v -0.025 0 -0.025 1 1 1
v -0.025 0.1 -0.025 1 1 1
v 0.0125 0.15 0.0125 1 1 1
v -0.0125 0.15 0.0125 1 1 1
v 0.025 0.1 -0.025 1 1 1
v 0.025 0 -0.025 1 1 1
v 0.0125 0.15 -0.0125 1 1 1
v -0.1125 0.575 0.0125 1 1 1
v -0.1625 0.575 0.02499999 1 1 1
v -0.0125 0.575 -0.1125 1 1 1
v 0.025 0.575 0.2125 1 1 1

vn 0.1090027 0.9940415 0
vn 0.3162278 0.9486833 0
vn 0.1090027 0.9940415 0
vn -0.1090027 0.9940415 0
vn -0.3162278 0.9486833 0
vn 0 0.9940415 0.1090027
vn 0 0.9486833 0.3162278
vn 0 0.9940415 0.1090027
vn 0 0.9486833 -0.3162278
vn 0 0.9940415 -0.1090027
vn 0 0.9940415 -0.1090027
vn 0 0 -1
vn 0.1221833 0 -0.9925076
vn -0.1221833 0 -0.9925076
vn 0 0 1
vn -0.1221833 0 0.9925076
vn 0.1221832 0 0.9925076
vn 0 -1 0
vn -1 0 0
vn 0 1 0
vn 1 0 0
vn -0.9925076 0 -0.1221833
vn -0.9925076 0 0.1221833
vn 0.9925076 0 0.1221833
vn 0.9925076 0 -0.1221833
vn 0 0.1121652 0.9936895
vn -0.9936895 0.1121652 0
vn 0 0.2425356 0.9701425
vn 0.9936895 0.1121652 0
vn 0.9701425 0.2425356 0
vn 0 0.1121652 -0.9936895
vn 0 0.2425356 -0.9701425
vn -0.9701425 0.2425356 0

vt 0.96875 0.225
vt 0.96875 0.2236111
vt 0.96875 0.2166666
vt 0.96875 0.075
vt 0.96875 0.1416667
vt 0.96875 0.175
vt 0.03125 0.375

usemtl colormap

f 3/1/3 2/2/2 1/1/1
f 2/2/5 5/1/4 4/1/4
f 1/1/8 2/2/7 4/1/6
f 3/1/11 5/1/10 2/2/9
f 8/1/12 7/3/13 6/3/12
f 7/3/13 8/1/12 9/1/13
f 12/1/14 11/3/12 10/3/14
f 11/3/12 12/1/14 13/1/12
f 9/1/13 14/3/13 7/3/13
f 14/3/13 9/1/13 15/1/13
f 18/1/15 17/3/16 16/3/15
f 17/3/16 18/1/15 19/1/16
f 22/1/16 21/3/15 20/3/16
f 21/3/15 22/1/16 5/1/15
f 21/3/15 24/4/15 23/4/15
f 24/4/15 21/3/15 25/3/15
f 3/1/15 26/3/17 25/3/15
f 26/3/17 3/1/15 27/1/17
f 20/3/18 29/3/18 28/3/18
f 29/3/18 20/3/18 21/3/18
f 31/3/18 30/3/18 29/3/18
f 30/3/18 31/3/18 32/3/18
f 33/3/18 25/3/18 21/3/18
f 25/3/18 33/3/18 34/3/18
f 25/3/18 14/3/18 31/3/18
f 14/3/18 25/3/18 26/3/18
f 27/1/17 35/3/17 26/3/17
f 35/3/17 27/1/17 36/1/17
f 15/1/13 31/3/12 14/3/13
f 31/3/12 15/1/13 1/1/12
f 31/3/12 38/4/12 37/4/12
f 38/4/12 31/3/12 29/3/12
f 4/1/12 28/3/14 29/3/12
f 28/3/14 4/1/12 39/1/14
f 40/3/19 8/1/19 6/3/19
f 8/1/19 40/3/19 41/1/19
f 15/1/20 3/1/3 1/1/1
f 3/1/3 15/1/20 27/1/20
f 27/1/20 15/1/20 9/1/20
f 27/1/20 9/1/20 36/1/20
f 36/1/20 9/1/20 8/1/20
f 36/1/20 8/1/20 41/1/20
f 39/1/14 10/3/14 28/3/14
f 10/3/14 39/1/14 12/1/14
f 36/1/17 40/3/15 35/3/17
f 40/3/15 36/1/17 41/1/15
f 12/1/20 18/1/20 13/1/20
f 18/1/20 12/1/20 19/1/20
f 19/1/20 12/1/20 39/1/20
f 19/1/20 39/1/20 22/1/20
f 22/1/20 39/1/20 4/1/4
f 22/1/20 4/1/4 5/1/4
f 18/1/21 11/3/21 13/1/21
f 11/3/21 18/1/21 16/3/21
f 19/1/16 20/3/16 17/3/16
f 20/3/16 19/1/16 22/1/16
f 25/3/19 42/1/22 3/1/19
f 42/1/22 25/3/19 34/3/22
f 31/3/19 24/4/19 25/3/19
f 24/4/19 31/3/19 37/4/19
f 31/3/19 43/1/23 32/3/23
f 43/1/23 31/3/19 1/1/19
f 32/3/23 45/1/23 44/3/23
f 45/1/23 32/3/23 43/1/23
f 3/1/11 46/1/20 5/1/10
f 42/1/20 46/1/20 3/1/11
f 47/1/20 46/1/20 42/1/20
f 47/1/20 42/1/20 48/1/20
f 49/1/20 46/1/20 47/1/20
f 46/1/20 49/1/20 50/1/20
f 49/1/15 52/3/15 51/3/15
f 52/3/15 49/1/15 47/1/15
f 4/1/21 30/3/24 53/1/24
f 30/3/24 4/1/21 29/3/21
f 21/3/21 38/4/21 29/3/21
f 38/4/21 21/3/21 23/4/21
f 46/1/25 21/3/21 5/1/21
f 21/3/21 46/1/25 33/3/25
f 56/1/12 55/3/12 54/3/12
f 55/3/12 56/1/12 57/1/12
f 49/1/21 58/3/25 50/1/25
f 58/3/25 49/1/21 51/3/21
f 53/1/24 60/3/24 59/1/24
f 60/3/24 53/1/24 30/3/24
f 44/3/23 56/1/19 54/3/19
f 56/1/19 44/3/23 45/1/23
f 56/1/20 59/1/20 57/1/20
f 59/1/20 56/1/20 53/1/20
f 53/1/20 56/1/20 43/1/20
f 43/1/20 56/1/20 45/1/20
f 53/1/20 43/1/20 1/1/8
f 1/1/8 4/1/6 53/1/20
f 59/1/24 55/3/21 57/1/21
f 55/3/21 59/1/24 60/3/24
f 61/3/22 42/1/22 34/3/22
f 42/1/22 61/3/22 48/1/22
f 52/3/19 48/1/22 61/3/22
f 48/1/22 52/3/19 47/1/19
f 50/1/25 33/3/25 46/1/25
f 33/3/25 50/1/25 58/3/25
f 64/5/26 63/4/15 62/4/15
f 63/4/15 64/5/26 65/5/26
f 63/4/19 67/5/27 66/4/19
f 67/5/27 63/4/19 65/5/27
f 68/6/28 65/5/26 64/5/26
f 65/5/26 68/6/28 69/6/28
f 64/5/29 71/4/21 70/5/29
f 71/4/21 64/5/29 62/4/21
f 72/6/30 64/5/29 70/5/29
f 64/5/29 72/6/30 68/6/30
f 37/6/32 70/5/31 67/5/31
f 70/5/31 37/6/32 72/6/32
f 62/4/18 66/4/18 71/4/18
f 66/4/18 62/4/18 63/4/18
f 67/5/31 71/4/12 66/4/12
f 71/4/12 67/5/31 70/5/31
f 65/5/27 37/6/33 67/5/27
f 37/6/33 65/5/27 69/6/33
f 73/7/18 7/7/18 14/7/18
f 7/7/18 73/7/18 74/7/18
f 7/7/18 74/7/18 6/7/18
f 6/7/18 74/7/18 40/7/18
f 30/7/18 55/7/18 60/7/18
f 55/7/18 30/7/18 54/7/18
f 54/7/18 30/7/18 75/7/18
f 54/7/18 75/7/18 44/7/18
f 76/7/18 33/7/18 58/7/18
f 33/7/18 76/7/18 52/7/18
f 33/7/18 52/7/18 34/7/18
f 34/7/18 52/7/18 61/7/18
f 16/7/18 10/7/18 11/7/18
f 10/7/18 16/7/18 17/7/18
f 10/7/18 17/7/18 28/7/18
f 28/7/18 17/7/18 20/7/18

g light-square-cross




usemtl colormap

f 3/1/3 2/2/2 1/1/1
f 2/2/5 5/1/4 4/1/4
f 1/1/8 2/2/7 4/1/6
f 3/1/11 5/1/10 2/2/9
f 8/1/12 7/3/13 6/3/12
f 7/3/13 8/1/12 9/1/13
f 12/1/14 11/3/12 10/3/14
f 11/3/12 12/1/14 13/1/12
f 9/1/13 14/3/13 7/3/13
f 14/3/13 9/1/13 15/1/13
f 18/1/15 17/3/16 16/3/15
f 17/3/16 18/1/15 19/1/16
f 22/1/16 21/3/15 20/3/16
f 21/3/15 22/1/16 5/1/15
f 21/3/15 24/4/15 23/4/15
f 24/4/15 21/3/15 25/3/15
f 3/1/15 26/3/17 25/3/15
f 26/3/17 3/1/15 27/1/17
f 20/3/18 29/3/18 28/3/18
f 29/3/18 20/3/18 21/3/18
f 31/3/18 30/3/18 29/3/18
f 30/3/18 31/3/18 32/3/18
f 33/3/18 25/3/18 21/3/18
f 25/3/18 33/3/18 34/3/18
f 25/3/18 14/3/18 31/3/18
f 14/3/18 25/3/18 26/3/18
f 27/1/17 35/3/17 26/3/17
f 35/3/17 27/1/17 36/1/17
f 15/1/13 31/3/12 14/3/13
f 31/3/12 15/1/13 1/1/12
f 31/3/12 38/4/12 37/4/12
f 38/4/12 31/3/12 29/3/12
f 4/1/12 28/3/14 29/3/12
f 28/3/14 4/1/12 39/1/14
f 40/3/19 8/1/19 6/3/19
f 8/1/19 40/3/19 41/1/19
f 15/1/20 3/1/3 1/1/1
f 3/1/3 15/1/20 27/1/20
f 27/1/20 15/1/20 9/1/20
f 27/1/20 9/1/20 36/1/20
f 36/1/20 9/1/20 8/1/20
f 36/1/20 8/1/20 41/1/20
f 39/1/14 10/3/14 28/3/14
f 10/3/14 39/1/14 12/1/14
f 36/1/17 40/3/15 35/3/17
f 40/3/15 36/1/17 41/1/15
f 12/1/20 18/1/20 13/1/20
f 18/1/20 12/1/20 19/1/20
f 19/1/20 12/1/20 39/1/20
f 19/1/20 39/1/20 22/1/20
f 22/1/20 39/1/20 4/1/4
f 22/1/20 4/1/4 5/1/4
f 18/1/21 11/3/21 13/1/21
f 11/3/21 18/1/21 16/3/21
f 19/1/16 20/3/16 17/3/16
f 20/3/16 19/1/16 22/1/16
f 25/3/19 42/1/22 3/1/19
f 42/1/22 25/3/19 34/3/22
f 31/3/19 24/4/19 25/3/19
f 24/4/19 31/3/19 37/4/19
f 31/3/19 43/1/23 32/3/23
f 43/1/23 31/3/19 1/1/19
f 32/3/23 45/1/23 44/3/23
f 45/1/23 32/3/23 43/1/23
f 3/1/11 46/1/20 5/1/10
f 42/1/20 46/1/20 3/1/11
f 47/1/20 46/1/20 42/1/20
f 47/1/20 42/1/20 48/1/20
f 49/1/20 46/1/20 47/1/20
f 46/1/20 49/1/20 50/1/20
f 49/1/15 52/3/15 51/3/15
f 52/3/15 49/1/15 47/1/15
f 4/1/21 30/3/24 53/1/24
f 30/3/24 4/1/21 29/3/21
f 21/3/21 38/4/21 29/3/21
f 38/4/21 21/3/21 23/4/21
f 46/1/25 21/3/21 5/1/21
f 21/3/21 46/1/25 33/3/25
f 56/1/12 55/3/12 54/3/12
f 55/3/12 56/1/12 57/1/12
f 49/1/21 58/3/25 50/1/25
f 58/3/25 49/1/21 51/3/21
f 53/1/24 60/3/24 59/1/24
f 60/3/24 53/1/24 30/3/24
f 44/3/23 56/1/19 54/3/19
f 56/1/19 44/3/23 45/1/23
f 56/1/20 59/1/20 57/1/20
f 59/1/20 56/1/20 53/1/20
f 53/1/20 56/1/20 43/1/20
f 43/1/20 56/1/20 45/1/20
f 53/1/20 43/1/20 1/1/8
f 1/1/8 4/1/6 53/1/20
f 59/1/24 55/3/21 57/1/21
f 55/3/21 59/1/24 60/3/24
f 61/3/22 42/1/22 34/3/22
f 42/1/22 61/3/22 48/1/22
f 52/3/19 48/1/22 61/3/22
f 48/1/22 52/3/19 47/1/19
f 50/1/25 33/3/25 46/1/25
f 33/3/25 50/1/25 58/3/25
f 64/5/26 63/4/15 62/4/15
f 63/4/15 64/5/26 65/5/26
f 63/4/19 67/5/27 66/4/19
f 67/5/27 63/4/19 65/5/27
f 68/6/28 65/5/26 64/5/26
f 65/5/26 68/6/28 69/6/28
f 64/5/29 71/4/21 70/5/29
f 71/4/21 64/5/29 62/4/21
f 72/6/30 64/5/29 70/5/29
f 64/5/29 72/6/30 68/6/30
f 37/6/32 70/5/31 67/5/31
f 70/5/31 37/6/32 72/6/32
f 62/4/18 66/4/18 71/4/18
f 66/4/18 62/4/18 63/4/18
f 67/5/31 71/4/12 66/4/12
f 71/4/12 67/5/31 70/5/31
f 65/5/27 37/6/33 67/5/27
f 37/6/33 65/5/27 69/6/33
f 73/7/18 7/7/18 14/7/18
f 7/7/18 73/7/18 74/7/18
f 7/7/18 74/7/18 6/7/18
f 6/7/18 74/7/18 40/7/18
f 30/7/18 55/7/18 60/7/18
f 55/7/18 30/7/18 54/7/18
f 54/7/18 30/7/18 75/7/18
f 54/7/18 75/7/18 44/7/18
f 76/7/18 33/7/18 58/7/18
f 33/7/18 76/7/18 52/7/18
f 33/7/18 52/7/18 34/7/18
f 34/7/18 52/7/18 61/7/18
f 16/7/18 10/7/18 11/7/18
f 10/7/18 16/7/18 17/7/18
f 10/7/18 17/7/18 28/7/18
f 28/7/18 17/7/18 20/7/18

