# Created by Kenney (www.kenney.nl)

mtllib light-curved-double.mtl

g light-curved-double

v -0.0125 0.6258634 0.006629206 1 1 1
v 0.0125 0.6258634 0.006629206 1 1 1
v -0.0125 0.6463862 0.02474003 1 1 1
v 0.0125 0.6463862 0.02474003 1 1 1
v -0.0125 0.675 0.1 1 1 1
v -0.025 0.675 0.15 1 1 1
v -0.0125 0.6527778 0.1 1 1 1
v -0.025 0.6527778 0.15 1 1 1
v 0.0125 0.6527778 0.1 1 1 1
v 0.0125 0.6502059 0.07886714 1 1 1
v -0.0125 0.6502059 0.07886714 1 1 1
v -0.025 0.6527778 0.2 1 1 1
v -0.025 0.675 0.2 1 1 1
v 0.0125 0.15 0.0125 1 1 1
v -0.0125 0.15 0.0125 1 1 1
v 0.0125 0.575 0.0125 1 1 1
v -0.0125 0.575 0.0125 1 1 1
v 0.0125 0.5956856 0.01753183 1 1 1
v -0.0125 0.5956856 0.01753183 1 1 1
v 0.0125 0.675 0.1 1 1 1
v 0.025 0.675 0.15 1 1 1
v 0.025 0.6527778 0.15 1 1 1
v 0.0125 0.661966 0.04724465 1 1 1
v 0.0125 0.6716933 0.07282919 1 1 1
v -0.0125 0.661966 0.04724465 1 1 1
v -0.0125 0.6716933 0.07282919 1 1 1
v 0.025 0.6527778 0.2 1 1 1
v 0.025 0.675 0.2 1 1 1
v 0.0125 0.6145604 0.02737827 1 1 1
v -0.0125 0.6145604 0.02737827 1 1 1
v 0.0125 0.6305226 0.04146447 1 1 1
v -0.0125 0.6305226 0.04146447 1 1 1
v 0.0125 0.6426402 0.05896806 1 1 1
v -0.0125 0.6426402 0.05896806 1 1 1
v 0.0125 0.6502059 -0.07886714 1 1 1
v 0.0125 0.6527778 -0.1 1 1 1
v -0.0125 0.6502059 -0.07886714 1 1 1
v -0.0125 0.6527778 -0.1 1 1 1
v 0.0125 0.6131557 0 1 1 1
v 0.0125 0.6258634 -0.006629206 1 1 1
v 0.0125 0.15 -0.0125 1 1 1
v 0.0125 0.575 -0.0125 1 1 1
v 0.0125 0.5956856 -0.01753183 1 1 1
v 0.0125 0.6463862 -0.02474003 1 1 1
v 0.0125 0.6145604 -0.02737827 1 1 1
v 0.0125 0.6305226 -0.04146447 1 1 1
v 0.0125 0.661966 -0.04724465 1 1 1
v 0.0125 0.6426402 -0.05896806 1 1 1
v 0.0125 0.6716933 -0.07282919 1 1 1
v 0.0125 0.675 -0.1 1 1 1
v -0.0125 0.6258634 -0.006629206 1 1 1
v -0.0125 0.6463862 -0.02474003 1 1 1
v 0.025 0.675 -0.2 1 1 1
v 0.025 0.6527778 -0.2 1 1 1
v 0.025 0.675 -0.15 1 1 1
v 0.025 0.6527778 -0.15 1 1 1
v -0.025 0.6527778 -0.2 1 1 1
v -0.025 0.675 -0.2 1 1 1
v -0.0125 0.6131557 0 1 1 1
v -0.0125 0.575 -0.0125 1 1 1
v -0.0125 0.5956856 -0.01753183 1 1 1
v -0.0125 0.6305226 -0.04146447 1 1 1
v -0.0125 0.6426402 -0.05896806 1 1 1
v -0.0125 0.15 -0.0125 1 1 1
v -0.025 0.6527778 -0.15 1 1 1
v -0.025 0.675 -0.15 1 1 1
v -0.0125 0.6145604 -0.02737827 1 1 1
v -0.0125 0.675 -0.1 1 1 1
v -0.0125 0.6716933 -0.07282919 1 1 1
v -0.0125 0.661966 -0.04724465 1 1 1
v -0.025 0.1 -0.025 1 1 1
v 0.025 0.1 -0.025 1 1 1
v 0.025 0 0.025 1 1 1
v -0.025 0 0.025 1 1 1
v 0.025 0.1 0.025 1 1 1
v -0.025 0.1 0.025 1 1 1
v -0.025 0 -0.025 1 1 1
v 0.025 0 -0.025 1 1 1

vn 0 0.5662425 -0.8242387
vn 0 0.7474093 -0.6643638
vn -0.9701425 0 -0.2425356
vn -0.9925076 0 -0.1221833
vn 0 -0.9926755 0.1208112
vn 0 -0.9708093 0.2398527
vn -1 0 0
vn 0 0 1
vn 0 -0.2363607 0.9716654
vn 0 -0.3520176 0.9359934
vn 0.9701425 0 -0.2425356
vn 0.9925076 0 -0.1221833
vn 0 0.8849414 -0.4657024
vn 0 0.9708093 -0.2398527
vn 0 0.998423 -0.05613833
vn 0 1 0
vn 0 -0.5662425 0.8242387
vn 0 -0.7474093 0.6643638
vn 0 -0.8849414 0.4657024
vn 0 -0.9708093 -0.2398527
vn 0 -0.9926755 -0.1208112
vn 1 0 0
vn 0 0.5662425 0.8242387
vn 0 0.7474093 0.6643638
vn 0.9925076 0 0.1221833
vn 0 0 -1
vn 0 0.4625177 -0.8866101
vn 0 -0.2363607 -0.9716654
vn 0 -0.3520176 -0.9359934
vn 0 -0.7474093 -0.6643638
vn 0 -0.8849414 -0.4657024
vn 0.9701425 0 0.2425356
vn -0.9925076 0 0.1221833
vn 0 -0.5662425 -0.8242387
vn 0 0.998423 0.05613833
vn 0 0.8849414 0.4657024
vn -0.9701425 0 0.2425356
vn 0 0.9708093 0.2398527
vn 0 0.4625177 0.8866101
vn 0 0.1121652 -0.9936895
vn 0 0.2425356 -0.9701425
vn 0 0.1121652 0.9936895
vn 0.9936895 0.1121652 0
vn 0.9701425 0.2425356 0
vn 0 0.2425356 0.9701425
vn -0.9936895 0.1121652 0
vn -0.9701425 0.2425356 0
vn 0 -1 0

vt 0.96875 0.210441
vt 0.96875 0.2165218
vt 0.96875 0.225
vt 0.96875 0.2184156
vt 0.96875 0.2176536
vt 0.96875 0.06944445
vt 0.96875 0.1953704
vt 0.96875 0.2014994
vt 0.96875 0.2211381
vt 0.96875 0.2240202
vt 0.96875 0.207092
vt 0.96875 0.2118215
vt 0.96875 0.2154119
vt 0.96875 0.2066758
vt 0.96875 0.1416667
vt 0.96875 0.175
vt 0.96875 0.075
vt 0.03125 0.375

usemtl colormap

f 3/2/2 2/1/1 1/1/1
f 2/1/1 3/2/2 4/2/2
f 7/4/3 6/3/4 5/3/3
f 6/3/4 7/4/3 8/4/4
f 7/4/5 10/5/6 9/4/5
f 10/5/6 7/4/5 11/5/6
f 12/4/7 6/3/4 8/4/4
f 6/3/4 12/4/7 13/3/7
f 16/7/8 15/6/8 14/6/8
f 15/6/8 16/7/8 17/7/8
f 18/8/10 17/7/9 16/7/9
f 17/7/9 18/8/10 19/8/10
f 21/3/12 9/4/11 20/3/11
f 9/4/11 21/3/12 22/4/12
f 25/9/13 24/10/14 23/9/13
f 24/10/14 25/9/13 26/10/14
f 3/2/2 23/9/13 4/2/2
f 23/9/13 3/2/2 25/9/13
f 28/3/8 12/4/8 27/4/8
f 12/4/8 28/3/8 13/3/8
f 24/10/14 5/3/15 20/3/15
f 5/3/15 24/10/14 26/10/14
f 20/3/15 28/3/16 21/3/16
f 28/3/16 20/3/15 13/3/16
f 13/3/16 20/3/15 5/3/15
f 13/3/16 5/3/15 6/3/16
f 31/12/18 30/11/17 29/11/17
f 30/11/17 31/12/18 32/12/18
f 29/11/17 19/8/10 18/8/10
f 19/8/10 29/11/17 30/11/17
f 10/5/6 34/13/19 33/13/19
f 34/13/19 10/5/6 11/5/6
f 37/5/20 36/4/21 35/5/20
f 36/4/21 37/5/20 38/4/21
f 10/5/22 20/3/22 9/4/22
f 10/5/22 24/10/22 20/3/22
f 33/13/22 24/10/22 10/5/22
f 33/13/22 23/9/22 24/10/22
f 31/12/22 23/9/22 33/13/22
f 29/11/22 23/9/22 31/12/22
f 29/11/22 4/2/22 23/9/22
f 18/8/22 4/2/22 29/11/22
f 16/7/22 4/2/22 18/8/22
f 4/2/22 16/7/22 2/1/22
f 14/6/22 2/1/22 16/7/22
f 14/6/22 39/14/22 2/1/22
f 14/6/22 40/1/22 39/14/22
f 41/6/22 40/1/22 14/6/22
f 42/7/22 40/1/22 41/6/22
f 43/8/22 40/1/22 42/7/22
f 43/8/22 44/2/22 40/1/22
f 45/11/22 44/2/22 43/8/22
f 46/12/22 44/2/22 45/11/22
f 46/12/22 47/9/22 44/2/22
f 48/13/22 47/9/22 46/12/22
f 48/13/22 49/10/22 47/9/22
f 35/5/22 49/10/22 48/13/22
f 35/5/22 50/3/22 49/10/22
f 50/3/22 35/5/22 36/4/22
f 44/2/24 51/1/23 40/1/23
f 51/1/23 44/2/24 52/2/24
f 55/3/25 54/4/22 53/3/22
f 54/4/22 55/3/25 56/4/25
f 58/3/26 54/4/26 57/4/26
f 54/4/26 58/3/26 53/3/26
f 59/14/27 2/1/1 39/14/27
f 2/1/1 59/14/27 1/1/1
f 61/8/29 42/7/28 60/7/28
f 42/7/28 61/8/29 43/8/29
f 28/3/22 22/4/12 21/3/12
f 22/4/12 28/3/22 27/4/22
f 62/12/30 48/13/31 46/12/30
f 48/13/31 62/12/30 63/13/31
f 50/3/32 56/4/25 55/3/25
f 56/4/25 50/3/32 36/4/32
f 60/7/26 41/6/26 64/6/26
f 41/6/26 60/7/26 42/7/26
f 33/13/19 32/12/18 31/12/18
f 32/12/18 33/13/19 34/13/19
f 65/4/33 58/3/7 57/4/7
f 58/3/7 65/4/33 66/3/33
f 67/11/34 43/8/29 61/8/29
f 43/8/29 67/11/34 45/11/34
f 62/12/30 45/11/34 67/11/34
f 45/11/34 62/12/30 46/12/30
f 37/5/7 68/3/7 38/4/7
f 68/3/7 37/5/7 69/10/7
f 69/10/7 37/5/7 63/13/7
f 69/10/7 63/13/7 70/9/7
f 70/9/7 63/13/7 62/12/7
f 70/9/7 62/12/7 52/2/7
f 52/2/7 62/12/7 67/11/7
f 52/2/7 67/11/7 61/8/7
f 52/2/7 61/8/7 51/1/7
f 51/1/7 61/8/7 60/7/7
f 60/7/7 15/6/7 51/1/7
f 15/6/7 60/7/7 64/6/7
f 51/1/7 15/6/7 59/14/7
f 59/14/7 15/6/7 1/1/7
f 1/1/7 15/6/7 17/7/7
f 17/7/7 3/2/7 1/1/7
f 3/2/7 17/7/7 19/8/7
f 3/2/7 19/8/7 30/11/7
f 3/2/7 30/11/7 25/9/7
f 25/9/7 30/11/7 32/12/7
f 25/9/7 32/12/7 34/13/7
f 25/9/7 34/13/7 26/10/7
f 26/10/7 34/13/7 11/5/7
f 26/10/7 11/5/7 5/3/7
f 5/3/7 11/5/7 7/4/7
f 58/3/16 55/3/16 53/3/16
f 55/3/16 58/3/16 50/3/35
f 50/3/35 58/3/16 68/3/35
f 68/3/35 58/3/16 66/3/16
f 70/9/36 44/2/24 47/9/36
f 44/2/24 70/9/36 52/2/24
f 38/4/37 66/3/33 65/4/33
f 66/3/33 38/4/37 68/3/37
f 63/13/31 35/5/20 48/13/31
f 35/5/20 63/13/31 37/5/20
f 69/10/38 47/9/36 49/10/38
f 47/9/36 69/10/38 70/9/36
f 40/1/23 59/14/39 39/14/39
f 59/14/39 40/1/23 51/1/23
f 50/3/35 69/10/38 49/10/38
f 69/10/38 50/3/35 68/3/35
f 64/16/41 72/15/40 71/15/40
f 72/15/40 64/16/41 41/16/41
f 75/15/42 74/17/8 73/17/8
f 74/17/8 75/15/42 76/15/42
f 41/16/44 75/15/43 72/15/43
f 75/15/43 41/16/44 14/16/44
f 14/16/45 76/15/42 75/15/42
f 76/15/42 14/16/45 15/16/45
f 74/17/7 71/15/46 77/17/7
f 71/15/46 74/17/7 76/15/46
f 76/15/46 64/16/47 71/15/46
f 64/16/47 76/15/46 15/16/47
f 71/15/40 78/17/26 77/17/26
f 78/17/26 71/15/40 72/15/40
f 74/17/48 78/17/48 73/17/48
f 78/17/48 74/17/48 77/17/48
f 75/15/43 78/17/22 72/15/43
f 78/17/22 75/15/43 73/17/22
f 36/18/48 54/18/48 56/18/48
f 54/18/48 36/18/48 57/18/48
f 57/18/48 36/18/48 38/18/48
f 57/18/48 38/18/48 65/18/48
f 27/18/48 9/18/48 22/18/48
f 9/18/48 27/18/48 12/18/48
f 9/18/48 12/18/48 7/18/48
f 7/18/48 12/18/48 8/18/48

g light-curved-double




usemtl colormap

f 3/2/2 2/1/1 1/1/1
f 2/1/1 3/2/2 4/2/2
f 7/4/3 6/3/4 5/3/3
f 6/3/4 7/4/3 8/4/4
f 7/4/5 10/5/6 9/4/5
f 10/5/6 7/4/5 11/5/6
f 12/4/7 6/3/4 8/4/4
f 6/3/4 12/4/7 13/3/7
f 16/7/8 15/6/8 14/6/8
f 15/6/8 16/7/8 17/7/8
f 18/8/10 17/7/9 16/7/9
f 17/7/9 18/8/10 19/8/10
f 21/3/12 9/4/11 20/3/11
f 9/4/11 21/3/12 22/4/12
f 25/9/13 24/10/14 23/9/13
f 24/10/14 25/9/13 26/10/14
f 3/2/2 23/9/13 4/2/2
f 23/9/13 3/2/2 25/9/13
f 28/3/8 12/4/8 27/4/8
f 12/4/8 28/3/8 13/3/8
f 24/10/14 5/3/15 20/3/15
f 5/3/15 24/10/14 26/10/14
f 20/3/15 28/3/16 21/3/16
f 28/3/16 20/3/15 13/3/16
f 13/3/16 20/3/15 5/3/15
f 13/3/16 5/3/15 6/3/16
f 31/12/18 30/11/17 29/11/17
f 30/11/17 31/12/18 32/12/18
f 29/11/17 19/8/10 18/8/10
f 19/8/10 29/11/17 30/11/17
f 10/5/6 34/13/19 33/13/19
f 34/13/19 10/5/6 11/5/6
f 37/5/20 36/4/21 35/5/20
f 36/4/21 37/5/20 38/4/21
f 10/5/22 20/3/22 9/4/22
f 10/5/22 24/10/22 20/3/22
f 33/13/22 24/10/22 10/5/22
f 33/13/22 23/9/22 24/10/22
f 31/12/22 23/9/22 33/13/22
f 29/11/22 23/9/22 31/12/22
f 29/11/22 4/2/22 23/9/22
f 18/8/22 4/2/22 29/11/22
f 16/7/22 4/2/22 18/8/22
f 4/2/22 16/7/22 2/1/22
f 14/6/22 2/1/22 16/7/22
f 14/6/22 39/14/22 2/1/22
f 14/6/22 40/1/22 39/14/22
f 41/6/22 40/1/22 14/6/22
f 42/7/22 40/1/22 41/6/22
f 43/8/22 40/1/22 42/7/22
f 43/8/22 44/2/22 40/1/22
f 45/11/22 44/2/22 43/8/22
f 46/12/22 44/2/22 45/11/22
f 46/12/22 47/9/22 44/2/22
f 48/13/22 47/9/22 46/12/22
f 48/13/22 49/10/22 47/9/22
f 35/5/22 49/10/22 48/13/22
f 35/5/22 50/3/22 49/10/22
f 50/3/22 35/5/22 36/4/22
f 44/2/24 51/1/23 40/1/23
f 51/1/23 44/2/24 52/2/24
f 55/3/25 54/4/22 53/3/22
f 54/4/22 55/3/25 56/4/25
f 58/3/26 54/4/26 57/4/26
f 54/4/26 58/3/26 53/3/26
f 59/14/27 2/1/1 39/14/27
f 2/1/1 59/14/27 1/1/1
f 61/8/29 42/7/28 60/7/28
f 42/7/28 61/8/29 43/8/29
f 28/3/22 22/4/12 21/3/12
f 22/4/12 28/3/22 27/4/22
f 62/12/30 48/13/31 46/12/30
f 48/13/31 62/12/30 63/13/31
f 50/3/32 56/4/25 55/3/25
f 56/4/25 50/3/32 36/4/32
f 60/7/26 41/6/26 64/6/26
f 41/6/26 60/7/26 42/7/26
f 33/13/19 32/12/18 31/12/18
f 32/12/18 33/13/19 34/13/19
f 65/4/33 58/3/7 57/4/7
f 58/3/7 65/4/33 66/3/33
f 67/11/34 43/8/29 61/8/29
f 43/8/29 67/11/34 45/11/34
f 62/12/30 45/11/34 67/11/34
f 45/11/34 62/12/30 46/12/30
f 37/5/7 68/3/7 38/4/7
f 68/3/7 37/5/7 69/10/7
f 69/10/7 37/5/7 63/13/7
f 69/10/7 63/13/7 70/9/7
f 70/9/7 63/13/7 62/12/7
f 70/9/7 62/12/7 52/2/7
f 52/2/7 62/12/7 67/11/7
f 52/2/7 67/11/7 61/8/7
f 52/2/7 61/8/7 51/1/7
f 51/1/7 61/8/7 60/7/7
f 60/7/7 15/6/7 51/1/7
f 15/6/7 60/7/7 64/6/7
f 51/1/7 15/6/7 59/14/7
f 59/14/7 15/6/7 1/1/7
f 1/1/7 15/6/7 17/7/7
f 17/7/7 3/2/7 1/1/7
f 3/2/7 17/7/7 19/8/7
f 3/2/7 19/8/7 30/11/7
f 3/2/7 30/11/7 25/9/7
f 25/9/7 30/11/7 32/12/7
f 25/9/7 32/12/7 34/13/7
f 25/9/7 34/13/7 26/10/7
f 26/10/7 34/13/7 11/5/7
f 26/10/7 11/5/7 5/3/7
f 5/3/7 11/5/7 7/4/7
f 58/3/16 55/3/16 53/3/16
f 55/3/16 58/3/16 50/3/35
f 50/3/35 58/3/16 68/3/35
f 68/3/35 58/3/16 66/3/16
f 70/9/36 44/2/24 47/9/36
f 44/2/24 70/9/36 52/2/24
f 38/4/37 66/3/33 65/4/33
f 66/3/33 38/4/37 68/3/37
f 63/13/31 35/5/20 48/13/31
f 35/5/20 63/13/31 37/5/20
f 69/10/38 47/9/36 49/10/38
f 47/9/36 69/10/38 70/9/36
f 40/1/23 59/14/39 39/14/39
f 59/14/39 40/1/23 51/1/23
f 50/3/35 69/10/38 49/10/38
f 69/10/38 50/3/35 68/3/35
f 64/16/41 72/15/40 71/15/40
f 72/15/40 64/16/41 41/16/41
f 75/15/42 74/17/8 73/17/8
f 74/17/8 75/15/42 76/15/42
f 41/16/44 75/15/43 72/15/43
f 75/15/43 41/16/44 14/16/44
f 14/16/45 76/15/42 75/15/42
f 76/15/42 14/16/45 15/16/45
f 74/17/7 71/15/46 77/17/7
f 71/15/46 74/17/7 76/15/46
f 76/15/46 64/16/47 71/15/46
f 64/16/47 76/15/46 15/16/47
f 71/15/40 78/17/26 77/17/26
f 78/17/26 71/15/40 72/15/40
f 74/17/48 78/17/48 73/17/48
f 78/17/48 74/17/48 77/17/48
f 75/15/43 78/17/22 72/15/43
f 78/17/22 75/15/43 73/17/22
f 36/18/48 54/18/48 56/18/48
f 54/18/48 36/18/48 57/18/48
f 57/18/48 36/18/48 38/18/48
f 57/18/48 38/18/48 65/18/48
f 27/18/48 9/18/48 22/18/48
f 9/18/48 27/18/48 12/18/48
f 9/18/48 12/18/48 7/18/48
f 7/18/48 12/18/48 8/18/48

