# Created by Kenney (www.kenney.nl)

mtllib road-straight.mtl

g road-straight

v 0.5 0.01 -0.4 1 1 1
v -0.5 0.01 -0.4 1 1 1
v 0.5 0.02 -0.4 1 1 1
v -0.5 0.02 -0.4 1 1 1
v -0.5 0 -0.5 1 1 1
v 0.5 0 -0.5 1 1 1
v -0.5 0.02 -0.5 1 1 1
v 0.5 0.02 -0.5 1 1 1
v -0.5 0.01 0.4 1 1 1
v 0.5 0.01 0.4 1 1 1
v -0.5 0.02 0.4 1 1 1
v 0.5 0.02 0.4 1 1 1
v 0.5 0 0.5 1 1 1
v -0.5 0 0.5 1 1 1
v 0.5 0.02 0.5 1 1 1
v -0.5 0.02 0.5 1 1 1
v 0.5 0.01 0.3 1 1 1
v 0.5 0.01 0.01 1 1 1
v 0.5 0.01 -0.01 1 1 1
v 0.5 0.01 -0.3 1 1 1
v -0.5 0.01 0.3 1 1 1
v -0.5 0.01 0.01 1 1 1
v -0.5 0.01 -0.01 1 1 1
v -0.5 0.01 -0.3 1 1 1

vn 0 0 1
vn 0 0 -1
vn 0 -1 0
vn 0 1 0
vn 1 0 0
vn -1 0 0

vt 0.96875 0.125
vt 0.96875 0.225
vt 0.96875 0.025
vt 0.21875 0.225
vt 0.21875 0.125
vt 0.21875 0.025
vt 0.15625 0.125
vt 0.03125 0.125
vt 0.28125 0.125

usemtl colormap

f 3/2/1 2/1/1 1/1/1
f 2/1/1 3/2/1 4/2/1
f 7/2/2 6/3/2 5/3/2
f 6/3/2 7/2/2 8/2/2
f 11/2/2 10/1/2 9/1/2
f 10/1/2 11/2/2 12/2/2
f 14/3/3 6/3/3 13/3/3
f 6/3/3 14/3/3 5/3/3
f 7/2/4 3/2/4 8/2/4
f 3/2/4 7/2/4 4/2/4
f 15/2/1 14/3/1 13/3/1
f 14/3/1 15/2/1 16/2/1
f 11/2/4 15/2/4 12/2/4
f 15/2/4 11/2/4 16/2/4
f 15/4/5 10/5/5 12/4/5
f 13/6/5 10/5/5 15/4/5
f 13/6/5 17/5/5 10/5/5
f 13/6/5 18/5/5 17/5/5
f 13/6/5 19/5/5 18/5/5
f 13/6/5 20/5/5 19/5/5
f 13/6/5 1/5/5 20/5/5
f 6/6/5 1/5/5 13/6/5
f 6/6/5 3/4/5 1/5/5
f 3/4/5 6/6/5 8/4/5
f 11/4/6 14/6/6 16/4/6
f 9/5/6 14/6/6 11/4/6
f 21/5/6 14/6/6 9/5/6
f 22/5/6 14/6/6 21/5/6
f 23/5/6 14/6/6 22/5/6
f 24/5/6 14/6/6 23/5/6
f 2/5/6 14/6/6 24/5/6
f 2/5/6 5/6/6 14/6/6
f 5/6/6 2/5/6 7/4/6
f 4/4/6 7/4/6 2/5/6
f 18/7/4 21/7/4 17/7/4
f 21/7/4 18/7/4 22/7/4
f 24/7/4 19/7/4 20/7/4
f 19/7/4 24/7/4 23/7/4
f 2/8/4 20/8/4 1/8/4
f 20/8/4 2/8/4 24/8/4
f 21/8/4 10/8/4 17/8/4
f 10/8/4 21/8/4 9/8/4
f 23/9/4 18/9/4 19/9/4
f 18/9/4 23/9/4 22/9/4

g road-straight




usemtl colormap

f 3/2/1 2/1/1 1/1/1
f 2/1/1 3/2/1 4/2/1
f 7/2/2 6/3/2 5/3/2
f 6/3/2 7/2/2 8/2/2
f 11/2/2 10/1/2 9/1/2
f 10/1/2 11/2/2 12/2/2
f 14/3/3 6/3/3 13/3/3
f 6/3/3 14/3/3 5/3/3
f 7/2/4 3/2/4 8/2/4
f 3/2/4 7/2/4 4/2/4
f 15/2/1 14/3/1 13/3/1
f 14/3/1 15/2/1 16/2/1
f 11/2/4 15/2/4 12/2/4
f 15/2/4 11/2/4 16/2/4
f 15/4/5 10/5/5 12/4/5
f 13/6/5 10/5/5 15/4/5
f 13/6/5 17/5/5 10/5/5
f 13/6/5 18/5/5 17/5/5
f 13/6/5 19/5/5 18/5/5
f 13/6/5 20/5/5 19/5/5
f 13/6/5 1/5/5 20/5/5
f 6/6/5 1/5/5 13/6/5
f 6/6/5 3/4/5 1/5/5
f 3/4/5 6/6/5 8/4/5
f 11/4/6 14/6/6 16/4/6
f 9/5/6 14/6/6 11/4/6
f 21/5/6 14/6/6 9/5/6
f 22/5/6 14/6/6 21/5/6
f 23/5/6 14/6/6 22/5/6
f 24/5/6 14/6/6 23/5/6
f 2/5/6 14/6/6 24/5/6
f 2/5/6 5/6/6 14/6/6
f 5/6/6 2/5/6 7/4/6
f 4/4/6 7/4/6 2/5/6
f 18/7/4 21/7/4 17/7/4
f 21/7/4 18/7/4 22/7/4
f 24/7/4 19/7/4 20/7/4
f 19/7/4 24/7/4 23/7/4
f 2/8/4 20/8/4 1/8/4
f 20/8/4 2/8/4 24/8/4
f 21/8/4 10/8/4 17/8/4
f 10/8/4 21/8/4 9/8/4
f 23/9/4 18/9/4 19/9/4
f 18/9/4 23/9/4 22/9/4

