# Created by Kenney (www.kenney.nl)

mtllib road-slant.mtl

g road-slant

v -0.5 0.02 0.5 1 1 1
v -0.5 0 0.5 1 1 1
v -0.5 0.02 0.4 1 1 1
v -0.5 0.01 0.4 1 1 1
v -0.5 0.01 0.3 1 1 1
v -0.5 0.01 0.01 1 1 1
v -0.5 0.01 -0.01 1 1 1
v -0.5 0.01 -0.3 1 1 1
v -0.5 0.01 -0.4 1 1 1
v -0.5 0 -0.5 1 1 1
v -0.5 0.02 -0.5 1 1 1
v -0.5 0.02 -0.4 1 1 1
v 0.5 0.27 0.4 1 1 1
v 0.5 0.27 0.5 1 1 1
v 0.5 0 0.5 1 1 1
v 0.5 0 -0.5 1 1 1
v 0.5 0.27 -0.5 1 1 1
v 0.5 0.26 0.4 1 1 1
v 0.5 0.27 -0.4 1 1 1
v 0.5 0.26 -0.4 1 1 1
v 0.5 0.26 0.3 1 1 1
v 0.5 0.26 0.01 1 1 1
v 0.5 0.26 -0.01 1 1 1
v 0.5 0.26 -0.3 1 1 1

vn -1 0 0
vn -0.2425356 0.9701425 0
vn 0 0 1
vn 0 0 -1
vn 0 -1 0
vn 1 0 0

vt 0.96875 0.03981481
vt 0.96875 0.025
vt 0.96875 0.03240741
vt 0.96875 0.225
vt 0.96875 0.2175926
vt 0.28125 0.125
vt 0.15625 0.125
vt 0.03125 0.125

usemtl colormap

f 3/1/1 2/2/1 1/1/1
f 4/3/1 2/2/1 3/1/1
f 5/3/1 2/2/1 4/3/1
f 6/3/1 2/2/1 5/3/1
f 7/3/1 2/2/1 6/3/1
f 8/3/1 2/2/1 7/3/1
f 9/3/1 2/2/1 8/3/1
f 9/3/1 10/2/1 2/2/1
f 10/2/1 9/3/1 11/1/1
f 12/1/1 11/1/1 9/3/1
f 3/1/2 14/4/2 13/4/2
f 14/4/2 3/1/2 1/1/2
f 14/4/3 2/2/3 15/2/3
f 2/2/3 14/4/3 1/1/3
f 11/1/4 16/2/4 10/2/4
f 16/2/4 11/1/4 17/4/4
f 3/1/4 18/5/4 4/3/4
f 18/5/4 3/1/4 13/4/4
f 2/2/5 16/2/5 15/2/5
f 16/2/5 2/2/5 10/2/5
f 11/1/2 19/4/2 17/4/2
f 19/4/2 11/1/2 12/1/2
f 20/5/3 12/1/3 9/3/3
f 12/1/3 20/5/3 19/4/3
f 14/4/6 18/5/6 13/4/6
f 15/2/6 18/5/6 14/4/6
f 15/2/6 21/5/6 18/5/6
f 15/2/6 22/5/6 21/5/6
f 15/2/6 23/5/6 22/5/6
f 15/2/6 24/5/6 23/5/6
f 15/2/6 20/5/6 24/5/6
f 16/2/6 20/5/6 15/2/6
f 16/2/6 19/4/6 20/5/6
f 19/4/6 16/2/6 17/4/6
f 7/6/2 22/6/2 23/6/2
f 22/6/2 7/6/2 6/6/2
f 22/7/2 5/7/2 21/7/2
f 5/7/2 22/7/2 6/7/2
f 8/7/2 23/7/2 24/7/2
f 23/7/2 8/7/2 7/7/2
f 9/8/2 24/8/2 20/8/2
f 24/8/2 9/8/2 8/8/2
f 5/8/2 18/8/2 21/8/2
f 18/8/2 5/8/2 4/8/2

g road-slant




usemtl colormap

f 3/1/1 2/2/1 1/1/1
f 4/3/1 2/2/1 3/1/1
f 5/3/1 2/2/1 4/3/1
f 6/3/1 2/2/1 5/3/1
f 7/3/1 2/2/1 6/3/1
f 8/3/1 2/2/1 7/3/1
f 9/3/1 2/2/1 8/3/1
f 9/3/1 10/2/1 2/2/1
f 10/2/1 9/3/1 11/1/1
f 12/1/1 11/1/1 9/3/1
f 3/1/2 14/4/2 13/4/2
f 14/4/2 3/1/2 1/1/2
f 14/4/3 2/2/3 15/2/3
f 2/2/3 14/4/3 1/1/3
f 11/1/4 16/2/4 10/2/4
f 16/2/4 11/1/4 17/4/4
f 3/1/4 18/5/4 4/3/4
f 18/5/4 3/1/4 13/4/4
f 2/2/5 16/2/5 15/2/5
f 16/2/5 2/2/5 10/2/5
f 11/1/2 19/4/2 17/4/2
f 19/4/2 11/1/2 12/1/2
f 20/5/3 12/1/3 9/3/3
f 12/1/3 20/5/3 19/4/3
f 14/4/6 18/5/6 13/4/6
f 15/2/6 18/5/6 14/4/6
f 15/2/6 21/5/6 18/5/6
f 15/2/6 22/5/6 21/5/6
f 15/2/6 23/5/6 22/5/6
f 15/2/6 24/5/6 23/5/6
f 15/2/6 20/5/6 24/5/6
f 16/2/6 20/5/6 15/2/6
f 16/2/6 19/4/6 20/5/6
f 19/4/6 16/2/6 17/4/6
f 7/6/2 22/6/2 23/6/2
f 22/6/2 7/6/2 6/6/2
f 22/7/2 5/7/2 21/7/2
f 5/7/2 22/7/2 6/7/2
f 8/7/2 23/7/2 24/7/2
f 23/7/2 8/7/2 7/7/2
f 9/8/2 24/8/2 20/8/2
f 24/8/2 9/8/2 8/8/2
f 5/8/2 18/8/2 21/8/2
f 18/8/2 5/8/2 4/8/2

