# Created by Kenney (www.kenney.nl)

mtllib road-intersection-path.mtl

g road-intersection-path

v 0.4 0.02 0.5 1 1 1
v 0.5 0.02 0.5 1 1 1
v 0.4 0.01 0.5 1 1 1
v 0.5 0 0.5 1 1 1
v -0.5 0 0.5 1 1 1
v 0.3 0.01 0.5 1 1 1
v -0.3 0.01 0.5 1 1 1
v -0.4 0.01 0.5 1 1 1
v -0.5 0.02 0.5 1 1 1
v -0.4 0.02 0.5 1 1 1
v -0.5 0.02 0.4 1 1 1
v -0.5 0.01 0.4 1 1 1
v -0.5 0.01 0.3 1 1 1
v -0.5 0.01 -0.3 1 1 1
v -0.5 0.01 -0.4 1 1 1
v -0.5 0 -0.5 1 1 1
v -0.5 0.02 -0.5 1 1 1
v -0.5 0.02 -0.4 1 1 1
v 0.5 0.02 0.4 1 1 1
v 0.5 0.01 0.4 1 1 1
v 0.5 0.01 0.3 1 1 1
v 0.5 0.01 -0.3 1 1 1
v 0.5 0.01 -0.4 1 1 1
v 0.5 0 -0.5 1 1 1
v 0.5 0.02 -0.4 1 1 1
v 0.5 0.02 -0.5 1 1 1
v -0.275 0.01 0.45 1 1 1
v -0.225 0.01 0.45 1 1 1
v -0.275 0.01 0.3 1 1 1
v -0.175 0.01 0.45 1 1 1
v -0.175 0.01 0.3 1 1 1
v -0.225 0.01 0.3 1 1 1
v -0.125 0.01 0.45 1 1 1
v -0.3 0.01 -0.275 1 1 1
v -0.125 0.01 0.3 1 1 1
v -0.075 0.01 0.45 1 1 1
v -0.025 0.01 0.45 1 1 1
v 0.025 0.01 0.45 1 1 1
v -0.075 0.01 0.3 1 1 1
v -0.025 0.01 0.3 1 1 1
v 0.025 0.01 0.3 1 1 1
v 0.075 0.01 0.3 1 1 1
v 0.075 0.01 0.45 1 1 1
v 0.125 0.01 0.3 1 1 1
v 0.175 0.01 0.3 1 1 1
v 0.125 0.01 0.45 1 1 1
v 0.225 0.01 0.3 1 1 1
v 0.275 0.01 0.3 1 1 1
v 0.175 0.01 0.45 1 1 1
v 0.225 0.01 0.45 1 1 1
v 0.275 0.01 0.45 1 1 1
v 0.3 0.01 0.275 1 1 1
v 0.3 0.01 0.3 1 1 1
v 0.45 0.01 0.275 1 1 1
v 0.3 0.01 0.225 1 1 1
v 0.45 0.01 -0.275 1 1 1
v 0.3 0.01 -0.275 1 1 1
v 0.45 0.01 -0.225 1 1 1
v 0.45 0.01 -0.175 1 1 1
v 0.45 0.01 -0.125 1 1 1
v 0.3 0.01 -0.225 1 1 1
v 0.3 0.01 -0.175 1 1 1
v 0.3 0.01 -0.125 1 1 1
v 0.3 0.01 0.175 1 1 1
v -0.45 0.01 -0.275 1 1 1
v 0.3 0.01 -0.07499998 1 1 1
v 0.45 0.01 0.225 1 1 1
v -0.45 0.01 -0.225 1 1 1
v 0.45 0.01 0.175 1 1 1
v 0.3 0.01 0.125 1 1 1
v 0.45 0.01 0.125 1 1 1
v 0.45 0.01 -0.07499998 1 1 1
v 0.45 0.01 -0.02499998 1 1 1
v 0.3 0.01 -0.02499998 1 1 1
v 0.3 0.01 0.07500001 1 1 1
v 0.45 0.01 0.07500001 1 1 1
v 0.45 0.01 0.02500001 1 1 1
v 0.3 0.01 0.02500001 1 1 1
v -0.3 0.01 0.275 1 1 1
v -0.3 0.01 -0.225 1 1 1
v -0.3 0.01 0.3 1 1 1
v -0.3 0.01 -0.175 1 1 1
v -0.45 0.01 0.275 1 1 1
v -0.3 0.01 -0.125 1 1 1
v -0.5 0.01 0.3 1 1 1
v -0.45 0.01 -0.175 1 1 1
v -0.45 0.01 0.225 1 1 1
v -0.45 0.01 -0.125 1 1 1
v -0.3 0.01 -0.07499998 1 1 1
v -0.45 0.01 -0.07499998 1 1 1
v -0.3 0.01 -0.02499998 1 1 1
v -0.45 0.01 -0.02499998 1 1 1
v -0.3 0.01 0.02500001 1 1 1
v -0.45 0.01 0.02500001 1 1 1
v -0.3 0.01 0.07500001 1 1 1
v -0.45 0.01 0.07500001 1 1 1
v -0.45 0.01 0.175 1 1 1
v -0.3 0.01 0.225 1 1 1
v -0.45 0.01 0.125 1 1 1
v -0.3 0.01 0.175 1 1 1
v -0.3 0.01 0.125 1 1 1
v -0.4 0.01 0.4 1 1 1
v -0.4 0.02 0.4 1 1 1
v 0.4 0.02 0.4 1 1 1
v 0.4 0.01 0.4 1 1 1
v 0.45 0.01 0.125 1 1 1
v 0.3 0.01 0.125 1 1 1
v -0.3 0.01 0.125 1 1 1
v -0.45 0.01 0.125 1 1 1
v 0.45 0.01 0.02500001 1 1 1
v 0.45 0.01 0.075 1 1 1
v 0.3 0.01 0.02500001 1 1 1
v 0.3 0.01 0.075 1 1 1
v 0.45 0.01 -0.075 1 1 1
v 0.45 0.01 -0.025 1 1 1
v 0.3 0.01 -0.075 1 1 1
v 0.3 0.01 -0.025 1 1 1
v 0.275 0.01 0.45 1 1 1
v 0.225 0.01 0.45 1 1 1
v -0.3 0.01 0.02500001 1 1 1
v -0.3 0.01 0.075 1 1 1
v -0.45 0.01 0.02500001 1 1 1
v -0.45 0.01 0.075 1 1 1
v 0.075 0.01 0.45 1 1 1
v 0.025 0.01 0.45 1 1 1
v 0.075 0.01 0.3 1 1 1
v 0.025 0.01 0.3 1 1 1
v -0.3 0.01 -0.075 1 1 1
v -0.3 0.01 -0.025 1 1 1
v -0.45 0.01 -0.075 1 1 1
v -0.45 0.01 -0.025 1 1 1
v -0.02500001 0.01 0.45 1 1 1
v -0.07500001 0.01 0.45 1 1 1
v -0.02500001 0.01 0.3 1 1 1
v -0.07500001 0.01 0.3 1 1 1
v -0.125 0.01 0.45 1 1 1
v -0.175 0.01 0.45 1 1 1
v -0.125 0.01 0.3 1 1 1
v -0.175 0.01 0.3 1 1 1
v 0.175 0.01 0.45 1 1 1
v 0.125 0.01 0.45 1 1 1
v 0.125 0.01 0.3 1 1 1
v -0.225 0.01 0.45 1 1 1
v -0.275 0.01 0.45 1 1 1
v -0.275 0.01 0.3 1 1 1
v 0.5 0.01 -0.4 1 1 1
v 0.5 0.01 -0.3 1 1 1
v -0.5 0.01 -0.4 1 1 1
v -0.5 0.01 -0.3 1 1 1

vn 0 0 1
vn -1 0 0
vn 1 0 0
vn 0 1 0
vn 0 0 -1
vn 0 -1 0

vt 0.21875 0.225
vt 0.21875 0.125
vt 0.21875 0.025
vt 0.15625 0.125
vt 0.96875 0.025
vt 0.96875 0.225
vt 0.96875 0.125
vt 0.28125 0.125
vt 0.03125 0.125

usemtl colormap

f 3/2/1 2/1/1 1/1/1
f 3/2/1 4/3/1 2/1/1
f 4/3/1 3/2/1 5/3/1
f 5/3/1 3/2/1 6/2/1
f 7/2/1 5/3/1 6/2/1
f 8/2/1 5/3/1 7/2/1
f 5/3/1 8/2/1 9/1/1
f 9/1/1 8/2/1 10/1/1
f 11/1/2 5/3/2 9/1/2
f 12/2/2 5/3/2 11/1/2
f 13/2/2 5/3/2 12/2/2
f 14/2/2 5/3/2 13/2/2
f 15/2/2 5/3/2 14/2/2
f 15/2/2 16/3/2 5/3/2
f 16/3/2 15/2/2 17/1/2
f 18/1/2 17/1/2 15/2/2
f 2/1/3 20/2/3 19/1/3
f 20/2/3 2/1/3 4/3/3
f 4/3/3 21/2/3 20/2/3
f 4/3/3 22/2/3 21/2/3
f 4/3/3 23/2/3 22/2/3
f 24/3/3 23/2/3 4/3/3
f 24/3/3 25/1/3 23/2/3
f 25/1/3 24/3/3 26/1/3
f 7/4/4 28/4/4 27/4/4
f 7/4/4 27/4/4 29/4/4
f 7/4/4 30/4/4 28/4/4
f 28/4/4 30/4/4 31/4/4
f 31/4/4 32/4/4 28/4/4
f 7/4/4 33/4/4 30/4/4
f 31/4/4 34/4/4 32/4/4
f 32/4/4 34/4/4 29/4/4
f 35/4/4 34/4/4 31/4/4
f 7/4/4 36/4/4 33/4/4
f 7/4/4 37/4/4 36/4/4
f 7/4/4 38/4/4 37/4/4
f 33/4/4 36/4/4 39/4/4
f 39/4/4 35/4/4 33/4/4
f 39/4/4 34/4/4 35/4/4
f 40/4/4 34/4/4 39/4/4
f 41/4/4 40/4/4 37/4/4
f 37/4/4 38/4/4 41/4/4
f 41/4/4 34/4/4 40/4/4
f 42/4/4 34/4/4 41/4/4
f 7/4/4 43/4/4 38/4/4
f 44/4/4 34/4/4 42/4/4
f 44/4/4 42/4/4 43/4/4
f 45/4/4 34/4/4 44/4/4
f 43/4/4 46/4/4 44/4/4
f 7/4/4 46/4/4 43/4/4
f 47/4/4 34/4/4 45/4/4
f 48/4/4 34/4/4 47/4/4
f 47/4/4 45/4/4 49/4/4
f 7/4/4 49/4/4 46/4/4
f 49/4/4 50/4/4 47/4/4
f 7/4/4 50/4/4 49/4/4
f 7/4/4 51/4/4 50/4/4
f 51/4/4 7/4/4 6/4/4
f 6/4/4 48/4/4 51/4/4
f 52/4/4 48/4/4 6/4/4
f 52/4/4 34/4/4 48/4/4
f 53/4/4 52/4/4 6/4/4
f 53/4/4 54/4/4 52/4/4
f 55/4/4 34/4/4 52/4/4
f 21/4/4 54/4/4 53/4/4
f 54/4/4 21/4/4 56/4/4
f 22/4/4 56/4/4 21/4/4
f 56/4/4 22/4/4 14/4/4
f 56/4/4 14/4/4 57/4/4
f 54/4/4 56/4/4 58/4/4
f 54/4/4 58/4/4 59/4/4
f 54/4/4 59/4/4 60/4/4
f 61/4/4 59/4/4 58/4/4
f 57/4/4 14/4/4 61/4/4
f 61/4/4 14/4/4 34/4/4
f 59/4/4 61/4/4 62/4/4
f 61/4/4 34/4/4 62/4/4
f 62/4/4 34/4/4 63/4/4
f 64/4/4 34/4/4 55/4/4
f 34/4/4 14/4/4 65/4/4
f 63/4/4 34/4/4 66/4/4
f 67/4/4 64/4/4 55/4/4
f 65/4/4 14/4/4 68/4/4
f 64/4/4 67/4/4 69/4/4
f 54/4/4 69/4/4 67/4/4
f 70/4/4 34/4/4 64/4/4
f 54/4/4 71/4/4 69/4/4
f 72/4/4 63/4/4 66/4/4
f 63/4/4 72/4/4 60/4/4
f 54/4/4 60/4/4 72/4/4
f 54/4/4 72/4/4 73/4/4
f 66/4/4 34/4/4 74/4/4
f 71/4/4 75/4/4 70/4/4
f 75/4/4 34/4/4 70/4/4
f 75/4/4 71/4/4 76/4/4
f 54/4/4 76/4/4 71/4/4
f 54/4/4 77/4/4 76/4/4
f 54/4/4 73/4/4 77/4/4
f 74/4/4 77/4/4 73/4/4
f 77/4/4 74/4/4 78/4/4
f 74/4/4 34/4/4 78/4/4
f 78/4/4 34/4/4 75/4/4
f 79/4/4 29/4/4 34/4/4
f 79/4/4 34/4/4 80/4/4
f 81/4/4 29/4/4 79/4/4
f 7/4/4 29/4/4 81/4/4
f 79/4/4 80/4/4 82/4/4
f 83/4/4 81/4/4 79/4/4
f 79/4/4 82/4/4 84/4/4
f 68/4/4 82/4/4 80/4/4
f 81/4/4 83/4/4 85/4/4
f 82/4/4 68/4/4 86/4/4
f 85/4/4 83/4/4 14/4/4
f 68/4/4 14/4/4 86/4/4
f 87/4/4 14/4/4 83/4/4
f 86/4/4 14/4/4 88/4/4
f 88/4/4 89/4/4 84/4/4
f 79/4/4 84/4/4 89/4/4
f 89/4/4 88/4/4 90/4/4
f 88/4/4 14/4/4 90/4/4
f 79/4/4 89/4/4 91/4/4
f 90/4/4 14/4/4 92/4/4
f 92/4/4 93/4/4 91/4/4
f 79/4/4 91/4/4 93/4/4
f 93/4/4 92/4/4 94/4/4
f 92/4/4 14/4/4 94/4/4
f 79/4/4 93/4/4 95/4/4
f 94/4/4 14/4/4 96/4/4
f 97/4/4 14/4/4 87/4/4
f 98/4/4 97/4/4 87/4/4
f 99/4/4 14/4/4 97/4/4
f 96/4/4 14/4/4 99/4/4
f 97/4/4 98/4/4 100/4/4
f 79/4/4 100/4/4 98/4/4
f 101/4/4 96/4/4 99/4/4
f 96/4/4 101/4/4 95/4/4
f 79/4/4 101/4/4 100/4/4
f 79/4/4 95/4/4 101/4/4
f 17/6/5 24/5/5 16/5/5
f 24/5/5 17/6/5 26/6/5
f 17/6/4 25/6/4 26/6/4
f 25/6/4 17/6/4 18/6/4
f 4/5/6 16/5/6 24/5/6
f 16/5/6 4/5/6 5/5/6
f 11/6/5 102/7/5 12/7/5
f 102/7/5 11/6/5 103/6/5
f 25/6/1 15/7/1 23/7/1
f 15/7/1 25/6/1 18/6/1
f 10/6/3 102/7/3 103/6/3
f 102/7/3 10/6/3 8/7/3
f 11/6/4 10/6/4 103/6/4
f 10/6/4 11/6/4 9/6/4
f 104/6/4 2/6/4 19/6/4
f 2/6/4 104/6/4 1/6/4
f 104/6/5 20/7/5 105/7/5
f 20/7/5 104/6/5 19/6/5
f 3/7/2 104/6/2 105/7/2
f 104/6/2 3/7/2 1/6/2
f 107/8/4 69/8/4 106/8/4
f 69/8/4 107/8/4 64/8/4
f 109/8/4 100/8/4 108/8/4
f 100/8/4 109/8/4 97/8/4
f 65/8/4 80/8/4 34/8/4
f 80/8/4 65/8/4 68/8/4
f 86/8/4 84/8/4 82/8/4
f 84/8/4 86/8/4 88/8/4
f 112/8/4 111/8/4 110/8/4
f 111/8/4 112/8/4 113/8/4
f 116/8/4 115/8/4 114/8/4
f 115/8/4 116/8/4 117/8/4
f 48/8/4 119/8/4 118/8/4
f 119/8/4 48/8/4 47/8/4
f 122/8/4 121/8/4 120/8/4
f 121/8/4 122/8/4 123/8/4
f 57/8/4 58/8/4 56/8/4
f 58/8/4 57/8/4 61/8/4
f 126/8/4 125/8/4 124/8/4
f 125/8/4 126/8/4 127/8/4
f 130/8/4 129/8/4 128/8/4
f 129/8/4 130/8/4 131/8/4
f 134/8/4 133/8/4 132/8/4
f 133/8/4 134/8/4 135/8/4
f 138/8/4 137/8/4 136/8/4
f 137/8/4 138/8/4 139/8/4
f 45/8/4 141/8/4 140/8/4
f 141/8/4 45/8/4 142/8/4
f 62/8/4 60/8/4 59/8/4
f 60/8/4 62/8/4 63/8/4
f 87/8/4 79/8/4 98/8/4
f 79/8/4 87/8/4 83/8/4
f 55/8/4 54/8/4 67/8/4
f 54/8/4 55/8/4 52/8/4
f 32/8/4 144/8/4 143/8/4
f 144/8/4 32/8/4 145/8/4
f 148/9/4 147/9/4 146/9/4
f 147/9/4 148/9/4 149/9/4
f 53/9/4 20/9/4 21/9/4
f 20/9/4 53/9/4 105/9/4
f 105/9/4 53/9/4 3/9/4
f 3/9/4 53/9/4 6/9/4
f 13/9/4 7/9/4 81/9/4
f 7/9/4 13/9/4 102/9/4
f 102/9/4 13/9/4 12/9/4
f 8/9/4 7/9/4 102/9/4

g road-intersection-path




usemtl colormap

f 3/2/1 2/1/1 1/1/1
f 3/2/1 4/3/1 2/1/1
f 4/3/1 3/2/1 5/3/1
f 5/3/1 3/2/1 6/2/1
f 7/2/1 5/3/1 6/2/1
f 8/2/1 5/3/1 7/2/1
f 5/3/1 8/2/1 9/1/1
f 9/1/1 8/2/1 10/1/1
f 11/1/2 5/3/2 9/1/2
f 12/2/2 5/3/2 11/1/2
f 13/2/2 5/3/2 12/2/2
f 14/2/2 5/3/2 13/2/2
f 15/2/2 5/3/2 14/2/2
f 15/2/2 16/3/2 5/3/2
f 16/3/2 15/2/2 17/1/2
f 18/1/2 17/1/2 15/2/2
f 2/1/3 20/2/3 19/1/3
f 20/2/3 2/1/3 4/3/3
f 4/3/3 21/2/3 20/2/3
f 4/3/3 22/2/3 21/2/3
f 4/3/3 23/2/3 22/2/3
f 24/3/3 23/2/3 4/3/3
f 24/3/3 25/1/3 23/2/3
f 25/1/3 24/3/3 26/1/3
f 7/4/4 28/4/4 27/4/4
f 7/4/4 27/4/4 29/4/4
f 7/4/4 30/4/4 28/4/4
f 28/4/4 30/4/4 31/4/4
f 31/4/4 32/4/4 28/4/4
f 7/4/4 33/4/4 30/4/4
f 31/4/4 34/4/4 32/4/4
f 32/4/4 34/4/4 29/4/4
f 35/4/4 34/4/4 31/4/4
f 7/4/4 36/4/4 33/4/4
f 7/4/4 37/4/4 36/4/4
f 7/4/4 38/4/4 37/4/4
f 33/4/4 36/4/4 39/4/4
f 39/4/4 35/4/4 33/4/4
f 39/4/4 34/4/4 35/4/4
f 40/4/4 34/4/4 39/4/4
f 41/4/4 40/4/4 37/4/4
f 37/4/4 38/4/4 41/4/4
f 41/4/4 34/4/4 40/4/4
f 42/4/4 34/4/4 41/4/4
f 7/4/4 43/4/4 38/4/4
f 44/4/4 34/4/4 42/4/4
f 44/4/4 42/4/4 43/4/4
f 45/4/4 34/4/4 44/4/4
f 43/4/4 46/4/4 44/4/4
f 7/4/4 46/4/4 43/4/4
f 47/4/4 34/4/4 45/4/4
f 48/4/4 34/4/4 47/4/4
f 47/4/4 45/4/4 49/4/4
f 7/4/4 49/4/4 46/4/4
f 49/4/4 50/4/4 47/4/4
f 7/4/4 50/4/4 49/4/4
f 7/4/4 51/4/4 50/4/4
f 51/4/4 7/4/4 6/4/4
f 6/4/4 48/4/4 51/4/4
f 52/4/4 48/4/4 6/4/4
f 52/4/4 34/4/4 48/4/4
f 53/4/4 52/4/4 6/4/4
f 53/4/4 54/4/4 52/4/4
f 55/4/4 34/4/4 52/4/4
f 21/4/4 54/4/4 53/4/4
f 54/4/4 21/4/4 56/4/4
f 22/4/4 56/4/4 21/4/4
f 56/4/4 22/4/4 14/4/4
f 56/4/4 14/4/4 57/4/4
f 54/4/4 56/4/4 58/4/4
f 54/4/4 58/4/4 59/4/4
f 54/4/4 59/4/4 60/4/4
f 61/4/4 59/4/4 58/4/4
f 57/4/4 14/4/4 61/4/4
f 61/4/4 14/4/4 34/4/4
f 59/4/4 61/4/4 62/4/4
f 61/4/4 34/4/4 62/4/4
f 62/4/4 34/4/4 63/4/4
f 64/4/4 34/4/4 55/4/4
f 34/4/4 14/4/4 65/4/4
f 63/4/4 34/4/4 66/4/4
f 67/4/4 64/4/4 55/4/4
f 65/4/4 14/4/4 68/4/4
f 64/4/4 67/4/4 69/4/4
f 54/4/4 69/4/4 67/4/4
f 70/4/4 34/4/4 64/4/4
f 54/4/4 71/4/4 69/4/4
f 72/4/4 63/4/4 66/4/4
f 63/4/4 72/4/4 60/4/4
f 54/4/4 60/4/4 72/4/4
f 54/4/4 72/4/4 73/4/4
f 66/4/4 34/4/4 74/4/4
f 71/4/4 75/4/4 70/4/4
f 75/4/4 34/4/4 70/4/4
f 75/4/4 71/4/4 76/4/4
f 54/4/4 76/4/4 71/4/4
f 54/4/4 77/4/4 76/4/4
f 54/4/4 73/4/4 77/4/4
f 74/4/4 77/4/4 73/4/4
f 77/4/4 74/4/4 78/4/4
f 74/4/4 34/4/4 78/4/4
f 78/4/4 34/4/4 75/4/4
f 79/4/4 29/4/4 34/4/4
f 79/4/4 34/4/4 80/4/4
f 81/4/4 29/4/4 79/4/4
f 7/4/4 29/4/4 81/4/4
f 79/4/4 80/4/4 82/4/4
f 83/4/4 81/4/4 79/4/4
f 79/4/4 82/4/4 84/4/4
f 68/4/4 82/4/4 80/4/4
f 81/4/4 83/4/4 85/4/4
f 82/4/4 68/4/4 86/4/4
f 85/4/4 83/4/4 14/4/4
f 68/4/4 14/4/4 86/4/4
f 87/4/4 14/4/4 83/4/4
f 86/4/4 14/4/4 88/4/4
f 88/4/4 89/4/4 84/4/4
f 79/4/4 84/4/4 89/4/4
f 89/4/4 88/4/4 90/4/4
f 88/4/4 14/4/4 90/4/4
f 79/4/4 89/4/4 91/4/4
f 90/4/4 14/4/4 92/4/4
f 92/4/4 93/4/4 91/4/4
f 79/4/4 91/4/4 93/4/4
f 93/4/4 92/4/4 94/4/4
f 92/4/4 14/4/4 94/4/4
f 79/4/4 93/4/4 95/4/4
f 94/4/4 14/4/4 96/4/4
f 97/4/4 14/4/4 87/4/4
f 98/4/4 97/4/4 87/4/4
f 99/4/4 14/4/4 97/4/4
f 96/4/4 14/4/4 99/4/4
f 97/4/4 98/4/4 100/4/4
f 79/4/4 100/4/4 98/4/4
f 101/4/4 96/4/4 99/4/4
f 96/4/4 101/4/4 95/4/4
f 79/4/4 101/4/4 100/4/4
f 79/4/4 95/4/4 101/4/4
f 17/6/5 24/5/5 16/5/5
f 24/5/5 17/6/5 26/6/5
f 17/6/4 25/6/4 26/6/4
f 25/6/4 17/6/4 18/6/4
f 4/5/6 16/5/6 24/5/6
f 16/5/6 4/5/6 5/5/6
f 11/6/5 102/7/5 12/7/5
f 102/7/5 11/6/5 103/6/5
f 25/6/1 15/7/1 23/7/1
f 15/7/1 25/6/1 18/6/1
f 10/6/3 102/7/3 103/6/3
f 102/7/3 10/6/3 8/7/3
f 11/6/4 10/6/4 103/6/4
f 10/6/4 11/6/4 9/6/4
f 104/6/4 2/6/4 19/6/4
f 2/6/4 104/6/4 1/6/4
f 104/6/5 20/7/5 105/7/5
f 20/7/5 104/6/5 19/6/5
f 3/7/2 104/6/2 105/7/2
f 104/6/2 3/7/2 1/6/2
f 107/8/4 69/8/4 106/8/4
f 69/8/4 107/8/4 64/8/4
f 109/8/4 100/8/4 108/8/4
f 100/8/4 109/8/4 97/8/4
f 65/8/4 80/8/4 34/8/4
f 80/8/4 65/8/4 68/8/4
f 86/8/4 84/8/4 82/8/4
f 84/8/4 86/8/4 88/8/4
f 112/8/4 111/8/4 110/8/4
f 111/8/4 112/8/4 113/8/4
f 116/8/4 115/8/4 114/8/4
f 115/8/4 116/8/4 117/8/4
f 48/8/4 119/8/4 118/8/4
f 119/8/4 48/8/4 47/8/4
f 122/8/4 121/8/4 120/8/4
f 121/8/4 122/8/4 123/8/4
f 57/8/4 58/8/4 56/8/4
f 58/8/4 57/8/4 61/8/4
f 126/8/4 125/8/4 124/8/4
f 125/8/4 126/8/4 127/8/4
f 130/8/4 129/8/4 128/8/4
f 129/8/4 130/8/4 131/8/4
f 134/8/4 133/8/4 132/8/4
f 133/8/4 134/8/4 135/8/4
f 138/8/4 137/8/4 136/8/4
f 137/8/4 138/8/4 139/8/4
f 45/8/4 141/8/4 140/8/4
f 141/8/4 45/8/4 142/8/4
f 62/8/4 60/8/4 59/8/4
f 60/8/4 62/8/4 63/8/4
f 87/8/4 79/8/4 98/8/4
f 79/8/4 87/8/4 83/8/4
f 55/8/4 54/8/4 67/8/4
f 54/8/4 55/8/4 52/8/4
f 32/8/4 144/8/4 143/8/4
f 144/8/4 32/8/4 145/8/4
f 148/9/4 147/9/4 146/9/4
f 147/9/4 148/9/4 149/9/4
f 53/9/4 20/9/4 21/9/4
f 20/9/4 53/9/4 105/9/4
f 105/9/4 53/9/4 3/9/4
f 3/9/4 53/9/4 6/9/4
f 13/9/4 7/9/4 81/9/4
f 7/9/4 13/9/4 102/9/4
f 102/9/4 13/9/4 12/9/4
f 8/9/4 7/9/4 102/9/4

