# Created by Kenney (www.kenney.nl)

mtllib road-curve-intersection-barrier.mtl

g road-curve-intersection-barrier

v 0.6960474 0.08 8.532993E-13 1 1 1
v 0.676002 0.08 -0.03 1 1 1
v 0.70607 0.08 0.015 1 1 1
v 0.6887495 1.353584E-16 0.025 1 1 1
v 0.8200427 0.08 0.2461136 1 1 1
v 0.8015651 9.023893E-17 0.2537673 1 1 1
v 0.05 6.796119E-16 1 1 1 1
v 0.0410171 5.89373E-16 0.8629475 1 1 1
v 3.938027E-13 7.698508E-16 1 1 1 1
v 0.01422212 5.442535E-16 0.72824 1 1 1
v -0.008555138 7.698508E-16 0.8694738 1 1 1
v -0.02992649 4.540146E-16 0.5981824 1 1 1
v -0.03407417 7.698508E-16 0.741181 1 1 1
v -0.09067332 4.088951E-16 0.475 1 1 1
v -0.07612047 7.698508E-16 0.6173166 1 1 1
v -0.1339746 7.698508E-16 0.5 1 1 1
v -0.166979 3.637757E-16 0.3608005 1 1 1
v -0.2066467 8.149703E-16 0.3912386 1 1 1
v -0.2575379 3.186562E-16 0.2575379 1 1 1
v -0.2928932 8.600897E-16 0.2928932 1 1 1
v -0.3608005 3.186562E-16 0.166979 1 1 1
v -0.3912386 9.052092E-16 0.2066467 1 1 1
v -0.475 3.186562E-16 0.09067332 1 1 1
v -0.5 9.503287E-16 0.1339746 1 1 1
v -0.5981824 3.186562E-16 0.02992649 1 1 1
v -0.6173166 9.954482E-16 0.07612047 1 1 1
v -0.72824 3.186562E-16 -0.01422212 1 1 1
v -0.741181 1.040568E-15 0.03407417 1 1 1
v -0.8629475 3.637757E-16 -0.0410171 1 1 1
v -0.8694738 1.085687E-15 0.008555138 1 1 1
v -1 4.088951E-16 -0.05 1 1 1
v -1 1.130807E-15 4.042704E-14 1 1 1
v 0.6386362 6.485923E-16 -0.05 1 1 1
v 0.6667675 0.06022899 -0.03494275 1 1 1
v 0.6720451 6.429524E-16 8.532993E-13 1 1 1
v 1 1.147726E-15 -0.05 1 1 1
v 1 0.08 -0.03 1 1 1
v 0.8477591 0.08 0.2346331 1 1 1
v 0.8477591 4.511946E-17 0.2346331 1 1 1
v 0.9318516 0.08 0.4823619 1 1 1
v 0.9318516 0 0.4823619 1 1 1
v -0.6173166 0.08 0.07612047 1 1 1
v -0.741181 0.08 0.03407417 1 1 1
v -0.5 0.08 0.1339746 1 1 1
v 0.8835554 4.511946E-17 0.4953029 1 1 1
v 0.9028739 0.08 0.4901265 1 1 1
v 0.9531463 0.08 0.7428634 1 1 1
v 0.9333174 4.511946E-17 0.7454739 1 1 1
v -0.8694738 0.08 0.008555138 1 1 1
v -0.03407417 0.08 0.741181 1 1 1
v -0.008555138 0.08 0.8694738 1 1 1
v 1 0.08 -0.97 1 1 1
v -1 0.08 -0.97 1 1 1
v 1 0.08 -1 1 1 1
v -1 0.08 -1 1 1 1
v -0.3912386 0.08 0.2066467 1 1 1
v 3.938027E-13 0.08 1 1 1 1
v -0.2928932 0.08 0.2928932 1 1 1
v -0.2066467 0.08 0.3912386 1 1 1
v -0.07612047 0.08 0.6173166 1 1 1
v 0.97 0.08 1 1 1 1
v 0.9499999 4.511946E-17 1 1 1 1
v -0.1339746 0.08 0.5 1 1 1
v 0.9828897 0.08 0.7389476 1 1 1
v 0.9828897 0 0.7389476 1 1 1
v 1 0.08 1 1 1 1
v 1 7.670309E-16 1 1 1 1
v -1 0.08 -0.03 1 1 1
v -1 0.08 4.042704E-14 1 1 1
v -0.1828461 0.08 0.3729757 1 1 1
v -0.1079938 0.08 0.485 1 1 1
v -1 7.670309E-16 -0.9499999 1 1 1
v 1 1.147726E-15 -0.9499999 1 1 1
v -0.865558 0.08 -0.02118821 1 1 1
v -0.005096399 0.08 0.7334164 1 1 1
v 0.02118821 0.08 0.865558 1 1 1
v 1 1.147726E-15 8.47524E-13 1 1 1
v 1 0.08 8.47524E-13 1 1 1
v 1 1.147726E-15 -1 1 1 1
v -0.04840408 0.08 0.6058361 1 1 1
v -0.7334164 0.08 0.005096399 1 1 1
v -0.6058361 0.08 0.04840408 1 1 1
v 0.03 0.08 1 1 1 1
v -1 7.670309E-16 -1 1 1 1
v -0.27168 0.08 0.27168 1 1 1
v -0.3729757 0.08 0.1828461 1 1 1
v -0.485 0.08 0.1079938 1 1 1
v 0.7320508 0.08 -9.52923E-14 1 1 1
v 0.7320508 9.023893E-17 -9.52923E-14 1 1 1

vn 0 1 0
vn -0.8401681 0.2425356 0.4850713
vn -0.8962947 0.2425356 0.3712575
vn 0 -1 0
vn -0.8067455 0.2420468 0.5390501
vn 0 0.2425356 -0.9701425
vn 0.9238795 0 -0.3826834
vn 0.9659258 0 -0.258819
vn -0.3826834 0 0.9238795
vn -0.258819 0 0.9659258
vn -0.5 0 0.8660254
vn -0.9370857 0.2425356 0.2510914
vn -0.9618428 0.2425356 0.126629
vn -0.1305262 0 0.9914449
vn -0.9659258 0 0.258819
vn -0.9914449 0 0.1305262
vn -0.6087614 0 0.7933533
vn -0.9978589 0 0.06540313
vn -0.7071068 0 0.7071068
vn -0.7933533 0 0.6087614
vn -0.9238795 0 0.3826834
vn -0.9681872 0.2420468 0.06345834
vn -0.8660254 0 0.5
vn 0.9914449 0 -0.1305262
vn 0.9978589 0 -0.06540313
vn -1 0 0
vn 0.7696658 0.2425357 -0.5905854
vn 0.8401681 0.2425356 -0.4850713
vn 0 0.2425356 0.9701425
vn 0.06345834 0.2420468 -0.9681872
vn 0.126629 0.2425356 -0.9618428
vn 0.9370857 0.2425356 -0.2510914
vn 0.9618428 0.2425356 -0.126629
vn 1 0 0
vn 0.8962947 0.2425356 -0.3712575
vn 0.2510914 0.2425356 -0.9370857
vn 0.3712575 0.2425356 -0.8962947
vn 0.9681872 0.2420468 -0.06345834
vn 0.6859944 0.2425356 -0.6859944
vn 0.5905854 0.2425357 -0.7696658
vn -0.06540313 0 0.9978589
vn 0 0 1
vn 0.4850713 0.2425356 -0.8401681
vn 0 0 -1
vn 0.8968728 0 -0.4422887

vt 0.90625 0.125

usemtl colormap

f 3/1/1 2/1/1 1/1/1
f 6/1/3 5/1/3 4/1/2
f 5/1/3 3/1/2 4/1/2
f 9/1/4 8/1/4 7/1/4
f 8/1/4 9/1/4 10/1/4
f 10/1/4 9/1/4 11/1/4
f 10/1/4 11/1/4 12/1/4
f 12/1/4 11/1/4 13/1/4
f 12/1/4 13/1/4 14/1/4
f 14/1/4 13/1/4 15/1/4
f 14/1/4 15/1/4 16/1/4
f 14/1/4 16/1/4 17/1/4
f 17/1/4 16/1/4 18/1/4
f 17/1/4 18/1/4 19/1/4
f 19/1/4 18/1/4 20/1/4
f 19/1/4 20/1/4 21/1/4
f 21/1/4 20/1/4 22/1/4
f 21/1/4 22/1/4 23/1/4
f 23/1/4 22/1/4 24/1/4
f 23/1/4 24/1/4 25/1/4
f 25/1/4 24/1/4 26/1/4
f 25/1/4 26/1/4 27/1/4
f 27/1/4 26/1/4 28/1/4
f 27/1/4 28/1/4 29/1/4
f 29/1/4 28/1/4 30/1/4
f 29/1/4 30/1/4 31/1/4
f 31/1/4 30/1/4 32/1/4
f 35/1/5 34/1/5 33/1/5
f 34/1/5 35/1/5 3/1/2
f 3/1/2 35/1/5 4/1/2
f 3/1/2 2/1/5 34/1/5
f 2/1/5 3/1/2 1/1/5
f 34/1/6 36/1/6 33/1/6
f 36/1/6 34/1/6 37/1/6
f 37/1/6 34/1/6 2/1/6
f 40/1/8 39/1/7 38/1/7
f 39/1/7 40/1/8 41/1/8
f 42/1/9 28/1/10 26/1/9
f 28/1/10 42/1/9 43/1/10
f 44/1/11 26/1/9 24/1/11
f 26/1/9 44/1/11 42/1/9
f 47/1/13 46/1/12 45/1/12
f 48/1/13 47/1/13 45/1/12
f 45/1/12 46/1/12 6/1/3
f 46/1/12 5/1/3 6/1/3
f 43/1/10 30/1/14 28/1/10
f 30/1/14 43/1/10 49/1/14
f 11/1/16 50/1/15 13/1/15
f 50/1/15 11/1/16 51/1/16
f 54/1/1 53/1/1 52/1/1
f 53/1/1 54/1/1 55/1/1
f 56/1/17 24/1/11 22/1/17
f 24/1/11 56/1/17 44/1/11
f 9/1/18 51/1/16 11/1/16
f 51/1/16 9/1/18 57/1/18
f 18/1/20 58/1/19 20/1/19
f 58/1/19 18/1/20 59/1/20
f 13/1/15 60/1/21 15/1/21
f 60/1/21 13/1/15 50/1/15
f 61/1/22 47/1/13 48/1/13
f 61/1/22 48/1/13 62/1/22
f 16/1/23 59/1/20 18/1/20
f 59/1/20 16/1/23 63/1/23
f 58/1/19 22/1/17 20/1/19
f 22/1/17 58/1/19 56/1/17
f 66/1/25 65/1/24 64/1/24
f 65/1/24 66/1/25 67/1/25
f 32/1/26 68/1/26 31/1/26
f 68/1/26 32/1/26 69/1/26
f 14/1/28 17/1/27 70/1/27
f 71/1/28 14/1/28 70/1/27
f 73/1/29 53/1/29 72/1/29
f 53/1/29 73/1/29 52/1/29
f 15/1/21 63/1/23 16/1/23
f 63/1/23 15/1/21 60/1/21
f 68/1/30 29/1/31 31/1/30
f 68/1/30 74/1/31 29/1/31
f 8/1/33 10/1/32 75/1/32
f 76/1/33 8/1/33 75/1/32
f 37/1/34 77/1/34 36/1/34
f 77/1/34 37/1/34 78/1/34
f 52/1/34 79/1/34 54/1/34
f 79/1/34 52/1/34 73/1/34
f 10/1/32 12/1/35 80/1/35
f 75/1/32 10/1/32 80/1/35
f 74/1/31 27/1/36 29/1/31
f 74/1/31 81/1/36 27/1/36
f 81/1/36 82/1/37 25/1/37
f 81/1/36 25/1/37 27/1/36
f 83/1/38 7/1/38 76/1/33
f 7/1/38 8/1/33 76/1/33
f 72/1/4 79/1/4 73/1/4
f 79/1/4 72/1/4 84/1/4
f 72/1/26 55/1/26 84/1/26
f 55/1/26 72/1/26 53/1/26
f 86/1/40 85/1/39 19/1/39
f 86/1/40 19/1/39 21/1/40
f 17/1/27 19/1/39 85/1/39
f 70/1/27 17/1/27 85/1/39
f 49/1/14 32/1/41 30/1/14
f 32/1/41 49/1/14 69/1/41
f 12/1/35 14/1/28 71/1/28
f 80/1/35 12/1/35 71/1/28
f 76/1/1 57/1/1 83/1/1
f 57/1/1 76/1/1 75/1/1
f 57/1/1 75/1/1 51/1/1
f 51/1/1 75/1/1 80/1/1
f 51/1/1 80/1/1 50/1/1
f 50/1/1 80/1/1 60/1/1
f 60/1/1 80/1/1 71/1/1
f 60/1/1 71/1/1 63/1/1
f 63/1/1 71/1/1 70/1/1
f 63/1/1 70/1/1 59/1/1
f 59/1/1 70/1/1 85/1/1
f 59/1/1 85/1/1 58/1/1
f 58/1/1 85/1/1 86/1/1
f 58/1/1 86/1/1 56/1/1
f 56/1/1 86/1/1 87/1/1
f 56/1/1 87/1/1 44/1/1
f 44/1/1 87/1/1 82/1/1
f 44/1/1 82/1/1 42/1/1
f 42/1/1 82/1/1 81/1/1
f 42/1/1 81/1/1 43/1/1
f 43/1/1 81/1/1 74/1/1
f 43/1/1 74/1/1 49/1/1
f 49/1/1 74/1/1 68/1/1
f 49/1/1 68/1/1 69/1/1
f 83/1/42 9/1/42 7/1/42
f 9/1/42 83/1/42 57/1/42
f 64/1/24 41/1/8 40/1/8
f 41/1/8 64/1/24 65/1/24
f 82/1/37 23/1/43 25/1/37
f 82/1/37 87/1/43 23/1/43
f 55/1/44 79/1/44 84/1/44
f 79/1/44 55/1/44 54/1/44
f 67/1/42 61/1/42 62/1/42
f 61/1/42 67/1/42 66/1/42
f 37/1/1 88/1/1 78/1/1
f 88/1/1 37/1/1 2/1/1
f 88/1/1 2/1/1 3/1/1
f 5/1/1 88/1/1 3/1/1
f 5/1/1 38/1/1 88/1/1
f 46/1/1 38/1/1 5/1/1
f 46/1/1 40/1/1 38/1/1
f 47/1/1 40/1/1 46/1/1
f 47/1/1 64/1/1 40/1/1
f 61/1/1 64/1/1 47/1/1
f 64/1/1 61/1/1 66/1/1
f 87/1/43 21/1/40 23/1/43
f 87/1/43 86/1/40 21/1/40
f 38/1/7 89/1/45 88/1/45
f 89/1/45 38/1/7 39/1/7
f 62/1/4 65/1/4 67/1/4
f 65/1/4 62/1/4 41/1/4
f 41/1/4 62/1/4 48/1/4
f 41/1/4 48/1/4 45/1/4
f 41/1/4 45/1/4 39/1/4
f 39/1/4 45/1/4 6/1/4
f 39/1/4 6/1/4 89/1/4
f 89/1/4 6/1/4 4/1/4
f 33/1/4 89/1/4 4/1/4
f 33/1/4 4/1/4 35/1/4
f 36/1/4 89/1/4 33/1/4
f 89/1/4 36/1/4 77/1/4
f 77/1/42 88/1/42 89/1/42
f 88/1/42 77/1/42 78/1/42

g road-curve-intersection-barrier




usemtl colormap

f 3/1/1 2/1/1 1/1/1
f 6/1/3 5/1/3 4/1/2
f 5/1/3 3/1/2 4/1/2
f 9/1/4 8/1/4 7/1/4
f 8/1/4 9/1/4 10/1/4
f 10/1/4 9/1/4 11/1/4
f 10/1/4 11/1/4 12/1/4
f 12/1/4 11/1/4 13/1/4
f 12/1/4 13/1/4 14/1/4
f 14/1/4 13/1/4 15/1/4
f 14/1/4 15/1/4 16/1/4
f 14/1/4 16/1/4 17/1/4
f 17/1/4 16/1/4 18/1/4
f 17/1/4 18/1/4 19/1/4
f 19/1/4 18/1/4 20/1/4
f 19/1/4 20/1/4 21/1/4
f 21/1/4 20/1/4 22/1/4
f 21/1/4 22/1/4 23/1/4
f 23/1/4 22/1/4 24/1/4
f 23/1/4 24/1/4 25/1/4
f 25/1/4 24/1/4 26/1/4
f 25/1/4 26/1/4 27/1/4
f 27/1/4 26/1/4 28/1/4
f 27/1/4 28/1/4 29/1/4
f 29/1/4 28/1/4 30/1/4
f 29/1/4 30/1/4 31/1/4
f 31/1/4 30/1/4 32/1/4
f 35/1/5 34/1/5 33/1/5
f 34/1/5 35/1/5 3/1/2
f 3/1/2 35/1/5 4/1/2
f 3/1/2 2/1/5 34/1/5
f 2/1/5 3/1/2 1/1/5
f 34/1/6 36/1/6 33/1/6
f 36/1/6 34/1/6 37/1/6
f 37/1/6 34/1/6 2/1/6
f 40/1/8 39/1/7 38/1/7
f 39/1/7 40/1/8 41/1/8
f 42/1/9 28/1/10 26/1/9
f 28/1/10 42/1/9 43/1/10
f 44/1/11 26/1/9 24/1/11
f 26/1/9 44/1/11 42/1/9
f 47/1/13 46/1/12 45/1/12
f 48/1/13 47/1/13 45/1/12
f 45/1/12 46/1/12 6/1/3
f 46/1/12 5/1/3 6/1/3
f 43/1/10 30/1/14 28/1/10
f 30/1/14 43/1/10 49/1/14
f 11/1/16 50/1/15 13/1/15
f 50/1/15 11/1/16 51/1/16
f 54/1/1 53/1/1 52/1/1
f 53/1/1 54/1/1 55/1/1
f 56/1/17 24/1/11 22/1/17
f 24/1/11 56/1/17 44/1/11
f 9/1/18 51/1/16 11/1/16
f 51/1/16 9/1/18 57/1/18
f 18/1/20 58/1/19 20/1/19
f 58/1/19 18/1/20 59/1/20
f 13/1/15 60/1/21 15/1/21
f 60/1/21 13/1/15 50/1/15
f 61/1/22 47/1/13 48/1/13
f 61/1/22 48/1/13 62/1/22
f 16/1/23 59/1/20 18/1/20
f 59/1/20 16/1/23 63/1/23
f 58/1/19 22/1/17 20/1/19
f 22/1/17 58/1/19 56/1/17
f 66/1/25 65/1/24 64/1/24
f 65/1/24 66/1/25 67/1/25
f 32/1/26 68/1/26 31/1/26
f 68/1/26 32/1/26 69/1/26
f 14/1/28 17/1/27 70/1/27
f 71/1/28 14/1/28 70/1/27
f 73/1/29 53/1/29 72/1/29
f 53/1/29 73/1/29 52/1/29
f 15/1/21 63/1/23 16/1/23
f 63/1/23 15/1/21 60/1/21
f 68/1/30 29/1/31 31/1/30
f 68/1/30 74/1/31 29/1/31
f 8/1/33 10/1/32 75/1/32
f 76/1/33 8/1/33 75/1/32
f 37/1/34 77/1/34 36/1/34
f 77/1/34 37/1/34 78/1/34
f 52/1/34 79/1/34 54/1/34
f 79/1/34 52/1/34 73/1/34
f 10/1/32 12/1/35 80/1/35
f 75/1/32 10/1/32 80/1/35
f 74/1/31 27/1/36 29/1/31
f 74/1/31 81/1/36 27/1/36
f 81/1/36 82/1/37 25/1/37
f 81/1/36 25/1/37 27/1/36
f 83/1/38 7/1/38 76/1/33
f 7/1/38 8/1/33 76/1/33
f 72/1/4 79/1/4 73/1/4
f 79/1/4 72/1/4 84/1/4
f 72/1/26 55/1/26 84/1/26
f 55/1/26 72/1/26 53/1/26
f 86/1/40 85/1/39 19/1/39
f 86/1/40 19/1/39 21/1/40
f 17/1/27 19/1/39 85/1/39
f 70/1/27 17/1/27 85/1/39
f 49/1/14 32/1/41 30/1/14
f 32/1/41 49/1/14 69/1/41
f 12/1/35 14/1/28 71/1/28
f 80/1/35 12/1/35 71/1/28
f 76/1/1 57/1/1 83/1/1
f 57/1/1 76/1/1 75/1/1
f 57/1/1 75/1/1 51/1/1
f 51/1/1 75/1/1 80/1/1
f 51/1/1 80/1/1 50/1/1
f 50/1/1 80/1/1 60/1/1
f 60/1/1 80/1/1 71/1/1
f 60/1/1 71/1/1 63/1/1
f 63/1/1 71/1/1 70/1/1
f 63/1/1 70/1/1 59/1/1
f 59/1/1 70/1/1 85/1/1
f 59/1/1 85/1/1 58/1/1
f 58/1/1 85/1/1 86/1/1
f 58/1/1 86/1/1 56/1/1
f 56/1/1 86/1/1 87/1/1
f 56/1/1 87/1/1 44/1/1
f 44/1/1 87/1/1 82/1/1
f 44/1/1 82/1/1 42/1/1
f 42/1/1 82/1/1 81/1/1
f 42/1/1 81/1/1 43/1/1
f 43/1/1 81/1/1 74/1/1
f 43/1/1 74/1/1 49/1/1
f 49/1/1 74/1/1 68/1/1
f 49/1/1 68/1/1 69/1/1
f 83/1/42 9/1/42 7/1/42
f 9/1/42 83/1/42 57/1/42
f 64/1/24 41/1/8 40/1/8
f 41/1/8 64/1/24 65/1/24
f 82/1/37 23/1/43 25/1/37
f 82/1/37 87/1/43 23/1/43
f 55/1/44 79/1/44 84/1/44
f 79/1/44 55/1/44 54/1/44
f 67/1/42 61/1/42 62/1/42
f 61/1/42 67/1/42 66/1/42
f 37/1/1 88/1/1 78/1/1
f 88/1/1 37/1/1 2/1/1
f 88/1/1 2/1/1 3/1/1
f 5/1/1 88/1/1 3/1/1
f 5/1/1 38/1/1 88/1/1
f 46/1/1 38/1/1 5/1/1
f 46/1/1 40/1/1 38/1/1
f 47/1/1 40/1/1 46/1/1
f 47/1/1 64/1/1 40/1/1
f 61/1/1 64/1/1 47/1/1
f 64/1/1 61/1/1 66/1/1
f 87/1/43 21/1/40 23/1/43
f 87/1/43 86/1/40 21/1/40
f 38/1/7 89/1/45 88/1/45
f 89/1/45 38/1/7 39/1/7
f 62/1/4 65/1/4 67/1/4
f 65/1/4 62/1/4 41/1/4
f 41/1/4 62/1/4 48/1/4
f 41/1/4 48/1/4 45/1/4
f 41/1/4 45/1/4 39/1/4
f 39/1/4 45/1/4 6/1/4
f 39/1/4 6/1/4 89/1/4
f 89/1/4 6/1/4 4/1/4
f 33/1/4 89/1/4 4/1/4
f 33/1/4 4/1/4 35/1/4
f 36/1/4 89/1/4 33/1/4
f 89/1/4 36/1/4 77/1/4
f 77/1/42 88/1/42 89/1/42
f 88/1/42 77/1/42 78/1/42

