# Created by Kenney (www.kenney.nl)

mtllib road-side-barrier.mtl

g road-side-barrier

v 0.5000002 0.08 -0.8099999 1 1 1
v -0.4999999 0.08 -0.8100001 1 1 1
v 0.5000002 1.353584E-16 -0.8099999 1 1 1
v -0.4999999 1.353584E-16 -0.8100001 1 1 1
v 0.5 0.08 0.5000001 1 1 1
v -0.5000001 0.08 0.5 1 1 1
v 0.5000001 0.08 0.4700001 1 1 1
v -0.5000001 0.08 0.47 1 1 1
v 0.5000001 0 0.4500001 1 1 1
v -0.5000001 0 0.45 1 1 1
v 0.5000002 1.353584E-16 -0.76 1 1 1
v 0.5000002 0.08 -0.78 1 1 1
v 0.5 0 0.5000001 1 1 1
v -0.5000001 0 0.5 1 1 1
v -0.5 1.353584E-16 -0.7600001 1 1 1
v -0.5 0.08 -0.7800001 1 1 1

vn 1.192093E-07 0 -1
vn 0 1 0
vn 1.1565E-07 0.2425356 -0.9701427
vn 1 0 1.192093E-07
vn 0 -1 0
vn -1.192093E-07 0 1
vn -1 0 -1.192093E-07
vn -1.1565E-07 0.2425356 0.9701427

vt 0.90625 0.125

usemtl colormap

f 3/1/1 2/1/1 1/1/1
f 2/1/1 3/1/1 4/1/1
f 7/1/2 6/1/2 5/1/2
f 6/1/2 7/1/2 8/1/2
f 10/1/3 7/1/3 9/1/3
f 7/1/3 10/1/3 8/1/3
f 1/1/4 11/1/4 3/1/4
f 11/1/4 1/1/4 12/1/4
f 7/1/4 13/1/4 9/1/4
f 13/1/4 7/1/4 5/1/4
f 14/1/5 9/1/5 13/1/5
f 9/1/5 14/1/5 10/1/5
f 6/1/6 13/1/6 5/1/6
f 13/1/6 6/1/6 14/1/6
f 16/1/7 4/1/7 15/1/7
f 4/1/7 16/1/7 2/1/7
f 1/1/2 16/1/2 12/1/2
f 16/1/2 1/1/2 2/1/2
f 6/1/7 10/1/7 14/1/7
f 10/1/7 6/1/7 8/1/7
f 16/1/8 11/1/8 12/1/8
f 11/1/8 16/1/8 15/1/8
f 15/1/5 3/1/5 11/1/5
f 3/1/5 15/1/5 4/1/5

g road-side-barrier




usemtl colormap

f 3/1/1 2/1/1 1/1/1
f 2/1/1 3/1/1 4/1/1
f 7/1/2 6/1/2 5/1/2
f 6/1/2 7/1/2 8/1/2
f 10/1/3 7/1/3 9/1/3
f 7/1/3 10/1/3 8/1/3
f 1/1/4 11/1/4 3/1/4
f 11/1/4 1/1/4 12/1/4
f 7/1/4 13/1/4 9/1/4
f 13/1/4 7/1/4 5/1/4
f 14/1/5 9/1/5 13/1/5
f 9/1/5 14/1/5 10/1/5
f 6/1/6 13/1/6 5/1/6
f 13/1/6 6/1/6 14/1/6
f 16/1/7 4/1/7 15/1/7
f 4/1/7 16/1/7 2/1/7
f 1/1/2 16/1/2 12/1/2
f 16/1/2 1/1/2 2/1/2
f 6/1/7 10/1/7 14/1/7
f 10/1/7 6/1/7 8/1/7
f 16/1/8 11/1/8 12/1/8
f 11/1/8 16/1/8 15/1/8
f 15/1/5 3/1/5 11/1/5
f 3/1/5 15/1/5 4/1/5

