# Created by Kenney (www.kenney.nl)

mtllib road-side-exit-barrier.mtl

g road-side-exit-barrier

v -0.2698431 -3.93453E-13 -0.7120936 1 1 1
v -0.2698431 0.08 -0.7120936 1 1 1
v -0.3009249 -4.032213E-13 -0.6869801 1 1 1
v -0.3009249 0.08 -0.6869801 1 1 1
v -0.01545638 -3.183629E-13 -0.808906 1 1 1
v -0.01545638 0.08 -0.808906 1 1 1
v -0.04744456 -3.369634E-13 -0.8063492 1 1 1
v -0.04744456 0.08 -0.8063492 1 1 1
v -0.08824078 -3.463483E-13 -0.7989899 1 1 1
v -0.08824078 0.08 -0.7989899 1 1 1
v -0.2370279 -3.856699E-13 -0.7350169 1 1 1
v -0.2370279 0.08 -0.7350169 1 1 1
v -0.5000001 0.08 0.4999999 1 1 1
v -0.5000001 0.08 0.47 1 1 1
v 0.5 0.08 0.5000001 1 1 1
v 0.5 0.08 0.4700001 1 1 1
v -0.2955981 0.08 -0.6442667 1 1 1
v -0.271124 0.08 -0.6667908 1 1 1
v -0.2955981 1.987794E-12 -0.6242667 1 1 1
v -0.271124 1.997382E-12 -0.6467907 1 1 1
v -0.2684113 0.08 -0.6692873 1 1 1
v -0.2684113 2.122391E-12 -0.6492873 1 1 1
v 0.5000001 -5.303962E-13 -0.81 1 1 1
v 0.5000001 1.944914E-12 -0.76 1 1 1
v 0.5000001 0.08 -0.81 1 1 1
v 0.5000001 0.08 -0.78 1 1 1
v -0.4361152 -4.814867E-13 -0.475809 1 1 1
v -0.4481587 -7.217422E-13 -0.4680431 1 1 1
v -0.4361152 0.08 -0.495809 1 1 1
v -0.4481587 0.08 -0.4880431 1 1 1
v -0.4958282 -7.263218E-13 -0.4504182 1 1 1
v -0.5 -6.198286E-13 -0.4501241 1 1 1
v -0.4958282 0.08 -0.4704182 1 1 1
v -0.5 0.08 -0.4701241 1 1 1
v -0.3811708 1.970576E-12 -0.5257204 1 1 1
v -0.3811708 0.08 -0.5457204 1 1 1
v -0.366092 1.978928E-12 -0.5434479 1 1 1
v -0.366092 0.08 -0.5634478 1 1 1
v -0.1121936 -6.150798E-13 -0.7405632 1 1 1
v -0.1461696 -6.291345E-13 -0.727536 1 1 1
v -0.1121936 0.08 -0.7605632 1 1 1
v -0.1461696 0.08 -0.7475359 1 1 1
v -0.4936028 -4.654862E-13 -0.5016165 1 1 1
v -0.4936028 0.08 -0.5016165 1 1 1
v -0.4980154 -4.693891E-13 -0.5004772 1 1 1
v -0.4980154 0.08 -0.5004772 1 1 1
v -0.2100773 -6.510964E-13 -0.6931539 1 1 1
v -0.2399267 -6.575711E-13 -0.6723023 1 1 1
v -0.2100773 0.08 -0.7131539 1 1 1
v -0.2399267 0.08 -0.6923023 1 1 1
v -0.3956982 1.9633E-12 -0.5102745 1 1 1
v -0.4097769 1.955444E-12 -0.4968383 1 1 1
v -0.3956982 0.08 -0.5302746 1 1 1
v -0.4097769 0.08 -0.5168383 1 1 1
v -0.3215646 1.984568E-12 -0.5973633 1 1 1
v -0.3215646 0.08 -0.6173633 1 1 1
v -0.5 -5.012772E-13 -0.5001516 1 1 1
v -0.4877475 -7.286286E-13 -0.4517442 1 1 1
v -0.4790759 -7.291305E-13 -0.4539831 1 1 1
v -0.4696409 -7.287301E-13 -0.4573138 1 1 1
v -0.4593443 -7.285665E-13 -0.4619355 1 1 1
v -0.4232876 1.94915E-12 -0.4853728 1 1 1
v -0.4881401 -6.235059E-13 -0.5035449 1 1 1
v -0.4814864 -4.61448E-13 -0.5065315 1 1 1
v -0.4735953 -4.557743E-13 -0.5108402 1 1 1
v -0.4644981 -4.519278E-13 -0.5167063 1 1 1
v -0.4542834 -4.484311E-13 -0.524322 1 1 1
v -0.4430759 -4.45769E-13 -0.5338329 1 1 1
v -0.4310194 -4.421933E-13 -0.5453392 1 1 1
v -0.346389 1.980079E-12 -0.5686707 1 1 1
v -0.4182633 -4.393959E-13 -0.5589018 1 1 1
v -0.4046615 -4.353915E-13 -0.5748929 1 1 1
v -0.3848296 -4.296275E-13 -0.6002807 1 1 1
v -0.3583034 -4.203329E-13 -0.6309402 1 1 1
v -0.3303734 -4.129559E-13 -0.659878 1 1 1
v -0.3048156 -4.029393E-13 -0.6833994 1 1 1
v -0.1788228 -6.410009E-13 -0.7116441 1 1 1
v -0.2265822 -3.819701E-13 -0.7411966 1 1 1
v -0.07705957 -5.986563E-13 -0.7504513 1 1 1
v -0.2024141 -3.755631E-13 -0.7554945 1 1 1
v -0.0410307 -5.798528E-13 -0.7569506 1 1 1
v -0.165999 -3.657271E-13 -0.7732173 1 1 1
v -0.0117115 -5.652792E-13 -0.7592941 1 1 1
v -0.001773621 -7.228476E-13 -0.7600001 1 1 1
v -0.1278719 -3.559587E-13 -0.7878361 1 1 1
v -5.495608E-05 -5.711221E-13 -0.8100001 1 1 1
v -0.4735953 0.08 -0.5108402 1 1 1
v -0.4814864 0.08 -0.5065315 1 1 1
v -0.001773619 0.08 -0.7800001 1 1 1
v -0.1278719 0.08 -0.7878361 1 1 1
v -0.0117115 0.08 -0.7792941 1 1 1
v -0.0410307 0.08 -0.7769506 1 1 1
v -5.495608E-05 0.08 -0.8100001 1 1 1
v -0.165999 0.08 -0.7732173 1 1 1
v -0.07705957 0.08 -0.7704513 1 1 1
v -0.2024141 0.08 -0.7554945 1 1 1
v -0.2265822 0.08 -0.7411966 1 1 1
v -0.1788228 0.08 -0.7316441 1 1 1
v -0.3048156 0.08 -0.6833994 1 1 1
v -0.3303734 0.08 -0.659878 1 1 1
v -0.3583034 0.08 -0.6309402 1 1 1
v -0.3848296 0.08 -0.6002807 1 1 1
v -0.346389 0.08 -0.5886707 1 1 1
v -0.4046615 0.08 -0.5748929 1 1 1
v -0.4182633 0.08 -0.5589018 1 1 1
v -0.4310194 0.08 -0.5453392 1 1 1
v -0.4430759 0.08 -0.5338329 1 1 1
v -0.4542834 0.08 -0.524322 1 1 1
v -0.4644981 0.08 -0.5167063 1 1 1
v -0.4232876 0.08 -0.5053729 1 1 1
v -0.4881401 0.08 -0.5035449 1 1 1
v -0.5 0.08 -0.5001516 1 1 1
v -0.4593443 0.08 -0.4819355 1 1 1
v -0.4696409 0.08 -0.4773138 1 1 1
v -0.4790759 0.08 -0.4739831 1 1 1
v -0.4877475 0.08 -0.4717442 1 1 1
v -0.5000001 -1.12757E-17 0.4999999 1 1 1
v -0.5000001 -1.12757E-17 0.4499999 1 1 1
v 0.5 -1.12757E-17 0.5000001 1 1 1
v 0.5 -1.12757E-17 0.45 1 1 1

vn -0.6009374 0 -0.7992962
vn -0.6531665 0 -0.7572144
vn -0.07526929 0 -0.9971634
vn -0.1287583 0 -0.9916761
vn -0.2244783 0 -0.9744791
vn -0.5413064 0 -0.8408256
vn 0 1 0
vn 0.6854281 0.1765999 0.7063999
vn 0.6660097 0.1809178 0.7236711
vn 0.6900797 0.1755311 0.7021247
vn 0.6392933 0.1865009 0.7460038
vn 0.6442654 0.1854917 0.741967
vn 1 0 1.192093E-07
vn 0.5560465 0.2015837 0.8063351
vn 0.4970708 0.2104506 0.8418025
vn 0.5609679 0.2007801 0.8031205
vn 0.5019937 0.2097621 0.8390485
vn 0.1120282 0.2410088 0.9640355
vn 0.06821858 0.2419706 0.9678826
vn 0.113626 0.2409649 0.9638596
vn 0.7332064 0.1649257 0.659703
vn 0.7371339 0.1638927 0.6555708
vn 0.7639432 0.1565042 0.6260172
vn 0.7671903 0.1555671 0.6222686
vn 0.3083824 0.2307151 0.9228604
vn 0.3905424 0.2232746 0.8930988
vn 0.304235 0.2310387 0.924155
vn 0.3857195 0.2237673 0.8950692
vn -0.291708 0 -0.9565076
vn -0.2061699 0 -0.9785163
vn 0.5323964 0.2053052 0.8212211
vn 0.5919044 0.1954857 0.7819429
vn 0.5270962 0.2061081 0.8244327
vn 0.5866982 0.1964067 0.7856271
vn 0.6968021 0.173962 0.6958479
vn 0.6554853 0.1831648 0.7326595
vn 0.701052 0.1729546 0.6918186
vn 0.6600291 0.1822025 0.72881
vn 0.7300262 0.1657535 0.663014
vn 0.72574 0.166857 0.6674283
vn 0 -1 0
vn -0.5109213 0 -0.8596276
vn -0.4447075 0 -0.895676
vn 0.03458428 0.2423905 0.9695622
vn 0.07308391 0.241887 0.9675482
vn 0.03420791 0.2423937 0.9695748
vn 0.07298442 0.2418888 0.9675553
vn 1.192093E-07 0 -1
vn -0.03545182 0 -0.9993716
vn 0.1989127 0.2376891 0.9507565
vn 0.2016437 0.2375537 0.9502149
vn 0.3597433 0.2262982 0.9051929
vn 0.2818996 0.2326993 0.9307974
vn 0.3640659 0.2258912 0.9035649
vn 0.2855524 0.2324372 0.929749
vn -1 0 -1.192093E-07
vn -0.5091712 0 -0.8606654
vn -0.4737825 0 -0.8806421
vn -0.7723939 0 -0.635144
vn -0.7381572 0 -0.6746289
vn -0.3715069 0 -0.9284304
vn 0.43161 0.2187818 0.8751272
vn 0.4363473 0.2182283 0.8729133
vn -0.3147938 0 -0.9491602
vn -1.192093E-07 0 1
vn 1.1565E-07 0.2425356 -0.9701427
vn -0.6986606 0 -0.7154534
vn -0.1619342 0 -0.9868016
vn 0.1259305 0.2406048 0.9624194
vn 0.219694 0.2366102 0.9464409
vn 0.12404 0.2406626 0.9626504
vn 0.2165378 0.2367813 0.9471253
vn -0.7096789 0 -0.7045255
vn -0.6690073 0 -0.7432559
vn 0.7647944 0.1562595 0.6250381
vn 0.7608874 0.1573775 0.62951
vn -0.6771845 0 -0.7358134
vn -0.7453079 0 -0.6667206
vn -0.6226888 0 -0.7824697
vn 0.608727 0.1924229 0.7696916
vn 0.6135072 0.1915277 0.7661111
vn -0.7750577 0 -0.6318907
vn -1.1565E-07 0.2425356 0.9701427
vn -0.398185 0 -0.9173052
vn -0.5701516 0 -0.8215396
vn 0.4653171 0.214679 0.858716
vn 0.4601246 0.2153363 0.8613454

vt 0.90625 0.125

usemtl colormap

f 3/1/2 2/1/1 1/1/1
f 2/1/1 3/1/2 4/1/2
f 7/1/4 6/1/3 5/1/3
f 6/1/3 7/1/4 8/1/4
f 9/1/5 8/1/4 7/1/4
f 8/1/4 9/1/5 10/1/5
f 1/1/1 12/1/6 11/1/6
f 12/1/6 1/1/1 2/1/1
f 15/1/7 14/1/7 13/1/7
f 14/1/7 15/1/7 16/1/7
f 19/1/10 18/1/9 17/1/8
f 18/1/9 19/1/10 20/1/9
f 20/1/9 21/1/11 18/1/9
f 21/1/11 20/1/9 22/1/12
f 25/1/13 24/1/13 23/1/13
f 24/1/13 25/1/13 26/1/13
f 29/1/16 28/1/15 27/1/14
f 28/1/15 29/1/16 30/1/17
f 33/1/20 32/1/19 31/1/18
f 32/1/19 33/1/20 34/1/19
f 37/1/23 36/1/22 35/1/21
f 36/1/22 37/1/23 38/1/24
f 41/1/27 40/1/26 39/1/25
f 40/1/26 41/1/27 42/1/28
f 45/1/30 44/1/29 43/1/29
f 44/1/29 45/1/30 46/1/30
f 49/1/33 48/1/32 47/1/31
f 48/1/32 49/1/33 50/1/34
f 53/1/37 52/1/36 51/1/35
f 52/1/36 53/1/37 54/1/38
f 19/1/10 56/1/40 55/1/39
f 56/1/40 19/1/10 17/1/8
f 57/1/41 31/1/41 32/1/41
f 31/1/41 57/1/41 58/1/41
f 58/1/41 57/1/41 59/1/41
f 59/1/41 57/1/41 60/1/41
f 60/1/41 57/1/41 61/1/41
f 61/1/41 57/1/41 28/1/41
f 28/1/41 57/1/41 27/1/41
f 27/1/41 57/1/41 62/1/41
f 62/1/41 57/1/41 52/1/41
f 52/1/41 57/1/41 51/1/41
f 51/1/41 57/1/41 45/1/41
f 51/1/41 45/1/41 43/1/41
f 51/1/41 43/1/41 63/1/41
f 51/1/41 63/1/41 64/1/41
f 51/1/41 64/1/41 65/1/41
f 51/1/41 65/1/41 35/1/41
f 35/1/41 65/1/41 66/1/41
f 35/1/41 66/1/41 67/1/41
f 35/1/41 67/1/41 68/1/41
f 35/1/41 68/1/41 37/1/41
f 37/1/41 68/1/41 69/1/41
f 37/1/41 69/1/41 70/1/41
f 70/1/41 69/1/41 71/1/41
f 70/1/41 71/1/41 72/1/41
f 70/1/41 72/1/41 55/1/41
f 55/1/41 72/1/41 73/1/41
f 55/1/41 73/1/41 19/1/41
f 19/1/41 73/1/41 74/1/41
f 19/1/41 74/1/41 20/1/41
f 20/1/41 74/1/41 75/1/41
f 20/1/41 75/1/41 22/1/41
f 22/1/41 75/1/41 48/1/41
f 48/1/41 75/1/41 76/1/41
f 48/1/41 76/1/41 47/1/41
f 47/1/41 76/1/41 3/1/41
f 47/1/41 3/1/41 1/1/41
f 47/1/41 1/1/41 77/1/41
f 77/1/41 1/1/41 40/1/41
f 40/1/41 1/1/41 11/1/41
f 40/1/41 11/1/41 39/1/41
f 39/1/41 11/1/41 78/1/41
f 39/1/41 78/1/41 79/1/41
f 79/1/41 78/1/41 80/1/41
f 79/1/41 80/1/41 81/1/41
f 81/1/41 80/1/41 82/1/41
f 81/1/41 82/1/41 83/1/41
f 83/1/41 82/1/41 84/1/41
f 23/1/41 84/1/41 82/1/41
f 84/1/41 23/1/41 24/1/41
f 23/1/41 82/1/41 85/1/41
f 23/1/41 85/1/41 9/1/41
f 23/1/41 9/1/41 7/1/41
f 23/1/41 7/1/41 5/1/41
f 23/1/41 5/1/41 86/1/41
f 64/1/43 87/1/42 65/1/42
f 87/1/42 64/1/43 88/1/43
f 25/1/7 89/1/7 26/1/7
f 89/1/7 25/1/7 90/1/7
f 90/1/7 91/1/7 89/1/7
f 90/1/7 92/1/7 91/1/7
f 90/1/7 25/1/7 10/1/7
f 10/1/7 25/1/7 8/1/7
f 8/1/7 25/1/7 6/1/7
f 6/1/7 25/1/7 93/1/7
f 94/1/7 92/1/7 90/1/7
f 94/1/7 95/1/7 92/1/7
f 94/1/7 41/1/7 95/1/7
f 96/1/7 41/1/7 94/1/7
f 96/1/7 42/1/7 41/1/7
f 97/1/7 42/1/7 96/1/7
f 12/1/7 42/1/7 97/1/7
f 12/1/7 98/1/7 42/1/7
f 12/1/7 49/1/7 98/1/7
f 2/1/7 49/1/7 12/1/7
f 2/1/7 50/1/7 49/1/7
f 4/1/7 50/1/7 2/1/7
f 99/1/7 50/1/7 4/1/7
f 99/1/7 21/1/7 50/1/7
f 99/1/7 18/1/7 21/1/7
f 100/1/7 18/1/7 99/1/7
f 100/1/7 17/1/7 18/1/7
f 101/1/7 17/1/7 100/1/7
f 101/1/7 56/1/7 17/1/7
f 102/1/7 56/1/7 101/1/7
f 102/1/7 103/1/7 56/1/7
f 104/1/7 103/1/7 102/1/7
f 104/1/7 38/1/7 103/1/7
f 105/1/7 38/1/7 104/1/7
f 105/1/7 36/1/7 38/1/7
f 106/1/7 36/1/7 105/1/7
f 107/1/7 36/1/7 106/1/7
f 107/1/7 53/1/7 36/1/7
f 108/1/7 53/1/7 107/1/7
f 108/1/7 54/1/7 53/1/7
f 109/1/7 54/1/7 108/1/7
f 87/1/7 54/1/7 109/1/7
f 88/1/7 54/1/7 87/1/7
f 88/1/7 110/1/7 54/1/7
f 111/1/7 110/1/7 88/1/7
f 44/1/7 110/1/7 111/1/7
f 46/1/7 110/1/7 44/1/7
f 112/1/7 110/1/7 46/1/7
f 112/1/7 29/1/7 110/1/7
f 112/1/7 30/1/7 29/1/7
f 112/1/7 113/1/7 30/1/7
f 112/1/7 114/1/7 113/1/7
f 112/1/7 115/1/7 114/1/7
f 112/1/7 116/1/7 115/1/7
f 112/1/7 33/1/7 116/1/7
f 33/1/7 112/1/7 34/1/7
f 89/1/46 83/1/45 84/1/44
f 83/1/45 89/1/46 91/1/47
f 86/1/49 25/1/48 23/1/48
f 25/1/48 86/1/49 93/1/49
f 116/1/51 31/1/18 58/1/50
f 31/1/18 116/1/51 33/1/20
f 114/1/54 59/1/53 60/1/52
f 59/1/53 114/1/54 115/1/55
f 13/1/56 118/1/56 117/1/56
f 118/1/56 13/1/56 14/1/56
f 97/1/57 11/1/6 12/1/6
f 11/1/6 97/1/57 78/1/57
f 96/1/58 78/1/57 97/1/57
f 78/1/57 96/1/58 80/1/58
f 102/1/59 74/1/60 73/1/59
f 74/1/60 102/1/59 101/1/60
f 43/1/29 111/1/61 63/1/61
f 111/1/61 43/1/29 44/1/29
f 30/1/17 61/1/62 28/1/15
f 61/1/62 30/1/17 113/1/63
f 5/1/3 93/1/49 86/1/49
f 93/1/49 5/1/3 6/1/3
f 85/1/64 10/1/5 9/1/5
f 10/1/5 85/1/64 90/1/64
f 34/1/56 57/1/56 32/1/56
f 57/1/56 34/1/56 112/1/56
f 13/1/65 119/1/65 15/1/65
f 119/1/65 13/1/65 117/1/65
f 120/1/66 14/1/66 16/1/66
f 14/1/66 120/1/66 118/1/66
f 101/1/60 75/1/67 74/1/60
f 75/1/67 101/1/60 100/1/67
f 57/1/68 46/1/30 45/1/30
f 46/1/30 57/1/68 112/1/68
f 92/1/71 79/1/70 81/1/69
f 79/1/70 92/1/71 95/1/72
f 68/1/74 106/1/73 69/1/73
f 106/1/73 68/1/74 107/1/74
f 55/1/39 103/1/76 70/1/75
f 103/1/76 55/1/39 56/1/40
f 95/1/72 39/1/25 79/1/70
f 39/1/25 95/1/72 41/1/27
f 76/1/77 4/1/2 3/1/2
f 4/1/2 76/1/77 99/1/77
f 75/1/67 99/1/77 76/1/77
f 99/1/77 75/1/67 100/1/67
f 63/1/61 88/1/43 64/1/43
f 88/1/43 63/1/61 111/1/61
f 106/1/73 71/1/78 69/1/73
f 71/1/78 106/1/73 105/1/78
f 67/1/79 107/1/74 68/1/74
f 107/1/74 67/1/79 108/1/79
f 54/1/38 62/1/80 52/1/36
f 62/1/80 54/1/38 110/1/81
f 115/1/55 58/1/50 59/1/53
f 58/1/50 115/1/55 116/1/51
f 105/1/78 72/1/82 71/1/78
f 72/1/82 105/1/78 104/1/82
f 70/1/75 38/1/24 37/1/23
f 38/1/24 70/1/75 103/1/76
f 113/1/63 60/1/52 61/1/62
f 60/1/52 113/1/63 114/1/54
f 35/1/21 53/1/37 51/1/35
f 53/1/37 35/1/21 36/1/22
f 26/1/83 84/1/44 24/1/83
f 84/1/44 26/1/83 89/1/46
f 82/1/84 90/1/64 85/1/64
f 90/1/64 82/1/84 94/1/84
f 66/1/85 108/1/79 67/1/79
f 108/1/79 66/1/85 109/1/85
f 104/1/82 73/1/59 72/1/82
f 73/1/59 104/1/82 102/1/59
f 98/1/87 47/1/31 77/1/86
f 47/1/31 98/1/87 49/1/33
f 80/1/58 94/1/84 82/1/84
f 94/1/84 80/1/58 96/1/58
f 50/1/34 22/1/12 48/1/32
f 22/1/12 50/1/34 21/1/11
f 110/1/81 27/1/14 62/1/80
f 27/1/14 110/1/81 29/1/16
f 118/1/41 119/1/41 117/1/41
f 119/1/41 118/1/41 120/1/41
f 65/1/42 109/1/85 66/1/85
f 109/1/85 65/1/42 87/1/42
f 91/1/47 81/1/69 83/1/45
f 81/1/69 91/1/47 92/1/71
f 16/1/13 119/1/13 120/1/13
f 119/1/13 16/1/13 15/1/13
f 42/1/28 77/1/86 40/1/26
f 77/1/86 42/1/28 98/1/87

g road-side-exit-barrier




usemtl colormap

f 3/1/2 2/1/1 1/1/1
f 2/1/1 3/1/2 4/1/2
f 7/1/4 6/1/3 5/1/3
f 6/1/3 7/1/4 8/1/4
f 9/1/5 8/1/4 7/1/4
f 8/1/4 9/1/5 10/1/5
f 1/1/1 12/1/6 11/1/6
f 12/1/6 1/1/1 2/1/1
f 15/1/7 14/1/7 13/1/7
f 14/1/7 15/1/7 16/1/7
f 19/1/10 18/1/9 17/1/8
f 18/1/9 19/1/10 20/1/9
f 20/1/9 21/1/11 18/1/9
f 21/1/11 20/1/9 22/1/12
f 25/1/13 24/1/13 23/1/13
f 24/1/13 25/1/13 26/1/13
f 29/1/16 28/1/15 27/1/14
f 28/1/15 29/1/16 30/1/17
f 33/1/20 32/1/19 31/1/18
f 32/1/19 33/1/20 34/1/19
f 37/1/23 36/1/22 35/1/21
f 36/1/22 37/1/23 38/1/24
f 41/1/27 40/1/26 39/1/25
f 40/1/26 41/1/27 42/1/28
f 45/1/30 44/1/29 43/1/29
f 44/1/29 45/1/30 46/1/30
f 49/1/33 48/1/32 47/1/31
f 48/1/32 49/1/33 50/1/34
f 53/1/37 52/1/36 51/1/35
f 52/1/36 53/1/37 54/1/38
f 19/1/10 56/1/40 55/1/39
f 56/1/40 19/1/10 17/1/8
f 57/1/41 31/1/41 32/1/41
f 31/1/41 57/1/41 58/1/41
f 58/1/41 57/1/41 59/1/41
f 59/1/41 57/1/41 60/1/41
f 60/1/41 57/1/41 61/1/41
f 61/1/41 57/1/41 28/1/41
f 28/1/41 57/1/41 27/1/41
f 27/1/41 57/1/41 62/1/41
f 62/1/41 57/1/41 52/1/41
f 52/1/41 57/1/41 51/1/41
f 51/1/41 57/1/41 45/1/41
f 51/1/41 45/1/41 43/1/41
f 51/1/41 43/1/41 63/1/41
f 51/1/41 63/1/41 64/1/41
f 51/1/41 64/1/41 65/1/41
f 51/1/41 65/1/41 35/1/41
f 35/1/41 65/1/41 66/1/41
f 35/1/41 66/1/41 67/1/41
f 35/1/41 67/1/41 68/1/41
f 35/1/41 68/1/41 37/1/41
f 37/1/41 68/1/41 69/1/41
f 37/1/41 69/1/41 70/1/41
f 70/1/41 69/1/41 71/1/41
f 70/1/41 71/1/41 72/1/41
f 70/1/41 72/1/41 55/1/41
f 55/1/41 72/1/41 73/1/41
f 55/1/41 73/1/41 19/1/41
f 19/1/41 73/1/41 74/1/41
f 19/1/41 74/1/41 20/1/41
f 20/1/41 74/1/41 75/1/41
f 20/1/41 75/1/41 22/1/41
f 22/1/41 75/1/41 48/1/41
f 48/1/41 75/1/41 76/1/41
f 48/1/41 76/1/41 47/1/41
f 47/1/41 76/1/41 3/1/41
f 47/1/41 3/1/41 1/1/41
f 47/1/41 1/1/41 77/1/41
f 77/1/41 1/1/41 40/1/41
f 40/1/41 1/1/41 11/1/41
f 40/1/41 11/1/41 39/1/41
f 39/1/41 11/1/41 78/1/41
f 39/1/41 78/1/41 79/1/41
f 79/1/41 78/1/41 80/1/41
f 79/1/41 80/1/41 81/1/41
f 81/1/41 80/1/41 82/1/41
f 81/1/41 82/1/41 83/1/41
f 83/1/41 82/1/41 84/1/41
f 23/1/41 84/1/41 82/1/41
f 84/1/41 23/1/41 24/1/41
f 23/1/41 82/1/41 85/1/41
f 23/1/41 85/1/41 9/1/41
f 23/1/41 9/1/41 7/1/41
f 23/1/41 7/1/41 5/1/41
f 23/1/41 5/1/41 86/1/41
f 64/1/43 87/1/42 65/1/42
f 87/1/42 64/1/43 88/1/43
f 25/1/7 89/1/7 26/1/7
f 89/1/7 25/1/7 90/1/7
f 90/1/7 91/1/7 89/1/7
f 90/1/7 92/1/7 91/1/7
f 90/1/7 25/1/7 10/1/7
f 10/1/7 25/1/7 8/1/7
f 8/1/7 25/1/7 6/1/7
f 6/1/7 25/1/7 93/1/7
f 94/1/7 92/1/7 90/1/7
f 94/1/7 95/1/7 92/1/7
f 94/1/7 41/1/7 95/1/7
f 96/1/7 41/1/7 94/1/7
f 96/1/7 42/1/7 41/1/7
f 97/1/7 42/1/7 96/1/7
f 12/1/7 42/1/7 97/1/7
f 12/1/7 98/1/7 42/1/7
f 12/1/7 49/1/7 98/1/7
f 2/1/7 49/1/7 12/1/7
f 2/1/7 50/1/7 49/1/7
f 4/1/7 50/1/7 2/1/7
f 99/1/7 50/1/7 4/1/7
f 99/1/7 21/1/7 50/1/7
f 99/1/7 18/1/7 21/1/7
f 100/1/7 18/1/7 99/1/7
f 100/1/7 17/1/7 18/1/7
f 101/1/7 17/1/7 100/1/7
f 101/1/7 56/1/7 17/1/7
f 102/1/7 56/1/7 101/1/7
f 102/1/7 103/1/7 56/1/7
f 104/1/7 103/1/7 102/1/7
f 104/1/7 38/1/7 103/1/7
f 105/1/7 38/1/7 104/1/7
f 105/1/7 36/1/7 38/1/7
f 106/1/7 36/1/7 105/1/7
f 107/1/7 36/1/7 106/1/7
f 107/1/7 53/1/7 36/1/7
f 108/1/7 53/1/7 107/1/7
f 108/1/7 54/1/7 53/1/7
f 109/1/7 54/1/7 108/1/7
f 87/1/7 54/1/7 109/1/7
f 88/1/7 54/1/7 87/1/7
f 88/1/7 110/1/7 54/1/7
f 111/1/7 110/1/7 88/1/7
f 44/1/7 110/1/7 111/1/7
f 46/1/7 110/1/7 44/1/7
f 112/1/7 110/1/7 46/1/7
f 112/1/7 29/1/7 110/1/7
f 112/1/7 30/1/7 29/1/7
f 112/1/7 113/1/7 30/1/7
f 112/1/7 114/1/7 113/1/7
f 112/1/7 115/1/7 114/1/7
f 112/1/7 116/1/7 115/1/7
f 112/1/7 33/1/7 116/1/7
f 33/1/7 112/1/7 34/1/7
f 89/1/46 83/1/45 84/1/44
f 83/1/45 89/1/46 91/1/47
f 86/1/49 25/1/48 23/1/48
f 25/1/48 86/1/49 93/1/49
f 116/1/51 31/1/18 58/1/50
f 31/1/18 116/1/51 33/1/20
f 114/1/54 59/1/53 60/1/52
f 59/1/53 114/1/54 115/1/55
f 13/1/56 118/1/56 117/1/56
f 118/1/56 13/1/56 14/1/56
f 97/1/57 11/1/6 12/1/6
f 11/1/6 97/1/57 78/1/57
f 96/1/58 78/1/57 97/1/57
f 78/1/57 96/1/58 80/1/58
f 102/1/59 74/1/60 73/1/59
f 74/1/60 102/1/59 101/1/60
f 43/1/29 111/1/61 63/1/61
f 111/1/61 43/1/29 44/1/29
f 30/1/17 61/1/62 28/1/15
f 61/1/62 30/1/17 113/1/63
f 5/1/3 93/1/49 86/1/49
f 93/1/49 5/1/3 6/1/3
f 85/1/64 10/1/5 9/1/5
f 10/1/5 85/1/64 90/1/64
f 34/1/56 57/1/56 32/1/56
f 57/1/56 34/1/56 112/1/56
f 13/1/65 119/1/65 15/1/65
f 119/1/65 13/1/65 117/1/65
f 120/1/66 14/1/66 16/1/66
f 14/1/66 120/1/66 118/1/66
f 101/1/60 75/1/67 74/1/60
f 75/1/67 101/1/60 100/1/67
f 57/1/68 46/1/30 45/1/30
f 46/1/30 57/1/68 112/1/68
f 92/1/71 79/1/70 81/1/69
f 79/1/70 92/1/71 95/1/72
f 68/1/74 106/1/73 69/1/73
f 106/1/73 68/1/74 107/1/74
f 55/1/39 103/1/76 70/1/75
f 103/1/76 55/1/39 56/1/40
f 95/1/72 39/1/25 79/1/70
f 39/1/25 95/1/72 41/1/27
f 76/1/77 4/1/2 3/1/2
f 4/1/2 76/1/77 99/1/77
f 75/1/67 99/1/77 76/1/77
f 99/1/77 75/1/67 100/1/67
f 63/1/61 88/1/43 64/1/43
f 88/1/43 63/1/61 111/1/61
f 106/1/73 71/1/78 69/1/73
f 71/1/78 106/1/73 105/1/78
f 67/1/79 107/1/74 68/1/74
f 107/1/74 67/1/79 108/1/79
f 54/1/38 62/1/80 52/1/36
f 62/1/80 54/1/38 110/1/81
f 115/1/55 58/1/50 59/1/53
f 58/1/50 115/1/55 116/1/51
f 105/1/78 72/1/82 71/1/78
f 72/1/82 105/1/78 104/1/82
f 70/1/75 38/1/24 37/1/23
f 38/1/24 70/1/75 103/1/76
f 113/1/63 60/1/52 61/1/62
f 60/1/52 113/1/63 114/1/54
f 35/1/21 53/1/37 51/1/35
f 53/1/37 35/1/21 36/1/22
f 26/1/83 84/1/44 24/1/83
f 84/1/44 26/1/83 89/1/46
f 82/1/84 90/1/64 85/1/64
f 90/1/64 82/1/84 94/1/84
f 66/1/85 108/1/79 67/1/79
f 108/1/79 66/1/85 109/1/85
f 104/1/82 73/1/59 72/1/82
f 73/1/59 104/1/82 102/1/59
f 98/1/87 47/1/31 77/1/86
f 47/1/31 98/1/87 49/1/33
f 80/1/58 94/1/84 82/1/84
f 94/1/84 80/1/58 96/1/58
f 50/1/34 22/1/12 48/1/32
f 22/1/12 50/1/34 21/1/11
f 110/1/81 27/1/14 62/1/80
f 27/1/14 110/1/81 29/1/16
f 118/1/41 119/1/41 117/1/41
f 119/1/41 118/1/41 120/1/41
f 65/1/42 109/1/85 66/1/85
f 109/1/85 65/1/42 87/1/42
f 91/1/47 81/1/69 83/1/45
f 81/1/69 91/1/47 92/1/71
f 16/1/13 119/1/13 120/1/13
f 119/1/13 16/1/13 15/1/13
f 42/1/28 77/1/86 40/1/26
f 77/1/86 42/1/28 98/1/87

