# Created by Kenney (www.kenney.nl)

mtllib road-driveway-double.mtl

g road-driveway-double

v 0.13 0.01 -0.4 1 1 1
v 0.13 0.02 -0.5 1 1 1
v 0.13 0.02 -0.4 1 1 1
v -0.13 0.02 0.4 1 1 1
v -0.13 0.01 0.4 1 1 1
v -0.13 0.02 0.5 1 1 1
v 0.13 0.01 0.4 1 1 1
v 0.13 0.02 0.4 1 1 1
v 0.13 0.02 0.5 1 1 1
v -0.13 0.02 -0.4 1 1 1
v -0.13 0.02 -0.5 1 1 1
v -0.13 0.01 -0.4 1 1 1
v 0.18 0.01 0.4 1 1 1
v 0.5 0.01 0.4 1 1 1
v 0.5 0.02 0.4 1 1 1
v 0.5 0 0.5 1 1 1
v 0.5 0 -0.5 1 1 1
v -0.5 0 0.5 1 1 1
v -0.5 0 -0.5 1 1 1
v -0.5 0.02 0.4 1 1 1
v -0.5 0.02 0.5 1 1 1
v -0.18 0.01 0.4 1 1 1
v -0.5 0.01 0.4 1 1 1
v -0.5 0.02 -0.4 1 1 1
v -0.5 0.02 -0.5 1 1 1
v -0.5 0.01 -0.4 1 1 1
v 0.5 0.02 -0.5 1 1 1
v 0.5 0.02 0.5 1 1 1
v 0.5 0.01 -0.4 1 1 1
v 0.5 0.02 -0.4 1 1 1
v -0.5 0.01 -0.3 1 1 1
v -0.5 0.01 -0.01 1 1 1
v -0.5 0.01 0.01 1 1 1
v -0.5 0.01 0.3 1 1 1
v 0.5 0.01 0.3 1 1 1
v 0.5 0.01 0.01 1 1 1
v 0.5 0.01 -0.01 1 1 1
v 0.5 0.01 -0.3 1 1 1

vn -1 0 0
vn 1 0 0
vn 0 0 -1
vn 0 -1 0
vn 0 1 0
vn 0 0 1
vn 0 0.9950371 0.09950371
vn 0 0.9950371 -0.09950371

vt 0.96875 0.125
vt 0.96875 0.225
vt 0.96875 0.025
vt 0.21875 0.125
vt 0.21875 0.225
vt 0.21875 0.025
vt 0.15625 0.125
vt 0.09375 0.125
vt 0.09375 0.225
vt 0.03125 0.125
vt 0.28125 0.125

usemtl colormap

f 3/2/1 2/2/1 1/1/1
f 6/2/2 5/1/2 4/2/2
f 9/2/1 8/2/1 7/1/1
f 12/1/2 11/2/2 10/2/2
f 8/2/3 13/1/3 7/1/3
f 13/1/3 8/2/3 14/1/3
f 14/1/3 8/2/3 15/2/3
f 18/3/4 17/3/4 16/3/4
f 17/3/4 18/3/4 19/3/4
f 20/2/5 6/2/5 4/2/5
f 6/2/5 20/2/5 21/2/5
f 23/1/3 5/1/3 22/1/3
f 5/1/3 23/1/3 4/2/3
f 4/2/3 23/1/3 20/2/3
f 11/2/5 24/2/5 10/2/5
f 24/2/5 11/2/5 25/2/5
f 12/1/6 24/2/6 26/1/6
f 24/2/6 12/1/6 10/2/6
f 25/2/3 17/3/3 19/3/3
f 17/3/3 25/2/3 11/2/3
f 2/2/3 17/3/3 11/2/3
f 17/3/3 2/2/3 27/2/3
f 18/3/6 6/2/6 21/2/6
f 6/2/6 18/3/6 9/2/6
f 18/3/6 28/2/6 9/2/6
f 28/2/6 18/3/6 16/3/6
f 8/2/5 28/2/5 15/2/5
f 28/2/5 8/2/5 9/2/5
f 30/2/6 1/1/6 29/1/6
f 1/1/6 30/2/6 3/2/6
f 2/2/5 30/2/5 27/2/5
f 30/2/5 2/2/5 3/2/5
f 24/5/1 25/5/1 26/4/1
f 19/6/1 26/4/1 25/5/1
f 26/4/1 19/6/1 18/6/1
f 26/4/1 18/6/1 31/4/1
f 31/4/1 18/6/1 32/4/1
f 32/4/1 18/6/1 33/4/1
f 33/4/1 18/6/1 34/4/1
f 34/4/1 18/6/1 23/4/1
f 23/4/1 18/6/1 20/5/1
f 20/5/1 18/6/1 21/5/1
f 28/5/2 14/4/2 15/5/2
f 16/6/2 14/4/2 28/5/2
f 16/6/2 35/4/2 14/4/2
f 16/6/2 36/4/2 35/4/2
f 16/6/2 37/4/2 36/4/2
f 16/6/2 38/4/2 37/4/2
f 16/6/2 29/4/2 38/4/2
f 17/6/2 29/4/2 16/6/2
f 17/6/2 30/5/2 29/4/2
f 30/5/2 17/6/2 27/5/2
f 38/7/5 32/7/5 37/7/5
f 32/7/5 38/7/5 31/7/5
f 33/7/5 35/7/5 36/7/5
f 35/7/5 33/7/5 34/7/5
f 2/9/7 12/8/7 1/8/7
f 12/8/7 2/9/7 11/9/7
f 5/8/8 9/9/8 7/8/8
f 9/9/8 5/8/8 6/9/8
f 1/10/5 38/10/5 29/10/5
f 38/10/5 1/10/5 31/10/5
f 31/10/5 1/10/5 12/10/5
f 31/10/5 12/10/5 26/10/5
f 34/10/5 14/10/5 35/10/5
f 14/10/5 34/10/5 13/10/5
f 13/10/5 34/10/5 7/10/5
f 7/10/5 34/10/5 5/10/5
f 5/10/5 34/10/5 22/10/5
f 22/10/5 34/10/5 23/10/5
f 32/11/5 36/11/5 37/11/5
f 36/11/5 32/11/5 33/11/5

g road-driveway-double




usemtl colormap

f 3/2/1 2/2/1 1/1/1
f 6/2/2 5/1/2 4/2/2
f 9/2/1 8/2/1 7/1/1
f 12/1/2 11/2/2 10/2/2
f 8/2/3 13/1/3 7/1/3
f 13/1/3 8/2/3 14/1/3
f 14/1/3 8/2/3 15/2/3
f 18/3/4 17/3/4 16/3/4
f 17/3/4 18/3/4 19/3/4
f 20/2/5 6/2/5 4/2/5
f 6/2/5 20/2/5 21/2/5
f 23/1/3 5/1/3 22/1/3
f 5/1/3 23/1/3 4/2/3
f 4/2/3 23/1/3 20/2/3
f 11/2/5 24/2/5 10/2/5
f 24/2/5 11/2/5 25/2/5
f 12/1/6 24/2/6 26/1/6
f 24/2/6 12/1/6 10/2/6
f 25/2/3 17/3/3 19/3/3
f 17/3/3 25/2/3 11/2/3
f 2/2/3 17/3/3 11/2/3
f 17/3/3 2/2/3 27/2/3
f 18/3/6 6/2/6 21/2/6
f 6/2/6 18/3/6 9/2/6
f 18/3/6 28/2/6 9/2/6
f 28/2/6 18/3/6 16/3/6
f 8/2/5 28/2/5 15/2/5
f 28/2/5 8/2/5 9/2/5
f 30/2/6 1/1/6 29/1/6
f 1/1/6 30/2/6 3/2/6
f 2/2/5 30/2/5 27/2/5
f 30/2/5 2/2/5 3/2/5
f 24/5/1 25/5/1 26/4/1
f 19/6/1 26/4/1 25/5/1
f 26/4/1 19/6/1 18/6/1
f 26/4/1 18/6/1 31/4/1
f 31/4/1 18/6/1 32/4/1
f 32/4/1 18/6/1 33/4/1
f 33/4/1 18/6/1 34/4/1
f 34/4/1 18/6/1 23/4/1
f 23/4/1 18/6/1 20/5/1
f 20/5/1 18/6/1 21/5/1
f 28/5/2 14/4/2 15/5/2
f 16/6/2 14/4/2 28/5/2
f 16/6/2 35/4/2 14/4/2
f 16/6/2 36/4/2 35/4/2
f 16/6/2 37/4/2 36/4/2
f 16/6/2 38/4/2 37/4/2
f 16/6/2 29/4/2 38/4/2
f 17/6/2 29/4/2 16/6/2
f 17/6/2 30/5/2 29/4/2
f 30/5/2 17/6/2 27/5/2
f 38/7/5 32/7/5 37/7/5
f 32/7/5 38/7/5 31/7/5
f 33/7/5 35/7/5 36/7/5
f 35/7/5 33/7/5 34/7/5
f 2/9/7 12/8/7 1/8/7
f 12/8/7 2/9/7 11/9/7
f 5/8/8 9/9/8 7/8/8
f 9/9/8 5/8/8 6/9/8
f 1/10/5 38/10/5 29/10/5
f 38/10/5 1/10/5 31/10/5
f 31/10/5 1/10/5 12/10/5
f 31/10/5 12/10/5 26/10/5
f 34/10/5 14/10/5 35/10/5
f 14/10/5 34/10/5 13/10/5
f 13/10/5 34/10/5 7/10/5
f 7/10/5 34/10/5 5/10/5
f 5/10/5 34/10/5 22/10/5
f 22/10/5 34/10/5 23/10/5
f 32/11/5 36/11/5 37/11/5
f 36/11/5 32/11/5 33/11/5

