# Created by Kenney (www.kenney.nl)

mtllib road-end.mtl

g road-end

v -0.4 0.01 -0.4 1 1 1
v -0.4 0.02 -0.4 1 1 1
v 0.5 0.01 -0.4 1 1 1
v 0.5 0.02 -0.4 1 1 1
v -0.5 0 -0.5 1 1 1
v 0.5 0 -0.5 1 1 1
v -0.5 0.02 -0.5 1 1 1
v 0.5 0.02 -0.5 1 1 1
v -0.4 0.01 0.4 1 1 1
v 0.5 0.01 0.4 1 1 1
v -0.4 0.02 0.4 1 1 1
v 0.5 0.02 0.4 1 1 1
v 0.5 0 0.5 1 1 1
v -0.5 0 0.5 1 1 1
v -0.5 0.02 0.5 1 1 1
v 0.5 0.02 0.5 1 1 1
v 0.5 0.01 0.3 1 1 1
v 0.5 0.01 -0.3 1 1 1
v 0.5 0.01 -0.01 1 1 1
v -0.3 0.01 -0.3 1 1 1
v -0.00999999 0.01 -0.01 1 1 1
v -0.00999999 0.01 0.01 1 1 1
v -0.3 0.01 0.3 1 1 1
v 0.5 0.01 0.01 1 1 1
v -0.4 0.01 -0.4 1 1 1
v -0.3 0.01 -0.3 1 1 1
v -0.3 0.01 0.3 1 1 1
v -0.4 0.01 0.4 1 1 1
v -0.01000001 0.01 -0.01 1 1 1
v -0.01000001 0.01 0.01 1 1 1

vn 0 0 1
vn 0 0 -1
vn 0 -1 0
vn 0 1 0
vn -1 0 0
vn 1 0 0

vt 0.96875 0.125
vt 0.96875 0.225
vt 0.96875 0.025
vt 0.21875 0.225
vt 0.21875 0.125
vt 0.21875 0.025
vt 0.15625 0.125
vt 0.03125 0.125
vt 0.28125 0.125

usemtl colormap

f 3/1/1 2/2/1 1/1/1
f 2/2/1 3/1/1 4/2/1
f 7/2/2 6/3/2 5/3/2
f 6/3/2 7/2/2 8/2/2
f 11/2/2 10/1/2 9/1/2
f 10/1/2 11/2/2 12/2/2
f 14/3/3 6/3/3 13/3/3
f 6/3/3 14/3/3 5/3/3
f 7/2/4 4/2/4 8/2/4
f 4/2/4 7/2/4 2/2/4
f 2/2/4 7/2/4 11/2/4
f 15/2/4 11/2/4 7/2/4
f 16/2/4 11/2/4 15/2/4
f 11/2/4 16/2/4 12/2/4
f 16/2/1 14/3/1 13/3/1
f 14/3/1 16/2/1 15/2/1
f 14/3/5 7/2/5 5/3/5
f 7/2/5 14/3/5 15/2/5
f 11/2/6 1/1/6 2/2/6
f 1/1/6 11/2/6 9/1/6
f 16/4/6 10/5/6 12/4/6
f 13/6/6 10/5/6 16/4/6
f 13/6/6 17/5/6 10/5/6
f 13/6/6 18/5/6 17/5/6
f 13/6/6 3/5/6 18/5/6
f 6/6/6 3/5/6 13/6/6
f 6/6/6 4/4/6 3/5/6
f 4/4/6 6/6/6 8/4/6
f 20/7/4 19/7/4 18/7/4
f 19/7/4 20/7/4 21/7/4
f 21/7/4 20/7/4 22/7/4
f 23/7/4 22/7/4 20/7/4
f 23/7/4 24/7/4 22/7/4
f 24/7/4 23/7/4 17/7/4
f 25/8/4 18/8/4 3/8/4
f 18/8/4 25/8/4 26/8/4
f 26/8/4 25/8/4 27/8/4
f 28/8/4 27/8/4 25/8/4
f 10/8/4 27/8/4 28/8/4
f 27/8/4 10/8/4 17/8/4
f 29/9/4 24/9/4 19/9/4
f 24/9/4 29/9/4 30/9/4

g road-end




usemtl colormap

f 3/1/1 2/2/1 1/1/1
f 2/2/1 3/1/1 4/2/1
f 7/2/2 6/3/2 5/3/2
f 6/3/2 7/2/2 8/2/2
f 11/2/2 10/1/2 9/1/2
f 10/1/2 11/2/2 12/2/2
f 14/3/3 6/3/3 13/3/3
f 6/3/3 14/3/3 5/3/3
f 7/2/4 4/2/4 8/2/4
f 4/2/4 7/2/4 2/2/4
f 2/2/4 7/2/4 11/2/4
f 15/2/4 11/2/4 7/2/4
f 16/2/4 11/2/4 15/2/4
f 11/2/4 16/2/4 12/2/4
f 16/2/1 14/3/1 13/3/1
f 14/3/1 16/2/1 15/2/1
f 14/3/5 7/2/5 5/3/5
f 7/2/5 14/3/5 15/2/5
f 11/2/6 1/1/6 2/2/6
f 1/1/6 11/2/6 9/1/6
f 16/4/6 10/5/6 12/4/6
f 13/6/6 10/5/6 16/4/6
f 13/6/6 17/5/6 10/5/6
f 13/6/6 18/5/6 17/5/6
f 13/6/6 3/5/6 18/5/6
f 6/6/6 3/5/6 13/6/6
f 6/6/6 4/4/6 3/5/6
f 4/4/6 6/6/6 8/4/6
f 20/7/4 19/7/4 18/7/4
f 19/7/4 20/7/4 21/7/4
f 21/7/4 20/7/4 22/7/4
f 23/7/4 22/7/4 20/7/4
f 23/7/4 24/7/4 22/7/4
f 24/7/4 23/7/4 17/7/4
f 25/8/4 18/8/4 3/8/4
f 18/8/4 25/8/4 26/8/4
f 26/8/4 25/8/4 27/8/4
f 28/8/4 27/8/4 25/8/4
f 10/8/4 27/8/4 28/8/4
f 27/8/4 10/8/4 17/8/4
f 29/9/4 24/9/4 19/9/4
f 24/9/4 29/9/4 30/9/4

