# Created by Kenney (www.kenney.nl)

mtllib road-square.mtl

g road-square

v -0.4 0.01 -0.4 1 1 1
v -0.4 0.02 -0.4 1 1 1
v 0.4 0.01 -0.4 1 1 1
v 0.4 0.02 -0.4 1 1 1
v -0.5 0 -0.5 1 1 1
v 0.5 0 -0.5 1 1 1
v -0.5 0.02 -0.5 1 1 1
v 0.5 0.02 -0.5 1 1 1
v 0.5 0 0.5 1 1 1
v -0.5 0 0.5 1 1 1
v 0.5 0.02 0.5 1 1 1
v -0.5 0.02 0.5 1 1 1
v -0.4 0.02 0.4 1 1 1
v -0.4 0.01 0.4 1 1 1
v 0.4 0.01 0.4 1 1 1
v 0.4 0.02 0.4 1 1 1
v -0.3 0.01 -0.3 1 1 1
v 0.3 0.01 -0.3 1 1 1
v -0.3 0.01 0.3 1 1 1
v 0.3 0.01 0.3 1 1 1

vn 0 0 1
vn 0 0 -1
vn 0 -1 0
vn -1 0 0
vn 1 0 0
vn 0 1 0

vt 0.96875 0.125
vt 0.96875 0.225
vt 0.96875 0.025
vt 0.03125 0.125
vt 0.15625 0.125

usemtl colormap

f 3/1/1 2/2/1 1/1/1
f 2/2/1 3/1/1 4/2/1
f 7/2/2 6/3/2 5/3/2
f 6/3/2 7/2/2 8/2/2
f 10/3/3 6/3/3 9/3/3
f 6/3/3 10/3/3 5/3/3
f 11/2/1 10/3/1 9/3/1
f 10/3/1 11/2/1 12/2/1
f 10/3/4 7/2/4 5/3/4
f 7/2/4 10/3/4 12/2/4
f 13/2/5 1/1/5 2/2/5
f 1/1/5 13/2/5 14/1/5
f 11/2/5 6/3/5 8/2/5
f 6/3/5 11/2/5 9/3/5
f 13/2/2 15/1/2 14/1/2
f 15/1/2 13/2/2 16/2/2
f 15/1/4 4/2/4 3/1/4
f 4/2/4 15/1/4 16/2/4
f 4/2/6 7/2/6 2/2/6
f 2/2/6 7/2/6 13/2/6
f 4/2/6 8/2/6 7/2/6
f 12/2/6 13/2/6 7/2/6
f 8/2/6 4/2/6 11/2/6
f 12/2/6 16/2/6 13/2/6
f 11/2/6 16/2/6 12/2/6
f 16/2/6 11/2/6 4/2/6
f 18/4/6 1/4/6 17/4/6
f 17/4/6 1/4/6 19/4/6
f 18/4/6 3/4/6 1/4/6
f 14/4/6 19/4/6 1/4/6
f 3/4/6 18/4/6 15/4/6
f 14/4/6 20/4/6 19/4/6
f 15/4/6 20/4/6 14/4/6
f 20/4/6 15/4/6 18/4/6
f 17/5/6 20/5/6 18/5/6
f 20/5/6 17/5/6 19/5/6

g road-square




usemtl colormap

f 3/1/1 2/2/1 1/1/1
f 2/2/1 3/1/1 4/2/1
f 7/2/2 6/3/2 5/3/2
f 6/3/2 7/2/2 8/2/2
f 10/3/3 6/3/3 9/3/3
f 6/3/3 10/3/3 5/3/3
f 11/2/1 10/3/1 9/3/1
f 10/3/1 11/2/1 12/2/1
f 10/3/4 7/2/4 5/3/4
f 7/2/4 10/3/4 12/2/4
f 13/2/5 1/1/5 2/2/5
f 1/1/5 13/2/5 14/1/5
f 11/2/5 6/3/5 8/2/5
f 6/3/5 11/2/5 9/3/5
f 13/2/2 15/1/2 14/1/2
f 15/1/2 13/2/2 16/2/2
f 15/1/4 4/2/4 3/1/4
f 4/2/4 15/1/4 16/2/4
f 4/2/6 7/2/6 2/2/6
f 2/2/6 7/2/6 13/2/6
f 4/2/6 8/2/6 7/2/6
f 12/2/6 13/2/6 7/2/6
f 8/2/6 4/2/6 11/2/6
f 12/2/6 16/2/6 13/2/6
f 11/2/6 16/2/6 12/2/6
f 16/2/6 11/2/6 4/2/6
f 18/4/6 1/4/6 17/4/6
f 17/4/6 1/4/6 19/4/6
f 18/4/6 3/4/6 1/4/6
f 14/4/6 19/4/6 1/4/6
f 3/4/6 18/4/6 15/4/6
f 14/4/6 20/4/6 19/4/6
f 15/4/6 20/4/6 14/4/6
f 20/4/6 15/4/6 18/4/6
f 17/5/6 20/5/6 18/5/6
f 20/5/6 17/5/6 19/5/6

