# Created by Kenney (www.kenney.nl)

mtllib road-bend-barrier.mtl

g road-bend-barrier

v 0.2071068 0.08 -0.2071068 1 1 1
v 0.2071068 4.511946E-17 -0.2071068 1 1 1
v 0.2933533 0.08 -0.1087614 1 1 1
v 0.2933533 2.255973E-17 -0.1087614 1 1 1
v 0.1717514 2.368772E-16 -0.1717514 1 1 1
v 0.1858936 0.08 -0.1858936 1 1 1
v 0.2695527 0.08 -0.09049859 1 1 1
v 0.2536857 2.368772E-16 -0.07832336 1 1 1
v -0.1173166 1.240785E-16 -0.4238795 1 1 1
v -0.1173166 0.08 -0.4238795 1 1 1
v -0.241181 1.579181E-16 -0.4659258 1 1 1
v -0.241181 0.08 -0.4659258 1 1 1
v 0.4176295 2.368772E-16 0.2541219 1 1 1
v 0.4617015 0.08 0.3733896 1 1 1
v 0.4418726 2.368772E-16 0.3760001 1 1 1
v 0.436948 0.08 0.2489455 1 1 1
v 0.3776855 2.368772E-16 0.1364507 1 1 1
v 0.3961631 0.08 0.1287971 1 1 1
v -0.3760001 2.368772E-16 -0.4418726 1 1 1
v -0.5 2.368772E-16 -0.45 1 1 1
v -0.3733896 0.08 -0.4617015 1 1 1
v -0.5 0.08 -0.47 1 1 1
v -0.3694738 2.030376E-16 -0.4914449 1 1 1
v -0.3694738 0.08 -0.4914449 1 1 1
v -0.2489455 0.08 -0.436948 1 1 1
v -0.2541219 2.368772E-16 -0.4176295 1 1 1
v 0.3227241 2.368772E-16 0.025 1 1 1
v 0.3400446 0.08 0.015 1 1 1
v 0.4659258 0.08 0.241181 1 1 1
v 0.4659258 0 0.241181 1 1 1
v 0.4914449 0.08 0.3694738 1 1 1
v 0.4914449 0 0.3694738 1 1 1
v 0.07832336 2.368772E-16 -0.2536857 1 1 1
v 0.09049859 0.08 -0.2695527 1 1 1
v 0.3660254 0.08 -1.090086E-13 1 1 1
v 0.3660254 1.127987E-17 -1.090086E-13 1 1 1
v 0.4238795 0.08 0.1173166 1 1 1
v 0.4238795 0 0.1173166 1 1 1
v 0.1087614 6.76792E-17 -0.2933533 1 1 1
v 0.1087614 0.08 -0.2933533 1 1 1
v 3.680846E-13 9.023893E-17 -0.3660254 1 1 1
v 3.680846E-13 0.08 -0.3660254 1 1 1
v 0.47 0.08 0.5 1 1 1
v 0.45 2.368772E-16 0.5 1 1 1
v -0.5 2.368772E-16 -0.5 1 1 1
v -0.5 0.08 -0.5 1 1 1
v 0.5 0.08 0.5 1 1 1
v 0.5 2.368772E-16 0.5 1 1 1
v -0.025 2.368772E-16 -0.3227241 1 1 1
v -0.1364507 2.368772E-16 -0.3776855 1 1 1
v -0.015 0.08 -0.3400446 1 1 1
v -0.1287971 0.08 -0.3961631 1 1 1
v -0.4710222 0.08 0.4922354 1 1 1
v -0.4517037 2.368772E-16 0.487059 1 1 1
v -0.47 0.08 0.5 1 1 1
v -0.45 2.368772E-16 0.5 1 1 1
v -0.4787868 0.08 0.4787868 1 1 1
v -0.4646446 2.368772E-16 0.4646446 1 1 1
v -0.4740192 0.08 0.485 1 1 1
v -0.4566987 2.368772E-16 0.475 1 1 1
v -0.4922354 0.08 0.4710222 1 1 1
v -0.475 2.368772E-16 0.4566987 1 1 1
v -0.485 0.08 0.4740192 1 1 1
v -0.487059 2.368772E-16 0.4517037 1 1 1
v -0.5 0.08 0.47 1 1 1
v -0.5 2.368772E-16 0.45 1 1 1
v -0.5 2.368772E-16 0.5 1 1 1
v -0.5 0.08 0.5 1 1 1

vn 0.7071068 0 -0.7071068
vn 0.7933533 0 -0.6087614
vn -0.6859944 0.2425356 0.6859944
vn -0.7696658 0.2425357 0.5905854
vn 0.3826834 0 -0.9238795
vn 0.258819 0 -0.9659258
vn -0.9370857 0.2425356 0.2510914
vn -0.9618428 0.2425356 0.126629
vn -0.8962947 0.2425356 0.3712575
vn -0.126629 0.2425356 0.9618428
vn -0.06345834 0.2420468 0.9681872
vn 0.1305262 0 -0.9914449
vn -0.2510914 0.2425356 0.9370857
vn -0.8401681 0.2425356 0.4850713
vn 0.9659258 0 -0.258819
vn 0.9914449 0 -0.1305262
vn -0.5905854 0.2425357 0.7696658
vn 0.8660254 0 -0.5
vn 0.9238795 0 -0.3826834
vn 0.6087614 0 -0.7933533
vn 0.5 0 -0.8660254
vn -0.9681872 0.2420468 0.06345834
vn 0.06540313 0 -0.9978589
vn 0.9978589 0 -0.06540313
vn 0 -1 0
vn -0.4850713 0.2425356 0.8401681
vn -0.3712575 0.2425356 0.8962947
vn 0.9370857 0.2425356 -0.2510914
vn 0.9623252 0.2405813 -0.1266925
vn 0.6859944 0.2425356 -0.6859944
vn 0.8401681 0.2425356 -0.4850713
vn 0.2510914 0.2425356 -0.9370857
vn 0.4850713 0.2425356 -0.8401681
vn 0.1266925 0.2405813 -0.9623252
vn 0 1 0
vn -1 0 0
vn 0 0 1

vt 0.90625 0.125

usemtl colormap

f 3/1/2 2/1/1 1/1/1
f 2/1/1 3/1/2 4/1/2
f 7/1/4 6/1/3 5/1/3
f 8/1/4 7/1/4 5/1/3
f 11/1/6 10/1/5 9/1/5
f 10/1/5 11/1/6 12/1/6
f 15/1/8 14/1/8 13/1/7
f 14/1/8 16/1/7 13/1/7
f 13/1/7 16/1/7 17/1/9
f 16/1/7 18/1/9 17/1/9
f 21/1/10 20/1/11 19/1/10
f 22/1/11 20/1/11 21/1/10
f 23/1/12 12/1/6 11/1/6
f 12/1/6 23/1/12 24/1/12
f 21/1/10 19/1/10 25/1/13
f 25/1/13 19/1/10 26/1/13
f 18/1/9 28/1/14 27/1/14
f 17/1/9 18/1/9 27/1/14
f 31/1/16 30/1/15 29/1/15
f 30/1/15 31/1/16 32/1/16
f 34/1/17 33/1/17 6/1/3
f 6/1/3 33/1/17 5/1/3
f 37/1/19 36/1/18 35/1/18
f 36/1/18 37/1/19 38/1/19
f 35/1/18 4/1/2 3/1/2
f 4/1/2 35/1/18 36/1/18
f 39/1/20 1/1/1 2/1/1
f 1/1/1 39/1/20 40/1/20
f 9/1/5 42/1/21 41/1/21
f 42/1/21 9/1/5 10/1/5
f 43/1/22 14/1/8 15/1/8
f 43/1/22 15/1/8 44/1/22
f 45/1/23 24/1/12 23/1/12
f 24/1/12 45/1/23 46/1/23
f 47/1/24 32/1/16 31/1/16
f 32/1/16 47/1/24 48/1/24
f 44/1/25 32/1/25 48/1/25
f 32/1/25 44/1/25 30/1/25
f 30/1/25 44/1/25 15/1/25
f 30/1/25 15/1/25 38/1/25
f 38/1/25 15/1/25 13/1/25
f 38/1/25 13/1/25 36/1/25
f 36/1/25 13/1/25 17/1/25
f 36/1/25 17/1/25 27/1/25
f 36/1/25 27/1/25 4/1/25
f 4/1/25 27/1/25 8/1/25
f 4/1/25 8/1/25 2/1/25
f 2/1/25 8/1/25 5/1/25
f 2/1/25 5/1/25 39/1/25
f 39/1/25 5/1/25 33/1/25
f 39/1/25 33/1/25 41/1/25
f 41/1/25 33/1/25 49/1/25
f 41/1/25 49/1/25 9/1/25
f 9/1/25 49/1/25 50/1/25
f 9/1/25 50/1/25 11/1/25
f 11/1/25 50/1/25 26/1/25
f 11/1/25 26/1/25 23/1/25
f 23/1/25 26/1/25 19/1/25
f 23/1/25 19/1/25 45/1/25
f 45/1/25 19/1/25 20/1/25
f 41/1/21 40/1/20 39/1/20
f 40/1/20 41/1/21 42/1/21
f 29/1/15 38/1/19 37/1/19
f 38/1/19 29/1/15 30/1/15
f 51/1/26 49/1/26 34/1/17
f 34/1/17 49/1/26 33/1/17
f 52/1/27 26/1/13 50/1/27
f 25/1/13 26/1/13 52/1/27
f 55/1/29 54/1/28 53/1/28
f 56/1/29 54/1/28 55/1/29
f 27/1/14 28/1/14 8/1/4
f 28/1/14 7/1/4 8/1/4
f 59/1/31 58/1/30 57/1/30
f 59/1/31 60/1/31 58/1/30
f 63/1/33 62/1/33 61/1/32
f 61/1/32 62/1/33 64/1/32
f 61/1/32 64/1/32 65/1/34
f 65/1/34 64/1/32 66/1/34
f 67/1/25 54/1/25 56/1/25
f 54/1/25 67/1/25 60/1/25
f 60/1/25 67/1/25 58/1/25
f 58/1/25 67/1/25 62/1/25
f 62/1/25 67/1/25 64/1/25
f 64/1/25 67/1/25 66/1/25
f 31/1/35 43/1/35 47/1/35
f 43/1/35 31/1/35 29/1/35
f 43/1/35 29/1/35 14/1/35
f 14/1/35 29/1/35 37/1/35
f 14/1/35 37/1/35 16/1/35
f 16/1/35 37/1/35 18/1/35
f 18/1/35 37/1/35 35/1/35
f 18/1/35 35/1/35 28/1/35
f 28/1/35 35/1/35 3/1/35
f 28/1/35 3/1/35 7/1/35
f 7/1/35 3/1/35 1/1/35
f 7/1/35 1/1/35 6/1/35
f 6/1/35 1/1/35 40/1/35
f 6/1/35 40/1/35 34/1/35
f 34/1/35 40/1/35 42/1/35
f 34/1/35 42/1/35 51/1/35
f 51/1/35 42/1/35 10/1/35
f 51/1/35 10/1/35 52/1/35
f 52/1/35 10/1/35 12/1/35
f 52/1/35 12/1/35 25/1/35
f 25/1/35 12/1/35 24/1/35
f 25/1/35 24/1/35 21/1/35
f 21/1/35 24/1/35 46/1/35
f 21/1/35 46/1/35 22/1/35
f 52/1/27 50/1/27 51/1/26
f 51/1/26 50/1/27 49/1/26
f 63/1/33 58/1/30 62/1/33
f 57/1/30 58/1/30 63/1/33
f 20/1/36 46/1/36 45/1/36
f 46/1/36 20/1/36 22/1/36
f 47/1/37 44/1/37 48/1/37
f 44/1/37 47/1/37 43/1/37
f 53/1/35 68/1/35 55/1/35
f 68/1/35 53/1/35 59/1/35
f 68/1/35 59/1/35 57/1/35
f 68/1/35 57/1/35 63/1/35
f 68/1/35 63/1/35 61/1/35
f 68/1/35 61/1/35 65/1/35
f 53/1/28 54/1/28 60/1/31
f 53/1/28 60/1/31 59/1/31
f 55/1/37 67/1/37 56/1/37
f 67/1/37 55/1/37 68/1/37
f 67/1/36 65/1/36 66/1/36
f 65/1/36 67/1/36 68/1/36

g road-bend-barrier




usemtl colormap

f 3/1/2 2/1/1 1/1/1
f 2/1/1 3/1/2 4/1/2
f 7/1/4 6/1/3 5/1/3
f 8/1/4 7/1/4 5/1/3
f 11/1/6 10/1/5 9/1/5
f 10/1/5 11/1/6 12/1/6
f 15/1/8 14/1/8 13/1/7
f 14/1/8 16/1/7 13/1/7
f 13/1/7 16/1/7 17/1/9
f 16/1/7 18/1/9 17/1/9
f 21/1/10 20/1/11 19/1/10
f 22/1/11 20/1/11 21/1/10
f 23/1/12 12/1/6 11/1/6
f 12/1/6 23/1/12 24/1/12
f 21/1/10 19/1/10 25/1/13
f 25/1/13 19/1/10 26/1/13
f 18/1/9 28/1/14 27/1/14
f 17/1/9 18/1/9 27/1/14
f 31/1/16 30/1/15 29/1/15
f 30/1/15 31/1/16 32/1/16
f 34/1/17 33/1/17 6/1/3
f 6/1/3 33/1/17 5/1/3
f 37/1/19 36/1/18 35/1/18
f 36/1/18 37/1/19 38/1/19
f 35/1/18 4/1/2 3/1/2
f 4/1/2 35/1/18 36/1/18
f 39/1/20 1/1/1 2/1/1
f 1/1/1 39/1/20 40/1/20
f 9/1/5 42/1/21 41/1/21
f 42/1/21 9/1/5 10/1/5
f 43/1/22 14/1/8 15/1/8
f 43/1/22 15/1/8 44/1/22
f 45/1/23 24/1/12 23/1/12
f 24/1/12 45/1/23 46/1/23
f 47/1/24 32/1/16 31/1/16
f 32/1/16 47/1/24 48/1/24
f 44/1/25 32/1/25 48/1/25
f 32/1/25 44/1/25 30/1/25
f 30/1/25 44/1/25 15/1/25
f 30/1/25 15/1/25 38/1/25
f 38/1/25 15/1/25 13/1/25
f 38/1/25 13/1/25 36/1/25
f 36/1/25 13/1/25 17/1/25
f 36/1/25 17/1/25 27/1/25
f 36/1/25 27/1/25 4/1/25
f 4/1/25 27/1/25 8/1/25
f 4/1/25 8/1/25 2/1/25
f 2/1/25 8/1/25 5/1/25
f 2/1/25 5/1/25 39/1/25
f 39/1/25 5/1/25 33/1/25
f 39/1/25 33/1/25 41/1/25
f 41/1/25 33/1/25 49/1/25
f 41/1/25 49/1/25 9/1/25
f 9/1/25 49/1/25 50/1/25
f 9/1/25 50/1/25 11/1/25
f 11/1/25 50/1/25 26/1/25
f 11/1/25 26/1/25 23/1/25
f 23/1/25 26/1/25 19/1/25
f 23/1/25 19/1/25 45/1/25
f 45/1/25 19/1/25 20/1/25
f 41/1/21 40/1/20 39/1/20
f 40/1/20 41/1/21 42/1/21
f 29/1/15 38/1/19 37/1/19
f 38/1/19 29/1/15 30/1/15
f 51/1/26 49/1/26 34/1/17
f 34/1/17 49/1/26 33/1/17
f 52/1/27 26/1/13 50/1/27
f 25/1/13 26/1/13 52/1/27
f 55/1/29 54/1/28 53/1/28
f 56/1/29 54/1/28 55/1/29
f 27/1/14 28/1/14 8/1/4
f 28/1/14 7/1/4 8/1/4
f 59/1/31 58/1/30 57/1/30
f 59/1/31 60/1/31 58/1/30
f 63/1/33 62/1/33 61/1/32
f 61/1/32 62/1/33 64/1/32
f 61/1/32 64/1/32 65/1/34
f 65/1/34 64/1/32 66/1/34
f 67/1/25 54/1/25 56/1/25
f 54/1/25 67/1/25 60/1/25
f 60/1/25 67/1/25 58/1/25
f 58/1/25 67/1/25 62/1/25
f 62/1/25 67/1/25 64/1/25
f 64/1/25 67/1/25 66/1/25
f 31/1/35 43/1/35 47/1/35
f 43/1/35 31/1/35 29/1/35
f 43/1/35 29/1/35 14/1/35
f 14/1/35 29/1/35 37/1/35
f 14/1/35 37/1/35 16/1/35
f 16/1/35 37/1/35 18/1/35
f 18/1/35 37/1/35 35/1/35
f 18/1/35 35/1/35 28/1/35
f 28/1/35 35/1/35 3/1/35
f 28/1/35 3/1/35 7/1/35
f 7/1/35 3/1/35 1/1/35
f 7/1/35 1/1/35 6/1/35
f 6/1/35 1/1/35 40/1/35
f 6/1/35 40/1/35 34/1/35
f 34/1/35 40/1/35 42/1/35
f 34/1/35 42/1/35 51/1/35
f 51/1/35 42/1/35 10/1/35
f 51/1/35 10/1/35 52/1/35
f 52/1/35 10/1/35 12/1/35
f 52/1/35 12/1/35 25/1/35
f 25/1/35 12/1/35 24/1/35
f 25/1/35 24/1/35 21/1/35
f 21/1/35 24/1/35 46/1/35
f 21/1/35 46/1/35 22/1/35
f 52/1/27 50/1/27 51/1/26
f 51/1/26 50/1/27 49/1/26
f 63/1/33 58/1/30 62/1/33
f 57/1/30 58/1/30 63/1/33
f 20/1/36 46/1/36 45/1/36
f 46/1/36 20/1/36 22/1/36
f 47/1/37 44/1/37 48/1/37
f 44/1/37 47/1/37 43/1/37
f 53/1/35 68/1/35 55/1/35
f 68/1/35 53/1/35 59/1/35
f 68/1/35 59/1/35 57/1/35
f 68/1/35 57/1/35 63/1/35
f 68/1/35 63/1/35 61/1/35
f 68/1/35 61/1/35 65/1/35
f 53/1/28 54/1/28 60/1/31
f 53/1/28 60/1/31 59/1/31
f 55/1/37 67/1/37 56/1/37
f 67/1/37 55/1/37 68/1/37
f 67/1/36 65/1/36 66/1/36
f 65/1/36 67/1/36 68/1/36

