# Created by Kenney (www.kenney.nl)

mtllib road-crossroad-line.mtl

g road-crossroad-line

v 0.4 0.02 0.5 1 1 1
v 0.5 0.02 0.5 1 1 1
v 0.4 0.01 0.5 1 1 1
v 0.5 0 0.5 1 1 1
v -0.5 0 0.5 1 1 1
v 0.3 0.01 0.5 1 1 1
v -0.3 0.01 0.5 1 1 1
v 0.01000001 0.01 0.5 1 1 1
v -0.009999992 0.01 0.5 1 1 1
v -0.4 0.01 0.5 1 1 1
v -0.5 0.02 0.5 1 1 1
v -0.4 0.02 0.5 1 1 1
v -0.4 0.02 -0.5 1 1 1
v -0.5 0.02 -0.5 1 1 1
v -0.4 0.01 -0.5 1 1 1
v -0.5 0 -0.5 1 1 1
v 0.5 0 -0.5 1 1 1
v -0.3 0.01 -0.5 1 1 1
v 0.3 0.01 -0.5 1 1 1
v -0.01 0.01 -0.5 1 1 1
v 0.009999995 0.01 -0.5 1 1 1
v 0.4 0.01 -0.5 1 1 1
v 0.5 0.02 -0.5 1 1 1
v 0.4 0.02 -0.5 1 1 1
v -0.5 0.02 0.4 1 1 1
v -0.5 0.01 0.4 1 1 1
v -0.5 0.01 0.3 1 1 1
v -0.5 0.01 0.01000001 1 1 1
v -0.5 0.01 -0.009999993 1 1 1
v -0.5 0.01 -0.3 1 1 1
v -0.5 0.01 -0.4 1 1 1
v -0.5 0.02 -0.4 1 1 1
v 0.5 0.02 0.4 1 1 1
v 0.5 0.01 0.4 1 1 1
v 0.5 0.01 0.3 1 1 1
v 0.5 0.01 0.01000001 1 1 1
v 0.5 0.01 -0.009999993 1 1 1
v 0.5 0.01 -0.3 1 1 1
v 0.5 0.01 -0.4 1 1 1
v 0.5 0.02 -0.4 1 1 1
v -0.3 0.01 0.3 1 1 1
v -0.009999998 0.01 0.01000001 1 1 1
v -0.009999999 0.01 -0.009999992 1 1 1
v -0.5 0.01 -0.009999992 1 1 1
v -0.3 0.01 -0.3 1 1 1
v 0.3 0.01 0.3 1 1 1
v 0.01 0.01 0.01000001 1 1 1
v 0.3 0.01 -0.3 1 1 1
v 0.01 0.01 -0.009999992 1 1 1
v 0.5 0.01 -0.009999992 1 1 1
v -0.4 0.01 0.4 1 1 1
v -0.4 0.02 0.4 1 1 1
v 0.4 0.02 0.4 1 1 1
v 0.4 0.01 0.4 1 1 1
v -0.4 0.02 -0.4 1 1 1
v -0.4 0.01 -0.4 1 1 1
v 0.4 0.02 -0.4 1 1 1
v 0.4 0.01 -0.4 1 1 1
v 0.01 0.01 -0.009999993 1 1 1
v -0.009999999 0.01 -0.009999993 1 1 1

vn 0 0 1
vn 0 0 -1
vn -1 0 0
vn 1 0 0
vn 0 1 0
vn 0 -1 0

vt 0.21875 0.225
vt 0.21875 0.125
vt 0.21875 0.025
vt 0.15625 0.125
vt 0.96875 0.125
vt 0.96875 0.225
vt 0.96875 0.025
vt 0.28125 0.125
vt 0.03125 0.125

usemtl colormap

f 3/2/1 2/1/1 1/1/1
f 3/2/1 4/3/1 2/1/1
f 4/3/1 3/2/1 5/3/1
f 5/3/1 3/2/1 6/2/1
f 7/2/1 5/3/1 6/2/1
f 7/2/1 6/2/1 8/2/1
f 7/2/1 8/2/1 9/2/1
f 10/2/1 5/3/1 7/2/1
f 5/3/1 10/2/1 11/1/1
f 11/1/1 10/2/1 12/1/1
f 15/2/2 14/1/2 13/1/2
f 15/2/2 16/3/2 14/1/2
f 16/3/2 15/2/2 17/3/2
f 17/3/2 15/2/2 18/2/2
f 19/2/2 17/3/2 18/2/2
f 19/2/2 18/2/2 20/2/2
f 19/2/2 20/2/2 21/2/2
f 22/2/2 17/3/2 19/2/2
f 17/3/2 22/2/2 23/1/2
f 23/1/2 22/2/2 24/1/2
f 25/1/3 5/3/3 11/1/3
f 26/2/3 5/3/3 25/1/3
f 27/2/3 5/3/3 26/2/3
f 28/2/3 5/3/3 27/2/3
f 29/2/3 5/3/3 28/2/3
f 30/2/3 5/3/3 29/2/3
f 31/2/3 5/3/3 30/2/3
f 31/2/3 16/3/3 5/3/3
f 16/3/3 31/2/3 14/1/3
f 32/1/3 14/1/3 31/2/3
f 2/1/4 34/2/4 33/1/4
f 34/2/4 2/1/4 4/3/4
f 4/3/4 35/2/4 34/2/4
f 4/3/4 36/2/4 35/2/4
f 4/3/4 37/2/4 36/2/4
f 4/3/4 38/2/4 37/2/4
f 4/3/4 39/2/4 38/2/4
f 17/3/4 39/2/4 4/3/4
f 17/3/4 40/1/4 39/2/4
f 40/1/4 17/3/4 23/1/4
f 41/4/5 28/4/5 27/4/5
f 28/4/5 41/4/5 42/4/5
f 7/4/5 42/4/5 41/4/5
f 42/4/5 7/4/5 9/4/5
f 20/4/5 44/4/5 43/4/5
f 44/4/5 20/4/5 45/4/5
f 45/4/5 20/4/5 18/4/5
f 44/4/5 45/4/5 30/4/5
f 36/4/5 46/4/5 35/4/5
f 46/4/5 36/4/5 47/4/5
f 46/4/5 47/4/5 6/4/5
f 6/4/5 47/4/5 8/4/5
f 21/4/5 48/4/5 19/4/5
f 48/4/5 21/4/5 49/4/5
f 50/4/5 48/4/5 49/4/5
f 48/4/5 50/4/5 38/4/5
f 25/6/2 51/5/2 26/5/2
f 51/5/2 25/6/2 52/6/2
f 12/6/4 51/5/4 52/6/4
f 51/5/4 12/6/4 10/5/4
f 25/6/5 12/6/5 52/6/5
f 12/6/5 25/6/5 11/6/5
f 53/6/5 2/6/5 33/6/5
f 2/6/5 53/6/5 1/6/5
f 53/6/2 34/5/2 54/5/2
f 34/5/2 53/6/2 33/6/2
f 3/5/3 53/6/3 54/5/3
f 53/6/3 3/5/3 1/6/3
f 14/6/5 55/6/5 13/6/5
f 55/6/5 14/6/5 32/6/5
f 56/5/1 32/6/1 31/5/1
f 32/6/1 56/5/1 55/6/1
f 55/6/4 15/5/4 13/6/4
f 15/5/4 55/6/4 56/5/4
f 24/6/5 40/6/5 23/6/5
f 40/6/5 24/6/5 57/6/5
f 58/5/3 24/6/3 22/5/3
f 24/6/3 58/5/3 57/6/3
f 40/6/1 58/5/1 39/5/1
f 58/5/1 40/6/1 57/6/1
f 4/7/6 16/7/6 17/7/6
f 16/7/6 4/7/6 5/7/6
f 59/8/5 36/8/5 37/8/5
f 36/8/5 59/8/5 47/8/5
f 9/8/5 47/8/5 59/8/5
f 47/8/5 9/8/5 8/8/5
f 9/8/5 59/8/5 21/8/5
f 9/8/5 21/8/5 42/8/5
f 42/8/5 21/8/5 20/8/5
f 42/8/5 20/8/5 60/8/5
f 60/8/5 28/8/5 42/8/5
f 28/8/5 60/8/5 29/8/5
f 19/9/5 58/9/5 22/9/5
f 48/9/5 58/9/5 19/9/5
f 38/9/5 58/9/5 48/9/5
f 58/9/5 38/9/5 39/9/5
f 27/9/5 7/9/5 41/9/5
f 7/9/5 27/9/5 51/9/5
f 51/9/5 27/9/5 26/9/5
f 10/9/5 7/9/5 51/9/5
f 15/9/5 45/9/5 18/9/5
f 45/9/5 15/9/5 56/9/5
f 45/9/5 56/9/5 30/9/5
f 30/9/5 56/9/5 31/9/5
f 46/9/5 34/9/5 35/9/5
f 34/9/5 46/9/5 54/9/5
f 54/9/5 46/9/5 3/9/5
f 3/9/5 46/9/5 6/9/5

g road-crossroad-line




usemtl colormap

f 3/2/1 2/1/1 1/1/1
f 3/2/1 4/3/1 2/1/1
f 4/3/1 3/2/1 5/3/1
f 5/3/1 3/2/1 6/2/1
f 7/2/1 5/3/1 6/2/1
f 7/2/1 6/2/1 8/2/1
f 7/2/1 8/2/1 9/2/1
f 10/2/1 5/3/1 7/2/1
f 5/3/1 10/2/1 11/1/1
f 11/1/1 10/2/1 12/1/1
f 15/2/2 14/1/2 13/1/2
f 15/2/2 16/3/2 14/1/2
f 16/3/2 15/2/2 17/3/2
f 17/3/2 15/2/2 18/2/2
f 19/2/2 17/3/2 18/2/2
f 19/2/2 18/2/2 20/2/2
f 19/2/2 20/2/2 21/2/2
f 22/2/2 17/3/2 19/2/2
f 17/3/2 22/2/2 23/1/2
f 23/1/2 22/2/2 24/1/2
f 25/1/3 5/3/3 11/1/3
f 26/2/3 5/3/3 25/1/3
f 27/2/3 5/3/3 26/2/3
f 28/2/3 5/3/3 27/2/3
f 29/2/3 5/3/3 28/2/3
f 30/2/3 5/3/3 29/2/3
f 31/2/3 5/3/3 30/2/3
f 31/2/3 16/3/3 5/3/3
f 16/3/3 31/2/3 14/1/3
f 32/1/3 14/1/3 31/2/3
f 2/1/4 34/2/4 33/1/4
f 34/2/4 2/1/4 4/3/4
f 4/3/4 35/2/4 34/2/4
f 4/3/4 36/2/4 35/2/4
f 4/3/4 37/2/4 36/2/4
f 4/3/4 38/2/4 37/2/4
f 4/3/4 39/2/4 38/2/4
f 17/3/4 39/2/4 4/3/4
f 17/3/4 40/1/4 39/2/4
f 40/1/4 17/3/4 23/1/4
f 41/4/5 28/4/5 27/4/5
f 28/4/5 41/4/5 42/4/5
f 7/4/5 42/4/5 41/4/5
f 42/4/5 7/4/5 9/4/5
f 20/4/5 44/4/5 43/4/5
f 44/4/5 20/4/5 45/4/5
f 45/4/5 20/4/5 18/4/5
f 44/4/5 45/4/5 30/4/5
f 36/4/5 46/4/5 35/4/5
f 46/4/5 36/4/5 47/4/5
f 46/4/5 47/4/5 6/4/5
f 6/4/5 47/4/5 8/4/5
f 21/4/5 48/4/5 19/4/5
f 48/4/5 21/4/5 49/4/5
f 50/4/5 48/4/5 49/4/5
f 48/4/5 50/4/5 38/4/5
f 25/6/2 51/5/2 26/5/2
f 51/5/2 25/6/2 52/6/2
f 12/6/4 51/5/4 52/6/4
f 51/5/4 12/6/4 10/5/4
f 25/6/5 12/6/5 52/6/5
f 12/6/5 25/6/5 11/6/5
f 53/6/5 2/6/5 33/6/5
f 2/6/5 53/6/5 1/6/5
f 53/6/2 34/5/2 54/5/2
f 34/5/2 53/6/2 33/6/2
f 3/5/3 53/6/3 54/5/3
f 53/6/3 3/5/3 1/6/3
f 14/6/5 55/6/5 13/6/5
f 55/6/5 14/6/5 32/6/5
f 56/5/1 32/6/1 31/5/1
f 32/6/1 56/5/1 55/6/1
f 55/6/4 15/5/4 13/6/4
f 15/5/4 55/6/4 56/5/4
f 24/6/5 40/6/5 23/6/5
f 40/6/5 24/6/5 57/6/5
f 58/5/3 24/6/3 22/5/3
f 24/6/3 58/5/3 57/6/3
f 40/6/1 58/5/1 39/5/1
f 58/5/1 40/6/1 57/6/1
f 4/7/6 16/7/6 17/7/6
f 16/7/6 4/7/6 5/7/6
f 59/8/5 36/8/5 37/8/5
f 36/8/5 59/8/5 47/8/5
f 9/8/5 47/8/5 59/8/5
f 47/8/5 9/8/5 8/8/5
f 9/8/5 59/8/5 21/8/5
f 9/8/5 21/8/5 42/8/5
f 42/8/5 21/8/5 20/8/5
f 42/8/5 20/8/5 60/8/5
f 60/8/5 28/8/5 42/8/5
f 28/8/5 60/8/5 29/8/5
f 19/9/5 58/9/5 22/9/5
f 48/9/5 58/9/5 19/9/5
f 38/9/5 58/9/5 48/9/5
f 58/9/5 38/9/5 39/9/5
f 27/9/5 7/9/5 41/9/5
f 7/9/5 27/9/5 51/9/5
f 51/9/5 27/9/5 26/9/5
f 10/9/5 7/9/5 51/9/5
f 15/9/5 45/9/5 18/9/5
f 45/9/5 15/9/5 56/9/5
f 45/9/5 56/9/5 30/9/5
f 30/9/5 56/9/5 31/9/5
f 46/9/5 34/9/5 35/9/5
f 34/9/5 46/9/5 54/9/5
f 54/9/5 46/9/5 3/9/5
f 3/9/5 46/9/5 6/9/5

