# Created by Kenney (www.kenney.nl)

mtllib road-intersection-barrier.mtl

g road-intersection-barrier

v 0.5 0.08 0.47 1 1 1
v 0.5 0.08 0.5 1 1 1
v 0.4922354 0.08 0.4710222 1 1 1
v 0.47 0.08 0.5 1 1 1
v 0.485 0.08 0.4740192 1 1 1
v 0.4787868 0.08 0.4787868 1 1 1
v 0.4740192 0.08 0.485 1 1 1
v 0.4710222 0.08 0.4922355 1 1 1
v -0.4787868 0.08 0.4787868 1 1 1
v -0.4646446 0 0.4646446 1 1 1
v -0.4740192 0.08 0.485 1 1 1
v -0.4566987 0 0.475 1 1 1
v 0.487059 1.015188E-15 0.4517037 1 1 1
v 0.5 1.015188E-15 0.45 1 1 1
v 0.5 1.015188E-15 0.5 1 1 1
v 0.475 1.015188E-15 0.4566987 1 1 1
v 0.4646446 1.015188E-15 0.4646446 1 1 1
v 0.4566987 1.015188E-15 0.475 1 1 1
v 0.4517037 1.015188E-15 0.4870591 1 1 1
v 0.45 1.015188E-15 0.5 1 1 1
v -0.47 0.08 0.5 1 1 1
v -0.5 0.08 0.5 1 1 1
v -0.4710222 0.08 0.4922354 1 1 1
v -0.485 0.08 0.4740192 1 1 1
v -0.4922355 0.08 0.4710222 1 1 1
v -0.5 0.08 0.47 1 1 1
v -0.45 0 0.5 1 1 1
v -0.5 0 0.5 1 1 1
v -0.4517037 0 0.487059 1 1 1
v -0.4870591 0 0.4517037 1 1 1
v -0.475 0 0.4566987 1 1 1
v -0.5 0 0.45 1 1 1
v 0.5 0 -0.45 1 1 1
v 0.5 0 -0.5 1 1 1
v -0.5 0 -0.45 1 1 1
v -0.5 0 -0.5 1 1 1
v 0.5 0.08 -0.47 1 1 1
v -0.5 0.08 -0.47 1 1 1
v 0.5 0.08 -0.5 1 1 1
v -0.5 0.08 -0.5 1 1 1

vn 0 1 0
vn 0.6859944 0.2425356 -0.6859944
vn 0.8401681 0.2425356 -0.4850713
vn -0.2510914 0.2425356 -0.9370857
vn -0.1266925 0.2405813 -0.9623252
vn 1 0 0
vn -0.4850713 0.2425356 -0.8401681
vn -0.6859944 0.2425356 -0.6859944
vn -0.8401681 0.2425356 -0.4850713
vn -0.9370857 0.2425356 -0.2510914
vn -0.9623252 0.2405813 -0.1266925
vn 0 0 1
vn 0 -1 0
vn 0.9370857 0.2425356 -0.2510914
vn 0.9623252 0.2405813 -0.1266925
vn 0.2510914 0.2425356 -0.9370857
vn 0.4850713 0.2425356 -0.8401681
vn 0.1266925 0.2405813 -0.9623252
vn -1 0 0
vn 0 0 -1
vn 0 0.2425356 0.9701425

vt 0.90625 0.125

usemtl colormap

f 3/1/1 2/1/1 1/1/1
f 2/1/1 3/1/1 4/1/1
f 4/1/1 3/1/1 5/1/1
f 4/1/1 5/1/1 6/1/1
f 4/1/1 6/1/1 7/1/1
f 4/1/1 7/1/1 8/1/1
f 11/1/3 10/1/2 9/1/2
f 11/1/3 12/1/3 10/1/2
f 1/1/5 14/1/5 13/1/4
f 1/1/5 13/1/4 3/1/4
f 1/1/6 15/1/6 14/1/6
f 15/1/6 1/1/6 2/1/6
f 3/1/4 16/1/7 5/1/7
f 3/1/4 13/1/4 16/1/7
f 7/1/9 6/1/8 17/1/8
f 7/1/9 17/1/8 18/1/9
f 20/1/11 4/1/11 19/1/10
f 4/1/11 8/1/10 19/1/10
f 23/1/1 22/1/1 21/1/1
f 22/1/1 23/1/1 11/1/1
f 22/1/1 11/1/1 9/1/1
f 22/1/1 9/1/1 24/1/1
f 22/1/1 24/1/1 25/1/1
f 22/1/1 25/1/1 26/1/1
f 21/1/12 28/1/12 27/1/12
f 28/1/12 21/1/12 22/1/12
f 5/1/7 17/1/8 6/1/8
f 5/1/7 16/1/7 17/1/8
f 15/1/13 13/1/13 14/1/13
f 13/1/13 15/1/13 20/1/13
f 13/1/13 20/1/13 16/1/13
f 16/1/13 20/1/13 17/1/13
f 17/1/13 20/1/13 18/1/13
f 18/1/13 20/1/13 19/1/13
f 8/1/10 7/1/9 18/1/9
f 8/1/10 18/1/9 19/1/10
f 23/1/14 29/1/14 12/1/3
f 23/1/14 12/1/3 11/1/3
f 27/1/15 29/1/14 21/1/15
f 21/1/15 29/1/14 23/1/14
f 2/1/12 20/1/12 15/1/12
f 20/1/12 2/1/12 4/1/12
f 25/1/16 31/1/17 30/1/16
f 24/1/17 31/1/17 25/1/16
f 26/1/18 30/1/16 32/1/18
f 25/1/16 30/1/16 26/1/18
f 35/1/13 34/1/13 33/1/13
f 34/1/13 35/1/13 36/1/13
f 28/1/13 29/1/13 27/1/13
f 29/1/13 28/1/13 12/1/13
f 12/1/13 28/1/13 10/1/13
f 10/1/13 28/1/13 31/1/13
f 31/1/13 28/1/13 30/1/13
f 30/1/13 28/1/13 32/1/13
f 39/1/1 38/1/1 37/1/1
f 38/1/1 39/1/1 40/1/1
f 35/1/19 40/1/19 36/1/19
f 40/1/19 35/1/19 38/1/19
f 24/1/17 10/1/2 31/1/17
f 9/1/2 10/1/2 24/1/17
f 37/1/6 34/1/6 39/1/6
f 34/1/6 37/1/6 33/1/6
f 40/1/20 34/1/20 36/1/20
f 34/1/20 40/1/20 39/1/20
f 37/1/21 35/1/21 33/1/21
f 35/1/21 37/1/21 38/1/21
f 28/1/19 26/1/19 32/1/19
f 26/1/19 28/1/19 22/1/19

g road-intersection-barrier




usemtl colormap

f 3/1/1 2/1/1 1/1/1
f 2/1/1 3/1/1 4/1/1
f 4/1/1 3/1/1 5/1/1
f 4/1/1 5/1/1 6/1/1
f 4/1/1 6/1/1 7/1/1
f 4/1/1 7/1/1 8/1/1
f 11/1/3 10/1/2 9/1/2
f 11/1/3 12/1/3 10/1/2
f 1/1/5 14/1/5 13/1/4
f 1/1/5 13/1/4 3/1/4
f 1/1/6 15/1/6 14/1/6
f 15/1/6 1/1/6 2/1/6
f 3/1/4 16/1/7 5/1/7
f 3/1/4 13/1/4 16/1/7
f 7/1/9 6/1/8 17/1/8
f 7/1/9 17/1/8 18/1/9
f 20/1/11 4/1/11 19/1/10
f 4/1/11 8/1/10 19/1/10
f 23/1/1 22/1/1 21/1/1
f 22/1/1 23/1/1 11/1/1
f 22/1/1 11/1/1 9/1/1
f 22/1/1 9/1/1 24/1/1
f 22/1/1 24/1/1 25/1/1
f 22/1/1 25/1/1 26/1/1
f 21/1/12 28/1/12 27/1/12
f 28/1/12 21/1/12 22/1/12
f 5/1/7 17/1/8 6/1/8
f 5/1/7 16/1/7 17/1/8
f 15/1/13 13/1/13 14/1/13
f 13/1/13 15/1/13 20/1/13
f 13/1/13 20/1/13 16/1/13
f 16/1/13 20/1/13 17/1/13
f 17/1/13 20/1/13 18/1/13
f 18/1/13 20/1/13 19/1/13
f 8/1/10 7/1/9 18/1/9
f 8/1/10 18/1/9 19/1/10
f 23/1/14 29/1/14 12/1/3
f 23/1/14 12/1/3 11/1/3
f 27/1/15 29/1/14 21/1/15
f 21/1/15 29/1/14 23/1/14
f 2/1/12 20/1/12 15/1/12
f 20/1/12 2/1/12 4/1/12
f 25/1/16 31/1/17 30/1/16
f 24/1/17 31/1/17 25/1/16
f 26/1/18 30/1/16 32/1/18
f 25/1/16 30/1/16 26/1/18
f 35/1/13 34/1/13 33/1/13
f 34/1/13 35/1/13 36/1/13
f 28/1/13 29/1/13 27/1/13
f 29/1/13 28/1/13 12/1/13
f 12/1/13 28/1/13 10/1/13
f 10/1/13 28/1/13 31/1/13
f 31/1/13 28/1/13 30/1/13
f 30/1/13 28/1/13 32/1/13
f 39/1/1 38/1/1 37/1/1
f 38/1/1 39/1/1 40/1/1
f 35/1/19 40/1/19 36/1/19
f 40/1/19 35/1/19 38/1/19
f 24/1/17 10/1/2 31/1/17
f 9/1/2 10/1/2 24/1/17
f 37/1/6 34/1/6 39/1/6
f 34/1/6 37/1/6 33/1/6
f 40/1/20 34/1/20 36/1/20
f 34/1/20 40/1/20 39/1/20
f 37/1/21 35/1/21 33/1/21
f 35/1/21 37/1/21 38/1/21
f 28/1/19 26/1/19 32/1/19
f 26/1/19 28/1/19 22/1/19

