# Created by Kenney (www.kenney.nl)

mtllib road-slant-flat.mtl

g road-slant-flat

v -0.5 0.02 0.5 1 1 1
v -0.5 0 0.5 1 1 1
v -0.5 0.02 0.4 1 1 1
v -0.5 0.01 0.4 1 1 1
v -0.5 0.01 0.3 1 1 1
v -0.5 0.01 0.01 1 1 1
v -0.5 0.01 -0.01 1 1 1
v -0.5 0.01 -0.3 1 1 1
v -0.5 0.01 -0.4 1 1 1
v -0.5 0 -0.5 1 1 1
v -0.5 0.02 -0.5 1 1 1
v -0.5 0.02 -0.4 1 1 1
v 0.5 0.27 0.4 1 1 1
v 0.5 0.26 0.4 1 1 1
v 0.5 0.27 0.5 1 1 1
v 0.5 0.25 0.5 1 1 1
v 0.5 0.26 0.3 1 1 1
v 0.5 0.26 0.01 1 1 1
v 0.5 0.26 -0.01 1 1 1
v 0.5 0.26 -0.3 1 1 1
v 0.5 0.26 -0.4 1 1 1
v 0.5 0.25 -0.5 1 1 1
v 0.5 0.27 -0.4 1 1 1
v 0.5 0.27 -0.5 1 1 1

vn -1 0 0
vn 1 0 0
vn -0.2425356 0.9701425 0
vn 0 0 1
vn 0 0 -1
vn 0.2425356 -0.9701425 0

vt 0.21875 0.03981481
vt 0.21875 0.025
vt 0.21875 0.03240741
vt 0.21875 0.225
vt 0.21875 0.2175926
vt 0.21875 0.2101852
vt 0.15625 0.125
vt 0.96875 0.225
vt 0.96875 0.03981481
vt 0.96875 0.025
vt 0.96875 0.2101852
vt 0.96875 0.03240741
vt 0.96875 0.2175926
vt 0.28125 0.125
vt 0.03125 0.125

usemtl colormap

f 3/1/1 2/2/1 1/1/1
f 4/3/1 2/2/1 3/1/1
f 5/3/1 2/2/1 4/3/1
f 6/3/1 2/2/1 5/3/1
f 7/3/1 2/2/1 6/3/1
f 8/3/1 2/2/1 7/3/1
f 9/3/1 2/2/1 8/3/1
f 9/3/1 10/2/1 2/2/1
f 10/2/1 9/3/1 11/1/1
f 12/1/1 11/1/1 9/3/1
f 15/4/2 14/5/2 13/4/2
f 14/5/2 15/4/2 16/6/2
f 16/6/2 17/5/2 14/5/2
f 16/6/2 18/5/2 17/5/2
f 16/6/2 19/5/2 18/5/2
f 16/6/2 20/5/2 19/5/2
f 16/6/2 21/5/2 20/5/2
f 22/6/2 21/5/2 16/6/2
f 22/6/2 23/4/2 21/5/2
f 23/4/2 22/6/2 24/4/2
f 8/7/3 19/7/3 20/7/3
f 19/7/3 8/7/3 7/7/3
f 18/7/3 5/7/3 17/7/3
f 5/7/3 18/7/3 6/7/3
f 3/9/3 15/8/3 13/8/3
f 15/8/3 3/9/3 1/9/3
f 16/11/4 1/9/4 2/10/4
f 1/9/4 16/11/4 15/8/4
f 11/9/5 22/11/5 10/10/5
f 22/11/5 11/9/5 24/8/5
f 3/9/5 14/13/5 4/12/5
f 14/13/5 3/9/5 13/8/5
f 11/9/3 23/8/3 24/8/3
f 23/8/3 11/9/3 12/9/3
f 21/13/4 12/9/4 9/12/4
f 12/9/4 21/13/4 23/8/4
f 2/10/6 22/11/6 16/11/6
f 22/11/6 2/10/6 10/10/6
f 7/14/3 18/14/3 19/14/3
f 18/14/3 7/14/3 6/14/3
f 9/15/3 20/15/3 21/15/3
f 20/15/3 9/15/3 8/15/3
f 5/15/3 14/15/3 17/15/3
f 14/15/3 5/15/3 4/15/3

g road-slant-flat




usemtl colormap

f 3/1/1 2/2/1 1/1/1
f 4/3/1 2/2/1 3/1/1
f 5/3/1 2/2/1 4/3/1
f 6/3/1 2/2/1 5/3/1
f 7/3/1 2/2/1 6/3/1
f 8/3/1 2/2/1 7/3/1
f 9/3/1 2/2/1 8/3/1
f 9/3/1 10/2/1 2/2/1
f 10/2/1 9/3/1 11/1/1
f 12/1/1 11/1/1 9/3/1
f 15/4/2 14/5/2 13/4/2
f 14/5/2 15/4/2 16/6/2
f 16/6/2 17/5/2 14/5/2
f 16/6/2 18/5/2 17/5/2
f 16/6/2 19/5/2 18/5/2
f 16/6/2 20/5/2 19/5/2
f 16/6/2 21/5/2 20/5/2
f 22/6/2 21/5/2 16/6/2
f 22/6/2 23/4/2 21/5/2
f 23/4/2 22/6/2 24/4/2
f 8/7/3 19/7/3 20/7/3
f 19/7/3 8/7/3 7/7/3
f 18/7/3 5/7/3 17/7/3
f 5/7/3 18/7/3 6/7/3
f 3/9/3 15/8/3 13/8/3
f 15/8/3 3/9/3 1/9/3
f 16/11/4 1/9/4 2/10/4
f 1/9/4 16/11/4 15/8/4
f 11/9/5 22/11/5 10/10/5
f 22/11/5 11/9/5 24/8/5
f 3/9/5 14/13/5 4/12/5
f 14/13/5 3/9/5 13/8/5
f 11/9/3 23/8/3 24/8/3
f 23/8/3 11/9/3 12/9/3
f 21/13/4 12/9/4 9/12/4
f 12/9/4 21/13/4 23/8/4
f 2/10/6 22/11/6 16/11/6
f 22/11/6 2/10/6 10/10/6
f 7/14/3 18/14/3 19/14/3
f 18/14/3 7/14/3 6/14/3
f 9/15/3 20/15/3 21/15/3
f 20/15/3 9/15/3 8/15/3
f 5/15/3 14/15/3 17/15/3
f 14/15/3 5/15/3 4/15/3

