# Created by Kenney (www.kenney.nl)

mtllib road-curve-pavement.mtl

g road-curve-pavement

v 1 0 1 1 1 1
v 1 0 -1 1 1 1
v -1 0 1 1 1 1
v -1 0 -1 1 1 1
v 1 0.02 -1 1 1 1
v 1 0.02 1 1 1 1
v -1 0.02 -1 1 1 1
v 0.9 0.02 1 1 1 1
v 0.8837453 0.02 0.7520002 1 1 1
v 0.8352591 0.02 0.5082438 1 1 1
v 0.7553711 0.02 0.2729015 1 1 1
v 0.6454483 0.02 0.05 1 1 1
v 0.5073714 0.02 -0.1566467 1 1 1
v 0.3435029 0.02 -0.3435029 1 1 1
v 0.1566467 0.02 -0.5073714 1 1 1
v -0.05 0.02 -0.6454483 1 1 1
v -0.2729015 0.02 -0.7553711 1 1 1
v -0.5082438 0.02 -0.8352591 1 1 1
v -0.7520002 0.02 -0.8837453 1 1 1
v -1 0.02 -0.9 1 1 1
v -0.7520002 0.01 -0.8837453 1 1 1
v -1 0.01 -0.9 1 1 1
v -0.5082438 0.01 -0.8352591 1 1 1
v -0.2729015 0.01 -0.7553711 1 1 1
v -0.05 0.01 -0.6454483 1 1 1
v 0.1566467 0.01 -0.5073714 1 1 1
v 0.3435029 0.01 -0.3435029 1 1 1
v 0.5073714 0.01 -0.1566467 1 1 1
v 0.6454483 0.01 0.05 1 1 1
v 0.7553711 0.01 0.2729015 1 1 1
v 0.8352591 0.01 0.5082438 1 1 1
v 0.8837453 0.01 0.7520002 1 1 1
v 0.9 0.01 1 1 1 1
v 0.1 0.02 1 1 1 1
v -1 0.02 1 1 1 1
v 0.09058934 0.02 0.8564212 1 1 1
v 0.06251841 0.02 0.7152991 1 1 1
v 0.01626749 0.02 0.5790482 1 1 1
v -0.04737206 0.02 0.45 1 1 1
v -0.1273113 0.02 0.3303624 1 1 1
v -0.2221825 0.02 0.2221825 1 1 1
v -0.3303624 0.02 0.1273113 1 1 1
v -0.45 0.02 0.04737206 1 1 1
v -0.5790482 0.02 -0.01626749 1 1 1
v -0.7152991 0.02 -0.06251841 1 1 1
v -0.8564212 0.02 -0.09058934 1 1 1
v -1 0.02 -0.1 1 1 1
v 0.09058934 0.01 0.8564212 1 1 1
v 0.1 0.01 1 1 1 1
v 0.06251841 0.01 0.7152991 1 1 1
v 0.01626749 0.01 0.5790482 1 1 1
v -0.04737206 0.01 0.45 1 1 1
v -0.1273113 0.01 0.3303624 1 1 1
v -0.2221825 0.01 0.2221825 1 1 1
v -0.3303624 0.01 0.1273113 1 1 1
v -0.45 0.01 0.04737206 1 1 1
v -0.5790482 0.01 -0.01626749 1 1 1
v -0.7152991 0.01 -0.06251841 1 1 1
v -0.8564212 0.01 -0.09058934 1 1 1
v -1 0.01 -0.1 1 1 1
v 0.2 0.01 1 1 1 1
v 0.8 0.01 1 1 1 1
v 0.51 0.01 1 1 1 1
v 0.49 0.01 1 1 1 1
v -1 0.01 -0.2 1 1 1
v -1 0.01 -0.49 1 1 1
v -1 0.01 -0.51 1 1 1
v -1 0.01 -0.8 1 1 1
v 0.2 0.01 1 1 1 1
v 0.4772529 0.01 0.805516 1 1 1
v 0.4392295 0.01 0.6143597 1 1 1
v 0.3765805 0.01 0.4298017 1 1 1
v 0.2903779 0.01 0.255 1 1 1
v 0.1820965 0.01 0.09294547 1 1 1
v 0.1897338 0.01 0.8433686 1 1 1
v 0.159111 0.01 0.6894171 1 1 1
v 0.0535891 0.01 -0.0535891 1 1 1
v 0.1086554 0.01 0.5407799 1 1 1
v 0.03923047 0.01 0.4 1 1 1
v -0.09294547 0.01 -0.1820965 1 1 1
v -0.04797599 0.01 0.2694863 1 1 1
v -0.1514719 0.01 0.1514719 1 1 1
v -0.255 0.01 -0.2903779 1 1 1
v -0.2694863 0.01 0.04797599 1 1 1
v -0.4298017 0.01 -0.3765805 1 1 1
v -0.4 0.01 -0.03923047 1 1 1
v -0.5407799 0.01 -0.1086554 1 1 1
v -0.6143597 0.01 -0.4392295 1 1 1
v -0.6894171 0.01 -0.159111 1 1 1
v -0.805516 0.01 -0.4772529 1 1 1
v -0.8433686 0.01 -0.1897338 1 1 1
v -1 0.01 -0.2 1 1 1
v 0.8 0.01 1 1 1 1
v 0.7846007 0.01 0.7650529 1 1 1
v 0.7386664 0.01 0.5341257 1 1 1
v 0.6629831 0.01 0.3111698 1 1 1
v 0.5588457 0.01 0.1 1 1 1
v 0.4970817 0.01 0.8029054 1 1 1
v 0.4280361 0.01 -0.09577058 1 1 1
v 0.458548 0.01 0.6091833 1 1 1
v 0.3950581 0.01 0.422148 1 1 1
v 0.2727922 0.01 -0.2727922 1 1 1
v 0.3076984 0.01 0.245 1 1 1
v 0.1979635 0.01 0.08077024 1 1 1
v 0.09577058 0.01 -0.4280361 1 1 1
v 0.06773122 0.01 -0.06773122 1 1 1
v -0.1 0.01 -0.5588457 1 1 1
v -0.08077024 0.01 -0.1979635 1 1 1
v -0.245 0.01 -0.3076984 1 1 1
v -0.3111698 0.01 -0.6629831 1 1 1
v -0.422148 0.01 -0.3950581 1 1 1
v -0.5341257 0.01 -0.7386664 1 1 1
v -0.6091833 0.01 -0.458548 1 1 1
v -0.7650529 0.01 -0.7846007 1 1 1
v -0.8029054 0.01 -0.4970817 1 1 1
v -1 0.01 -0.8 1 1 1
v 0.49 0.01 1 1 1 1
v 0.4970817 0.01 0.8029054 1 1 1
v 0.4772528 0.01 0.805516 1 1 1
v 0.458548 0.01 0.6091833 1 1 1
v 0.4392295 0.01 0.6143596 1 1 1
v 0.395058 0.01 0.422148 1 1 1
v 0.3765805 0.01 0.4298017 1 1 1
v 0.3076983 0.01 0.245 1 1 1
v 0.2903778 0.01 0.255 1 1 1
v 0.1979636 0.01 0.08077024 1 1 1
v 0.1820965 0.01 0.09294547 1 1 1
v 0.06773125 0.01 -0.06773125 1 1 1
v 0.05358912 0.01 -0.05358912 1 1 1
v -0.08077024 0.01 -0.1979636 1 1 1
v -0.09294547 0.01 -0.1820965 1 1 1
v -0.245 0.01 -0.3076983 1 1 1
v -0.255 0.01 -0.2903778 1 1 1
v -0.422148 0.01 -0.395058 1 1 1
v -0.4298017 0.01 -0.3765805 1 1 1
v -0.6091833 0.01 -0.458548 1 1 1
v -0.6143596 0.01 -0.4392295 1 1 1
v -0.8029054 0.01 -0.4970817 1 1 1
v -0.805516 0.01 -0.4772528 1 1 1
v -1 0.01 -0.49 1 1 1
v 0.2 0.01 0.9999999 1 1 1
v 0.1 0.01 0.9999999 1 1 1
v 0.1897338 0.01 0.8433686 1 1 1
v 0.159111 0.01 0.6894171 1 1 1
v 0.1086555 0.01 0.5407799 1 1 1
v 0.03923048 0.01 0.4 1 1 1
v 0.0625184 0.01 0.7152991 1 1 1
v 0.01626748 0.01 0.5790482 1 1 1
v -0.04737206 0.01 0.45 1 1 1
v -0.1273113 0.01 0.3303624 1 1 1
v -0.2221825 0.01 0.2221825 1 1 1
v -0.3303624 0.01 0.1273113 1 1 1
v -0.4 0.01 -0.03923048 1 1 1
v -0.45 0.01 0.04737206 1 1 1
v -0.5407799 0.01 -0.1086555 1 1 1
v -0.5790482 0.01 -0.01626748 1 1 1
v -0.6894171 0.01 -0.159111 1 1 1
v -0.7152991 0.01 -0.0625184 1 1 1
v -0.8433686 0.01 -0.1897338 1 1 1
v -0.9999999 0.01 -0.2 1 1 1
v -0.9999999 0.01 -0.1 1 1 1
v 0.8999999 0.01 0.9999999 1 1 1
v 0.8 0.01 0.9999999 1 1 1
v 0.8837452 0.01 0.7520002 1 1 1
v 0.835259 0.01 0.5082438 1 1 1
v 0.7846007 0.01 0.7650529 1 1 1
v 0.7386665 0.01 0.5341257 1 1 1
v 0.6454482 0.01 0.05 1 1 1
v 0.6629832 0.01 0.3111698 1 1 1
v 0.428036 0.01 -0.09577057 1 1 1
v 0.2727922 0.01 -0.2727922 1 1 1
v 0.09577057 0.01 -0.428036 1 1 1
v -0.05 0.01 -0.6454482 1 1 1
v -0.3111698 0.01 -0.6629832 1 1 1
v -0.5082438 0.01 -0.835259 1 1 1
v -0.5341257 0.01 -0.7386665 1 1 1
v -0.7520002 0.01 -0.8837452 1 1 1
v -0.7650529 0.01 -0.7846007 1 1 1
v -0.9999999 0.01 -0.8999999 1 1 1
v -0.9999999 0.01 -0.8 1 1 1

vn 0 -1 0
vn 1 0 0
vn 0 0 -1
vn 0 1 0
vn -0.1305262 0 0.9914449
vn -0.06540313 0 0.9978589
vn -0.258819 0 0.9659258
vn -0.3826834 0 0.9238795
vn -0.5 0 0.8660254
vn -0.6087614 0 0.7933533
vn -0.7071068 0 0.7071068
vn -0.7933533 0 0.6087614
vn -0.8660254 0 0.5
vn -0.9238795 0 0.3826834
vn -0.9659258 0 0.258819
vn -0.9914449 0 0.1305262
vn -0.9978589 0 0.06540313
vn 0.9914449 0 -0.1305262
vn 0.9978589 0 -0.06540313
vn 0.9659258 0 -0.258819
vn 0.9238795 0 -0.3826834
vn 0.8660254 0 -0.5
vn 0.7933533 0 -0.6087614
vn 0.7071068 0 -0.7071068
vn 0.6087614 0 -0.7933533
vn 0.5 0 -0.8660254
vn 0.3826834 0 -0.9238795
vn 0.258819 0 -0.9659258
vn 0.1305262 0 -0.9914449
vn 0.06540313 0 -0.9978589
vn 0 0 1
vn -1 0 0

vt 0.96875 0.025
vt 0.96875 0.225
vt 0.96875 0.125
vt 0.21875 0.225
vt 0.21875 0.125
vt 0.21875 0.025
vt 0.15625 0.125
vt 0.28125 0.125
vt 0.03125 0.125

usemtl colormap

f 3/1/1 2/1/1 1/1/1
f 2/1/1 3/1/1 4/1/1
f 6/2/2 2/1/2 5/2/2
f 2/1/2 6/2/2 1/1/2
f 7/2/3 2/1/3 4/1/3
f 2/1/3 7/2/3 5/2/3
f 6/2/4 9/2/4 8/2/4
f 6/2/4 10/2/4 9/2/4
f 5/2/4 10/2/4 6/2/4
f 10/2/4 5/2/4 11/2/4
f 11/2/4 5/2/4 12/2/4
f 12/2/4 5/2/4 13/2/4
f 13/2/4 5/2/4 14/2/4
f 14/2/4 5/2/4 15/2/4
f 15/2/4 5/2/4 16/2/4
f 16/2/4 5/2/4 17/2/4
f 17/2/4 5/2/4 18/2/4
f 18/2/4 5/2/4 7/2/4
f 18/2/4 7/2/4 19/2/4
f 19/2/4 7/2/4 20/2/4
f 19/2/5 22/3/6 21/3/5
f 22/3/6 19/2/5 20/2/6
f 18/2/7 21/3/5 23/3/7
f 21/3/5 18/2/7 19/2/5
f 17/2/8 23/3/7 24/3/8
f 23/3/7 17/2/8 18/2/7
f 16/2/9 24/3/8 25/3/9
f 24/3/8 16/2/9 17/2/8
f 15/2/10 25/3/9 26/3/10
f 25/3/9 15/2/10 16/2/9
f 14/2/11 26/3/10 27/3/11
f 26/3/10 14/2/11 15/2/10
f 28/3/12 14/2/11 27/3/11
f 14/2/11 28/3/12 13/2/12
f 29/3/13 13/2/12 28/3/12
f 13/2/12 29/3/13 12/2/13
f 30/3/14 12/2/13 29/3/13
f 12/2/13 30/3/14 11/2/14
f 31/3/15 11/2/14 30/3/14
f 11/2/14 31/3/15 10/2/15
f 32/3/16 10/2/15 31/3/15
f 10/2/15 32/3/16 9/2/16
f 33/3/17 9/2/16 32/3/16
f 9/2/16 33/3/17 8/2/17
f 36/2/4 35/2/4 34/2/4
f 35/2/4 36/2/4 37/2/4
f 35/2/4 37/2/4 38/2/4
f 35/2/4 38/2/4 39/2/4
f 35/2/4 39/2/4 40/2/4
f 35/2/4 40/2/4 41/2/4
f 35/2/4 41/2/4 42/2/4
f 35/2/4 42/2/4 43/2/4
f 35/2/4 43/2/4 44/2/4
f 35/2/4 44/2/4 45/2/4
f 35/2/4 45/2/4 46/2/4
f 35/2/4 46/2/4 47/2/4
f 34/2/19 48/3/18 36/2/18
f 48/3/18 34/2/19 49/3/19
f 36/2/18 50/3/20 37/2/20
f 50/3/20 36/2/18 48/3/18
f 37/2/20 51/3/21 38/2/21
f 51/3/21 37/2/20 50/3/20
f 38/2/21 52/3/22 39/2/22
f 52/3/22 38/2/21 51/3/21
f 39/2/22 53/3/23 40/2/23
f 53/3/23 39/2/22 52/3/22
f 40/2/23 54/3/24 41/2/24
f 54/3/24 40/2/23 53/3/23
f 42/2/25 54/3/24 55/3/25
f 54/3/24 42/2/25 41/2/24
f 43/2/26 55/3/25 56/3/26
f 55/3/25 43/2/26 42/2/25
f 57/3/27 43/2/26 56/3/26
f 43/2/26 57/3/27 44/2/27
f 58/3/28 44/2/27 57/3/27
f 44/2/27 58/3/28 45/2/28
f 59/3/29 45/2/28 58/3/28
f 45/2/28 59/3/29 46/2/29
f 60/3/30 46/2/29 59/3/29
f 46/2/29 60/3/30 47/2/30
f 33/5/31 6/4/31 8/4/31
f 33/5/31 1/6/31 6/4/31
f 1/6/31 33/5/31 3/6/31
f 61/5/31 3/6/31 33/5/31
f 61/5/31 33/5/31 62/5/31
f 63/5/31 61/5/31 62/5/31
f 61/5/31 63/5/31 64/5/31
f 49/5/31 3/6/31 61/5/31
f 3/6/31 49/5/31 35/4/31
f 35/4/31 49/5/31 34/4/31
f 47/4/32 3/6/32 35/4/32
f 60/5/32 3/6/32 47/4/32
f 65/5/32 3/6/32 60/5/32
f 66/5/32 3/6/32 65/5/32
f 67/5/32 3/6/32 66/5/32
f 68/5/32 3/6/32 67/5/32
f 22/5/32 3/6/32 68/5/32
f 22/5/32 4/6/32 3/6/32
f 4/6/32 22/5/32 7/4/32
f 20/4/32 7/4/32 22/5/32
f 70/7/4 69/7/4 64/7/4
f 69/7/4 70/7/4 71/7/4
f 69/7/4 71/7/4 72/7/4
f 69/7/4 72/7/4 73/7/4
f 69/7/4 73/7/4 74/7/4
f 69/7/4 74/7/4 75/7/4
f 75/7/4 74/7/4 76/7/4
f 76/7/4 74/7/4 77/7/4
f 76/7/4 77/7/4 78/7/4
f 78/7/4 77/7/4 79/7/4
f 79/7/4 77/7/4 80/7/4
f 79/7/4 80/7/4 81/7/4
f 81/7/4 80/7/4 82/7/4
f 82/7/4 80/7/4 83/7/4
f 82/7/4 83/7/4 84/7/4
f 84/7/4 83/7/4 85/7/4
f 84/7/4 85/7/4 86/7/4
f 86/7/4 85/7/4 87/7/4
f 87/7/4 85/7/4 88/7/4
f 87/7/4 88/7/4 89/7/4
f 89/7/4 88/7/4 90/7/4
f 89/7/4 90/7/4 91/7/4
f 91/7/4 90/7/4 66/7/4
f 91/7/4 66/7/4 92/7/4
f 94/7/4 63/7/4 93/7/4
f 63/7/4 94/7/4 95/7/4
f 63/7/4 95/7/4 96/7/4
f 63/7/4 96/7/4 97/7/4
f 63/7/4 97/7/4 98/7/4
f 98/7/4 97/7/4 99/7/4
f 98/7/4 99/7/4 100/7/4
f 100/7/4 99/7/4 101/7/4
f 101/7/4 99/7/4 102/7/4
f 101/7/4 102/7/4 103/7/4
f 103/7/4 102/7/4 104/7/4
f 104/7/4 102/7/4 105/7/4
f 104/7/4 105/7/4 106/7/4
f 106/7/4 105/7/4 107/7/4
f 106/7/4 107/7/4 108/7/4
f 108/7/4 107/7/4 109/7/4
f 109/7/4 107/7/4 110/7/4
f 109/7/4 110/7/4 111/7/4
f 111/7/4 110/7/4 112/7/4
f 111/7/4 112/7/4 113/7/4
f 113/7/4 112/7/4 114/7/4
f 113/7/4 114/7/4 115/7/4
f 115/7/4 114/7/4 116/7/4
f 115/7/4 116/7/4 67/7/4
f 118/8/4 117/8/4 63/8/4
f 117/8/4 118/8/4 119/8/4
f 119/8/4 118/8/4 120/8/4
f 119/8/4 120/8/4 121/8/4
f 121/8/4 120/8/4 122/8/4
f 121/8/4 122/8/4 123/8/4
f 123/8/4 122/8/4 124/8/4
f 123/8/4 124/8/4 125/8/4
f 125/8/4 124/8/4 126/8/4
f 125/8/4 126/8/4 127/8/4
f 127/8/4 126/8/4 128/8/4
f 127/8/4 128/8/4 129/8/4
f 129/8/4 128/8/4 130/8/4
f 129/8/4 130/8/4 131/8/4
f 131/8/4 130/8/4 132/8/4
f 131/8/4 132/8/4 133/8/4
f 133/8/4 132/8/4 134/8/4
f 133/8/4 134/8/4 135/8/4
f 135/8/4 134/8/4 136/8/4
f 135/8/4 136/8/4 137/8/4
f 137/8/4 136/8/4 138/8/4
f 137/8/4 138/8/4 139/8/4
f 139/8/4 138/8/4 67/8/4
f 139/8/4 67/8/4 140/8/4
f 143/9/4 142/9/4 141/9/4
f 142/9/4 143/9/4 144/9/4
f 142/9/4 144/9/4 145/9/4
f 142/9/4 145/9/4 48/9/4
f 48/9/4 145/9/4 146/9/4
f 48/9/4 146/9/4 147/9/4
f 147/9/4 146/9/4 148/9/4
f 148/9/4 146/9/4 81/9/4
f 148/9/4 81/9/4 149/9/4
f 149/9/4 81/9/4 150/9/4
f 150/9/4 81/9/4 82/9/4
f 150/9/4 82/9/4 151/9/4
f 151/9/4 82/9/4 84/9/4
f 151/9/4 84/9/4 152/9/4
f 152/9/4 84/9/4 153/9/4
f 152/9/4 153/9/4 154/9/4
f 154/9/4 153/9/4 155/9/4
f 154/9/4 155/9/4 156/9/4
f 156/9/4 155/9/4 157/9/4
f 156/9/4 157/9/4 158/9/4
f 158/9/4 157/9/4 159/9/4
f 158/9/4 159/9/4 59/9/4
f 59/9/4 159/9/4 160/9/4
f 59/9/4 160/9/4 161/9/4
f 164/9/4 163/9/4 162/9/4
f 163/9/4 164/9/4 165/9/4
f 163/9/4 165/9/4 30/9/4
f 163/9/4 30/9/4 166/9/4
f 166/9/4 30/9/4 167/9/4
f 167/9/4 30/9/4 168/9/4
f 167/9/4 168/9/4 169/9/4
f 169/9/4 168/9/4 97/9/4
f 97/9/4 168/9/4 28/9/4
f 97/9/4 28/9/4 170/9/4
f 170/9/4 28/9/4 27/9/4
f 170/9/4 27/9/4 171/9/4
f 171/9/4 27/9/4 26/9/4
f 171/9/4 26/9/4 172/9/4
f 172/9/4 26/9/4 173/9/4
f 172/9/4 173/9/4 107/9/4
f 107/9/4 173/9/4 24/9/4
f 107/9/4 24/9/4 174/9/4
f 174/9/4 24/9/4 175/9/4
f 174/9/4 175/9/4 176/9/4
f 176/9/4 175/9/4 177/9/4
f 176/9/4 177/9/4 178/9/4
f 178/9/4 177/9/4 179/9/4
f 178/9/4 179/9/4 180/9/4

g road-curve-pavement




usemtl colormap

f 3/1/1 2/1/1 1/1/1
f 2/1/1 3/1/1 4/1/1
f 6/2/2 2/1/2 5/2/2
f 2/1/2 6/2/2 1/1/2
f 7/2/3 2/1/3 4/1/3
f 2/1/3 7/2/3 5/2/3
f 6/2/4 9/2/4 8/2/4
f 6/2/4 10/2/4 9/2/4
f 5/2/4 10/2/4 6/2/4
f 10/2/4 5/2/4 11/2/4
f 11/2/4 5/2/4 12/2/4
f 12/2/4 5/2/4 13/2/4
f 13/2/4 5/2/4 14/2/4
f 14/2/4 5/2/4 15/2/4
f 15/2/4 5/2/4 16/2/4
f 16/2/4 5/2/4 17/2/4
f 17/2/4 5/2/4 18/2/4
f 18/2/4 5/2/4 7/2/4
f 18/2/4 7/2/4 19/2/4
f 19/2/4 7/2/4 20/2/4
f 19/2/5 22/3/6 21/3/5
f 22/3/6 19/2/5 20/2/6
f 18/2/7 21/3/5 23/3/7
f 21/3/5 18/2/7 19/2/5
f 17/2/8 23/3/7 24/3/8
f 23/3/7 17/2/8 18/2/7
f 16/2/9 24/3/8 25/3/9
f 24/3/8 16/2/9 17/2/8
f 15/2/10 25/3/9 26/3/10
f 25/3/9 15/2/10 16/2/9
f 14/2/11 26/3/10 27/3/11
f 26/3/10 14/2/11 15/2/10
f 28/3/12 14/2/11 27/3/11
f 14/2/11 28/3/12 13/2/12
f 29/3/13 13/2/12 28/3/12
f 13/2/12 29/3/13 12/2/13
f 30/3/14 12/2/13 29/3/13
f 12/2/13 30/3/14 11/2/14
f 31/3/15 11/2/14 30/3/14
f 11/2/14 31/3/15 10/2/15
f 32/3/16 10/2/15 31/3/15
f 10/2/15 32/3/16 9/2/16
f 33/3/17 9/2/16 32/3/16
f 9/2/16 33/3/17 8/2/17
f 36/2/4 35/2/4 34/2/4
f 35/2/4 36/2/4 37/2/4
f 35/2/4 37/2/4 38/2/4
f 35/2/4 38/2/4 39/2/4
f 35/2/4 39/2/4 40/2/4
f 35/2/4 40/2/4 41/2/4
f 35/2/4 41/2/4 42/2/4
f 35/2/4 42/2/4 43/2/4
f 35/2/4 43/2/4 44/2/4
f 35/2/4 44/2/4 45/2/4
f 35/2/4 45/2/4 46/2/4
f 35/2/4 46/2/4 47/2/4
f 34/2/19 48/3/18 36/2/18
f 48/3/18 34/2/19 49/3/19
f 36/2/18 50/3/20 37/2/20
f 50/3/20 36/2/18 48/3/18
f 37/2/20 51/3/21 38/2/21
f 51/3/21 37/2/20 50/3/20
f 38/2/21 52/3/22 39/2/22
f 52/3/22 38/2/21 51/3/21
f 39/2/22 53/3/23 40/2/23
f 53/3/23 39/2/22 52/3/22
f 40/2/23 54/3/24 41/2/24
f 54/3/24 40/2/23 53/3/23
f 42/2/25 54/3/24 55/3/25
f 54/3/24 42/2/25 41/2/24
f 43/2/26 55/3/25 56/3/26
f 55/3/25 43/2/26 42/2/25
f 57/3/27 43/2/26 56/3/26
f 43/2/26 57/3/27 44/2/27
f 58/3/28 44/2/27 57/3/27
f 44/2/27 58/3/28 45/2/28
f 59/3/29 45/2/28 58/3/28
f 45/2/28 59/3/29 46/2/29
f 60/3/30 46/2/29 59/3/29
f 46/2/29 60/3/30 47/2/30
f 33/5/31 6/4/31 8/4/31
f 33/5/31 1/6/31 6/4/31
f 1/6/31 33/5/31 3/6/31
f 61/5/31 3/6/31 33/5/31
f 61/5/31 33/5/31 62/5/31
f 63/5/31 61/5/31 62/5/31
f 61/5/31 63/5/31 64/5/31
f 49/5/31 3/6/31 61/5/31
f 3/6/31 49/5/31 35/4/31
f 35/4/31 49/5/31 34/4/31
f 47/4/32 3/6/32 35/4/32
f 60/5/32 3/6/32 47/4/32
f 65/5/32 3/6/32 60/5/32
f 66/5/32 3/6/32 65/5/32
f 67/5/32 3/6/32 66/5/32
f 68/5/32 3/6/32 67/5/32
f 22/5/32 3/6/32 68/5/32
f 22/5/32 4/6/32 3/6/32
f 4/6/32 22/5/32 7/4/32
f 20/4/32 7/4/32 22/5/32
f 70/7/4 69/7/4 64/7/4
f 69/7/4 70/7/4 71/7/4
f 69/7/4 71/7/4 72/7/4
f 69/7/4 72/7/4 73/7/4
f 69/7/4 73/7/4 74/7/4
f 69/7/4 74/7/4 75/7/4
f 75/7/4 74/7/4 76/7/4
f 76/7/4 74/7/4 77/7/4
f 76/7/4 77/7/4 78/7/4
f 78/7/4 77/7/4 79/7/4
f 79/7/4 77/7/4 80/7/4
f 79/7/4 80/7/4 81/7/4
f 81/7/4 80/7/4 82/7/4
f 82/7/4 80/7/4 83/7/4
f 82/7/4 83/7/4 84/7/4
f 84/7/4 83/7/4 85/7/4
f 84/7/4 85/7/4 86/7/4
f 86/7/4 85/7/4 87/7/4
f 87/7/4 85/7/4 88/7/4
f 87/7/4 88/7/4 89/7/4
f 89/7/4 88/7/4 90/7/4
f 89/7/4 90/7/4 91/7/4
f 91/7/4 90/7/4 66/7/4
f 91/7/4 66/7/4 92/7/4
f 94/7/4 63/7/4 93/7/4
f 63/7/4 94/7/4 95/7/4
f 63/7/4 95/7/4 96/7/4
f 63/7/4 96/7/4 97/7/4
f 63/7/4 97/7/4 98/7/4
f 98/7/4 97/7/4 99/7/4
f 98/7/4 99/7/4 100/7/4
f 100/7/4 99/7/4 101/7/4
f 101/7/4 99/7/4 102/7/4
f 101/7/4 102/7/4 103/7/4
f 103/7/4 102/7/4 104/7/4
f 104/7/4 102/7/4 105/7/4
f 104/7/4 105/7/4 106/7/4
f 106/7/4 105/7/4 107/7/4
f 106/7/4 107/7/4 108/7/4
f 108/7/4 107/7/4 109/7/4
f 109/7/4 107/7/4 110/7/4
f 109/7/4 110/7/4 111/7/4
f 111/7/4 110/7/4 112/7/4
f 111/7/4 112/7/4 113/7/4
f 113/7/4 112/7/4 114/7/4
f 113/7/4 114/7/4 115/7/4
f 115/7/4 114/7/4 116/7/4
f 115/7/4 116/7/4 67/7/4
f 118/8/4 117/8/4 63/8/4
f 117/8/4 118/8/4 119/8/4
f 119/8/4 118/8/4 120/8/4
f 119/8/4 120/8/4 121/8/4
f 121/8/4 120/8/4 122/8/4
f 121/8/4 122/8/4 123/8/4
f 123/8/4 122/8/4 124/8/4
f 123/8/4 124/8/4 125/8/4
f 125/8/4 124/8/4 126/8/4
f 125/8/4 126/8/4 127/8/4
f 127/8/4 126/8/4 128/8/4
f 127/8/4 128/8/4 129/8/4
f 129/8/4 128/8/4 130/8/4
f 129/8/4 130/8/4 131/8/4
f 131/8/4 130/8/4 132/8/4
f 131/8/4 132/8/4 133/8/4
f 133/8/4 132/8/4 134/8/4
f 133/8/4 134/8/4 135/8/4
f 135/8/4 134/8/4 136/8/4
f 135/8/4 136/8/4 137/8/4
f 137/8/4 136/8/4 138/8/4
f 137/8/4 138/8/4 139/8/4
f 139/8/4 138/8/4 67/8/4
f 139/8/4 67/8/4 140/8/4
f 143/9/4 142/9/4 141/9/4
f 142/9/4 143/9/4 144/9/4
f 142/9/4 144/9/4 145/9/4
f 142/9/4 145/9/4 48/9/4
f 48/9/4 145/9/4 146/9/4
f 48/9/4 146/9/4 147/9/4
f 147/9/4 146/9/4 148/9/4
f 148/9/4 146/9/4 81/9/4
f 148/9/4 81/9/4 149/9/4
f 149/9/4 81/9/4 150/9/4
f 150/9/4 81/9/4 82/9/4
f 150/9/4 82/9/4 151/9/4
f 151/9/4 82/9/4 84/9/4
f 151/9/4 84/9/4 152/9/4
f 152/9/4 84/9/4 153/9/4
f 152/9/4 153/9/4 154/9/4
f 154/9/4 153/9/4 155/9/4
f 154/9/4 155/9/4 156/9/4
f 156/9/4 155/9/4 157/9/4
f 156/9/4 157/9/4 158/9/4
f 158/9/4 157/9/4 159/9/4
f 158/9/4 159/9/4 59/9/4
f 59/9/4 159/9/4 160/9/4
f 59/9/4 160/9/4 161/9/4
f 164/9/4 163/9/4 162/9/4
f 163/9/4 164/9/4 165/9/4
f 163/9/4 165/9/4 30/9/4
f 163/9/4 30/9/4 166/9/4
f 166/9/4 30/9/4 167/9/4
f 167/9/4 30/9/4 168/9/4
f 167/9/4 168/9/4 169/9/4
f 169/9/4 168/9/4 97/9/4
f 97/9/4 168/9/4 28/9/4
f 97/9/4 28/9/4 170/9/4
f 170/9/4 28/9/4 27/9/4
f 170/9/4 27/9/4 171/9/4
f 171/9/4 27/9/4 26/9/4
f 171/9/4 26/9/4 172/9/4
f 172/9/4 26/9/4 173/9/4
f 172/9/4 173/9/4 107/9/4
f 107/9/4 173/9/4 24/9/4
f 107/9/4 24/9/4 174/9/4
f 174/9/4 24/9/4 175/9/4
f 174/9/4 175/9/4 176/9/4
f 176/9/4 175/9/4 177/9/4
f 176/9/4 177/9/4 178/9/4
f 178/9/4 177/9/4 179/9/4
f 178/9/4 179/9/4 180/9/4

