# Created by Kenney (www.kenney.nl)

mtllib road-curve-barrier.mtl

g road-curve-barrier

v -0.005096399 0.08 0.7334164 1 1 1
v 0.0410171 5.89373E-16 0.8629475 1 1 1
v 0.02118821 0.08 0.865558 1 1 1
v 0.01422212 5.442535E-16 0.72824 1 1 1
v -0.475 3.186562E-16 0.09067332 1 1 1
v -0.485 0.08 0.1079938 1 1 1
v -0.6058361 0.08 0.04840408 1 1 1
v -0.5981824 3.186562E-16 0.02992649 1 1 1
v -0.3608005 3.186562E-16 0.166979 1 1 1
v -0.2575379 3.186562E-16 0.2575379 1 1 1
v -0.3729757 0.08 0.1828461 1 1 1
v -0.27168 0.08 0.27168 1 1 1
v 0.5867067 0.08 -0.2175229 1 1 1
v 0.5867067 1.353584E-16 -0.2175229 1 1 1
v 0.7320508 0.08 -9.493135E-14 1 1 1
v 0.7320508 9.023893E-17 -9.493135E-14 1 1 1
v -0.3912386 9.052092E-16 0.2066467 1 1 1
v -0.5 9.503287E-16 0.1339746 1 1 1
v -0.3912386 0.08 0.2066467 1 1 1
v -0.5 0.08 0.1339746 1 1 1
v -0.166979 3.637757E-16 0.3608005 1 1 1
v -0.1828461 0.08 0.3729757 1 1 1
v -0.2928932 8.600897E-16 0.2928932 1 1 1
v -0.2928932 0.08 0.2928932 1 1 1
v 0.05 6.796119E-16 1 1 1 1
v 0.03 0.08 1 1 1 1
v -0.04840408 0.08 0.6058361 1 1 1
v -0.02992649 4.540146E-16 0.5981824 1 1 1
v -1 4.088951E-16 -0.05 1 1 1
v -0.8629475 3.637757E-16 -0.0410171 1 1 1
v -1 0.08 -0.03 1 1 1
v -0.865558 0.08 -0.02118821 1 1 1
v 7.666699E-13 0.08 1 1 1 1
v -0.008555138 0.08 0.8694738 1 1 1
v -0.03407417 0.08 0.741181 1 1 1
v -0.07612047 0.08 0.6173166 1 1 1
v -0.1079938 0.08 0.485 1 1 1
v -0.1339746 0.08 0.5 1 1 1
v -0.2066467 0.08 0.3912386 1 1 1
v -0.6173166 0.08 0.07612047 1 1 1
v -0.7334164 0.08 0.005096399 1 1 1
v -0.741181 0.08 0.03407417 1 1 1
v -0.8694738 0.08 0.008555138 1 1 1
v -1 0.08 4.078799E-14 1 1 1
v -0.07612047 7.698508E-16 0.6173166 1 1 1
v -0.03407417 7.698508E-16 0.741181 1 1 1
v -0.8694738 1.085687E-15 0.008555138 1 1 1
v -1 1.130807E-15 4.078799E-14 1 1 1
v -0.741181 1.040568E-15 0.03407417 1 1 1
v 1 7.670309E-16 1 1 1 1
v 0.9828897 0 0.7389476 1 1 1
v 0.9499999 4.511946E-17 1 1 1 1
v 0.9318516 0 0.4823619 1 1 1
v 0.9333174 4.511946E-17 0.7454739 1 1 1
v 0.8835554 4.511946E-17 0.4953029 1 1 1
v 0.8477591 4.511946E-17 0.2346331 1 1 1
v 0.8015651 9.023893E-17 0.2537673 1 1 1
v 0.6887495 1.353584E-16 0.025 1 1 1
v 0.547039 1.804779E-16 -0.1870848 1 1 1
v 0.4142136 2.255973E-16 -0.4142136 1 1 1
v 0.3788582 2.255973E-16 -0.3788582 1 1 1
v 0.2175229 3.158362E-16 -0.5867067 1 1 1
v 0.1870848 3.158362E-16 -0.547039 1 1 1
v 2.093543E-14 4.060752E-16 -0.7320508 1 1 1
v -0.025 4.060752E-16 -0.6887495 1 1 1
v -0.2346331 4.963141E-16 -0.8477591 1 1 1
v -0.2537673 4.963141E-16 -0.8015651 1 1 1
v -0.4823619 5.86553E-16 -0.9318516 1 1 1
v -0.4953029 5.86553E-16 -0.8835554 1 1 1
v -0.7389476 6.767919E-16 -0.9828897 1 1 1
v -0.7454739 6.767919E-16 -0.9333174 1 1 1
v -1 7.670309E-16 -1 1 1 1
v -1 7.670309E-16 -0.9499999 1 1 1
v -0.72824 3.186562E-16 -0.01422212 1 1 1
v -0.2346331 0.08 -0.8477591 1 1 1
v -0.4823619 0.08 -0.9318516 1 1 1
v 0.9318516 0.08 0.4823619 1 1 1
v 0.9828897 0.08 0.7389476 1 1 1
v -0.2066467 8.149703E-16 0.3912386 1 1 1
v -0.1339746 7.698508E-16 0.5 1 1 1
v 0.4142136 0.08 -0.4142136 1 1 1
v -0.4901265 0.08 -0.9028739 1 1 1
v -0.7428634 0.08 -0.9531463 1 1 1
v -1 0.08 -0.97 1 1 1
v -0.09067332 4.088951E-16 0.475 1 1 1
v 0.8477591 0.08 0.2346331 1 1 1
v 0.2175229 0.08 -0.5867067 1 1 1
v -0.015 0.08 -0.70607 1 1 1
v -0.2461136 0.08 -0.8200427 1 1 1
v -0.008555138 7.698508E-16 0.8694738 1 1 1
v -0.6173166 9.954482E-16 0.07612047 1 1 1
v 7.666699E-13 7.698508E-16 1 1 1 1
v 0.3930004 0.08 -0.3930004 1 1 1
v 0.19926 0.08 -0.5629061 1 1 1
v 0.5629061 0.08 -0.19926 1 1 1
v -0.7389476 0.08 -0.9828897 1 1 1
v -1 0.08 -1 1 1 1
v 0.8200427 0.08 0.2461136 1 1 1
v 0.9028739 0.08 0.4901265 1 1 1
v 1 0.08 1 1 1 1
v 2.093543E-14 0.08 -0.7320508 1 1 1
v 0.70607 0.08 0.015 1 1 1
v 0.9531463 0.08 0.7428634 1 1 1
v 0.97 0.08 1 1 1 1

vn 0.9370857 0.2425356 -0.2510914
vn 0.9618428 0.2425356 -0.126629
vn 0.4850713 0.2425356 -0.8401681
vn 0.3712575 0.2425356 -0.8962947
vn 0.5905854 0.2425357 -0.7696658
vn 0.6859944 0.2425356 -0.6859944
vn 0.7933533 0 -0.6087614
vn 0.8660254 0 -0.5
vn -0.6087614 0 0.7933533
vn -0.5 0 0.8660254
vn 0.7696658 0.2425357 -0.5905854
vn -0.7071068 0 0.7071068
vn 0.9681872 0.2420468 -0.06345834
vn 0.8962947 0.2425356 -0.3712575
vn 0.06345834 0.2420468 -0.9681872
vn 0.126629 0.2425356 -0.9618428
vn 0 1 0
vn -0.9238795 0 0.3826834
vn -0.9659258 0 0.258819
vn -0.1305262 0 0.9914449
vn -0.06540313 0 0.9978589
vn -0.258819 0 0.9659258
vn 0 -1 0
vn 0.2510914 0.2425356 -0.9370857
vn 0.3826834 0 -0.9238795
vn 0.258819 0 -0.9659258
vn 0.9659258 0 -0.258819
vn 0.9914449 0 -0.1305262
vn -0.7933533 0 0.6087614
vn -0.8660254 0 0.5
vn 0.7071068 0 -0.7071068
vn -0.2510914 0.2425356 0.9370857
vn -0.126629 0.2425356 0.9618428
vn -0.06345834 0.2420468 0.9681872
vn 0.8401681 0.2425356 -0.4850713
vn 0.9238795 0 -0.3826834
vn 0.6087614 0 -0.7933533
vn -0.4850713 0.2425356 0.8401681
vn -0.3712575 0.2425356 0.8962947
vn -0.9914449 0 0.1305262
vn -0.3826834 0 0.9238795
vn -1 0 0
vn -0.9978589 0 0.06540313
vn -0.6859944 0.2425356 0.6859944
vn -0.5905854 0.2425357 0.7696658
vn -0.7696658 0.2425357 0.5905854
vn 0.1305262 0 -0.9914449
vn 0.06540313 0 -0.9978589
vn -0.8962947 0.2425356 0.3712575
vn -0.9370857 0.2425356 0.2510914
vn 0 0 1
vn 0.9978589 0 -0.06540313
vn 0.5 0 -0.8660254
vn -0.8401681 0.2425356 0.4850713
vn -0.9618428 0.2425356 0.126629
vn -0.9681872 0.2420468 0.06345834

vt 0.90625 0.125

usemtl colormap

f 3/1/2 2/1/2 1/1/1
f 2/1/2 4/1/1 1/1/1
f 7/1/4 6/1/3 5/1/3
f 7/1/4 5/1/3 8/1/4
f 11/1/5 10/1/6 9/1/5
f 11/1/5 12/1/6 10/1/6
f 15/1/8 14/1/7 13/1/7
f 14/1/7 15/1/8 16/1/8
f 19/1/9 18/1/10 17/1/9
f 18/1/10 19/1/9 20/1/10
f 21/1/11 10/1/6 12/1/6
f 22/1/11 21/1/11 12/1/6
f 24/1/12 17/1/9 23/1/12
f 17/1/9 24/1/12 19/1/9
f 25/1/13 2/1/2 3/1/2
f 26/1/13 25/1/13 3/1/2
f 1/1/1 4/1/1 27/1/14
f 4/1/1 28/1/14 27/1/14
f 31/1/15 30/1/16 29/1/15
f 31/1/15 32/1/16 30/1/16
f 3/1/17 33/1/17 26/1/17
f 33/1/17 3/1/17 1/1/17
f 33/1/17 1/1/17 34/1/17
f 34/1/17 1/1/17 27/1/17
f 34/1/17 27/1/17 35/1/17
f 35/1/17 27/1/17 36/1/17
f 36/1/17 27/1/17 37/1/17
f 36/1/17 37/1/17 38/1/17
f 38/1/17 37/1/17 22/1/17
f 38/1/17 22/1/17 39/1/17
f 39/1/17 22/1/17 12/1/17
f 39/1/17 12/1/17 24/1/17
f 24/1/17 12/1/17 11/1/17
f 24/1/17 11/1/17 19/1/17
f 19/1/17 11/1/17 6/1/17
f 19/1/17 6/1/17 20/1/17
f 20/1/17 6/1/17 7/1/17
f 20/1/17 7/1/17 40/1/17
f 40/1/17 7/1/17 41/1/17
f 40/1/17 41/1/17 42/1/17
f 42/1/17 41/1/17 32/1/17
f 42/1/17 32/1/17 43/1/17
f 43/1/17 32/1/17 31/1/17
f 43/1/17 31/1/17 44/1/17
f 46/1/19 36/1/18 45/1/18
f 36/1/18 46/1/19 35/1/19
f 43/1/20 48/1/21 47/1/20
f 48/1/21 43/1/20 44/1/21
f 42/1/22 47/1/20 49/1/22
f 47/1/20 42/1/22 43/1/20
f 52/1/23 51/1/23 50/1/23
f 51/1/23 52/1/23 53/1/23
f 53/1/23 52/1/23 54/1/23
f 53/1/23 54/1/23 55/1/23
f 53/1/23 55/1/23 56/1/23
f 56/1/23 55/1/23 57/1/23
f 56/1/23 57/1/23 16/1/23
f 16/1/23 57/1/23 58/1/23
f 16/1/23 58/1/23 14/1/23
f 14/1/23 58/1/23 59/1/23
f 14/1/23 59/1/23 60/1/23
f 60/1/23 59/1/23 61/1/23
f 60/1/23 61/1/23 62/1/23
f 62/1/23 61/1/23 63/1/23
f 62/1/23 63/1/23 64/1/23
f 64/1/23 63/1/23 65/1/23
f 64/1/23 65/1/23 66/1/23
f 66/1/23 65/1/23 67/1/23
f 66/1/23 67/1/23 68/1/23
f 68/1/23 67/1/23 69/1/23
f 68/1/23 69/1/23 70/1/23
f 70/1/23 69/1/23 71/1/23
f 70/1/23 71/1/23 72/1/23
f 72/1/23 71/1/23 73/1/23
f 41/1/24 7/1/4 8/1/4
f 41/1/24 8/1/4 74/1/24
f 68/1/26 75/1/25 66/1/25
f 75/1/25 68/1/26 76/1/26
f 78/1/28 53/1/27 77/1/27
f 53/1/27 78/1/28 51/1/28
f 80/1/30 39/1/29 79/1/29
f 39/1/29 80/1/30 38/1/30
f 13/1/7 60/1/31 81/1/31
f 60/1/31 13/1/7 14/1/7
f 83/1/33 71/1/33 82/1/32
f 82/1/32 71/1/33 69/1/32
f 83/1/33 73/1/34 71/1/33
f 84/1/34 73/1/34 83/1/33
f 37/1/35 85/1/35 22/1/11
f 85/1/35 21/1/11 22/1/11
f 6/1/3 11/1/5 9/1/5
f 6/1/3 9/1/5 5/1/3
f 77/1/27 56/1/36 86/1/36
f 56/1/36 77/1/27 53/1/27
f 62/1/37 81/1/31 60/1/31
f 81/1/31 62/1/37 87/1/37
f 88/1/38 67/1/39 65/1/38
f 89/1/39 67/1/39 88/1/38
f 79/1/29 24/1/12 23/1/12
f 24/1/12 79/1/29 39/1/29
f 90/1/40 35/1/19 46/1/19
f 35/1/19 90/1/40 34/1/40
f 20/1/10 91/1/41 18/1/10
f 91/1/41 20/1/10 40/1/41
f 48/1/42 31/1/42 29/1/42
f 31/1/42 48/1/42 44/1/42
f 92/1/43 34/1/40 90/1/40
f 34/1/40 92/1/43 33/1/43
f 82/1/32 69/1/32 89/1/39
f 89/1/39 69/1/32 67/1/39
f 93/1/44 63/1/45 61/1/44
f 94/1/45 63/1/45 93/1/44
f 59/1/46 95/1/46 61/1/44
f 95/1/46 93/1/44 61/1/44
f 72/1/48 96/1/47 70/1/47
f 96/1/47 72/1/48 97/1/48
f 28/1/14 85/1/35 37/1/35
f 27/1/14 28/1/14 37/1/35
f 99/1/50 98/1/49 57/1/49
f 55/1/50 99/1/50 57/1/49
f 40/1/41 49/1/22 91/1/41
f 49/1/22 40/1/41 42/1/22
f 32/1/16 41/1/24 74/1/24
f 32/1/16 74/1/24 30/1/16
f 26/1/51 92/1/51 25/1/51
f 92/1/51 26/1/51 33/1/51
f 86/1/36 16/1/8 15/1/8
f 16/1/8 86/1/36 56/1/36
f 45/1/18 38/1/30 80/1/30
f 38/1/30 45/1/18 36/1/18
f 92/1/23 2/1/23 25/1/23
f 2/1/23 92/1/23 4/1/23
f 4/1/23 92/1/23 90/1/23
f 4/1/23 90/1/23 28/1/23
f 28/1/23 90/1/23 46/1/23
f 28/1/23 46/1/23 85/1/23
f 85/1/23 46/1/23 45/1/23
f 85/1/23 45/1/23 80/1/23
f 85/1/23 80/1/23 21/1/23
f 21/1/23 80/1/23 79/1/23
f 21/1/23 79/1/23 10/1/23
f 10/1/23 79/1/23 23/1/23
f 10/1/23 23/1/23 9/1/23
f 9/1/23 23/1/23 17/1/23
f 9/1/23 17/1/23 5/1/23
f 5/1/23 17/1/23 18/1/23
f 5/1/23 18/1/23 8/1/23
f 8/1/23 18/1/23 91/1/23
f 8/1/23 91/1/23 74/1/23
f 74/1/23 91/1/23 49/1/23
f 74/1/23 49/1/23 30/1/23
f 30/1/23 49/1/23 47/1/23
f 30/1/23 47/1/23 29/1/23
f 29/1/23 47/1/23 48/1/23
f 100/1/52 51/1/28 78/1/28
f 51/1/28 100/1/52 50/1/52
f 66/1/25 101/1/53 64/1/53
f 101/1/53 66/1/25 75/1/25
f 58/1/54 102/1/54 59/1/46
f 102/1/54 95/1/46 59/1/46
f 103/1/55 99/1/50 55/1/50
f 54/1/55 103/1/55 55/1/50
f 64/1/53 87/1/37 62/1/37
f 87/1/37 64/1/53 101/1/53
f 70/1/47 76/1/26 68/1/26
f 76/1/26 70/1/47 96/1/47
f 94/1/45 65/1/38 63/1/45
f 88/1/38 65/1/38 94/1/45
f 57/1/49 98/1/49 58/1/54
f 98/1/49 102/1/54 58/1/54
f 73/1/42 97/1/42 72/1/42
f 97/1/42 73/1/42 84/1/42
f 50/1/51 104/1/51 52/1/51
f 104/1/51 50/1/51 100/1/51
f 78/1/17 104/1/17 100/1/17
f 104/1/17 78/1/17 103/1/17
f 103/1/17 78/1/17 77/1/17
f 103/1/17 77/1/17 99/1/17
f 99/1/17 77/1/17 86/1/17
f 99/1/17 86/1/17 98/1/17
f 98/1/17 86/1/17 15/1/17
f 98/1/17 15/1/17 102/1/17
f 102/1/17 15/1/17 13/1/17
f 102/1/17 13/1/17 95/1/17
f 95/1/17 13/1/17 81/1/17
f 95/1/17 81/1/17 93/1/17
f 93/1/17 81/1/17 87/1/17
f 93/1/17 87/1/17 94/1/17
f 94/1/17 87/1/17 101/1/17
f 94/1/17 101/1/17 88/1/17
f 88/1/17 101/1/17 75/1/17
f 88/1/17 75/1/17 89/1/17
f 89/1/17 75/1/17 76/1/17
f 89/1/17 76/1/17 82/1/17
f 82/1/17 76/1/17 96/1/17
f 82/1/17 96/1/17 83/1/17
f 83/1/17 96/1/17 97/1/17
f 83/1/17 97/1/17 84/1/17
f 104/1/56 54/1/55 52/1/56
f 104/1/56 103/1/55 54/1/55

g road-curve-barrier




usemtl colormap

f 3/1/2 2/1/2 1/1/1
f 2/1/2 4/1/1 1/1/1
f 7/1/4 6/1/3 5/1/3
f 7/1/4 5/1/3 8/1/4
f 11/1/5 10/1/6 9/1/5
f 11/1/5 12/1/6 10/1/6
f 15/1/8 14/1/7 13/1/7
f 14/1/7 15/1/8 16/1/8
f 19/1/9 18/1/10 17/1/9
f 18/1/10 19/1/9 20/1/10
f 21/1/11 10/1/6 12/1/6
f 22/1/11 21/1/11 12/1/6
f 24/1/12 17/1/9 23/1/12
f 17/1/9 24/1/12 19/1/9
f 25/1/13 2/1/2 3/1/2
f 26/1/13 25/1/13 3/1/2
f 1/1/1 4/1/1 27/1/14
f 4/1/1 28/1/14 27/1/14
f 31/1/15 30/1/16 29/1/15
f 31/1/15 32/1/16 30/1/16
f 3/1/17 33/1/17 26/1/17
f 33/1/17 3/1/17 1/1/17
f 33/1/17 1/1/17 34/1/17
f 34/1/17 1/1/17 27/1/17
f 34/1/17 27/1/17 35/1/17
f 35/1/17 27/1/17 36/1/17
f 36/1/17 27/1/17 37/1/17
f 36/1/17 37/1/17 38/1/17
f 38/1/17 37/1/17 22/1/17
f 38/1/17 22/1/17 39/1/17
f 39/1/17 22/1/17 12/1/17
f 39/1/17 12/1/17 24/1/17
f 24/1/17 12/1/17 11/1/17
f 24/1/17 11/1/17 19/1/17
f 19/1/17 11/1/17 6/1/17
f 19/1/17 6/1/17 20/1/17
f 20/1/17 6/1/17 7/1/17
f 20/1/17 7/1/17 40/1/17
f 40/1/17 7/1/17 41/1/17
f 40/1/17 41/1/17 42/1/17
f 42/1/17 41/1/17 32/1/17
f 42/1/17 32/1/17 43/1/17
f 43/1/17 32/1/17 31/1/17
f 43/1/17 31/1/17 44/1/17
f 46/1/19 36/1/18 45/1/18
f 36/1/18 46/1/19 35/1/19
f 43/1/20 48/1/21 47/1/20
f 48/1/21 43/1/20 44/1/21
f 42/1/22 47/1/20 49/1/22
f 47/1/20 42/1/22 43/1/20
f 52/1/23 51/1/23 50/1/23
f 51/1/23 52/1/23 53/1/23
f 53/1/23 52/1/23 54/1/23
f 53/1/23 54/1/23 55/1/23
f 53/1/23 55/1/23 56/1/23
f 56/1/23 55/1/23 57/1/23
f 56/1/23 57/1/23 16/1/23
f 16/1/23 57/1/23 58/1/23
f 16/1/23 58/1/23 14/1/23
f 14/1/23 58/1/23 59/1/23
f 14/1/23 59/1/23 60/1/23
f 60/1/23 59/1/23 61/1/23
f 60/1/23 61/1/23 62/1/23
f 62/1/23 61/1/23 63/1/23
f 62/1/23 63/1/23 64/1/23
f 64/1/23 63/1/23 65/1/23
f 64/1/23 65/1/23 66/1/23
f 66/1/23 65/1/23 67/1/23
f 66/1/23 67/1/23 68/1/23
f 68/1/23 67/1/23 69/1/23
f 68/1/23 69/1/23 70/1/23
f 70/1/23 69/1/23 71/1/23
f 70/1/23 71/1/23 72/1/23
f 72/1/23 71/1/23 73/1/23
f 41/1/24 7/1/4 8/1/4
f 41/1/24 8/1/4 74/1/24
f 68/1/26 75/1/25 66/1/25
f 75/1/25 68/1/26 76/1/26
f 78/1/28 53/1/27 77/1/27
f 53/1/27 78/1/28 51/1/28
f 80/1/30 39/1/29 79/1/29
f 39/1/29 80/1/30 38/1/30
f 13/1/7 60/1/31 81/1/31
f 60/1/31 13/1/7 14/1/7
f 83/1/33 71/1/33 82/1/32
f 82/1/32 71/1/33 69/1/32
f 83/1/33 73/1/34 71/1/33
f 84/1/34 73/1/34 83/1/33
f 37/1/35 85/1/35 22/1/11
f 85/1/35 21/1/11 22/1/11
f 6/1/3 11/1/5 9/1/5
f 6/1/3 9/1/5 5/1/3
f 77/1/27 56/1/36 86/1/36
f 56/1/36 77/1/27 53/1/27
f 62/1/37 81/1/31 60/1/31
f 81/1/31 62/1/37 87/1/37
f 88/1/38 67/1/39 65/1/38
f 89/1/39 67/1/39 88/1/38
f 79/1/29 24/1/12 23/1/12
f 24/1/12 79/1/29 39/1/29
f 90/1/40 35/1/19 46/1/19
f 35/1/19 90/1/40 34/1/40
f 20/1/10 91/1/41 18/1/10
f 91/1/41 20/1/10 40/1/41
f 48/1/42 31/1/42 29/1/42
f 31/1/42 48/1/42 44/1/42
f 92/1/43 34/1/40 90/1/40
f 34/1/40 92/1/43 33/1/43
f 82/1/32 69/1/32 89/1/39
f 89/1/39 69/1/32 67/1/39
f 93/1/44 63/1/45 61/1/44
f 94/1/45 63/1/45 93/1/44
f 59/1/46 95/1/46 61/1/44
f 95/1/46 93/1/44 61/1/44
f 72/1/48 96/1/47 70/1/47
f 96/1/47 72/1/48 97/1/48
f 28/1/14 85/1/35 37/1/35
f 27/1/14 28/1/14 37/1/35
f 99/1/50 98/1/49 57/1/49
f 55/1/50 99/1/50 57/1/49
f 40/1/41 49/1/22 91/1/41
f 49/1/22 40/1/41 42/1/22
f 32/1/16 41/1/24 74/1/24
f 32/1/16 74/1/24 30/1/16
f 26/1/51 92/1/51 25/1/51
f 92/1/51 26/1/51 33/1/51
f 86/1/36 16/1/8 15/1/8
f 16/1/8 86/1/36 56/1/36
f 45/1/18 38/1/30 80/1/30
f 38/1/30 45/1/18 36/1/18
f 92/1/23 2/1/23 25/1/23
f 2/1/23 92/1/23 4/1/23
f 4/1/23 92/1/23 90/1/23
f 4/1/23 90/1/23 28/1/23
f 28/1/23 90/1/23 46/1/23
f 28/1/23 46/1/23 85/1/23
f 85/1/23 46/1/23 45/1/23
f 85/1/23 45/1/23 80/1/23
f 85/1/23 80/1/23 21/1/23
f 21/1/23 80/1/23 79/1/23
f 21/1/23 79/1/23 10/1/23
f 10/1/23 79/1/23 23/1/23
f 10/1/23 23/1/23 9/1/23
f 9/1/23 23/1/23 17/1/23
f 9/1/23 17/1/23 5/1/23
f 5/1/23 17/1/23 18/1/23
f 5/1/23 18/1/23 8/1/23
f 8/1/23 18/1/23 91/1/23
f 8/1/23 91/1/23 74/1/23
f 74/1/23 91/1/23 49/1/23
f 74/1/23 49/1/23 30/1/23
f 30/1/23 49/1/23 47/1/23
f 30/1/23 47/1/23 29/1/23
f 29/1/23 47/1/23 48/1/23
f 100/1/52 51/1/28 78/1/28
f 51/1/28 100/1/52 50/1/52
f 66/1/25 101/1/53 64/1/53
f 101/1/53 66/1/25 75/1/25
f 58/1/54 102/1/54 59/1/46
f 102/1/54 95/1/46 59/1/46
f 103/1/55 99/1/50 55/1/50
f 54/1/55 103/1/55 55/1/50
f 64/1/53 87/1/37 62/1/37
f 87/1/37 64/1/53 101/1/53
f 70/1/47 76/1/26 68/1/26
f 76/1/26 70/1/47 96/1/47
f 94/1/45 65/1/38 63/1/45
f 88/1/38 65/1/38 94/1/45
f 57/1/49 98/1/49 58/1/54
f 98/1/49 102/1/54 58/1/54
f 73/1/42 97/1/42 72/1/42
f 97/1/42 73/1/42 84/1/42
f 50/1/51 104/1/51 52/1/51
f 104/1/51 50/1/51 100/1/51
f 78/1/17 104/1/17 100/1/17
f 104/1/17 78/1/17 103/1/17
f 103/1/17 78/1/17 77/1/17
f 103/1/17 77/1/17 99/1/17
f 99/1/17 77/1/17 86/1/17
f 99/1/17 86/1/17 98/1/17
f 98/1/17 86/1/17 15/1/17
f 98/1/17 15/1/17 102/1/17
f 102/1/17 15/1/17 13/1/17
f 102/1/17 13/1/17 95/1/17
f 95/1/17 13/1/17 81/1/17
f 95/1/17 81/1/17 93/1/17
f 93/1/17 81/1/17 87/1/17
f 93/1/17 87/1/17 94/1/17
f 94/1/17 87/1/17 101/1/17
f 94/1/17 101/1/17 88/1/17
f 88/1/17 101/1/17 75/1/17
f 88/1/17 75/1/17 89/1/17
f 89/1/17 75/1/17 76/1/17
f 89/1/17 76/1/17 82/1/17
f 82/1/17 76/1/17 96/1/17
f 82/1/17 96/1/17 83/1/17
f 83/1/17 96/1/17 97/1/17
f 83/1/17 97/1/17 84/1/17
f 104/1/56 54/1/55 52/1/56
f 104/1/56 103/1/55 54/1/55

