# Created by Kenney (www.kenney.nl)

mtllib road-intersection-line.mtl

g road-intersection-line

v 0.4 0.02 0.5 1 1 1
v 0.5 0.02 0.5 1 1 1
v 0.4 0.01 0.5 1 1 1
v 0.5 0 0.5 1 1 1
v -0.5 0 0.5 1 1 1
v 0.3 0.01 0.5 1 1 1
v -0.3 0.01 0.5 1 1 1
v 0.01000001 0.01 0.5 1 1 1
v -0.009999992 0.01 0.5 1 1 1
v -0.4 0.01 0.5 1 1 1
v -0.5 0.02 0.5 1 1 1
v -0.4 0.02 0.5 1 1 1
v -0.5 0.02 0.4 1 1 1
v -0.5 0.01 0.4 1 1 1
v -0.5 0.01 0.3 1 1 1
v -0.5 0.01 0.01000001 1 1 1
v -0.5 0.01 -0.009999993 1 1 1
v -0.5 0.01 -0.3 1 1 1
v -0.5 0.01 -0.4 1 1 1
v -0.5 0 -0.5 1 1 1
v -0.5 0.02 -0.5 1 1 1
v -0.5 0.02 -0.4 1 1 1
v 0.5 0.02 0.4 1 1 1
v 0.5 0.01 0.4 1 1 1
v 0.5 0.01 0.3 1 1 1
v 0.5 0.01 0.01000001 1 1 1
v 0.5 0.01 -0.009999993 1 1 1
v 0.5 0.01 -0.3 1 1 1
v 0.5 0.01 -0.4 1 1 1
v 0.5 0 -0.5 1 1 1
v 0.5 0.02 -0.4 1 1 1
v 0.5 0.02 -0.5 1 1 1
v 0.5 0.01 -0.00999999 1 1 1
v -0.5 0.01 -0.00999999 1 1 1
v 0.3 0.01 0.3 1 1 1
v 0.5 0.01 0.01000001 1 1 1
v 0.01000001 0.01 0.01000001 1 1 1
v -0.009999992 0.01 0.01000001 1 1 1
v -0.5 0.01 0.01000001 1 1 1
v -0.3 0.01 0.3 1 1 1
v -0.5 0.01 0.3 1 1 1
v -0.4 0.01 0.4 1 1 1
v -0.4 0.02 0.4 1 1 1
v 0.4 0.02 0.4 1 1 1
v 0.4 0.01 0.4 1 1 1
v 0.5 0.01 -0.009999976 1 1 1
v 0.5 0.01 0.01000002 1 1 1
v -0.5 0.01 -0.009999976 1 1 1
v 0.01000001 0.01 0.01000002 1 1 1
v -0.009999992 0.01 0.01000002 1 1 1
v -0.5 0.01 0.01000002 1 1 1
v -0.3 0.01 0.3 1 1 1
v 0.5 0.01 -0.4 1 1 1
v 0.5 0.01 -0.3 1 1 1
v -0.5 0.01 -0.4 1 1 1
v -0.5 0.01 -0.3 1 1 1

vn 0 0 1
vn -1 0 0
vn 1 0 0
vn 0 1 0
vn 0 0 -1
vn 0 -1 0

vt 0.21875 0.225
vt 0.21875 0.125
vt 0.21875 0.025
vt 0.15625 0.125
vt 0.96875 0.025
vt 0.96875 0.225
vt 0.96875 0.125
vt 0.28125 0.125
vt 0.03125 0.125

usemtl colormap

f 3/2/1 2/1/1 1/1/1
f 3/2/1 4/3/1 2/1/1
f 4/3/1 3/2/1 5/3/1
f 5/3/1 3/2/1 6/2/1
f 7/2/1 5/3/1 6/2/1
f 7/2/1 6/2/1 8/2/1
f 7/2/1 8/2/1 9/2/1
f 10/2/1 5/3/1 7/2/1
f 5/3/1 10/2/1 11/1/1
f 11/1/1 10/2/1 12/1/1
f 13/1/2 5/3/2 11/1/2
f 14/2/2 5/3/2 13/1/2
f 15/2/2 5/3/2 14/2/2
f 16/2/2 5/3/2 15/2/2
f 17/2/2 5/3/2 16/2/2
f 18/2/2 5/3/2 17/2/2
f 19/2/2 5/3/2 18/2/2
f 19/2/2 20/3/2 5/3/2
f 20/3/2 19/2/2 21/1/2
f 22/1/2 21/1/2 19/2/2
f 2/1/3 24/2/3 23/1/3
f 24/2/3 2/1/3 4/3/3
f 4/3/3 25/2/3 24/2/3
f 4/3/3 26/2/3 25/2/3
f 4/3/3 27/2/3 26/2/3
f 4/3/3 28/2/3 27/2/3
f 4/3/3 29/2/3 28/2/3
f 30/3/3 29/2/3 4/3/3
f 30/3/3 31/1/3 29/2/3
f 31/1/3 30/3/3 32/1/3
f 18/4/4 33/4/4 28/4/4
f 33/4/4 18/4/4 34/4/4
f 36/4/4 35/4/4 25/4/4
f 35/4/4 36/4/4 37/4/4
f 35/4/4 37/4/4 6/4/4
f 6/4/4 37/4/4 8/4/4
f 39/4/4 9/4/4 38/4/4
f 9/4/4 39/4/4 40/4/4
f 40/4/4 39/4/4 41/4/4
f 7/4/4 9/4/4 40/4/4
f 21/6/5 30/5/5 20/5/5
f 30/5/5 21/6/5 32/6/5
f 21/6/4 31/6/4 32/6/4
f 31/6/4 21/6/4 22/6/4
f 4/5/6 20/5/6 30/5/6
f 20/5/6 4/5/6 5/5/6
f 13/6/5 42/7/5 14/7/5
f 42/7/5 13/6/5 43/6/5
f 31/6/1 19/7/1 29/7/1
f 19/7/1 31/6/1 22/6/1
f 12/6/3 42/7/3 43/6/3
f 42/7/3 12/6/3 10/7/3
f 13/6/4 12/6/4 43/6/4
f 12/6/4 13/6/4 11/6/4
f 44/6/4 2/6/4 23/6/4
f 2/6/4 44/6/4 1/6/4
f 44/6/5 24/7/5 45/7/5
f 24/7/5 44/6/5 23/6/5
f 3/7/2 44/6/2 45/7/2
f 44/6/2 3/7/2 1/6/2
f 48/8/4 47/8/4 46/8/4
f 47/8/4 48/8/4 49/8/4
f 49/8/4 48/8/4 50/8/4
f 50/8/4 48/8/4 51/8/4
f 49/8/4 50/8/4 8/8/4
f 9/8/4 8/8/4 50/8/4
f 15/9/4 7/9/4 52/9/4
f 7/9/4 15/9/4 42/9/4
f 42/9/4 15/9/4 14/9/4
f 10/9/4 7/9/4 42/9/4
f 35/9/4 24/9/4 25/9/4
f 24/9/4 35/9/4 45/9/4
f 45/9/4 35/9/4 3/9/4
f 3/9/4 35/9/4 6/9/4
f 55/9/4 54/9/4 53/9/4
f 54/9/4 55/9/4 56/9/4

g road-intersection-line




usemtl colormap

f 3/2/1 2/1/1 1/1/1
f 3/2/1 4/3/1 2/1/1
f 4/3/1 3/2/1 5/3/1
f 5/3/1 3/2/1 6/2/1
f 7/2/1 5/3/1 6/2/1
f 7/2/1 6/2/1 8/2/1
f 7/2/1 8/2/1 9/2/1
f 10/2/1 5/3/1 7/2/1
f 5/3/1 10/2/1 11/1/1
f 11/1/1 10/2/1 12/1/1
f 13/1/2 5/3/2 11/1/2
f 14/2/2 5/3/2 13/1/2
f 15/2/2 5/3/2 14/2/2
f 16/2/2 5/3/2 15/2/2
f 17/2/2 5/3/2 16/2/2
f 18/2/2 5/3/2 17/2/2
f 19/2/2 5/3/2 18/2/2
f 19/2/2 20/3/2 5/3/2
f 20/3/2 19/2/2 21/1/2
f 22/1/2 21/1/2 19/2/2
f 2/1/3 24/2/3 23/1/3
f 24/2/3 2/1/3 4/3/3
f 4/3/3 25/2/3 24/2/3
f 4/3/3 26/2/3 25/2/3
f 4/3/3 27/2/3 26/2/3
f 4/3/3 28/2/3 27/2/3
f 4/3/3 29/2/3 28/2/3
f 30/3/3 29/2/3 4/3/3
f 30/3/3 31/1/3 29/2/3
f 31/1/3 30/3/3 32/1/3
f 18/4/4 33/4/4 28/4/4
f 33/4/4 18/4/4 34/4/4
f 36/4/4 35/4/4 25/4/4
f 35/4/4 36/4/4 37/4/4
f 35/4/4 37/4/4 6/4/4
f 6/4/4 37/4/4 8/4/4
f 39/4/4 9/4/4 38/4/4
f 9/4/4 39/4/4 40/4/4
f 40/4/4 39/4/4 41/4/4
f 7/4/4 9/4/4 40/4/4
f 21/6/5 30/5/5 20/5/5
f 30/5/5 21/6/5 32/6/5
f 21/6/4 31/6/4 32/6/4
f 31/6/4 21/6/4 22/6/4
f 4/5/6 20/5/6 30/5/6
f 20/5/6 4/5/6 5/5/6
f 13/6/5 42/7/5 14/7/5
f 42/7/5 13/6/5 43/6/5
f 31/6/1 19/7/1 29/7/1
f 19/7/1 31/6/1 22/6/1
f 12/6/3 42/7/3 43/6/3
f 42/7/3 12/6/3 10/7/3
f 13/6/4 12/6/4 43/6/4
f 12/6/4 13/6/4 11/6/4
f 44/6/4 2/6/4 23/6/4
f 2/6/4 44/6/4 1/6/4
f 44/6/5 24/7/5 45/7/5
f 24/7/5 44/6/5 23/6/5
f 3/7/2 44/6/2 45/7/2
f 44/6/2 3/7/2 1/6/2
f 48/8/4 47/8/4 46/8/4
f 47/8/4 48/8/4 49/8/4
f 49/8/4 48/8/4 50/8/4
f 50/8/4 48/8/4 51/8/4
f 49/8/4 50/8/4 8/8/4
f 9/8/4 8/8/4 50/8/4
f 15/9/4 7/9/4 52/9/4
f 7/9/4 15/9/4 42/9/4
f 42/9/4 15/9/4 14/9/4
f 10/9/4 7/9/4 42/9/4
f 35/9/4 24/9/4 25/9/4
f 24/9/4 35/9/4 45/9/4
f 45/9/4 35/9/4 3/9/4
f 3/9/4 35/9/4 6/9/4
f 55/9/4 54/9/4 53/9/4
f 54/9/4 55/9/4 56/9/4

