# Created by Kenney (www.kenney.nl)

mtllib road-driveway-single-barrier.mtl

g road-driveway-single-barrier

v -0.5 0 -0.5 1 1 1
v -0.5 0.08 -0.5 1 1 1
v -0.5 0 -0.45 1 1 1
v -0.5 0.08 -0.47 1 1 1
v 0.5 0 0.45 1 1 1
v 0.5 0 0.5 1 1 1
v 0.5 0.08 0.47 1 1 1
v 0.5 0.08 0.5 1 1 1
v 0.5 0 -0.5 1 1 1
v 0.5 0.08 -0.5 1 1 1
v 0.5 0.08 -0.47 1 1 1
v -0.13 4.511946E-17 0.5 1 1 1
v -0.5 5.89091E-15 0.5 1 1 1
v -0.13 0.08 0.5 1 1 1
v -0.5 0.08 0.5 1 1 1
v -0.13 4.511946E-17 0.45 1 1 1
v -0.13 0.08 0.47 1 1 1
v 0.13 5.84579E-15 0.45 1 1 1
v 0.13 0.08 0.47 1 1 1
v 0.5 0 -0.45 1 1 1
v -0.5 5.89091E-15 0.45 1 1 1
v -0.5 0.08 0.47 1 1 1
v 0.13 0.08 0.5 1 1 1
v 0.13 5.84579E-15 0.5 1 1 1

vn -1 0 0
vn 1 0 0
vn 0 0 -1
vn 0 1 0
vn 0 0 1
vn 0 0.2425356 -0.9701425
vn 0 -1 0
vn 0 0.2425356 0.9701425

vt 0.90625 0.125

usemtl colormap

f 3/1/1 2/1/1 1/1/1
f 2/1/1 3/1/1 4/1/1
f 7/1/2 6/1/2 5/1/2
f 6/1/2 7/1/2 8/1/2
f 2/1/3 9/1/3 1/1/3
f 9/1/3 2/1/3 10/1/3
f 10/1/4 4/1/4 11/1/4
f 4/1/4 10/1/4 2/1/4
f 14/1/5 13/1/5 12/1/5
f 13/1/5 14/1/5 15/1/5
f 17/1/2 12/1/2 16/1/2
f 12/1/2 17/1/2 14/1/2
f 18/1/6 7/1/6 5/1/6
f 7/1/6 18/1/6 19/1/6
f 3/1/7 9/1/7 20/1/7
f 9/1/7 3/1/7 1/1/7
f 21/1/6 17/1/6 16/1/6
f 17/1/6 21/1/6 22/1/6
f 11/1/8 3/1/8 20/1/8
f 3/1/8 11/1/8 4/1/8
f 12/1/7 21/1/7 16/1/7
f 21/1/7 12/1/7 13/1/7
f 22/1/4 14/1/4 17/1/4
f 14/1/4 22/1/4 15/1/4
f 13/1/1 22/1/1 21/1/1
f 22/1/1 13/1/1 15/1/1
f 19/1/4 8/1/4 7/1/4
f 8/1/4 19/1/4 23/1/4
f 6/1/7 18/1/7 5/1/7
f 18/1/7 6/1/7 24/1/7
f 11/1/2 9/1/2 10/1/2
f 9/1/2 11/1/2 20/1/2
f 24/1/1 19/1/1 18/1/1
f 19/1/1 24/1/1 23/1/1
f 8/1/5 24/1/5 6/1/5
f 24/1/5 8/1/5 23/1/5

g road-driveway-single-barrier




usemtl colormap

f 3/1/1 2/1/1 1/1/1
f 2/1/1 3/1/1 4/1/1
f 7/1/2 6/1/2 5/1/2
f 6/1/2 7/1/2 8/1/2
f 2/1/3 9/1/3 1/1/3
f 9/1/3 2/1/3 10/1/3
f 10/1/4 4/1/4 11/1/4
f 4/1/4 10/1/4 2/1/4
f 14/1/5 13/1/5 12/1/5
f 13/1/5 14/1/5 15/1/5
f 17/1/2 12/1/2 16/1/2
f 12/1/2 17/1/2 14/1/2
f 18/1/6 7/1/6 5/1/6
f 7/1/6 18/1/6 19/1/6
f 3/1/7 9/1/7 20/1/7
f 9/1/7 3/1/7 1/1/7
f 21/1/6 17/1/6 16/1/6
f 17/1/6 21/1/6 22/1/6
f 11/1/8 3/1/8 20/1/8
f 3/1/8 11/1/8 4/1/8
f 12/1/7 21/1/7 16/1/7
f 21/1/7 12/1/7 13/1/7
f 22/1/4 14/1/4 17/1/4
f 14/1/4 22/1/4 15/1/4
f 13/1/1 22/1/1 21/1/1
f 22/1/1 13/1/1 15/1/1
f 19/1/4 8/1/4 7/1/4
f 8/1/4 19/1/4 23/1/4
f 6/1/7 18/1/7 5/1/7
f 18/1/7 6/1/7 24/1/7
f 11/1/2 9/1/2 10/1/2
f 9/1/2 11/1/2 20/1/2
f 24/1/1 19/1/1 18/1/1
f 19/1/1 24/1/1 23/1/1
f 8/1/5 24/1/5 6/1/5
f 24/1/5 8/1/5 23/1/5

