# Created by Kenney (www.kenney.nl)

mtllib road-bend-sidewalk.mtl

g road-bend-sidewalk

v 0.5 0.02 -0.5 1 1 1
v 0.5 0 -0.5 1 1 1
v 0.5 0.02 0.5 1 1 1
v 0.5 0 0.5 1 1 1
v -0.4206647 0.02 0.4391239 1 1 1
v -0.4206647 0.01 0.4391239 1 1 1
v -0.4133974 0.02 0.45 1 1 1
v -0.4133974 0.01 0.45 1 1 1
v -0.4292893 0.02 0.4292893 1 1 1
v -0.4292893 0.01 0.4292893 1 1 1
v -0.4391239 0.01 0.4206647 1 1 1
v -0.4391239 0.02 0.4206647 1 1 1
v -0.4617316 0.01 0.407612 1 1 1
v -0.45 0.01 0.4133974 1 1 1
v -0.4617316 0.02 0.407612 1 1 1
v -0.45 0.02 0.4133974 1 1 1
v -0.4741181 0.01 0.4034074 1 1 1
v -0.4741181 0.02 0.4034074 1 1 1
v -0.5 0.01 0.4 1 1 1
v -0.4869474 0.01 0.4008555 1 1 1
v -0.5 0.02 0.4 1 1 1
v -0.4869474 0.02 0.4008555 1 1 1
v -0.3825264 0.01 -0.3923004 1 1 1
v -0.3825264 0.02 -0.3923004 1 1 1
v -0.2670629 0.01 -0.3693332 1 1 1
v -0.2670629 0.02 -0.3693332 1 1 1
v -0.1555849 0.01 -0.3314916 1 1 1
v -0.1555849 0.02 -0.3314916 1 1 1
v 0.4 0.02 0.5 1 1 1
v 0.3923004 0.02 0.3825264 1 1 1
v 0.3693332 0.02 0.2670629 1 1 1
v 0.3314916 0.02 0.1555849 1 1 1
v 0.2794228 0.02 0.05 1 1 1
v 0.214018 0.02 -0.04788528 1 1 1
v 0.1363961 0.02 -0.1363961 1 1 1
v 0.04788528 0.02 -0.214018 1 1 1
v -0.05 0.02 -0.2794228 1 1 1
v -0.5 0.02 -0.5 1 1 1
v -0.5 0.02 -0.4 1 1 1
v 0.2794228 0.01 0.05 1 1 1
v 0.3314916 0.01 0.1555849 1 1 1
v -0.5 0 0.5 1 1 1
v -0.5 0 -0.5 1 1 1
v -0.05 0.01 -0.2794228 1 1 1
v 0.04788528 0.01 -0.214018 1 1 1
v -0.5 0.01 -0.4 1 1 1
v 0.1363961 0.01 -0.1363961 1 1 1
v 0.214018 0.01 -0.04788528 1 1 1
v 0.3693332 0.01 0.2670629 1 1 1
v 0.3923004 0.01 0.3825264 1 1 1
v 0.4 0.01 0.5 1 1 1
v -0.4 0.02 0.5 1 1 1
v -0.5 0.02 0.5 1 1 1
v -0.4008555 0.02 0.4869474 1 1 1
v -0.4034074 0.02 0.4741181 1 1 1
v -0.407612 0.02 0.4617316 1 1 1
v -0.4034074 0.01 0.4741181 1 1 1
v -0.4008555 0.01 0.4869474 1 1 1
v -0.407612 0.01 0.4617316 1 1 1
v -0.4 0.01 0.5 1 1 1
v -0.5 0.01 0.3 1 1 1
v -0.5 0.01 0.01 1 1 1
v -0.5 0.01 -0.01 1 1 1
v -0.5 0.01 -0.3 1 1 1
v 0.3 0.01 0.5 1 1 1
v 0.01 0.01 0.5 1 1 1
v -0.3 0.01 0.5 1 1 1
v -0.01 0.01 0.5 1 1 1
v 0.01000002 0.01 0.5 1 1 1
v 0.2931559 0.01 0.395579 1 1 1
v 0.2727407 0.01 0.2929447 1 1 1
v 0.2391036 0.01 0.1938532 1 1 1
v 0.1928203 0.01 0.09999999 1 1 1
v 0.1346827 0.01 0.01299083 1 1 1
v 0.06568544 0.01 -0.06568544 1 1 1
v -0.01299083 0.01 -0.1346827 1 1 1
v 0.005636901 0.01 0.4334316 1 1 1
v -0.007377803 0.01 0.3680023 1 1 1
v -0.02882144 0.01 0.3048314 1 1 1
v -0.09999999 0.01 -0.1928203 1 1 1
v -0.05832702 0.01 0.245 1 1 1
v -0.09538978 0.01 0.1895316 1 1 1
v -0.1393755 0.01 0.1393755 1 1 1
v -0.1938532 0.01 -0.2391036 1 1 1
v -0.1895316 0.01 0.09538978 1 1 1
v -0.245 0.01 0.05832702 1 1 1
v -0.2929447 0.01 -0.2727407 1 1 1
v -0.3048314 0.01 0.02882144 1 1 1
v -0.395579 0.01 -0.2931559 1 1 1
v -0.3680023 0.01 0.007377803 1 1 1
v -0.4334316 0.01 -0.005636901 1 1 1
v -0.5 0.01 -0.01000002 1 1 1
v -0.00999999 0.01 0.5 1 1 1
v -0.01419199 0.01 0.4360422 1 1 1
v -0.02669632 0.01 0.3731787 1 1 1
v -0.04729903 0.01 0.3124851 1 1 1
v -0.07564753 0.01 0.255 1 1 1
v -0.1112569 0.01 0.2017069 1 1 1
v -0.1535177 0.01 0.1535177 1 1 1
v -0.2017069 0.01 0.1112569 1 1 1
v -0.255 0.01 0.07564753 1 1 1
v -0.3124851 0.01 0.04729903 1 1 1
v -0.301711 0.01 0.4738948 1 1 1
v -0.3068148 0.01 0.4482362 1 1 1
v -0.3152241 0.01 0.4234633 1 1 1
v -0.3731787 0.01 0.02669632 1 1 1
v -0.3267949 0.01 0.4 1 1 1
v -0.3413293 0.01 0.3782477 1 1 1
v -0.3585786 0.01 0.3585786 1 1 1
v -0.3782477 0.01 0.3413293 1 1 1
v -0.4360422 0.01 0.01419199 1 1 1
v -0.4 0.01 0.3267949 1 1 1
v -0.4234633 0.01 0.3152241 1 1 1
v -0.4482362 0.01 0.3068148 1 1 1
v -0.5 0.01 0.00999999 1 1 1
v -0.4738948 0.01 0.301711 1 1 1
v 0.005636879 0.01 0.4334317 1 1 1
v -0.007377829 0.01 0.3680023 1 1 1
v -0.01419202 0.01 0.4360422 1 1 1
v -0.02882144 0.01 0.3048315 1 1 1
v -0.02669634 0.01 0.3731787 1 1 1
v -0.04729903 0.01 0.3124851 1 1 1
v -0.05832704 0.01 0.245 1 1 1
v -0.07564756 0.01 0.255 1 1 1
v -0.0953898 0.01 0.1895317 1 1 1
v -0.1393755 0.01 0.1393755 1 1 1
v -0.1895317 0.01 0.0953898 1 1 1
v -0.245 0.01 0.05832704 1 1 1
v -0.255 0.01 0.07564756 1 1 1
v -0.3048315 0.01 0.02882144 1 1 1
v -0.3124851 0.01 0.04729903 1 1 1
v -0.3680023 0.01 0.007377829 1 1 1
v -0.3731787 0.01 0.02669634 1 1 1
v -0.4334317 0.01 -0.005636879 1 1 1
v -0.4360422 0.01 0.01419202 1 1 1
v -0.3 0.01 0.5 1 1 1
v -0.4 0.01 0.5 1 1 1
v -0.3017111 0.01 0.4738947 1 1 1
v -0.3068148 0.01 0.4482362 1 1 1
v -0.3152241 0.01 0.4234633 1 1 1
v -0.3267949 0.01 0.4 1 1 1
v -0.3413293 0.01 0.3782477 1 1 1
v -0.3585787 0.01 0.3585787 1 1 1
v -0.3782477 0.01 0.3413293 1 1 1
v -0.4 0.01 0.3267949 1 1 1
v -0.4008555 0.01 0.4869474 1 1 1
v -0.4234633 0.01 0.3152241 1 1 1
v -0.4034074 0.01 0.474118 1 1 1
v -0.4076121 0.01 0.4617317 1 1 1
v -0.4133974 0.01 0.45 1 1 1
v -0.4206646 0.01 0.4391238 1 1 1
v -0.4292893 0.01 0.4292893 1 1 1
v -0.4482362 0.01 0.3068148 1 1 1
v -0.4391238 0.01 0.4206646 1 1 1
v -0.45 0.01 0.4133974 1 1 1
v -0.4738947 0.01 0.3017111 1 1 1
v -0.4617317 0.01 0.4076121 1 1 1
v -0.474118 0.01 0.4034074 1 1 1
v -0.5 0.01 0.3 1 1 1
v -0.4869474 0.01 0.4008555 1 1 1
v -0.5 0.01 0.4 1 1 1
v 0.4 0.01 0.5 1 1 1
v 0.3 0.01 0.5 1 1 1
v 0.3923004 0.01 0.3825264 1 1 1
v 0.2794229 0.01 0.04999998 1 1 1
v 0.2931559 0.01 0.395579 1 1 1
v 0.2727407 0.01 0.2929448 1 1 1
v 0.214018 0.01 -0.0478853 1 1 1
v 0.1346827 0.01 0.01299086 1 1 1
v 0.0478853 0.01 -0.214018 1 1 1
v 0.06568542 0.01 -0.06568542 1 1 1
v -0.01299086 0.01 -0.1346827 1 1 1
v -0.04999998 0.01 -0.2794229 1 1 1
v -0.2929448 0.01 -0.2727407 1 1 1
v -0.3825264 0.01 -0.3923004 1 1 1
v -0.395579 0.01 -0.2931559 1 1 1
v -0.5 0.01 -0.4 1 1 1
v -0.5 0.01 -0.3 1 1 1

vn 1 0 0
vn 0.7933533 0 -0.6087614
vn 0.8660254 0 -0.5
vn 0.7071068 0 -0.7071068
vn 0.6087614 0 -0.7933533
vn 0.3826834 0 -0.9238795
vn 0.5 0 -0.8660254
vn 0.258819 0 -0.9659258
vn 0.06540313 0 -0.9978589
vn 0.1305262 0 -0.9914449
vn -0.1305262 0 0.9914449
vn -0.258819 0 0.9659258
vn -0.3826834 0 0.9238795
vn 0 1 0
vn -0.8660254 0 0.5
vn -0.9238795 0 0.3826834
vn 0 -1 0
vn -0.5 0 0.8660254
vn -0.6087614 0 0.7933533
vn -0.06540313 0 0.9978589
vn -0.7071068 0 0.7071068
vn -0.7933533 0 0.6087614
vn -0.9659258 0 0.258819
vn -0.9914449 0 0.1305262
vn -0.9978589 0 0.06540313
vn 0.9659258 0 -0.258819
vn 0.9914449 0 -0.1305262
vn 0.9238795 0 -0.3826834
vn 0.9978589 0 -0.06540313
vn 0 0 -1
vn -1 0 0
vn 0 0 1

vt 0.96875 0.225
vt 0.96875 0.025
vt 0.96875 0.125
vt 0.21875 0.225
vt 0.21875 0.025
vt 0.21875 0.125
vt 0.15625 0.125
vt 0.28125 0.125
vt 0.03125 0.125

usemtl colormap

f 3/1/1 2/2/1 1/1/1
f 2/2/1 3/1/1 4/2/1
f 7/1/3 6/3/2 5/1/2
f 6/3/2 7/1/3 8/3/3
f 5/1/2 10/3/4 9/1/4
f 10/3/4 5/1/2 6/3/2
f 12/1/5 10/3/4 11/3/5
f 10/3/4 12/1/5 9/1/4
f 15/1/6 14/3/7 13/3/6
f 14/3/7 15/1/6 16/1/7
f 18/1/8 13/3/6 17/3/8
f 13/3/6 18/1/8 15/1/6
f 21/1/9 20/3/10 19/3/9
f 20/3/10 21/1/9 22/1/10
f 25/3/12 24/1/11 23/3/11
f 24/1/11 25/3/12 26/1/12
f 27/3/13 26/1/12 25/3/12
f 26/1/12 27/3/13 28/1/13
f 3/1/14 30/1/14 29/1/14
f 3/1/14 31/1/14 30/1/14
f 3/1/14 32/1/14 31/1/14
f 1/1/14 32/1/14 3/1/14
f 32/1/14 1/1/14 33/1/14
f 33/1/14 1/1/14 34/1/14
f 34/1/14 1/1/14 35/1/14
f 35/1/14 1/1/14 36/1/14
f 36/1/14 1/1/14 37/1/14
f 37/1/14 1/1/14 28/1/14
f 28/1/14 1/1/14 38/1/14
f 28/1/14 38/1/14 26/1/14
f 26/1/14 38/1/14 24/1/14
f 24/1/14 38/1/14 39/1/14
f 16/1/7 11/3/5 14/3/7
f 11/3/5 16/1/7 12/1/5
f 22/1/10 17/3/8 20/3/10
f 17/3/8 22/1/10 18/1/8
f 41/3/16 33/1/15 40/3/15
f 33/1/15 41/3/16 32/1/16
f 42/2/17 2/2/17 4/2/17
f 2/2/17 42/2/17 43/2/17
f 45/3/19 37/1/18 44/3/18
f 37/1/18 45/3/19 36/1/19
f 23/3/11 39/1/20 46/3/20
f 39/1/20 23/3/11 24/1/11
f 47/3/21 36/1/19 45/3/19
f 36/1/19 47/3/21 35/1/21
f 40/3/15 34/1/22 48/3/22
f 34/1/22 40/3/15 33/1/15
f 50/3/24 31/1/23 49/3/23
f 31/1/23 50/3/24 30/1/24
f 51/3/25 30/1/24 50/3/24
f 30/1/24 51/3/25 29/1/25
f 54/1/14 53/1/14 52/1/14
f 53/1/14 54/1/14 55/1/14
f 53/1/14 55/1/14 56/1/14
f 53/1/14 56/1/14 7/1/14
f 53/1/14 7/1/14 5/1/14
f 53/1/14 5/1/14 9/1/14
f 53/1/14 9/1/14 12/1/14
f 53/1/14 12/1/14 16/1/14
f 53/1/14 16/1/14 15/1/14
f 53/1/14 15/1/14 18/1/14
f 53/1/14 18/1/14 22/1/14
f 53/1/14 22/1/14 21/1/14
f 54/1/27 57/3/26 55/1/26
f 57/3/26 54/1/27 58/3/27
f 55/1/26 59/3/28 56/1/28
f 59/3/28 55/1/26 57/3/26
f 44/3/18 28/1/13 27/3/13
f 28/1/13 44/3/18 37/1/18
f 56/1/28 8/3/3 7/1/3
f 8/3/3 56/1/28 59/3/28
f 49/3/23 32/1/16 41/3/16
f 32/1/16 49/3/23 31/1/23
f 52/1/29 58/3/27 54/1/27
f 58/3/27 52/1/29 60/3/29
f 38/1/30 2/2/30 43/2/30
f 2/2/30 38/1/30 1/1/30
f 48/3/22 35/1/21 47/3/21
f 35/1/21 48/3/22 34/1/22
f 21/4/31 42/5/31 53/4/31
f 19/6/31 42/5/31 21/4/31
f 61/6/31 42/5/31 19/6/31
f 62/6/31 42/5/31 61/6/31
f 63/6/31 42/5/31 62/6/31
f 64/6/31 42/5/31 63/6/31
f 46/6/31 42/5/31 64/6/31
f 46/6/31 43/5/31 42/5/31
f 43/5/31 46/6/31 38/4/31
f 39/4/31 38/4/31 46/6/31
f 51/6/32 3/4/32 29/4/32
f 51/6/32 4/5/32 3/4/32
f 4/5/32 51/6/32 42/5/32
f 42/5/32 51/6/32 65/6/32
f 60/6/32 42/5/32 65/6/32
f 42/5/32 60/6/32 53/4/32
f 53/4/32 60/6/32 52/4/32
f 66/6/32 60/6/32 65/6/32
f 60/6/32 66/6/32 67/6/32
f 67/6/32 66/6/32 68/6/32
f 70/7/14 69/7/14 65/7/14
f 69/7/14 70/7/14 71/7/14
f 69/7/14 71/7/14 72/7/14
f 69/7/14 72/7/14 73/7/14
f 69/7/14 73/7/14 74/7/14
f 69/7/14 74/7/14 75/7/14
f 69/7/14 75/7/14 76/7/14
f 69/7/14 76/7/14 77/7/14
f 77/7/14 76/7/14 78/7/14
f 78/7/14 76/7/14 79/7/14
f 79/7/14 76/7/14 80/7/14
f 79/7/14 80/7/14 81/7/14
f 81/7/14 80/7/14 82/7/14
f 82/7/14 80/7/14 83/7/14
f 83/7/14 80/7/14 84/7/14
f 83/7/14 84/7/14 85/7/14
f 85/7/14 84/7/14 86/7/14
f 86/7/14 84/7/14 87/7/14
f 86/7/14 87/7/14 88/7/14
f 88/7/14 87/7/14 89/7/14
f 88/7/14 89/7/14 90/7/14
f 90/7/14 89/7/14 91/7/14
f 91/7/14 89/7/14 64/7/14
f 91/7/14 64/7/14 92/7/14
f 94/7/14 67/7/14 93/7/14
f 67/7/14 94/7/14 95/7/14
f 67/7/14 95/7/14 96/7/14
f 67/7/14 96/7/14 97/7/14
f 67/7/14 97/7/14 98/7/14
f 67/7/14 98/7/14 99/7/14
f 67/7/14 99/7/14 100/7/14
f 67/7/14 100/7/14 101/7/14
f 67/7/14 101/7/14 102/7/14
f 67/7/14 102/7/14 103/7/14
f 103/7/14 102/7/14 104/7/14
f 104/7/14 102/7/14 105/7/14
f 105/7/14 102/7/14 106/7/14
f 105/7/14 106/7/14 107/7/14
f 107/7/14 106/7/14 108/7/14
f 108/7/14 106/7/14 109/7/14
f 109/7/14 106/7/14 110/7/14
f 110/7/14 106/7/14 111/7/14
f 110/7/14 111/7/14 112/7/14
f 112/7/14 111/7/14 113/7/14
f 113/7/14 111/7/14 114/7/14
f 114/7/14 111/7/14 115/7/14
f 114/7/14 115/7/14 116/7/14
f 116/7/14 115/7/14 61/7/14
f 117/8/14 68/8/14 66/8/14
f 68/8/14 117/8/14 118/8/14
f 68/8/14 118/8/14 119/8/14
f 119/8/14 118/8/14 120/8/14
f 119/8/14 120/8/14 121/8/14
f 121/8/14 120/8/14 122/8/14
f 122/8/14 120/8/14 123/8/14
f 122/8/14 123/8/14 124/8/14
f 124/8/14 123/8/14 125/8/14
f 124/8/14 125/8/14 98/8/14
f 98/8/14 125/8/14 126/8/14
f 98/8/14 126/8/14 99/8/14
f 99/8/14 126/8/14 127/8/14
f 99/8/14 127/8/14 100/8/14
f 100/8/14 127/8/14 128/8/14
f 100/8/14 128/8/14 129/8/14
f 129/8/14 128/8/14 130/8/14
f 129/8/14 130/8/14 131/8/14
f 131/8/14 130/8/14 132/8/14
f 131/8/14 132/8/14 133/8/14
f 133/8/14 132/8/14 134/8/14
f 133/8/14 134/8/14 135/8/14
f 135/8/14 134/8/14 63/8/14
f 135/8/14 63/8/14 62/8/14
f 138/9/14 137/9/14 136/9/14
f 137/9/14 138/9/14 139/9/14
f 137/9/14 139/9/14 140/9/14
f 137/9/14 140/9/14 141/9/14
f 137/9/14 141/9/14 142/9/14
f 137/9/14 142/9/14 143/9/14
f 137/9/14 143/9/14 144/9/14
f 137/9/14 144/9/14 145/9/14
f 137/9/14 145/9/14 146/9/14
f 146/9/14 145/9/14 147/9/14
f 146/9/14 147/9/14 148/9/14
f 148/9/14 147/9/14 149/9/14
f 149/9/14 147/9/14 150/9/14
f 150/9/14 147/9/14 151/9/14
f 151/9/14 147/9/14 152/9/14
f 152/9/14 147/9/14 153/9/14
f 152/9/14 153/9/14 154/9/14
f 154/9/14 153/9/14 155/9/14
f 155/9/14 153/9/14 156/9/14
f 155/9/14 156/9/14 157/9/14
f 157/9/14 156/9/14 158/9/14
f 158/9/14 156/9/14 159/9/14
f 158/9/14 159/9/14 160/9/14
f 160/9/14 159/9/14 161/9/14
f 164/9/14 163/9/14 162/9/14
f 163/9/14 164/9/14 49/9/14
f 163/9/14 49/9/14 41/9/14
f 163/9/14 41/9/14 165/9/14
f 163/9/14 165/9/14 166/9/14
f 166/9/14 165/9/14 167/9/14
f 167/9/14 165/9/14 168/9/14
f 167/9/14 168/9/14 72/9/14
f 72/9/14 168/9/14 73/9/14
f 73/9/14 168/9/14 47/9/14
f 73/9/14 47/9/14 169/9/14
f 169/9/14 47/9/14 170/9/14
f 169/9/14 170/9/14 171/9/14
f 171/9/14 170/9/14 172/9/14
f 172/9/14 170/9/14 173/9/14
f 172/9/14 173/9/14 80/9/14
f 80/9/14 173/9/14 27/9/14
f 80/9/14 27/9/14 84/9/14
f 84/9/14 27/9/14 25/9/14
f 84/9/14 25/9/14 174/9/14
f 174/9/14 25/9/14 175/9/14
f 174/9/14 175/9/14 176/9/14
f 176/9/14 175/9/14 177/9/14
f 176/9/14 177/9/14 178/9/14

g road-bend-sidewalk




usemtl colormap

f 3/1/1 2/2/1 1/1/1
f 2/2/1 3/1/1 4/2/1
f 7/1/3 6/3/2 5/1/2
f 6/3/2 7/1/3 8/3/3
f 5/1/2 10/3/4 9/1/4
f 10/3/4 5/1/2 6/3/2
f 12/1/5 10/3/4 11/3/5
f 10/3/4 12/1/5 9/1/4
f 15/1/6 14/3/7 13/3/6
f 14/3/7 15/1/6 16/1/7
f 18/1/8 13/3/6 17/3/8
f 13/3/6 18/1/8 15/1/6
f 21/1/9 20/3/10 19/3/9
f 20/3/10 21/1/9 22/1/10
f 25/3/12 24/1/11 23/3/11
f 24/1/11 25/3/12 26/1/12
f 27/3/13 26/1/12 25/3/12
f 26/1/12 27/3/13 28/1/13
f 3/1/14 30/1/14 29/1/14
f 3/1/14 31/1/14 30/1/14
f 3/1/14 32/1/14 31/1/14
f 1/1/14 32/1/14 3/1/14
f 32/1/14 1/1/14 33/1/14
f 33/1/14 1/1/14 34/1/14
f 34/1/14 1/1/14 35/1/14
f 35/1/14 1/1/14 36/1/14
f 36/1/14 1/1/14 37/1/14
f 37/1/14 1/1/14 28/1/14
f 28/1/14 1/1/14 38/1/14
f 28/1/14 38/1/14 26/1/14
f 26/1/14 38/1/14 24/1/14
f 24/1/14 38/1/14 39/1/14
f 16/1/7 11/3/5 14/3/7
f 11/3/5 16/1/7 12/1/5
f 22/1/10 17/3/8 20/3/10
f 17/3/8 22/1/10 18/1/8
f 41/3/16 33/1/15 40/3/15
f 33/1/15 41/3/16 32/1/16
f 42/2/17 2/2/17 4/2/17
f 2/2/17 42/2/17 43/2/17
f 45/3/19 37/1/18 44/3/18
f 37/1/18 45/3/19 36/1/19
f 23/3/11 39/1/20 46/3/20
f 39/1/20 23/3/11 24/1/11
f 47/3/21 36/1/19 45/3/19
f 36/1/19 47/3/21 35/1/21
f 40/3/15 34/1/22 48/3/22
f 34/1/22 40/3/15 33/1/15
f 50/3/24 31/1/23 49/3/23
f 31/1/23 50/3/24 30/1/24
f 51/3/25 30/1/24 50/3/24
f 30/1/24 51/3/25 29/1/25
f 54/1/14 53/1/14 52/1/14
f 53/1/14 54/1/14 55/1/14
f 53/1/14 55/1/14 56/1/14
f 53/1/14 56/1/14 7/1/14
f 53/1/14 7/1/14 5/1/14
f 53/1/14 5/1/14 9/1/14
f 53/1/14 9/1/14 12/1/14
f 53/1/14 12/1/14 16/1/14
f 53/1/14 16/1/14 15/1/14
f 53/1/14 15/1/14 18/1/14
f 53/1/14 18/1/14 22/1/14
f 53/1/14 22/1/14 21/1/14
f 54/1/27 57/3/26 55/1/26
f 57/3/26 54/1/27 58/3/27
f 55/1/26 59/3/28 56/1/28
f 59/3/28 55/1/26 57/3/26
f 44/3/18 28/1/13 27/3/13
f 28/1/13 44/3/18 37/1/18
f 56/1/28 8/3/3 7/1/3
f 8/3/3 56/1/28 59/3/28
f 49/3/23 32/1/16 41/3/16
f 32/1/16 49/3/23 31/1/23
f 52/1/29 58/3/27 54/1/27
f 58/3/27 52/1/29 60/3/29
f 38/1/30 2/2/30 43/2/30
f 2/2/30 38/1/30 1/1/30
f 48/3/22 35/1/21 47/3/21
f 35/1/21 48/3/22 34/1/22
f 21/4/31 42/5/31 53/4/31
f 19/6/31 42/5/31 21/4/31
f 61/6/31 42/5/31 19/6/31
f 62/6/31 42/5/31 61/6/31
f 63/6/31 42/5/31 62/6/31
f 64/6/31 42/5/31 63/6/31
f 46/6/31 42/5/31 64/6/31
f 46/6/31 43/5/31 42/5/31
f 43/5/31 46/6/31 38/4/31
f 39/4/31 38/4/31 46/6/31
f 51/6/32 3/4/32 29/4/32
f 51/6/32 4/5/32 3/4/32
f 4/5/32 51/6/32 42/5/32
f 42/5/32 51/6/32 65/6/32
f 60/6/32 42/5/32 65/6/32
f 42/5/32 60/6/32 53/4/32
f 53/4/32 60/6/32 52/4/32
f 66/6/32 60/6/32 65/6/32
f 60/6/32 66/6/32 67/6/32
f 67/6/32 66/6/32 68/6/32
f 70/7/14 69/7/14 65/7/14
f 69/7/14 70/7/14 71/7/14
f 69/7/14 71/7/14 72/7/14
f 69/7/14 72/7/14 73/7/14
f 69/7/14 73/7/14 74/7/14
f 69/7/14 74/7/14 75/7/14
f 69/7/14 75/7/14 76/7/14
f 69/7/14 76/7/14 77/7/14
f 77/7/14 76/7/14 78/7/14
f 78/7/14 76/7/14 79/7/14
f 79/7/14 76/7/14 80/7/14
f 79/7/14 80/7/14 81/7/14
f 81/7/14 80/7/14 82/7/14
f 82/7/14 80/7/14 83/7/14
f 83/7/14 80/7/14 84/7/14
f 83/7/14 84/7/14 85/7/14
f 85/7/14 84/7/14 86/7/14
f 86/7/14 84/7/14 87/7/14
f 86/7/14 87/7/14 88/7/14
f 88/7/14 87/7/14 89/7/14
f 88/7/14 89/7/14 90/7/14
f 90/7/14 89/7/14 91/7/14
f 91/7/14 89/7/14 64/7/14
f 91/7/14 64/7/14 92/7/14
f 94/7/14 67/7/14 93/7/14
f 67/7/14 94/7/14 95/7/14
f 67/7/14 95/7/14 96/7/14
f 67/7/14 96/7/14 97/7/14
f 67/7/14 97/7/14 98/7/14
f 67/7/14 98/7/14 99/7/14
f 67/7/14 99/7/14 100/7/14
f 67/7/14 100/7/14 101/7/14
f 67/7/14 101/7/14 102/7/14
f 67/7/14 102/7/14 103/7/14
f 103/7/14 102/7/14 104/7/14
f 104/7/14 102/7/14 105/7/14
f 105/7/14 102/7/14 106/7/14
f 105/7/14 106/7/14 107/7/14
f 107/7/14 106/7/14 108/7/14
f 108/7/14 106/7/14 109/7/14
f 109/7/14 106/7/14 110/7/14
f 110/7/14 106/7/14 111/7/14
f 110/7/14 111/7/14 112/7/14
f 112/7/14 111/7/14 113/7/14
f 113/7/14 111/7/14 114/7/14
f 114/7/14 111/7/14 115/7/14
f 114/7/14 115/7/14 116/7/14
f 116/7/14 115/7/14 61/7/14
f 117/8/14 68/8/14 66/8/14
f 68/8/14 117/8/14 118/8/14
f 68/8/14 118/8/14 119/8/14
f 119/8/14 118/8/14 120/8/14
f 119/8/14 120/8/14 121/8/14
f 121/8/14 120/8/14 122/8/14
f 122/8/14 120/8/14 123/8/14
f 122/8/14 123/8/14 124/8/14
f 124/8/14 123/8/14 125/8/14
f 124/8/14 125/8/14 98/8/14
f 98/8/14 125/8/14 126/8/14
f 98/8/14 126/8/14 99/8/14
f 99/8/14 126/8/14 127/8/14
f 99/8/14 127/8/14 100/8/14
f 100/8/14 127/8/14 128/8/14
f 100/8/14 128/8/14 129/8/14
f 129/8/14 128/8/14 130/8/14
f 129/8/14 130/8/14 131/8/14
f 131/8/14 130/8/14 132/8/14
f 131/8/14 132/8/14 133/8/14
f 133/8/14 132/8/14 134/8/14
f 133/8/14 134/8/14 135/8/14
f 135/8/14 134/8/14 63/8/14
f 135/8/14 63/8/14 62/8/14
f 138/9/14 137/9/14 136/9/14
f 137/9/14 138/9/14 139/9/14
f 137/9/14 139/9/14 140/9/14
f 137/9/14 140/9/14 141/9/14
f 137/9/14 141/9/14 142/9/14
f 137/9/14 142/9/14 143/9/14
f 137/9/14 143/9/14 144/9/14
f 137/9/14 144/9/14 145/9/14
f 137/9/14 145/9/14 146/9/14
f 146/9/14 145/9/14 147/9/14
f 146/9/14 147/9/14 148/9/14
f 148/9/14 147/9/14 149/9/14
f 149/9/14 147/9/14 150/9/14
f 150/9/14 147/9/14 151/9/14
f 151/9/14 147/9/14 152/9/14
f 152/9/14 147/9/14 153/9/14
f 152/9/14 153/9/14 154/9/14
f 154/9/14 153/9/14 155/9/14
f 155/9/14 153/9/14 156/9/14
f 155/9/14 156/9/14 157/9/14
f 157/9/14 156/9/14 158/9/14
f 158/9/14 156/9/14 159/9/14
f 158/9/14 159/9/14 160/9/14
f 160/9/14 159/9/14 161/9/14
f 164/9/14 163/9/14 162/9/14
f 163/9/14 164/9/14 49/9/14
f 163/9/14 49/9/14 41/9/14
f 163/9/14 41/9/14 165/9/14
f 163/9/14 165/9/14 166/9/14
f 166/9/14 165/9/14 167/9/14
f 167/9/14 165/9/14 168/9/14
f 167/9/14 168/9/14 72/9/14
f 72/9/14 168/9/14 73/9/14
f 73/9/14 168/9/14 47/9/14
f 73/9/14 47/9/14 169/9/14
f 169/9/14 47/9/14 170/9/14
f 169/9/14 170/9/14 171/9/14
f 171/9/14 170/9/14 172/9/14
f 172/9/14 170/9/14 173/9/14
f 172/9/14 173/9/14 80/9/14
f 80/9/14 173/9/14 27/9/14
f 80/9/14 27/9/14 84/9/14
f 84/9/14 27/9/14 25/9/14
f 84/9/14 25/9/14 174/9/14
f 174/9/14 25/9/14 175/9/14
f 174/9/14 175/9/14 176/9/14
f 176/9/14 175/9/14 177/9/14
f 176/9/14 177/9/14 178/9/14

