# Created by Kenney (www.kenney.nl)

mtllib road-side.mtl

g road-side

v 0.5 0.01 -0.71 1 1 1
v -0.5 0.01 -0.71 1 1 1
v 0.5 0.02 -0.71 1 1 1
v -0.5 0.02 -0.71 1 1 1
v -0.5 -2.650768E-16 -0.8099999 1 1 1
v 0.5 -2.650768E-16 -0.8099999 1 1 1
v -0.5 0.02 -0.8099999 1 1 1
v 0.5 0.02 -0.8099999 1 1 1
v 0.5 2.819966E-18 0.5 1 1 1
v -0.5 2.819966E-18 0.5 1 1 1
v 0.5 0.02 0.5 1 1 1
v -0.5 0.02 0.5 1 1 1
v -0.5 0.01 0.4 1 1 1
v 0.5 0.01 0.4 1 1 1
v -0.5 0.02 0.4 1 1 1
v 0.5 0.02 0.4 1 1 1
v 0.5 0.01 0.3 1 1 1
v 0.5 0.01 0.01 1 1 1
v 0.5 0.01 -0.01 1 1 1
v 0.5 0.01 -0.61 1 1 1
v -0.5 0.01 0.3 1 1 1
v -0.5 0.01 0.01 1 1 1
v -0.5 0.01 -0.01 1 1 1
v -0.5 0.01 -0.61 1 1 1
v 0.5 0.01 -0.01000001 1 1 1
v -0.5 0.01 -0.01000001 1 1 1
v 0.5 0.01 0.3 1 1 1
v -0.5 0.01 0.3 1 1 1
v 0.5 0.01 0.00999999 1 1 1
v -0.5 0.01 0.00999999 1 1 1
v 0.5 0.01 -0.71 1 1 1
v -0.5 0.01 -0.71 1 1 1

vn 0 0 1
vn 0 0 -1
vn 0 -1 0
vn 0 1 0
vn 1 0 0
vn -1 0 0

vt 0.96875 0.125
vt 0.96875 0.225
vt 0.96875 0.025
vt 0.21875 0.225
vt 0.21875 0.125
vt 0.21875 0.025
vt 0.15625 0.125
vt 0.28125 0.125
vt 0.03125 0.125

usemtl colormap

f 3/2/1 2/1/1 1/1/1
f 2/1/1 3/2/1 4/2/1
f 7/2/2 6/3/2 5/3/2
f 6/3/2 7/2/2 8/2/2
f 11/2/1 10/3/1 9/3/1
f 10/3/1 11/2/1 12/2/1
f 15/2/2 14/1/2 13/1/2
f 14/1/2 15/2/2 16/2/2
f 9/3/3 5/3/3 6/3/3
f 5/3/3 9/3/3 10/3/3
f 7/2/4 3/2/4 8/2/4
f 3/2/4 7/2/4 4/2/4
f 15/2/4 11/2/4 16/2/4
f 11/2/4 15/2/4 12/2/4
f 11/4/5 14/5/5 16/4/5
f 9/6/5 14/5/5 11/4/5
f 9/6/5 17/5/5 14/5/5
f 9/6/5 18/5/5 17/5/5
f 9/6/5 19/5/5 18/5/5
f 9/6/5 20/5/5 19/5/5
f 9/6/5 1/5/5 20/5/5
f 6/6/5 1/5/5 9/6/5
f 6/6/5 3/4/5 1/5/5
f 3/4/5 6/6/5 8/4/5
f 15/4/6 10/6/6 12/4/6
f 13/5/6 10/6/6 15/4/6
f 21/5/6 10/6/6 13/5/6
f 22/5/6 10/6/6 21/5/6
f 23/5/6 10/6/6 22/5/6
f 24/5/6 10/6/6 23/5/6
f 2/5/6 10/6/6 24/5/6
f 2/5/6 5/6/6 10/6/6
f 5/6/6 2/5/6 7/4/6
f 4/4/6 7/4/6 2/5/6
f 24/7/4 25/7/4 20/7/4
f 25/7/4 24/7/4 26/7/4
f 29/7/4 28/7/4 27/7/4
f 28/7/4 29/7/4 30/7/4
f 23/8/4 18/8/4 19/8/4
f 18/8/4 23/8/4 22/8/4
f 28/9/4 14/9/4 27/9/4
f 14/9/4 28/9/4 13/9/4
f 32/9/4 20/9/4 31/9/4
f 20/9/4 32/9/4 24/9/4

g road-side




usemtl colormap

f 3/2/1 2/1/1 1/1/1
f 2/1/1 3/2/1 4/2/1
f 7/2/2 6/3/2 5/3/2
f 6/3/2 7/2/2 8/2/2
f 11/2/1 10/3/1 9/3/1
f 10/3/1 11/2/1 12/2/1
f 15/2/2 14/1/2 13/1/2
f 14/1/2 15/2/2 16/2/2
f 9/3/3 5/3/3 6/3/3
f 5/3/3 9/3/3 10/3/3
f 7/2/4 3/2/4 8/2/4
f 3/2/4 7/2/4 4/2/4
f 15/2/4 11/2/4 16/2/4
f 11/2/4 15/2/4 12/2/4
f 11/4/5 14/5/5 16/4/5
f 9/6/5 14/5/5 11/4/5
f 9/6/5 17/5/5 14/5/5
f 9/6/5 18/5/5 17/5/5
f 9/6/5 19/5/5 18/5/5
f 9/6/5 20/5/5 19/5/5
f 9/6/5 1/5/5 20/5/5
f 6/6/5 1/5/5 9/6/5
f 6/6/5 3/4/5 1/5/5
f 3/4/5 6/6/5 8/4/5
f 15/4/6 10/6/6 12/4/6
f 13/5/6 10/6/6 15/4/6
f 21/5/6 10/6/6 13/5/6
f 22/5/6 10/6/6 21/5/6
f 23/5/6 10/6/6 22/5/6
f 24/5/6 10/6/6 23/5/6
f 2/5/6 10/6/6 24/5/6
f 2/5/6 5/6/6 10/6/6
f 5/6/6 2/5/6 7/4/6
f 4/4/6 7/4/6 2/5/6
f 24/7/4 25/7/4 20/7/4
f 25/7/4 24/7/4 26/7/4
f 29/7/4 28/7/4 27/7/4
f 28/7/4 29/7/4 30/7/4
f 23/8/4 18/8/4 19/8/4
f 18/8/4 23/8/4 22/8/4
f 28/9/4 14/9/4 27/9/4
f 14/9/4 28/9/4 13/9/4
f 32/9/4 20/9/4 31/9/4
f 20/9/4 32/9/4 24/9/4

