# Created by Kenney (www.kenney.nl)

mtllib road-curve-intersection.mtl

g road-curve-intersection

v 0.6120393 0.02 -2.887646E-15 1 1 1
v 0.5452214 0.02 -0.1 1 1 1
v 0.6454483 0.02 0.05 1 1 1
v 0.5452214 0.01 -0.1 1 1 1
v 0.6120393 0.01 -5.05338E-15 1 1 1
v 0.6454483 0.01 0.05 1 1 1
v -0.5790482 0.01 -0.01626749 1 1 1
v -0.546061 0.02 -2.887646E-15 1 1 1
v -0.5790482 0.02 -0.01626749 1 1 1
v -0.45 0.02 0.04737206 1 1 1
v -0.546061 0.01 -3.609557E-15 1 1 1
v -0.45 0.01 0.04737206 1 1 1
v -1 0.01 -0.1 1 1 1
v -0.8564212 0.01 -0.09058934 1 1 1
v -1 0.02 -0.1 1 1 1
v -0.8564212 0.02 -0.09058934 1 1 1
v -0.3303624 0.01 0.1273113 1 1 1
v -0.3303624 0.02 0.1273113 1 1 1
v -0.7152991 0.01 -0.06251841 1 1 1
v -0.7152991 0.02 -0.06251841 1 1 1
v 1 0.02 -0.1 1 1 1
v 1 0.02 -2.887646E-15 1 1 1
v 0.7320508 0.02 -5.775291E-15 1 1 1
v 0.7553711 0.02 0.2729015 1 1 1
v 0.8352591 0.02 0.5082438 1 1 1
v 0.8477591 0.02 0.2346331 1 1 1
v 0.8837453 0.02 0.7520002 1 1 1
v 0.9318516 0.02 0.4823619 1 1 1
v 0.9 0.02 1 1 1 1
v 0.9828897 0.02 0.7389476 1 1 1
v 1 0.02 1 1 1 1
v -1 0 -1 1 1 1
v 1 0 -1 1 1 1
v -1 0.02 -1 1 1 1
v 1 0.02 -1 1 1 1
v 1 0 -2.887646E-15 1 1 1
v 0.7320508 4.117151E-16 -5.775291E-15 1 1 1
v 1 0.01 -0.1 1 1 1
v 1 0.01 -0.9 1 1 1
v -1 0.01 -0.9 1 1 1
v 1 0.02 -0.9 1 1 1
v -1 0.02 -0.9 1 1 1
v 0.1 0.02 1 1 1 1
v -2.887646E-15 0.02 1 1 1 1
v 0.09058934 0.02 0.8564212 1 1 1
v 0.06251841 0.02 0.7152991 1 1 1
v 0.01626749 0.02 0.5790482 1 1 1
v -0.008555138 0.02 0.8694738 1 1 1
v -0.04737206 0.02 0.45 1 1 1
v -0.03407417 0.02 0.741181 1 1 1
v -0.07612047 0.02 0.6173166 1 1 1
v -0.1273113 0.02 0.3303624 1 1 1
v -0.1339746 0.02 0.5 1 1 1
v -0.2221825 0.02 0.2221825 1 1 1
v -0.2066467 0.02 0.3912386 1 1 1
v -0.2928932 0.02 0.2928932 1 1 1
v -0.3912386 0.02 0.2066467 1 1 1
v -0.5 0.02 0.1339746 1 1 1
v -0.6173166 0.02 0.07612047 1 1 1
v -0.741181 0.02 0.03407417 1 1 1
v -0.8694738 0.02 0.008555138 1 1 1
v -1 0.02 -2.887646E-15 1 1 1
v 0.8477591 3.665956E-16 0.2346331 1 1 1
v 0.9828897 3.214762E-16 0.7389476 1 1 1
v 1 5.639933E-18 1 1 1 1
v -2.887646E-15 5.639933E-18 1 1 1 1
v 0.9318516 3.214762E-16 0.4823619 1 1 1
v -0.008555138 1.127987E-17 0.8694738 1 1 1
v -0.03407417 1.69198E-17 0.741181 1 1 1
v -0.07612047 3.38396E-17 0.6173166 1 1 1
v -0.1339746 5.639933E-17 0.5 1 1 1
v -0.2066467 8.459899E-17 0.3912386 1 1 1
v -0.2928932 1.184386E-16 0.2928932 1 1 1
v -0.3912386 1.579181E-16 0.2066467 1 1 1
v -0.5 2.030376E-16 0.1339746 1 1 1
v -0.6173166 2.48157E-16 0.07612047 1 1 1
v -0.741181 2.932765E-16 0.03407417 1 1 1
v -0.8694738 3.440359E-16 0.008555138 1 1 1
v -1 0 -2.887646E-15 1 1 1
v 0.7553711 0.01 0.2729015 1 1 1
v 0.8352591 0.01 0.5082438 1 1 1
v 0.09058934 0.01 0.8564212 1 1 1
v 0.1 0.01 1 1 1 1
v 0.06251841 0.01 0.7152991 1 1 1
v 0.01626749 0.01 0.5790482 1 1 1
v -0.04737206 0.01 0.45 1 1 1
v -0.1273113 0.01 0.3303624 1 1 1
v -0.2221825 0.01 0.2221825 1 1 1
v 0.8837453 0.01 0.7520002 1 1 1
v 0.9 0.01 1 1 1 1
v 1 0.01 -0.2 1 1 1
v 1 0.01 -0.49 1 1 1
v 1 0.01 -0.51 1 1 1
v 1 0.01 -0.8 1 1 1
v 0.2 0.01 1 1 1 1
v 0.8 0.01 1 1 1 1
v 0.51 0.01 1 1 1 1
v 0.49 0.01 1 1 1 1
v -1 0.01 -0.2 1 1 1
v -1 0.01 -0.49 1 1 1
v -1 0.01 -0.51 1 1 1
v -1 0.01 -0.8 1 1 1
v 1 0.01 -0.8 1 1 1
v -1 0.01 -0.8 1 1 1
v 0.4772528 0.01 0.805516 1 1 1
v 0.4392295 0.01 0.6143597 1 1 1
v 0.3765805 0.01 0.4298017 1 1 1
v 0.2903778 0.01 0.255 1 1 1
v 0.1820965 0.01 0.09294547 1 1 1
v 0.1897338 0.01 0.8433686 1 1 1
v 0.159111 0.01 0.6894171 1 1 1
v 0.1005855 0.01 0 1 1 1
v 0.1086554 0.01 0.5407799 1 1 1
v 0.03923048 0.01 0.4 1 1 1
v 0.0535891 0.01 -0.0535891 1 1 1
v 0.0006676198 0.01 -0.1 1 1 1
v -0.04797599 0.01 0.2694863 1 1 1
v -0.09294547 0.01 -0.1820965 1 1 1
v -0.1514719 0.01 0.1514719 1 1 1
v -0.11974 0.01 -0.2 1 1 1
v -0.255 0.01 -0.2903779 1 1 1
v -0.2694863 0.01 0.04797599 1 1 1
v -0.4298017 0.01 -0.3765805 1 1 1
v -0.3412874 0.01 0 1 1 1
v -0.4 0.01 -0.03923047 1 1 1
v -0.5232283 0.01 -0.1 1 1 1
v -0.6143596 0.01 -0.4392295 1 1 1
v -0.5407799 0.01 -0.1086554 1 1 1
v -0.6894171 0.01 -0.159111 1 1 1
v -0.805516 0.01 -0.4772529 1 1 1
v -0.8433686 0.01 -0.1897338 1 1 1
v -1 0.01 -0.2 1 1 1
v 1 0.01 -0.2 1 1 1
v 0.3366292 0.01 -0.2 1 1 1
v -0.6091833 0.01 -0.458548 1 1 1
v -0.7673031 0.01 -0.49 1 1 1
v -0.422148 0.01 -0.3950581 1 1 1
v -0.245 0.01 -0.3076984 1 1 1
v -0.08381801 0.01 -0.2 1 1 1
v -0.08077024 0.01 -0.1979635 1 1 1
v 0.03093577 0.01 -0.1 1 1 1
v 0.06773124 0.01 -0.06773122 1 1 1
v 0.1271299 0.01 0 1 1 1
v 0.1979636 0.01 0.08077024 1 1 1
v 0.3076984 0.01 0.245 1 1 1
v 0.3950581 0.01 0.422148 1 1 1
v 0.4243269 0.01 -0.1 1 1 1
v 0.428036 0.01 -0.09577058 1 1 1
v 0.458548 0.01 0.6091833 1 1 1
v 0.4920278 0.01 0 1 1 1
v 0.4970817 0.01 0.8029054 1 1 1
v 0.5588457 0.01 0.1 1 1 1
v 0.6629832 0.01 0.3111698 1 1 1
v 0.7386665 0.01 0.5341257 1 1 1
v 0.7846007 0.01 0.7650529 1 1 1
v 1 0.01 -0.49 1 1 1
v -0.7673031 0.01 -0.49 1 1 1
v -0.805516 0.01 -0.4772528 1 1 1
v -1 0.01 -0.49 1 1 1
v -0.6143596 0.01 -0.4392295 1 1 1
v -0.6091833 0.01 -0.458548 1 1 1
v -0.4298017 0.01 -0.3765805 1 1 1
v -0.422148 0.01 -0.395058 1 1 1
v -0.255 0.01 -0.2903778 1 1 1
v -0.245 0.01 -0.3076983 1 1 1
v -0.11974 0.01 -0.2 1 1 1
v -0.09294547 0.01 -0.1820965 1 1 1
v -0.08381801 0.01 -0.2 1 1 1
v -0.08077024 0.01 -0.1979636 1 1 1
v 0.0006676198 0.01 -0.1 1 1 1
v 0.03093577 0.01 -0.1 1 1 1
v 0.0535891 0.01 -0.05358912 1 1 1
v 0.06773124 0.01 -0.06773125 1 1 1
v 0.3076984 0.01 0.245 1 1 1
v 0.3950581 0.01 0.422148 1 1 1
v 0.4392295 0.01 0.6143596 1 1 1
v 0.2 0.01 0.9999999 1 1 1
v 0.1 0.01 0.9999999 1 1 1
v -0.04737206 0.01 0.45 1 1 1
v -0.1273113 0.01 0.3303624 1 1 1
v -0.2221825 0.01 0.2221825 1 1 1
v -0.3303624 0.01 0.1273113 1 1 1
v -0.4 0.01 -0.03923048 1 1 1
v -0.5232283 0.01 -0.1 1 1 1
v -0.546061 0.01 0 1 1 1
v -0.5407799 0.01 -0.1086555 1 1 1
v -0.6894171 0.01 -0.159111 1 1 1
v -0.5790482 0.01 -0.01626748 1 1 1
v -0.7152991 0.01 -0.0625184 1 1 1
v -0.8433686 0.01 -0.1897338 1 1 1
v -1 0.01 -0.1 1 1 1
v 1 0.01 -0.8999999 1 1 1
v -1 0.01 -0.8999999 1 1 1
v 1 0.01 -0.1 1 1 1
v 0.3366292 0.01 -0.2 1 1 1
v 0.5452214 0.01 -0.1 1 1 1
v 0.428036 0.01 -0.09577057 1 1 1
v 0.4243269 0.01 -0.1 1 1 1
v 0.6120393 0.01 0 1 1 1
v 0.6629832 0.01 0.3111698 1 1 1
v 0.8 0.01 0.9999999 1 1 1
v 0.9 0.01 0.9999999 1 1 1

vn 0 1 0
vn -0.8314696 0 0.5555702
vn -0.8660254 0 0.5
vn 0.3826834 0 -0.9238795
vn 0.4422887 0 -0.8968728
vn 0.5 0 -0.8660254
vn 0.06540313 0 -0.9978589
vn 0.1305262 0 -0.9914449
vn 0.6087614 0 -0.7933533
vn 0.258819 0 -0.9659258
vn 0 0 -1
vn 0 0 1
vn 0.8968728 0 -0.4422887
vn 0.9238795 0 -0.3826834
vn 0.9914449 0 -0.1305262
vn 0.9978589 0 -0.06540313
vn 0 -1 0
vn -0.9914449 0 0.1305262
vn -0.9978589 0 0.06540313
vn -0.9238795 0 0.3826834
vn -0.9659258 0 0.258819
vn -0.7933533 0 0.6087614
vn -0.7071068 0 0.7071068
vn -0.6087614 0 0.7933533
vn -0.5 0 0.8660254
vn 0.9659258 0 -0.258819
vn -0.06540313 0 0.9978589
vn -0.1305262 0 0.9914449
vn -0.3826834 0 0.9238795
vn -0.258819 0 0.9659258
vn 0.8660254 0 -0.5
vn 0.7933533 0 -0.6087614
vn 0.7071068 0 -0.7071068
vn 1 0 0
vn -1 0 0

vt 0.96875 0.225
vt 0.96875 0.125
vt 0.96875 0.025
vt 0.21875 0.225
vt 0.21875 0.125
vt 0.21875 0.025
vt 0.15625 0.125
vt 0.28125 0.125
vt 0.03125 0.125

usemtl colormap

f 3/1/1 2/1/1 1/1/1
f 5/2/2 2/1/2 4/2/2
f 2/1/2 5/2/2 1/1/2
f 1/1/2 5/2/2 6/2/3
f 1/1/2 6/2/3 3/1/3
f 9/1/4 8/1/5 7/2/4
f 10/1/6 7/2/4 8/1/5
f 10/1/6 11/2/5 7/2/4
f 11/2/5 10/1/6 12/2/6
f 15/1/7 14/2/8 13/2/7
f 14/2/8 15/1/7 16/1/8
f 10/1/6 17/2/9 12/2/6
f 17/2/9 10/1/6 18/1/9
f 19/2/10 9/1/4 7/2/4
f 9/1/4 19/2/10 20/1/10
f 14/2/8 20/1/10 19/2/10
f 20/1/10 14/2/8 16/1/8
f 2/1/1 22/1/1 21/1/1
f 22/1/1 2/1/1 23/1/1
f 23/1/1 2/1/1 3/1/1
f 24/1/1 23/1/1 3/1/1
f 25/1/1 23/1/1 24/1/1
f 25/1/1 26/1/1 23/1/1
f 27/1/1 26/1/1 25/1/1
f 27/1/1 28/1/1 26/1/1
f 29/1/1 28/1/1 27/1/1
f 29/1/1 30/1/1 28/1/1
f 30/1/1 29/1/1 31/1/1
f 34/1/11 33/3/11 32/3/11
f 33/3/11 34/1/11 35/1/11
f 22/1/12 37/3/12 36/3/12
f 37/3/12 22/1/12 23/1/12
f 4/2/11 21/1/11 38/2/11
f 21/1/11 4/2/11 2/1/11
f 41/1/12 40/2/12 39/2/12
f 40/2/12 41/1/12 42/1/12
f 45/1/1 44/1/1 43/1/1
f 44/1/1 45/1/1 46/1/1
f 44/1/1 46/1/1 47/1/1
f 44/1/1 47/1/1 48/1/1
f 48/1/1 47/1/1 49/1/1
f 48/1/1 49/1/1 50/1/1
f 50/1/1 49/1/1 51/1/1
f 51/1/1 49/1/1 52/1/1
f 51/1/1 52/1/1 53/1/1
f 53/1/1 52/1/1 54/1/1
f 53/1/1 54/1/1 55/1/1
f 55/1/1 54/1/1 56/1/1
f 56/1/1 54/1/1 18/1/1
f 56/1/1 18/1/1 57/1/1
f 57/1/1 18/1/1 10/1/1
f 57/1/1 10/1/1 58/1/1
f 58/1/1 10/1/1 8/1/1
f 58/1/1 8/1/1 59/1/1
f 59/1/1 8/1/1 9/1/1
f 59/1/1 9/1/1 20/1/1
f 59/1/1 20/1/1 60/1/1
f 60/1/1 20/1/1 16/1/1
f 60/1/1 16/1/1 61/1/1
f 61/1/1 16/1/1 15/1/1
f 61/1/1 15/1/1 62/1/1
f 26/1/14 37/3/13 23/1/13
f 37/3/13 26/1/14 63/3/14
f 31/1/16 64/3/15 30/1/15
f 64/3/15 31/1/16 65/3/16
f 66/3/17 64/3/17 65/3/17
f 64/3/17 66/3/17 67/3/17
f 67/3/17 66/3/17 63/3/17
f 63/3/17 66/3/17 37/3/17
f 68/3/17 37/3/17 66/3/17
f 69/3/17 37/3/17 68/3/17
f 70/3/17 37/3/17 69/3/17
f 71/3/17 37/3/17 70/3/17
f 32/3/17 37/3/17 71/3/17
f 32/3/17 71/3/17 72/3/17
f 32/3/17 72/3/17 73/3/17
f 32/3/17 73/3/17 74/3/17
f 32/3/17 74/3/17 75/3/17
f 32/3/17 75/3/17 76/3/17
f 32/3/17 76/3/17 77/3/17
f 32/3/17 77/3/17 78/3/17
f 32/3/17 78/3/17 79/3/17
f 33/3/17 37/3/17 32/3/17
f 37/3/17 33/3/17 36/3/17
f 66/3/19 48/1/18 68/3/18
f 48/1/18 66/3/19 44/1/19
f 69/3/21 51/1/20 70/3/20
f 51/1/20 69/3/21 50/1/21
f 70/3/20 53/1/3 71/3/3
f 53/1/3 70/3/20 51/1/20
f 71/3/3 55/1/22 72/3/22
f 55/1/22 71/3/3 53/1/3
f 72/3/22 56/1/23 73/3/23
f 56/1/23 72/3/22 55/1/22
f 56/1/23 74/3/24 73/3/23
f 74/3/24 56/1/23 57/1/24
f 57/1/24 75/3/25 74/3/24
f 75/3/25 57/1/24 58/1/25
f 34/1/1 41/1/1 35/1/1
f 41/1/1 34/1/1 42/1/1
f 28/1/26 63/3/14 26/1/14
f 63/3/14 28/1/26 67/3/26
f 30/1/15 67/3/26 28/1/26
f 67/3/26 30/1/15 64/3/15
f 68/3/18 50/1/21 69/3/21
f 50/1/21 68/3/18 48/1/18
f 78/3/28 62/1/27 79/3/27
f 62/1/27 78/3/28 61/1/28
f 58/1/25 76/3/29 75/3/25
f 76/3/29 58/1/25 59/1/29
f 59/1/29 77/3/30 76/3/29
f 77/3/30 59/1/29 60/1/30
f 60/1/30 78/3/28 77/3/30
f 78/3/28 60/1/30 61/1/28
f 80/2/20 3/1/3 6/2/3
f 3/1/3 80/2/20 24/1/20
f 81/2/21 24/1/20 80/2/20
f 24/1/20 81/2/21 25/1/21
f 43/1/16 82/2/15 45/1/15
f 82/2/15 43/1/16 83/2/16
f 45/1/15 84/2/26 46/1/26
f 84/2/26 45/1/15 82/2/15
f 46/1/26 85/2/14 47/1/14
f 85/2/14 46/1/26 84/2/26
f 47/1/14 86/2/31 49/1/31
f 86/2/31 47/1/14 85/2/14
f 49/1/31 87/2/32 52/1/32
f 87/2/32 49/1/31 86/2/31
f 52/1/32 88/2/33 54/1/33
f 88/2/33 52/1/32 87/2/32
f 89/2/18 25/1/21 81/2/21
f 25/1/21 89/2/18 27/1/18
f 18/1/9 88/2/33 17/2/9
f 88/2/33 18/1/9 54/1/33
f 90/2/19 27/1/18 89/2/18
f 27/1/18 90/2/19 29/1/19
f 22/4/34 38/5/34 21/4/34
f 36/6/34 38/5/34 22/4/34
f 36/6/34 91/5/34 38/5/34
f 36/6/34 92/5/34 91/5/34
f 36/6/34 93/5/34 92/5/34
f 36/6/34 94/5/34 93/5/34
f 36/6/34 39/5/34 94/5/34
f 33/6/34 39/5/34 36/6/34
f 33/6/34 41/4/34 39/5/34
f 41/4/34 33/6/34 35/4/34
f 90/5/12 31/4/12 29/4/12
f 90/5/12 65/6/12 31/4/12
f 65/6/12 90/5/12 66/6/12
f 95/5/12 66/6/12 90/5/12
f 95/5/12 90/5/12 96/5/12
f 97/5/12 95/5/12 96/5/12
f 95/5/12 97/5/12 98/5/12
f 83/5/12 66/6/12 95/5/12
f 66/6/12 83/5/12 44/4/12
f 44/4/12 83/5/12 43/4/12
f 15/4/35 79/6/35 62/4/35
f 13/5/35 79/6/35 15/4/35
f 99/5/35 79/6/35 13/5/35
f 100/5/35 79/6/35 99/5/35
f 101/5/35 79/6/35 100/5/35
f 102/5/35 79/6/35 101/5/35
f 40/5/35 79/6/35 102/5/35
f 40/5/35 32/6/35 79/6/35
f 32/6/35 40/5/35 34/4/35
f 42/4/35 34/4/35 40/5/35
f 104/7/1 93/7/1 103/7/1
f 93/7/1 104/7/1 101/7/1
f 105/7/1 95/7/1 98/7/1
f 95/7/1 105/7/1 106/7/1
f 95/7/1 106/7/1 107/7/1
f 95/7/1 107/7/1 108/7/1
f 95/7/1 108/7/1 109/7/1
f 95/7/1 109/7/1 110/7/1
f 110/7/1 109/7/1 111/7/1
f 111/7/1 109/7/1 112/7/1
f 111/7/1 112/7/1 113/7/1
f 113/7/1 112/7/1 114/7/1
f 114/7/1 112/7/1 115/7/1
f 114/7/1 115/7/1 116/7/1
f 114/7/1 116/7/1 117/7/1
f 117/7/1 116/7/1 118/7/1
f 117/7/1 118/7/1 119/7/1
f 119/7/1 118/7/1 120/7/1
f 119/7/1 120/7/1 121/7/1
f 119/7/1 121/7/1 122/7/1
f 122/7/1 121/7/1 123/7/1
f 122/7/1 123/7/1 124/7/1
f 124/7/1 123/7/1 125/7/1
f 125/7/1 123/7/1 126/7/1
f 126/7/1 123/7/1 127/7/1
f 126/7/1 127/7/1 128/7/1
f 128/7/1 127/7/1 129/7/1
f 129/7/1 127/7/1 130/7/1
f 129/7/1 130/7/1 131/7/1
f 131/7/1 130/7/1 100/7/1
f 131/7/1 100/7/1 132/7/1
f 92/7/1 134/7/1 133/7/1
f 134/7/1 92/7/1 135/7/1
f 135/7/1 92/7/1 136/7/1
f 134/7/1 135/7/1 137/7/1
f 134/7/1 137/7/1 138/7/1
f 134/7/1 138/7/1 139/7/1
f 134/7/1 139/7/1 140/7/1
f 134/7/1 140/7/1 141/7/1
f 134/7/1 141/7/1 142/7/1
f 134/7/1 142/7/1 143/7/1
f 134/7/1 143/7/1 144/7/1
f 134/7/1 144/7/1 145/7/1
f 146/7/1 134/7/1 145/7/1
f 146/7/1 147/7/1 134/7/1
f 146/7/1 148/7/1 147/7/1
f 149/7/1 148/7/1 146/7/1
f 149/7/1 150/7/1 148/7/1
f 151/7/1 150/7/1 149/7/1
f 97/7/1 150/7/1 151/7/1
f 97/7/1 152/7/1 150/7/1
f 97/7/1 153/7/1 152/7/1
f 97/7/1 154/7/1 153/7/1
f 97/7/1 155/7/1 154/7/1
f 155/7/1 97/7/1 96/7/1
f 101/8/1 156/8/1 93/8/1
f 156/8/1 101/8/1 157/8/1
f 157/8/1 101/8/1 158/8/1
f 158/8/1 101/8/1 159/8/1
f 160/8/1 157/8/1 158/8/1
f 160/8/1 161/8/1 157/8/1
f 162/8/1 161/8/1 160/8/1
f 162/8/1 163/8/1 161/8/1
f 164/8/1 163/8/1 162/8/1
f 164/8/1 165/8/1 163/8/1
f 166/8/1 165/8/1 164/8/1
f 167/8/1 165/8/1 166/8/1
f 167/8/1 168/8/1 165/8/1
f 167/8/1 169/8/1 168/8/1
f 170/8/1 169/8/1 167/8/1
f 170/8/1 171/8/1 169/8/1
f 172/8/1 171/8/1 170/8/1
f 172/8/1 173/8/1 171/8/1
f 112/8/1 173/8/1 172/8/1
f 112/8/1 143/8/1 173/8/1
f 109/8/1 143/8/1 112/8/1
f 109/8/1 144/8/1 143/8/1
f 108/8/1 144/8/1 109/8/1
f 108/8/1 174/8/1 144/8/1
f 107/8/1 174/8/1 108/8/1
f 107/8/1 175/8/1 174/8/1
f 176/8/1 175/8/1 107/8/1
f 176/8/1 149/8/1 175/8/1
f 105/8/1 149/8/1 176/8/1
f 105/8/1 151/8/1 149/8/1
f 98/8/1 151/8/1 105/8/1
f 151/8/1 98/8/1 97/8/1
f 110/9/1 178/9/1 177/9/1
f 178/9/1 110/9/1 111/9/1
f 178/9/1 111/9/1 113/9/1
f 178/9/1 113/9/1 82/9/1
f 82/9/1 113/9/1 114/9/1
f 82/9/1 114/9/1 84/9/1
f 84/9/1 114/9/1 85/9/1
f 85/9/1 114/9/1 117/9/1
f 85/9/1 117/9/1 179/9/1
f 179/9/1 117/9/1 180/9/1
f 180/9/1 117/9/1 119/9/1
f 180/9/1 119/9/1 181/9/1
f 181/9/1 119/9/1 122/9/1
f 181/9/1 122/9/1 182/9/1
f 182/9/1 122/9/1 124/9/1
f 182/9/1 124/9/1 12/9/1
f 12/9/1 124/9/1 183/9/1
f 12/9/1 183/9/1 184/9/1
f 12/9/1 184/9/1 185/9/1
f 185/9/1 184/9/1 186/9/1
f 185/9/1 186/9/1 187/9/1
f 185/9/1 187/9/1 188/9/1
f 188/9/1 187/9/1 189/9/1
f 189/9/1 187/9/1 190/9/1
f 189/9/1 190/9/1 14/9/1
f 14/9/1 190/9/1 99/9/1
f 14/9/1 99/9/1 191/9/1
f 193/9/1 103/9/1 192/9/1
f 103/9/1 193/9/1 104/9/1
f 195/9/1 194/9/1 91/9/1
f 194/9/1 195/9/1 196/9/1
f 196/9/1 195/9/1 197/9/1
f 197/9/1 195/9/1 198/9/1
f 196/9/1 197/9/1 150/9/1
f 152/9/1 196/9/1 150/9/1
f 152/9/1 199/9/1 196/9/1
f 152/9/1 6/9/1 199/9/1
f 200/9/1 6/9/1 152/9/1
f 154/9/1 6/9/1 200/9/1
f 154/9/1 80/9/1 6/9/1
f 155/9/1 80/9/1 154/9/1
f 201/9/1 80/9/1 155/9/1
f 201/9/1 81/9/1 80/9/1
f 201/9/1 89/9/1 81/9/1
f 89/9/1 201/9/1 202/9/1

g road-curve-intersection




usemtl colormap

f 3/1/1 2/1/1 1/1/1
f 5/2/2 2/1/2 4/2/2
f 2/1/2 5/2/2 1/1/2
f 1/1/2 5/2/2 6/2/3
f 1/1/2 6/2/3 3/1/3
f 9/1/4 8/1/5 7/2/4
f 10/1/6 7/2/4 8/1/5
f 10/1/6 11/2/5 7/2/4
f 11/2/5 10/1/6 12/2/6
f 15/1/7 14/2/8 13/2/7
f 14/2/8 15/1/7 16/1/8
f 10/1/6 17/2/9 12/2/6
f 17/2/9 10/1/6 18/1/9
f 19/2/10 9/1/4 7/2/4
f 9/1/4 19/2/10 20/1/10
f 14/2/8 20/1/10 19/2/10
f 20/1/10 14/2/8 16/1/8
f 2/1/1 22/1/1 21/1/1
f 22/1/1 2/1/1 23/1/1
f 23/1/1 2/1/1 3/1/1
f 24/1/1 23/1/1 3/1/1
f 25/1/1 23/1/1 24/1/1
f 25/1/1 26/1/1 23/1/1
f 27/1/1 26/1/1 25/1/1
f 27/1/1 28/1/1 26/1/1
f 29/1/1 28/1/1 27/1/1
f 29/1/1 30/1/1 28/1/1
f 30/1/1 29/1/1 31/1/1
f 34/1/11 33/3/11 32/3/11
f 33/3/11 34/1/11 35/1/11
f 22/1/12 37/3/12 36/3/12
f 37/3/12 22/1/12 23/1/12
f 4/2/11 21/1/11 38/2/11
f 21/1/11 4/2/11 2/1/11
f 41/1/12 40/2/12 39/2/12
f 40/2/12 41/1/12 42/1/12
f 45/1/1 44/1/1 43/1/1
f 44/1/1 45/1/1 46/1/1
f 44/1/1 46/1/1 47/1/1
f 44/1/1 47/1/1 48/1/1
f 48/1/1 47/1/1 49/1/1
f 48/1/1 49/1/1 50/1/1
f 50/1/1 49/1/1 51/1/1
f 51/1/1 49/1/1 52/1/1
f 51/1/1 52/1/1 53/1/1
f 53/1/1 52/1/1 54/1/1
f 53/1/1 54/1/1 55/1/1
f 55/1/1 54/1/1 56/1/1
f 56/1/1 54/1/1 18/1/1
f 56/1/1 18/1/1 57/1/1
f 57/1/1 18/1/1 10/1/1
f 57/1/1 10/1/1 58/1/1
f 58/1/1 10/1/1 8/1/1
f 58/1/1 8/1/1 59/1/1
f 59/1/1 8/1/1 9/1/1
f 59/1/1 9/1/1 20/1/1
f 59/1/1 20/1/1 60/1/1
f 60/1/1 20/1/1 16/1/1
f 60/1/1 16/1/1 61/1/1
f 61/1/1 16/1/1 15/1/1
f 61/1/1 15/1/1 62/1/1
f 26/1/14 37/3/13 23/1/13
f 37/3/13 26/1/14 63/3/14
f 31/1/16 64/3/15 30/1/15
f 64/3/15 31/1/16 65/3/16
f 66/3/17 64/3/17 65/3/17
f 64/3/17 66/3/17 67/3/17
f 67/3/17 66/3/17 63/3/17
f 63/3/17 66/3/17 37/3/17
f 68/3/17 37/3/17 66/3/17
f 69/3/17 37/3/17 68/3/17
f 70/3/17 37/3/17 69/3/17
f 71/3/17 37/3/17 70/3/17
f 32/3/17 37/3/17 71/3/17
f 32/3/17 71/3/17 72/3/17
f 32/3/17 72/3/17 73/3/17
f 32/3/17 73/3/17 74/3/17
f 32/3/17 74/3/17 75/3/17
f 32/3/17 75/3/17 76/3/17
f 32/3/17 76/3/17 77/3/17
f 32/3/17 77/3/17 78/3/17
f 32/3/17 78/3/17 79/3/17
f 33/3/17 37/3/17 32/3/17
f 37/3/17 33/3/17 36/3/17
f 66/3/19 48/1/18 68/3/18
f 48/1/18 66/3/19 44/1/19
f 69/3/21 51/1/20 70/3/20
f 51/1/20 69/3/21 50/1/21
f 70/3/20 53/1/3 71/3/3
f 53/1/3 70/3/20 51/1/20
f 71/3/3 55/1/22 72/3/22
f 55/1/22 71/3/3 53/1/3
f 72/3/22 56/1/23 73/3/23
f 56/1/23 72/3/22 55/1/22
f 56/1/23 74/3/24 73/3/23
f 74/3/24 56/1/23 57/1/24
f 57/1/24 75/3/25 74/3/24
f 75/3/25 57/1/24 58/1/25
f 34/1/1 41/1/1 35/1/1
f 41/1/1 34/1/1 42/1/1
f 28/1/26 63/3/14 26/1/14
f 63/3/14 28/1/26 67/3/26
f 30/1/15 67/3/26 28/1/26
f 67/3/26 30/1/15 64/3/15
f 68/3/18 50/1/21 69/3/21
f 50/1/21 68/3/18 48/1/18
f 78/3/28 62/1/27 79/3/27
f 62/1/27 78/3/28 61/1/28
f 58/1/25 76/3/29 75/3/25
f 76/3/29 58/1/25 59/1/29
f 59/1/29 77/3/30 76/3/29
f 77/3/30 59/1/29 60/1/30
f 60/1/30 78/3/28 77/3/30
f 78/3/28 60/1/30 61/1/28
f 80/2/20 3/1/3 6/2/3
f 3/1/3 80/2/20 24/1/20
f 81/2/21 24/1/20 80/2/20
f 24/1/20 81/2/21 25/1/21
f 43/1/16 82/2/15 45/1/15
f 82/2/15 43/1/16 83/2/16
f 45/1/15 84/2/26 46/1/26
f 84/2/26 45/1/15 82/2/15
f 46/1/26 85/2/14 47/1/14
f 85/2/14 46/1/26 84/2/26
f 47/1/14 86/2/31 49/1/31
f 86/2/31 47/1/14 85/2/14
f 49/1/31 87/2/32 52/1/32
f 87/2/32 49/1/31 86/2/31
f 52/1/32 88/2/33 54/1/33
f 88/2/33 52/1/32 87/2/32
f 89/2/18 25/1/21 81/2/21
f 25/1/21 89/2/18 27/1/18
f 18/1/9 88/2/33 17/2/9
f 88/2/33 18/1/9 54/1/33
f 90/2/19 27/1/18 89/2/18
f 27/1/18 90/2/19 29/1/19
f 22/4/34 38/5/34 21/4/34
f 36/6/34 38/5/34 22/4/34
f 36/6/34 91/5/34 38/5/34
f 36/6/34 92/5/34 91/5/34
f 36/6/34 93/5/34 92/5/34
f 36/6/34 94/5/34 93/5/34
f 36/6/34 39/5/34 94/5/34
f 33/6/34 39/5/34 36/6/34
f 33/6/34 41/4/34 39/5/34
f 41/4/34 33/6/34 35/4/34
f 90/5/12 31/4/12 29/4/12
f 90/5/12 65/6/12 31/4/12
f 65/6/12 90/5/12 66/6/12
f 95/5/12 66/6/12 90/5/12
f 95/5/12 90/5/12 96/5/12
f 97/5/12 95/5/12 96/5/12
f 95/5/12 97/5/12 98/5/12
f 83/5/12 66/6/12 95/5/12
f 66/6/12 83/5/12 44/4/12
f 44/4/12 83/5/12 43/4/12
f 15/4/35 79/6/35 62/4/35
f 13/5/35 79/6/35 15/4/35
f 99/5/35 79/6/35 13/5/35
f 100/5/35 79/6/35 99/5/35
f 101/5/35 79/6/35 100/5/35
f 102/5/35 79/6/35 101/5/35
f 40/5/35 79/6/35 102/5/35
f 40/5/35 32/6/35 79/6/35
f 32/6/35 40/5/35 34/4/35
f 42/4/35 34/4/35 40/5/35
f 104/7/1 93/7/1 103/7/1
f 93/7/1 104/7/1 101/7/1
f 105/7/1 95/7/1 98/7/1
f 95/7/1 105/7/1 106/7/1
f 95/7/1 106/7/1 107/7/1
f 95/7/1 107/7/1 108/7/1
f 95/7/1 108/7/1 109/7/1
f 95/7/1 109/7/1 110/7/1
f 110/7/1 109/7/1 111/7/1
f 111/7/1 109/7/1 112/7/1
f 111/7/1 112/7/1 113/7/1
f 113/7/1 112/7/1 114/7/1
f 114/7/1 112/7/1 115/7/1
f 114/7/1 115/7/1 116/7/1
f 114/7/1 116/7/1 117/7/1
f 117/7/1 116/7/1 118/7/1
f 117/7/1 118/7/1 119/7/1
f 119/7/1 118/7/1 120/7/1
f 119/7/1 120/7/1 121/7/1
f 119/7/1 121/7/1 122/7/1
f 122/7/1 121/7/1 123/7/1
f 122/7/1 123/7/1 124/7/1
f 124/7/1 123/7/1 125/7/1
f 125/7/1 123/7/1 126/7/1
f 126/7/1 123/7/1 127/7/1
f 126/7/1 127/7/1 128/7/1
f 128/7/1 127/7/1 129/7/1
f 129/7/1 127/7/1 130/7/1
f 129/7/1 130/7/1 131/7/1
f 131/7/1 130/7/1 100/7/1
f 131/7/1 100/7/1 132/7/1
f 92/7/1 134/7/1 133/7/1
f 134/7/1 92/7/1 135/7/1
f 135/7/1 92/7/1 136/7/1
f 134/7/1 135/7/1 137/7/1
f 134/7/1 137/7/1 138/7/1
f 134/7/1 138/7/1 139/7/1
f 134/7/1 139/7/1 140/7/1
f 134/7/1 140/7/1 141/7/1
f 134/7/1 141/7/1 142/7/1
f 134/7/1 142/7/1 143/7/1
f 134/7/1 143/7/1 144/7/1
f 134/7/1 144/7/1 145/7/1
f 146/7/1 134/7/1 145/7/1
f 146/7/1 147/7/1 134/7/1
f 146/7/1 148/7/1 147/7/1
f 149/7/1 148/7/1 146/7/1
f 149/7/1 150/7/1 148/7/1
f 151/7/1 150/7/1 149/7/1
f 97/7/1 150/7/1 151/7/1
f 97/7/1 152/7/1 150/7/1
f 97/7/1 153/7/1 152/7/1
f 97/7/1 154/7/1 153/7/1
f 97/7/1 155/7/1 154/7/1
f 155/7/1 97/7/1 96/7/1
f 101/8/1 156/8/1 93/8/1
f 156/8/1 101/8/1 157/8/1
f 157/8/1 101/8/1 158/8/1
f 158/8/1 101/8/1 159/8/1
f 160/8/1 157/8/1 158/8/1
f 160/8/1 161/8/1 157/8/1
f 162/8/1 161/8/1 160/8/1
f 162/8/1 163/8/1 161/8/1
f 164/8/1 163/8/1 162/8/1
f 164/8/1 165/8/1 163/8/1
f 166/8/1 165/8/1 164/8/1
f 167/8/1 165/8/1 166/8/1
f 167/8/1 168/8/1 165/8/1
f 167/8/1 169/8/1 168/8/1
f 170/8/1 169/8/1 167/8/1
f 170/8/1 171/8/1 169/8/1
f 172/8/1 171/8/1 170/8/1
f 172/8/1 173/8/1 171/8/1
f 112/8/1 173/8/1 172/8/1
f 112/8/1 143/8/1 173/8/1
f 109/8/1 143/8/1 112/8/1
f 109/8/1 144/8/1 143/8/1
f 108/8/1 144/8/1 109/8/1
f 108/8/1 174/8/1 144/8/1
f 107/8/1 174/8/1 108/8/1
f 107/8/1 175/8/1 174/8/1
f 176/8/1 175/8/1 107/8/1
f 176/8/1 149/8/1 175/8/1
f 105/8/1 149/8/1 176/8/1
f 105/8/1 151/8/1 149/8/1
f 98/8/1 151/8/1 105/8/1
f 151/8/1 98/8/1 97/8/1
f 110/9/1 178/9/1 177/9/1
f 178/9/1 110/9/1 111/9/1
f 178/9/1 111/9/1 113/9/1
f 178/9/1 113/9/1 82/9/1
f 82/9/1 113/9/1 114/9/1
f 82/9/1 114/9/1 84/9/1
f 84/9/1 114/9/1 85/9/1
f 85/9/1 114/9/1 117/9/1
f 85/9/1 117/9/1 179/9/1
f 179/9/1 117/9/1 180/9/1
f 180/9/1 117/9/1 119/9/1
f 180/9/1 119/9/1 181/9/1
f 181/9/1 119/9/1 122/9/1
f 181/9/1 122/9/1 182/9/1
f 182/9/1 122/9/1 124/9/1
f 182/9/1 124/9/1 12/9/1
f 12/9/1 124/9/1 183/9/1
f 12/9/1 183/9/1 184/9/1
f 12/9/1 184/9/1 185/9/1
f 185/9/1 184/9/1 186/9/1
f 185/9/1 186/9/1 187/9/1
f 185/9/1 187/9/1 188/9/1
f 188/9/1 187/9/1 189/9/1
f 189/9/1 187/9/1 190/9/1
f 189/9/1 190/9/1 14/9/1
f 14/9/1 190/9/1 99/9/1
f 14/9/1 99/9/1 191/9/1
f 193/9/1 103/9/1 192/9/1
f 103/9/1 193/9/1 104/9/1
f 195/9/1 194/9/1 91/9/1
f 194/9/1 195/9/1 196/9/1
f 196/9/1 195/9/1 197/9/1
f 197/9/1 195/9/1 198/9/1
f 196/9/1 197/9/1 150/9/1
f 152/9/1 196/9/1 150/9/1
f 152/9/1 199/9/1 196/9/1
f 152/9/1 6/9/1 199/9/1
f 200/9/1 6/9/1 152/9/1
f 154/9/1 6/9/1 200/9/1
f 154/9/1 80/9/1 6/9/1
f 155/9/1 80/9/1 154/9/1
f 201/9/1 80/9/1 155/9/1
f 201/9/1 81/9/1 80/9/1
f 201/9/1 89/9/1 81/9/1
f 89/9/1 201/9/1 202/9/1

