# Created by Kenney (www.kenney.nl)

mtllib road-end-barrier.mtl

g road-end-barrier

v 0.5 0.08 -0.5 1 1 1
v 0.5 0 -0.5 1 1 1
v 0.5 0.08 -0.47 1 1 1
v 0.5 0 -0.45 1 1 1
v 0.5 0 0.5 1 1 1
v 0.5 0 0.45 1 1 1
v -0.5 0 0.5 1 1 1
v -0.45 0 0.45 1 1 1
v -0.45 0 -0.45 1 1 1
v -0.5 0 -0.5 1 1 1
v -0.47 0.08 -0.47 1 1 1
v 0.5 0.08 0.47 1 1 1
v 0.5 0.08 0.5 1 1 1
v -0.5 0.08 -0.5 1 1 1
v -0.5 0.08 0.5 1 1 1
v -0.47 0.08 0.47 1 1 1

vn 1 0 0
vn 0 -1 0
vn 0 0.2425356 0.9701425
vn 0 1 0
vn 0 0 -1
vn 0 0.2425356 -0.9701425
vn 0 0 1
vn 0.9701425 0.2425356 0
vn -1 0 0

vt 0.90625 0.125

usemtl colormap

f 3/1/1 2/1/1 1/1/1
f 2/1/1 3/1/1 4/1/1
f 7/1/2 6/1/2 5/1/2
f 6/1/2 7/1/2 8/1/2
f 8/1/2 7/1/2 9/1/2
f 10/1/2 9/1/2 7/1/2
f 10/1/2 4/1/2 9/1/2
f 4/1/2 10/1/2 2/1/2
f 3/1/3 9/1/3 4/1/3
f 9/1/3 3/1/3 11/1/3
f 12/1/1 5/1/1 6/1/1
f 5/1/1 12/1/1 13/1/1
f 14/1/4 3/1/4 1/1/4
f 3/1/4 14/1/4 11/1/4
f 11/1/4 14/1/4 15/1/4
f 15/1/4 16/1/4 11/1/4
f 15/1/4 12/1/4 16/1/4
f 12/1/4 15/1/4 13/1/4
f 14/1/5 2/1/5 10/1/5
f 2/1/5 14/1/5 1/1/5
f 16/1/6 6/1/6 8/1/6
f 6/1/6 16/1/6 12/1/6
f 13/1/7 7/1/7 5/1/7
f 7/1/7 13/1/7 15/1/7
f 16/1/8 9/1/8 11/1/8
f 9/1/8 16/1/8 8/1/8
f 7/1/9 14/1/9 10/1/9
f 14/1/9 7/1/9 15/1/9

g road-end-barrier




usemtl colormap

f 3/1/1 2/1/1 1/1/1
f 2/1/1 3/1/1 4/1/1
f 7/1/2 6/1/2 5/1/2
f 6/1/2 7/1/2 8/1/2
f 8/1/2 7/1/2 9/1/2
f 10/1/2 9/1/2 7/1/2
f 10/1/2 4/1/2 9/1/2
f 4/1/2 10/1/2 2/1/2
f 3/1/3 9/1/3 4/1/3
f 9/1/3 3/1/3 11/1/3
f 12/1/1 5/1/1 6/1/1
f 5/1/1 12/1/1 13/1/1
f 14/1/4 3/1/4 1/1/4
f 3/1/4 14/1/4 11/1/4
f 11/1/4 14/1/4 15/1/4
f 15/1/4 16/1/4 11/1/4
f 15/1/4 12/1/4 16/1/4
f 12/1/4 15/1/4 13/1/4
f 14/1/5 2/1/5 10/1/5
f 2/1/5 14/1/5 1/1/5
f 16/1/6 6/1/6 8/1/6
f 6/1/6 16/1/6 12/1/6
f 13/1/7 7/1/7 5/1/7
f 7/1/7 13/1/7 15/1/7
f 16/1/8 9/1/8 11/1/8
f 9/1/8 16/1/8 8/1/8
f 7/1/9 14/1/9 10/1/9
f 14/1/9 7/1/9 15/1/9

