# Created by Kenney (www.kenney.nl)

mtllib road-side-entry-barrier.mtl

g road-side-entry-barrier

v 0.4542835 0.08 -0.5243219 1 1 1
v 0.443076 0.08 -0.5338328 1 1 1
v 0.4542835 -4.484198E-13 -0.5243219 1 1 1
v 0.443076 -4.457634E-13 -0.5338328 1 1 1
v 0.04744475 0.08 -0.8063492 1 1 1
v 0.01545657 0.08 -0.808906 1 1 1
v 0.04744475 -3.369521E-13 -0.8063492 1 1 1
v 0.01545657 -3.183573E-13 -0.808906 1 1 1
v 0.4310196 -4.42182E-13 -0.5453391 1 1 1
v 0.4310196 0.08 -0.5453391 1 1 1
v 0.4182635 -4.393903E-13 -0.5589017 1 1 1
v 0.4182635 0.08 -0.5589017 1 1 1
v 0.4046617 -4.353802E-13 -0.5748928 1 1 1
v 0.4046617 0.08 -0.5748928 1 1 1
v 5.51492E-05 0.08 -0.8100001 1 1 1
v 5.51492E-05 -5.711109E-13 -0.8100001 1 1 1
v 0.4980155 0.08 -0.5004771 1 1 1
v 0.4936029 0.08 -0.5016164 1 1 1
v 0.4980155 -4.693834E-13 -0.5004771 1 1 1
v 0.4936029 -4.654749E-13 -0.5016164 1 1 1
v 0.1788229 0.08 -0.7316441 1 1 1
v 0.1788229 -6.409953E-13 -0.7116441 1 1 1
v 0.1461698 0.08 -0.7475359 1 1 1
v 0.1461698 -6.291232E-13 -0.727536 1 1 1
v 0.3956983 1.963306E-12 -0.5102744 1 1 1
v 0.381171 1.970581E-12 -0.5257203 1 1 1
v 0.3956984 0.08 -0.5302745 1 1 1
v 0.381171 0.08 -0.5457203 1 1 1
v 0.4644982 0.08 -0.5167062 1 1 1
v 0.4644982 -4.519165E-13 -0.5167062 1 1 1
v 0.3848298 -4.296162E-13 -0.6002806 1 1 1
v 0.3848298 0.08 -0.6002806 1 1 1
v 0.3583036 -4.203216E-13 -0.6309401 1 1 1
v 0.3583036 0.08 -0.6309401 1 1 1
v 0.2684115 0.08 -0.6692872 1 1 1
v 0.2684115 2.122397E-12 -0.6492872 1 1 1
v 0.2399269 0.08 -0.6923023 1 1 1
v 0.2399269 -6.575598E-13 -0.6723023 1 1 1
v 0.479076 0.08 -0.473983 1 1 1
v 0.479076 -7.291192E-13 -0.453983 1 1 1
v 0.469641 0.08 -0.4773136 1 1 1
v 0.469641 -7.287244E-13 -0.4573137 1 1 1
v 0.04103088 0.08 -0.7769506 1 1 1
v 0.04103088 -5.798415E-13 -0.7569506 1 1 1
v 0.01171169 0.08 -0.7792941 1 1 1
v 0.01171168 -5.652679E-13 -0.7592941 1 1 1
v 0.3303736 -4.129446E-13 -0.6598779 1 1 1
v 0.3303736 0.08 -0.6598779 1 1 1
v 0.4593444 0.08 -0.4819354 1 1 1
v 0.4593444 -7.285609E-13 -0.4619354 1 1 1
v 0.4481589 0.08 -0.488043 1 1 1
v 0.4481589 -7.217366E-13 -0.468043 1 1 1
v 0.300925 0.08 -0.68698 1 1 1
v 0.2698433 0.08 -0.7120935 1 1 1
v 0.300925 -4.032157E-13 -0.68698 1 1 1
v 0.2698433 -3.934473E-13 -0.7120935 1 1 1
v 0.2024143 0.08 -0.7554945 1 1 1
v 0.1659992 0.08 -0.7732173 1 1 1
v 0.2024143 -3.755575E-13 -0.7554945 1 1 1
v 0.1659992 -3.657158E-13 -0.7732173 1 1 1
v 0.5000001 0.08 -0.470124 1 1 1
v 0.4958283 0.08 -0.470418 1 1 1
v 0.5000001 0.08 -0.5001515 1 1 1
v 0.4877476 0.08 -0.4717441 1 1 1
v 0.4361154 0.08 -0.4958089 1 1 1
v 0.4232877 0.08 -0.5053728 1 1 1
v 0.4881402 0.08 -0.5035448 1 1 1
v 0.4814866 0.08 -0.5065314 1 1 1
v 0.409777 0.08 -0.5168382 1 1 1
v 0.4735954 0.08 -0.5108401 1 1 1
v 0.3660922 0.08 -0.5634478 1 1 1
v 0.3463892 0.08 -0.5886707 1 1 1
v 0.3215648 0.08 -0.6173632 1 1 1
v 0.2955983 0.08 -0.6442667 1 1 1
v 0.2711242 0.08 -0.6667907 1 1 1
v 0.3048158 0.08 -0.6833993 1 1 1
v 0.2100774 0.08 -0.7131539 1 1 1
v 0.237028 0.08 -0.7350169 1 1 1
v 0.2265824 0.08 -0.7411966 1 1 1
v 0.1121938 0.08 -0.7605632 1 1 1
v 0.07705975 0.08 -0.7704513 1 1 1
v 0.1278721 0.08 -0.7878361 1 1 1
v 0.001773805 0.08 -0.7800001 1 1 1
v -0.5 0.08 -0.7800002 1 1 1
v -0.4999999 0.08 -0.8100001 1 1 1
v 0.08824096 0.08 -0.7989899 1 1 1
v 0.3048158 -4.029281E-13 -0.6833993 1 1 1
v 0.3215648 1.98458E-12 -0.5973632 1 1 1
v 0.2955983 1.9878E-12 -0.6242667 1 1 1
v 0.5 0 0.45 1 1 1
v 0.5 0.08 0.4700001 1 1 1
v -0.5000001 0 0.4499999 1 1 1
v -0.5000001 0.08 0.47 1 1 1
v 0.001773803 -7.228363E-13 -0.7600001 1 1 1
v -0.5 1.944919E-12 -0.7600001 1 1 1
v 0.4814866 -4.614368E-13 -0.5065314 1 1 1
v 0.4735954 -4.557686E-13 -0.5108401 1 1 1
v 0.08824096 -3.463426E-13 -0.7989899 1 1 1
v 0.2100774 -6.510851E-13 -0.6931539 1 1 1
v 0.2711242 1.997388E-12 -0.6467907 1 1 1
v 0.1121938 -6.150742E-13 -0.7405632 1 1 1
v 0.07705975 -5.98645E-13 -0.7504513 1 1 1
v 0.5 0 0.5000001 1 1 1
v -0.5000001 0 0.4999999 1 1 1
v 0.2265824 -3.819588E-13 -0.7411966 1 1 1
v 0.237028 -3.856642E-13 -0.7350169 1 1 1
v 0.5 0.08 0.5000001 1 1 1
v 0.4361154 -4.814811E-13 -0.4758089 1 1 1
v 0.4232877 1.949161E-12 -0.4853727 1 1 1
v 0.4881402 -6.235002E-13 -0.5035448 1 1 1
v -0.5000001 0.08 0.4999999 1 1 1
v 0.4877476 -7.286229E-13 -0.4517441 1 1 1
v 0.3660922 1.97894E-12 -0.5434478 1 1 1
v 0.3463892 1.98009E-12 -0.5686707 1 1 1
v 0.1278721 -3.559531E-13 -0.7878361 1 1 1
v -0.4999999 -5.303906E-13 -0.8100001 1 1 1
v 0.409777 1.955449E-12 -0.4968382 1 1 1
v 0.5000001 -6.198173E-13 -0.450124 1 1 1
v 0.5000001 -5.012716E-13 -0.5001515 1 1 1
v 0.4958283 -7.263162E-13 -0.4504181 1 1 1

vn 0.622689 0 -0.7824696
vn 0.6690074 0 -0.7432558
vn 0.1287585 0 -0.9916761
vn 0.07526953 0 -0.9971634
vn 0.709679 0 -0.7045254
vn 0.745308 0 -0.6667204
vn 0.7750579 0 -0.6318905
vn 0.03545206 0 -0.9993716
vn 0.2061702 0 -0.9785163
vn 0.2917082 0 -0.9565074
vn -0.4601247 0.2153363 0.8613452
vn -0.4653173 0.214679 0.8587159
vn -0.3857197 0.2237673 0.8950691
vn -0.3905427 0.2232746 0.8930987
vn -0.6968022 0.173962 0.6958478
vn -0.7332065 0.1649257 0.6597028
vn -0.7010521 0.1729546 0.6918185
vn -0.737134 0.1638927 0.6555707
vn 0.5701519 0 -0.8215395
vn 0.7723941 0 -0.6351438
vn 0.7381573 0 -0.6746288
vn -0.6392934 0.1865009 0.7460037
vn -0.6442655 0.1854917 0.7419669
vn -0.5866984 0.1964067 0.7856269
vn -0.5919046 0.1954857 0.7819428
vn -0.2855526 0.2324372 0.9297488
vn -0.2818998 0.2326993 0.9307973
vn -0.3640661 0.2258912 0.9035648
vn -0.3597436 0.2262982 0.9051927
vn -0.1240402 0.2406626 0.9626504
vn -0.1259307 0.2406048 0.9624194
vn -0.07298464 0.2418888 0.9675553
vn -0.07308413 0.241887 0.9675482
vn 0.6986607 0 -0.7154533
vn -0.4363475 0.2182283 0.8729132
vn -0.4316103 0.2187818 0.8751271
vn -0.5019939 0.2097621 0.8390484
vn -0.497071 0.2104506 0.8418024
vn 0.6531668 0 -0.7572143
vn 0.6009376 0 -0.7992961
vn 0.4737827 0 -0.8806419
vn 0.3981853 0 -0.9173051
vn 0 1 0
vn 0.6771846 0 -0.7358133
vn -0.7300264 0.1657535 0.6630139
vn -0.6900798 0.1755311 0.7021245
vn -0.7257401 0.166857 0.6674282
vn -0.6854283 0.1765999 0.7063997
vn 1.1565E-07 0.2425356 -0.9701427
vn -0.03420814 0.2423937 0.9695748
vn -0.03458451 0.2423905 0.9695622
vn -1.1565E-07 0.2425356 0.9701427
vn 0.4447077 0 -0.8956759
vn 0.5109215 0 -0.8596275
vn 0.2244786 0 -0.9744791
vn -0.5270964 0.2061081 0.8244326
vn -0.5323966 0.2053052 0.8212209
vn -0.6660098 0.1809178 0.723671
vn -0.3042352 0.2310387 0.9241549
vn -0.3083826 0.2307151 0.9228603
vn -0.2165381 0.2367813 0.9471253
vn -0.2196943 0.2366102 0.9464409
vn 0 -1 0
vn 0.5091714 0 -0.8606653
vn 0.5413066 0 -0.8408254
vn 1 0 1.192093E-07
vn -0.5609682 0.2007801 0.8031204
vn -0.5560468 0.2015837 0.806335
vn -0.6135074 0.1915277 0.766111
vn -0.6087272 0.1924229 0.7696915
vn 0.3715072 0 -0.9284303
vn -1.192093E-07 0 1
vn -0.2016439 0.2375537 0.9502149
vn -0.1989129 0.2376891 0.9507565
vn -0.7639433 0.1565042 0.6260169
vn -0.7647945 0.1562595 0.6250379
vn -0.7671905 0.1555671 0.6222684
vn -0.7608875 0.1573775 0.6295098
vn 0.314794 0 -0.9491601
vn -1 0 -1.192093E-07
vn -0.6600292 0.1822025 0.7288099
vn -0.6554854 0.1831648 0.7326594
vn 1.192093E-07 0 -1
vn -0.0682188 0.2419706 0.9678826
vn -0.1136262 0.2409649 0.9638596
vn -0.1120284 0.2410088 0.9640355
vn 0.1619344 0 -0.9868016

vt 0.90625 0.125

usemtl colormap

f 3/1/1 2/1/2 1/1/1
f 2/1/2 3/1/1 4/1/2
f 7/1/3 6/1/4 5/1/3
f 6/1/4 7/1/3 8/1/4
f 11/1/6 10/1/5 9/1/5
f 10/1/5 11/1/6 12/1/6
f 13/1/7 12/1/6 11/1/6
f 12/1/6 13/1/7 14/1/7
f 8/1/4 15/1/8 6/1/4
f 15/1/8 8/1/4 16/1/8
f 19/1/9 18/1/10 17/1/9
f 18/1/10 19/1/9 20/1/10
f 23/1/13 22/1/12 21/1/11
f 22/1/12 23/1/13 24/1/14
f 27/1/17 26/1/16 25/1/15
f 26/1/16 27/1/17 28/1/18
f 30/1/19 1/1/1 29/1/19
f 1/1/1 30/1/19 3/1/1
f 33/1/21 32/1/20 31/1/20
f 32/1/20 33/1/21 34/1/21
f 37/1/24 36/1/23 35/1/22
f 36/1/23 37/1/24 38/1/25
f 41/1/28 40/1/27 39/1/26
f 40/1/27 41/1/28 42/1/29
f 45/1/32 44/1/31 43/1/30
f 44/1/31 45/1/32 46/1/33
f 47/1/34 34/1/21 33/1/21
f 34/1/21 47/1/34 48/1/34
f 51/1/37 50/1/36 49/1/35
f 50/1/36 51/1/37 52/1/38
f 55/1/39 54/1/40 53/1/39
f 54/1/40 55/1/39 56/1/40
f 59/1/41 58/1/42 57/1/41
f 58/1/42 59/1/41 60/1/42
f 63/1/43 62/1/43 61/1/43
f 62/1/43 63/1/43 64/1/43
f 64/1/43 63/1/43 39/1/43
f 39/1/43 63/1/43 41/1/43
f 41/1/43 63/1/43 49/1/43
f 49/1/43 63/1/43 51/1/43
f 51/1/43 63/1/43 65/1/43
f 65/1/43 63/1/43 66/1/43
f 66/1/43 63/1/43 17/1/43
f 66/1/43 17/1/43 18/1/43
f 66/1/43 18/1/43 67/1/43
f 66/1/43 67/1/43 68/1/43
f 66/1/43 68/1/43 69/1/43
f 69/1/43 68/1/43 70/1/43
f 69/1/43 70/1/43 29/1/43
f 69/1/43 29/1/43 1/1/43
f 69/1/43 1/1/43 27/1/43
f 27/1/43 1/1/43 2/1/43
f 27/1/43 2/1/43 28/1/43
f 28/1/43 2/1/43 10/1/43
f 28/1/43 10/1/43 12/1/43
f 28/1/43 12/1/43 71/1/43
f 71/1/43 12/1/43 14/1/43
f 71/1/43 14/1/43 72/1/43
f 72/1/43 14/1/43 32/1/43
f 72/1/43 32/1/43 73/1/43
f 73/1/43 32/1/43 34/1/43
f 73/1/43 34/1/43 74/1/43
f 74/1/43 34/1/43 48/1/43
f 74/1/43 48/1/43 75/1/43
f 75/1/43 48/1/43 76/1/43
f 75/1/43 76/1/43 35/1/43
f 35/1/43 76/1/43 37/1/43
f 37/1/43 76/1/43 53/1/43
f 37/1/43 53/1/43 54/1/43
f 37/1/43 54/1/43 77/1/43
f 77/1/43 54/1/43 78/1/43
f 77/1/43 78/1/43 21/1/43
f 21/1/43 78/1/43 23/1/43
f 23/1/43 78/1/43 79/1/43
f 23/1/43 79/1/43 57/1/43
f 23/1/43 57/1/43 80/1/43
f 80/1/43 57/1/43 58/1/43
f 80/1/43 58/1/43 81/1/43
f 81/1/43 58/1/43 43/1/43
f 43/1/43 58/1/43 82/1/43
f 43/1/43 82/1/43 45/1/43
f 45/1/43 82/1/43 83/1/43
f 83/1/43 82/1/43 84/1/43
f 84/1/43 82/1/43 85/1/43
f 85/1/43 82/1/43 86/1/43
f 85/1/43 86/1/43 5/1/43
f 85/1/43 5/1/43 6/1/43
f 85/1/43 6/1/43 15/1/43
f 47/1/34 76/1/44 48/1/34
f 76/1/44 47/1/34 87/1/44
f 87/1/44 53/1/39 76/1/44
f 53/1/39 87/1/44 55/1/39
f 73/1/47 89/1/46 88/1/45
f 89/1/46 73/1/47 74/1/48
f 4/1/2 10/1/5 2/1/2
f 10/1/5 4/1/2 9/1/5
f 92/1/49 91/1/49 90/1/49
f 91/1/49 92/1/49 93/1/49
f 84/1/52 94/1/51 83/1/50
f 94/1/51 84/1/52 95/1/52
f 96/1/53 70/1/54 68/1/53
f 70/1/54 96/1/53 97/1/54
f 98/1/55 5/1/3 86/1/55
f 5/1/3 98/1/55 7/1/3
f 21/1/11 99/1/57 77/1/56
f 99/1/57 21/1/11 22/1/12
f 100/1/58 35/1/22 36/1/23
f 35/1/22 100/1/58 75/1/58
f 89/1/46 75/1/58 100/1/58
f 75/1/58 89/1/46 74/1/48
f 81/1/61 101/1/60 80/1/59
f 101/1/60 81/1/61 102/1/62
f 104/1/63 90/1/63 103/1/63
f 90/1/63 104/1/63 92/1/63
f 57/1/41 105/1/64 59/1/41
f 105/1/64 57/1/41 79/1/64
f 79/1/64 106/1/65 105/1/64
f 106/1/65 79/1/64 78/1/65
f 91/1/66 103/1/66 90/1/66
f 103/1/66 91/1/66 107/1/66
f 97/1/54 29/1/19 70/1/54
f 29/1/19 97/1/54 30/1/19
f 66/1/69 108/1/68 65/1/67
f 108/1/68 66/1/69 109/1/70
f 110/1/71 68/1/53 67/1/71
f 68/1/53 110/1/71 96/1/53
f 111/1/72 103/1/72 107/1/72
f 103/1/72 111/1/72 104/1/72
f 39/1/26 112/1/74 64/1/73
f 112/1/74 39/1/26 40/1/27
f 20/1/10 67/1/71 18/1/10
f 67/1/71 20/1/10 110/1/71
f 71/1/77 114/1/76 113/1/75
f 114/1/76 71/1/77 72/1/78
f 65/1/67 52/1/38 51/1/37
f 52/1/38 65/1/67 108/1/68
f 60/1/42 82/1/79 58/1/42
f 82/1/79 60/1/42 115/1/79
f 95/1/80 85/1/80 116/1/80
f 85/1/80 95/1/80 84/1/80
f 72/1/78 88/1/45 114/1/76
f 88/1/45 72/1/78 73/1/47
f 43/1/30 102/1/62 81/1/61
f 102/1/62 43/1/30 44/1/31
f 83/1/50 46/1/33 45/1/32
f 46/1/33 83/1/50 94/1/51
f 69/1/81 109/1/70 66/1/69
f 109/1/70 69/1/81 117/1/82
f 16/1/8 85/1/83 15/1/8
f 85/1/83 16/1/8 116/1/83
f 91/1/43 111/1/43 107/1/43
f 111/1/43 91/1/43 93/1/43
f 56/1/40 78/1/65 54/1/40
f 78/1/65 56/1/40 106/1/65
f 111/1/80 92/1/80 104/1/80
f 92/1/80 111/1/80 93/1/80
f 80/1/59 24/1/14 23/1/13
f 24/1/14 80/1/59 101/1/60
f 119/1/66 61/1/66 118/1/66
f 61/1/66 119/1/66 63/1/66
f 115/1/79 86/1/55 82/1/79
f 86/1/55 115/1/79 98/1/55
f 77/1/56 38/1/25 37/1/24
f 38/1/25 77/1/56 99/1/57
f 62/1/85 118/1/84 61/1/84
f 118/1/84 62/1/85 120/1/86
f 27/1/17 117/1/82 69/1/81
f 117/1/82 27/1/17 25/1/15
f 64/1/73 120/1/86 62/1/85
f 120/1/86 64/1/73 112/1/74
f 49/1/35 42/1/29 41/1/28
f 42/1/29 49/1/35 50/1/36
f 120/1/63 119/1/63 118/1/63
f 119/1/63 120/1/63 112/1/63
f 119/1/63 112/1/63 40/1/63
f 119/1/63 40/1/63 42/1/63
f 119/1/63 42/1/63 50/1/63
f 119/1/63 50/1/63 52/1/63
f 119/1/63 52/1/63 108/1/63
f 119/1/63 108/1/63 109/1/63
f 119/1/63 109/1/63 117/1/63
f 119/1/63 117/1/63 25/1/63
f 119/1/63 25/1/63 19/1/63
f 19/1/63 25/1/63 20/1/63
f 20/1/63 25/1/63 110/1/63
f 110/1/63 25/1/63 96/1/63
f 96/1/63 25/1/63 97/1/63
f 97/1/63 25/1/63 26/1/63
f 97/1/63 26/1/63 30/1/63
f 30/1/63 26/1/63 3/1/63
f 3/1/63 26/1/63 4/1/63
f 4/1/63 26/1/63 113/1/63
f 4/1/63 113/1/63 9/1/63
f 9/1/63 113/1/63 114/1/63
f 9/1/63 114/1/63 11/1/63
f 11/1/63 114/1/63 13/1/63
f 13/1/63 114/1/63 88/1/63
f 13/1/63 88/1/63 31/1/63
f 31/1/63 88/1/63 89/1/63
f 31/1/63 89/1/63 33/1/63
f 33/1/63 89/1/63 100/1/63
f 33/1/63 100/1/63 47/1/63
f 47/1/63 100/1/63 36/1/63
f 47/1/63 36/1/63 38/1/63
f 47/1/63 38/1/63 87/1/63
f 87/1/63 38/1/63 99/1/63
f 87/1/63 99/1/63 55/1/63
f 55/1/63 99/1/63 56/1/63
f 56/1/63 99/1/63 22/1/63
f 56/1/63 22/1/63 24/1/63
f 56/1/63 24/1/63 106/1/63
f 106/1/63 24/1/63 101/1/63
f 106/1/63 101/1/63 105/1/63
f 105/1/63 101/1/63 102/1/63
f 105/1/63 102/1/63 59/1/63
f 59/1/63 102/1/63 44/1/63
f 59/1/63 44/1/63 60/1/63
f 60/1/63 44/1/63 46/1/63
f 60/1/63 46/1/63 94/1/63
f 60/1/63 94/1/63 95/1/63
f 60/1/63 95/1/63 116/1/63
f 60/1/63 116/1/63 115/1/63
f 115/1/63 116/1/63 98/1/63
f 98/1/63 116/1/63 7/1/63
f 7/1/63 116/1/63 8/1/63
f 8/1/63 116/1/63 16/1/63
f 28/1/18 113/1/75 26/1/16
f 113/1/75 28/1/18 71/1/77
f 31/1/20 14/1/7 13/1/7
f 14/1/7 31/1/20 32/1/20
f 119/1/87 17/1/9 63/1/87
f 17/1/9 119/1/87 19/1/9

g road-side-entry-barrier




usemtl colormap

f 3/1/1 2/1/2 1/1/1
f 2/1/2 3/1/1 4/1/2
f 7/1/3 6/1/4 5/1/3
f 6/1/4 7/1/3 8/1/4
f 11/1/6 10/1/5 9/1/5
f 10/1/5 11/1/6 12/1/6
f 13/1/7 12/1/6 11/1/6
f 12/1/6 13/1/7 14/1/7
f 8/1/4 15/1/8 6/1/4
f 15/1/8 8/1/4 16/1/8
f 19/1/9 18/1/10 17/1/9
f 18/1/10 19/1/9 20/1/10
f 23/1/13 22/1/12 21/1/11
f 22/1/12 23/1/13 24/1/14
f 27/1/17 26/1/16 25/1/15
f 26/1/16 27/1/17 28/1/18
f 30/1/19 1/1/1 29/1/19
f 1/1/1 30/1/19 3/1/1
f 33/1/21 32/1/20 31/1/20
f 32/1/20 33/1/21 34/1/21
f 37/1/24 36/1/23 35/1/22
f 36/1/23 37/1/24 38/1/25
f 41/1/28 40/1/27 39/1/26
f 40/1/27 41/1/28 42/1/29
f 45/1/32 44/1/31 43/1/30
f 44/1/31 45/1/32 46/1/33
f 47/1/34 34/1/21 33/1/21
f 34/1/21 47/1/34 48/1/34
f 51/1/37 50/1/36 49/1/35
f 50/1/36 51/1/37 52/1/38
f 55/1/39 54/1/40 53/1/39
f 54/1/40 55/1/39 56/1/40
f 59/1/41 58/1/42 57/1/41
f 58/1/42 59/1/41 60/1/42
f 63/1/43 62/1/43 61/1/43
f 62/1/43 63/1/43 64/1/43
f 64/1/43 63/1/43 39/1/43
f 39/1/43 63/1/43 41/1/43
f 41/1/43 63/1/43 49/1/43
f 49/1/43 63/1/43 51/1/43
f 51/1/43 63/1/43 65/1/43
f 65/1/43 63/1/43 66/1/43
f 66/1/43 63/1/43 17/1/43
f 66/1/43 17/1/43 18/1/43
f 66/1/43 18/1/43 67/1/43
f 66/1/43 67/1/43 68/1/43
f 66/1/43 68/1/43 69/1/43
f 69/1/43 68/1/43 70/1/43
f 69/1/43 70/1/43 29/1/43
f 69/1/43 29/1/43 1/1/43
f 69/1/43 1/1/43 27/1/43
f 27/1/43 1/1/43 2/1/43
f 27/1/43 2/1/43 28/1/43
f 28/1/43 2/1/43 10/1/43
f 28/1/43 10/1/43 12/1/43
f 28/1/43 12/1/43 71/1/43
f 71/1/43 12/1/43 14/1/43
f 71/1/43 14/1/43 72/1/43
f 72/1/43 14/1/43 32/1/43
f 72/1/43 32/1/43 73/1/43
f 73/1/43 32/1/43 34/1/43
f 73/1/43 34/1/43 74/1/43
f 74/1/43 34/1/43 48/1/43
f 74/1/43 48/1/43 75/1/43
f 75/1/43 48/1/43 76/1/43
f 75/1/43 76/1/43 35/1/43
f 35/1/43 76/1/43 37/1/43
f 37/1/43 76/1/43 53/1/43
f 37/1/43 53/1/43 54/1/43
f 37/1/43 54/1/43 77/1/43
f 77/1/43 54/1/43 78/1/43
f 77/1/43 78/1/43 21/1/43
f 21/1/43 78/1/43 23/1/43
f 23/1/43 78/1/43 79/1/43
f 23/1/43 79/1/43 57/1/43
f 23/1/43 57/1/43 80/1/43
f 80/1/43 57/1/43 58/1/43
f 80/1/43 58/1/43 81/1/43
f 81/1/43 58/1/43 43/1/43
f 43/1/43 58/1/43 82/1/43
f 43/1/43 82/1/43 45/1/43
f 45/1/43 82/1/43 83/1/43
f 83/1/43 82/1/43 84/1/43
f 84/1/43 82/1/43 85/1/43
f 85/1/43 82/1/43 86/1/43
f 85/1/43 86/1/43 5/1/43
f 85/1/43 5/1/43 6/1/43
f 85/1/43 6/1/43 15/1/43
f 47/1/34 76/1/44 48/1/34
f 76/1/44 47/1/34 87/1/44
f 87/1/44 53/1/39 76/1/44
f 53/1/39 87/1/44 55/1/39
f 73/1/47 89/1/46 88/1/45
f 89/1/46 73/1/47 74/1/48
f 4/1/2 10/1/5 2/1/2
f 10/1/5 4/1/2 9/1/5
f 92/1/49 91/1/49 90/1/49
f 91/1/49 92/1/49 93/1/49
f 84/1/52 94/1/51 83/1/50
f 94/1/51 84/1/52 95/1/52
f 96/1/53 70/1/54 68/1/53
f 70/1/54 96/1/53 97/1/54
f 98/1/55 5/1/3 86/1/55
f 5/1/3 98/1/55 7/1/3
f 21/1/11 99/1/57 77/1/56
f 99/1/57 21/1/11 22/1/12
f 100/1/58 35/1/22 36/1/23
f 35/1/22 100/1/58 75/1/58
f 89/1/46 75/1/58 100/1/58
f 75/1/58 89/1/46 74/1/48
f 81/1/61 101/1/60 80/1/59
f 101/1/60 81/1/61 102/1/62
f 104/1/63 90/1/63 103/1/63
f 90/1/63 104/1/63 92/1/63
f 57/1/41 105/1/64 59/1/41
f 105/1/64 57/1/41 79/1/64
f 79/1/64 106/1/65 105/1/64
f 106/1/65 79/1/64 78/1/65
f 91/1/66 103/1/66 90/1/66
f 103/1/66 91/1/66 107/1/66
f 97/1/54 29/1/19 70/1/54
f 29/1/19 97/1/54 30/1/19
f 66/1/69 108/1/68 65/1/67
f 108/1/68 66/1/69 109/1/70
f 110/1/71 68/1/53 67/1/71
f 68/1/53 110/1/71 96/1/53
f 111/1/72 103/1/72 107/1/72
f 103/1/72 111/1/72 104/1/72
f 39/1/26 112/1/74 64/1/73
f 112/1/74 39/1/26 40/1/27
f 20/1/10 67/1/71 18/1/10
f 67/1/71 20/1/10 110/1/71
f 71/1/77 114/1/76 113/1/75
f 114/1/76 71/1/77 72/1/78
f 65/1/67 52/1/38 51/1/37
f 52/1/38 65/1/67 108/1/68
f 60/1/42 82/1/79 58/1/42
f 82/1/79 60/1/42 115/1/79
f 95/1/80 85/1/80 116/1/80
f 85/1/80 95/1/80 84/1/80
f 72/1/78 88/1/45 114/1/76
f 88/1/45 72/1/78 73/1/47
f 43/1/30 102/1/62 81/1/61
f 102/1/62 43/1/30 44/1/31
f 83/1/50 46/1/33 45/1/32
f 46/1/33 83/1/50 94/1/51
f 69/1/81 109/1/70 66/1/69
f 109/1/70 69/1/81 117/1/82
f 16/1/8 85/1/83 15/1/8
f 85/1/83 16/1/8 116/1/83
f 91/1/43 111/1/43 107/1/43
f 111/1/43 91/1/43 93/1/43
f 56/1/40 78/1/65 54/1/40
f 78/1/65 56/1/40 106/1/65
f 111/1/80 92/1/80 104/1/80
f 92/1/80 111/1/80 93/1/80
f 80/1/59 24/1/14 23/1/13
f 24/1/14 80/1/59 101/1/60
f 119/1/66 61/1/66 118/1/66
f 61/1/66 119/1/66 63/1/66
f 115/1/79 86/1/55 82/1/79
f 86/1/55 115/1/79 98/1/55
f 77/1/56 38/1/25 37/1/24
f 38/1/25 77/1/56 99/1/57
f 62/1/85 118/1/84 61/1/84
f 118/1/84 62/1/85 120/1/86
f 27/1/17 117/1/82 69/1/81
f 117/1/82 27/1/17 25/1/15
f 64/1/73 120/1/86 62/1/85
f 120/1/86 64/1/73 112/1/74
f 49/1/35 42/1/29 41/1/28
f 42/1/29 49/1/35 50/1/36
f 120/1/63 119/1/63 118/1/63
f 119/1/63 120/1/63 112/1/63
f 119/1/63 112/1/63 40/1/63
f 119/1/63 40/1/63 42/1/63
f 119/1/63 42/1/63 50/1/63
f 119/1/63 50/1/63 52/1/63
f 119/1/63 52/1/63 108/1/63
f 119/1/63 108/1/63 109/1/63
f 119/1/63 109/1/63 117/1/63
f 119/1/63 117/1/63 25/1/63
f 119/1/63 25/1/63 19/1/63
f 19/1/63 25/1/63 20/1/63
f 20/1/63 25/1/63 110/1/63
f 110/1/63 25/1/63 96/1/63
f 96/1/63 25/1/63 97/1/63
f 97/1/63 25/1/63 26/1/63
f 97/1/63 26/1/63 30/1/63
f 30/1/63 26/1/63 3/1/63
f 3/1/63 26/1/63 4/1/63
f 4/1/63 26/1/63 113/1/63
f 4/1/63 113/1/63 9/1/63
f 9/1/63 113/1/63 114/1/63
f 9/1/63 114/1/63 11/1/63
f 11/1/63 114/1/63 13/1/63
f 13/1/63 114/1/63 88/1/63
f 13/1/63 88/1/63 31/1/63
f 31/1/63 88/1/63 89/1/63
f 31/1/63 89/1/63 33/1/63
f 33/1/63 89/1/63 100/1/63
f 33/1/63 100/1/63 47/1/63
f 47/1/63 100/1/63 36/1/63
f 47/1/63 36/1/63 38/1/63
f 47/1/63 38/1/63 87/1/63
f 87/1/63 38/1/63 99/1/63
f 87/1/63 99/1/63 55/1/63
f 55/1/63 99/1/63 56/1/63
f 56/1/63 99/1/63 22/1/63
f 56/1/63 22/1/63 24/1/63
f 56/1/63 24/1/63 106/1/63
f 106/1/63 24/1/63 101/1/63
f 106/1/63 101/1/63 105/1/63
f 105/1/63 101/1/63 102/1/63
f 105/1/63 102/1/63 59/1/63
f 59/1/63 102/1/63 44/1/63
f 59/1/63 44/1/63 60/1/63
f 60/1/63 44/1/63 46/1/63
f 60/1/63 46/1/63 94/1/63
f 60/1/63 94/1/63 95/1/63
f 60/1/63 95/1/63 116/1/63
f 60/1/63 116/1/63 115/1/63
f 115/1/63 116/1/63 98/1/63
f 98/1/63 116/1/63 7/1/63
f 7/1/63 116/1/63 8/1/63
f 8/1/63 116/1/63 16/1/63
f 28/1/18 113/1/75 26/1/16
f 113/1/75 28/1/18 71/1/77
f 31/1/20 14/1/7 13/1/7
f 14/1/7 31/1/20 32/1/20
f 119/1/87 17/1/9 63/1/87
f 17/1/9 119/1/87 19/1/9

