# Created by Kenney (www.kenney.nl)

mtllib road-slant-high-barrier.mtl

g road-slant-high-barrier

v 0.5 0.5 0.45 1 1 1
v 0.5 0.5 0.5 1 1 1
v 0.5 0.58 0.47 1 1 1
v 0.5 0.58 0.5 1 1 1
v -0.5 0 0.45 1 1 1
v -0.5 0.08 0.47 1 1 1
v -0.5 0 0.5 1 1 1
v -0.5 0.08 0.5 1 1 1
v 0.5 0.5 -0.5 1 1 1
v -0.5 0 -0.5 1 1 1
v 0.5 0.5 -0.45 1 1 1
v -0.5 0 -0.45 1 1 1
v -0.5 0.08 -0.5 1 1 1
v 0.5 0.58 -0.5 1 1 1
v 0.5 0.58 -0.47 1 1 1
v -0.5 0.08 -0.47 1 1 1

vn 1 0 0
vn -1 0 0
vn -0.1203859 0.2407717 -0.9630868
vn 0.4472136 -0.8944272 0
vn 0 0 -1
vn -0.1203859 0.2407717 0.9630868
vn -0.4472136 0.8944272 0
vn 0 0 1

vt 0.90625 0.125

usemtl colormap

f 3/1/1 2/1/1 1/1/1
f 2/1/1 3/1/1 4/1/1
f 7/1/2 6/1/2 5/1/2
f 6/1/2 7/1/2 8/1/2
f 6/1/3 1/1/3 5/1/3
f 1/1/3 6/1/3 3/1/3
f 11/1/4 10/1/4 9/1/4
f 10/1/4 11/1/4 12/1/4
f 13/1/5 9/1/5 10/1/5
f 9/1/5 13/1/5 14/1/5
f 15/1/1 9/1/1 14/1/1
f 9/1/1 15/1/1 11/1/1
f 11/1/6 16/1/6 12/1/6
f 16/1/6 11/1/6 15/1/6
f 13/1/7 15/1/7 14/1/7
f 15/1/7 13/1/7 16/1/7
f 12/1/2 13/1/2 10/1/2
f 13/1/2 12/1/2 16/1/2
f 3/1/7 8/1/7 4/1/7
f 8/1/7 3/1/7 6/1/7
f 7/1/4 1/1/4 2/1/4
f 1/1/4 7/1/4 5/1/4
f 2/1/8 8/1/8 7/1/8
f 8/1/8 2/1/8 4/1/8

g road-slant-high-barrier




usemtl colormap

f 3/1/1 2/1/1 1/1/1
f 2/1/1 3/1/1 4/1/1
f 7/1/2 6/1/2 5/1/2
f 6/1/2 7/1/2 8/1/2
f 6/1/3 1/1/3 5/1/3
f 1/1/3 6/1/3 3/1/3
f 11/1/4 10/1/4 9/1/4
f 10/1/4 11/1/4 12/1/4
f 13/1/5 9/1/5 10/1/5
f 9/1/5 13/1/5 14/1/5
f 15/1/1 9/1/1 14/1/1
f 9/1/1 15/1/1 11/1/1
f 11/1/6 16/1/6 12/1/6
f 16/1/6 11/1/6 15/1/6
f 13/1/7 15/1/7 14/1/7
f 15/1/7 13/1/7 16/1/7
f 12/1/2 13/1/2 10/1/2
f 13/1/2 12/1/2 16/1/2
f 3/1/7 8/1/7 4/1/7
f 8/1/7 3/1/7 6/1/7
f 7/1/4 1/1/4 2/1/4
f 1/1/4 7/1/4 5/1/4
f 2/1/8 8/1/8 7/1/8
f 8/1/8 2/1/8 4/1/8

