# Created by Kenney (www.kenney.nl)

mtllib sign-highway-detailed.mtl

g sign-highway-detailed

v 0.0125 0.15 0.4875 1 1 1
v -0.0125 0.15 0.4875 1 1 1
v 0.0125 0.575 0.4875 1 1 1
v -0.0125 0.575 0.4875 1 1 1
v 0.0125 0.6 0.4625 1 1 1
v 0.0125 0.59375 0.48125 1 1 1
v -0.0125 0.6 0.4625 1 1 1
v -0.0125 0.59375 0.48125 1 1 1
v -0.0125 0.15 0.4625 1 1 1
v 0.0125 0.15 0.4625 1 1 1
v -0.0125 0.575 0.4625 1 1 1
v 0.0125 0.575 0.4625 1 1 1
v -0.0125 0.15 -0.4875 1 1 1
v 0.0125 0.15 -0.4875 1 1 1
v -0.0125 0.575 -0.4875 1 1 1
v 0.0125 0.575 -0.4875 1 1 1
v 0.0125 0.575 -0.4625 1 1 1
v -0.0125 0.575 -0.4625 1 1 1
v 0.0125 0.6 -0.4625 1 1 1
v -0.0125 0.6 -0.4625 1 1 1
v 0.0125 0.59375 -0.48125 1 1 1
v -0.0125 0.59375 -0.48125 1 1 1
v 0.0125 0.15 -0.4625 1 1 1
v -0.0125 0.15 -0.4625 1 1 1
v -0.107375 0.507625 -0.4025 1 1 1
v -0.107375 0.487625 -0.4025 1 1 1
v -0.09737499 0.507625 -0.4125 1 1 1
v -0.097375 0.487625 -0.4125 1 1 1
v -0.107375 0.487625 0.4025 1 1 1
v -0.107375 0.507625 0.4025 1 1 1
v -0.03749999 0.487625 0.3925 1 1 1
v -0.087375 0.487625 0.3925 1 1 1
v -0.03749999 0.487625 0.4125 1 1 1
v -0.097375 0.487625 0.4125 1 1 1
v -0.087375 0.487625 -0.3925 1 1 1
v -0.03749999 0.487625 -0.3925 1 1 1
v -0.03749999 0.487625 -0.4125 1 1 1
v -0.03749999 0.507625 -0.4125 1 1 1
v -0.09737499 0.507625 0.4125 1 1 1
v -0.03749999 0.507625 0.4125 1 1 1
v -0.03749999 0.507625 0.3925 1 1 1
v -0.08737499 0.507625 0.3925 1 1 1
v -0.08737499 0.507625 -0.3925 1 1 1
v -0.03749999 0.507625 -0.3925 1 1 1
v 0.025 2.255973E-17 0.5 1 1 1
v 0.025 2.255973E-17 0.45 1 1 1
v -0.025 2.255973E-17 0.5 1 1 1
v -0.025 2.255973E-17 0.45 1 1 1
v -0.025 0.1 0.45 1 1 1
v -0.0125 0.15 0.4625 1 1 1
v -0.025 0.1 0.5 1 1 1
v -0.0125 0.15 0.4875 1 1 1
v 0.025 0.1 0.45 1 1 1
v 0.0125 0.15 0.4625 1 1 1
v 0.025 0.1 0.5 1 1 1
v 0.0125 0.15 0.4875 1 1 1
v -0.025 0 -0.5 1 1 1
v -0.025 0 -0.45 1 1 1
v 0.025 0 -0.5 1 1 1
v 0.025 0 -0.45 1 1 1
v 0.025 0.1 -0.45 1 1 1
v 0.0125 0.15 -0.4625 1 1 1
v 0.025 0.1 -0.5 1 1 1
v 0.0125 0.15 -0.4875 1 1 1
v -0.025 0.1 -0.45 1 1 1
v -0.0125 0.15 -0.4625 1 1 1
v -0.025 0.1 -0.5 1 1 1
v -0.0125 0.15 -0.4875 1 1 1
v -0.0375 0.467625 -0.4025 1 1 1
v 0 0.467625 -0.4025 1 1 1
v -0.0375 0.477625 -0.4125 1 1 1
v 0 0.477625 -0.4125 1 1 1
v 0 0.697375 -0.02500001 1 1 1
v -0.0375 0.697375 -0.02500001 1 1 1
v 0 0.707375 -0.035 1 1 1
v -0.0375 0.707375 -0.035 1 1 1
v 0 0.467625 -0.035 1 1 1
v -0.0375 0.467625 -0.035 1 1 1
v 0 0.697375 -0.4125 1 1 1
v 0 0.707375 -0.4025 1 1 1
v 0 0.477625 -0.02500001 1 1 1
v -0.0375 0.707375 -0.4025 1 1 1
v -0.0375 0.697375 -0.4125 1 1 1
v -0.0375 0.477625 -0.02500001 1 1 1
v -0.0375 0.467625 0.035 1 1 1
v 0 0.467625 0.035 1 1 1
v -0.0375 0.477625 0.02500001 1 1 1
v 0 0.477625 0.02500001 1 1 1
v 0 0.697375 0.4125 1 1 1
v -0.0375 0.697375 0.4125 1 1 1
v 0 0.707375 0.4025 1 1 1
v -0.0375 0.707375 0.4025 1 1 1
v 0 0.467625 0.4025 1 1 1
v -0.0375 0.467625 0.4025 1 1 1
v 0 0.697375 0.02500001 1 1 1
v 0 0.707375 0.035 1 1 1
v 0 0.477625 0.4125 1 1 1
v -0.0375 0.707375 0.035 1 1 1
v -0.0375 0.697375 0.02500001 1 1 1
v -0.0375 0.477625 0.4125 1 1 1
v -0.0375 0.717375 -0.4125 1 1 1
v 0 0.717375 -0.4125 1 1 1
v 0 0.812125 -0.175 1 1 1
v -0.0375 0.812125 -0.175 1 1 1
v 0 0.822125 -0.185 1 1 1
v -0.0375 0.822125 -0.185 1 1 1
v 0 0.707375 -0.185 1 1 1
v -0.0375 0.707375 -0.185 1 1 1
v 0 0.812125 -0.4125 1 1 1
v 0 0.822125 -0.4025 1 1 1
v 0 0.717375 -0.175 1 1 1
v -0.0375 0.822125 -0.4025 1 1 1
v -0.0375 0.812125 -0.4125 1 1 1
v -0.0375 0.717375 -0.175 1 1 1
v -0.0375 0.707375 0.235 1 1 1
v 0 0.707375 0.235 1 1 1
v -0.0375 0.717375 0.225 1 1 1
v 0 0.717375 0.225 1 1 1
v 0 0.787125 0.4125 1 1 1
v -0.0375 0.787125 0.4125 1 1 1
v 0 0.797125 0.4025 1 1 1
v -0.0375 0.797125 0.4025 1 1 1
v 0 0.707375 0.4025 1 1 1
v -0.0375 0.707375 0.4025 1 1 1
v 0 0.787125 0.225 1 1 1
v 0 0.797125 0.235 1 1 1
v 0 0.717375 0.4125 1 1 1
v -0.0375 0.797125 0.235 1 1 1
v -0.0375 0.787125 0.225 1 1 1
v -0.0375 0.717375 0.4125 1 1 1
v -0.0375 0.487625 -0.3925 1 1 1
v -0.0375 0.687375 -0.3925 1 1 1
v -0.0375 0.487625 -0.045 1 1 1
v -0.0375 0.687375 -0.045 1 1 1
v -0.0375 0.487625 0.045 1 1 1
v -0.0375 0.687375 0.045 1 1 1
v -0.0375 0.487625 0.3925 1 1 1
v -0.0375 0.687375 0.3925 1 1 1
v -0.0375 0.727375 -0.3925 1 1 1
v -0.0375 0.802125 -0.3925 1 1 1
v -0.0375 0.727375 -0.195 1 1 1
v -0.0375 0.802125 -0.195 1 1 1
v -0.0375 0.727375 0.245 1 1 1
v -0.0375 0.777125 0.245 1 1 1
v -0.0375 0.727375 0.3925 1 1 1
v -0.0375 0.777125 0.3925 1 1 1
v -0.0375 0.539625 -0.3925 1 1 1
v -0.0375 0.6873749 -0.3925 1 1 1
v -0.0375 0.539625 -0.045 1 1 1
v -0.0375 0.6873749 -0.045 1 1 1
v -0.0375 0.539625 0.045 1 1 1
v -0.0375 0.6873749 0.045 1 1 1
v -0.0375 0.539625 0.3925 1 1 1
v -0.0375 0.6873749 0.3925 1 1 1
v -0.0375 0.727375 0.245 1 1 1
v -0.0375 0.777125 0.245 1 1 1
v -0.0375 0.727375 0.3925 1 1 1
v -0.0375 0.777125 0.3925 1 1 1

vn 0 0 1
vn 0 0.1601822 0.9870875
vn 0 0.9870875 0.1601822
vn 0 0.7071068 0.7071068
vn 0 0 -1
vn 0 0.1601822 -0.9870875
vn 0 -1 0
vn 0 0.9870875 -0.1601822
vn 0 0.7071068 -0.7071068
vn 1 0 0
vn -1 0 0
vn -0.9238796 1.10135E-07 -0.3826834
vn -0.3826835 4.561942E-08 -0.9238795
vn -0.9238796 1.10135E-07 0.3826834
vn -1.192093E-07 -1 0
vn -0.3826835 4.561942E-08 0.9238795
vn 1.192093E-07 1 0
vn 1 -1.192093E-07 0
vn -0.9936895 0.1121652 0
vn -0.9701425 0.2425356 0
vn 0 0.1121652 -0.9936895
vn 0 0.2425356 -0.9701425
vn 0.9936895 0.1121652 0
vn 0.9701425 0.2425356 0
vn 0 0.1121652 0.9936895
vn 0 0.2425356 0.9701425
vn 0.9936895 0.1121652 -7.004049E-14
vn 0.9701425 0.2425356 -6.838077E-14
vn 7.004049E-14 0.1121652 0.9936895
vn 6.838077E-14 0.2425356 0.9701425
vn -0.9936895 0.1121652 7.004049E-14
vn -1 0 7.048528E-14
vn 7.048528E-14 0 1
vn -0.9701425 0.2425356 6.838077E-14
vn 1 0 -7.048528E-14
vn -7.004049E-14 0.1121652 -0.9936895
vn -6.838077E-14 0.2425356 -0.9701425
vn -7.048528E-14 0 -1
vn 0 -0.9238795 -0.3826834
vn 0 -0.3826834 -0.9238795
vn 0 0.3826834 0.9238795
vn 0 0.9238795 0.3826834
vn 0 -0.9238795 0.3826834
vn 0 0.9238795 -0.3826834
vn 0 0.3826834 -0.9238795
vn 0 -0.3826834 0.9238795

vt 0.96875 0.025
vt 0.96875 0.2138889
vt 0.96875 0.225
vt 0.96875 0.2222222
vt 0.96875 0.05362254
vt 0.96875 0.08224508
vt 0.96875 0.075
vt 0.96875 0.1416667
vt 0.96875 0.175
vt 0.21875 0.025
vt 0.21875 0.03334202
vt 0.21875 0.216658
vt 0.21875 0.225
vt 0.21875 0.04242919
vt 0.21875 0.2075708
vt 0.21875 0.04728412
vt 0.21875 0.2027159
vt 0.09375 0.283342
vt 0.09375 0.466658
vt 0.09375 0.275
vt 0.09375 0.475
vt 0.09375 0.291684
vt 0.09375 0.458316
vt 0.09375 0.2924292
vt 0.09375 0.4575708
vt 0.09375 0.3098584
vt 0.09375 0.4401416
vt 0.09375 0.2972841
vt 0.09375 0.4527159
vt 0.09375 0.3195682
vt 0.09375 0.4304317
vt 0.71875 0.3270651
vt 0.71875 0.475
vt 0.71875 0.275
vt 0.84375 0.375
vt 0.84375 0.475

usemtl colormap

f 3/2/2 2/1/1 1/1/1
f 2/1/1 3/2/2 4/2/2
f 7/3/3 6/4/4 5/3/3
f 6/4/4 7/3/3 8/4/4
f 6/4/4 4/2/2 3/2/2
f 4/2/2 6/4/4 8/4/4
f 11/2/5 10/1/5 9/1/5
f 10/1/5 11/2/5 12/2/5
f 15/2/6 14/1/5 13/1/5
f 14/1/5 15/2/6 16/2/6
f 11/2/7 17/2/7 12/2/7
f 17/2/7 11/2/7 18/2/7
f 21/4/9 20/3/8 19/3/8
f 20/3/8 21/4/9 22/4/9
f 22/4/9 16/2/6 15/2/6
f 16/2/6 22/4/9 21/4/9
f 19/3/8 7/3/3 5/3/3
f 7/3/3 19/3/8 20/3/8
f 1/1/10 6/4/10 3/2/10
f 10/1/10 6/4/10 1/1/10
f 12/2/10 6/4/10 10/1/10
f 12/2/10 5/3/10 6/4/10
f 17/2/10 5/3/10 12/2/10
f 5/3/10 17/2/10 19/3/10
f 23/1/10 19/3/10 17/2/10
f 23/1/10 21/4/10 19/3/10
f 14/1/10 21/4/10 23/1/10
f 21/4/10 14/1/10 16/2/10
f 2/1/11 11/2/11 9/1/11
f 11/2/11 2/1/11 7/3/11
f 7/3/11 2/1/11 8/4/11
f 8/4/11 2/1/11 4/2/11
f 20/3/11 11/2/11 7/3/11
f 20/3/11 18/2/11 11/2/11
f 20/3/11 24/1/11 18/2/11
f 22/4/11 24/1/11 20/3/11
f 15/2/11 24/1/11 22/4/11
f 24/1/11 15/2/11 13/1/11
f 17/2/1 24/1/1 23/1/1
f 24/1/1 17/2/1 18/2/1
f 27/5/13 26/1/12 25/1/12
f 26/1/12 27/5/13 28/5/13
f 30/1/14 26/1/12 29/1/14
f 26/1/12 30/1/14 25/1/12
f 33/3/15 32/6/15 31/3/15
f 32/6/15 33/3/15 29/1/15
f 29/1/15 33/3/15 34/5/15
f 29/1/15 35/6/15 32/6/15
f 26/1/15 35/6/15 29/1/15
f 26/1/15 36/3/15 35/6/15
f 28/5/15 36/3/15 26/1/15
f 36/3/15 28/5/15 37/3/15
f 38/3/5 28/5/13 27/5/13
f 28/5/13 38/3/5 37/3/5
f 34/5/16 40/3/1 39/5/16
f 40/3/1 34/5/16 33/3/1
f 29/1/14 39/5/16 30/1/14
f 39/5/16 29/1/14 34/5/16
f 40/3/17 30/1/17 39/5/17
f 41/3/17 30/1/17 40/3/17
f 42/6/17 30/1/17 41/3/17
f 43/6/17 30/1/17 42/6/17
f 30/1/17 43/6/17 25/1/17
f 44/3/17 25/1/17 43/6/17
f 38/3/17 25/1/17 44/3/17
f 25/1/17 38/3/17 27/5/17
f 36/3/1 43/6/1 35/6/1
f 43/6/1 36/3/1 44/3/1
f 35/6/18 42/6/18 32/6/18
f 42/6/18 35/6/18 43/6/18
f 42/6/5 31/3/5 32/6/5
f 31/3/5 42/6/5 41/3/5
f 47/7/7 46/7/7 45/7/7
f 46/7/7 47/7/7 48/7/7
f 51/8/19 50/9/20 49/8/19
f 50/9/20 51/8/19 52/9/20
f 50/9/22 53/8/21 49/8/21
f 53/8/21 50/9/22 54/9/22
f 55/8/23 46/7/10 53/8/23
f 46/7/10 55/8/23 45/7/10
f 49/8/21 46/7/5 48/7/5
f 46/7/5 49/8/21 53/8/21
f 54/9/24 55/8/23 53/8/23
f 55/8/23 54/9/24 56/9/24
f 47/7/11 49/8/19 48/7/11
f 49/8/19 47/7/11 51/8/19
f 56/9/26 51/8/25 55/8/25
f 51/8/25 56/9/26 52/9/26
f 55/8/25 47/7/1 45/7/1
f 47/7/1 55/8/25 51/8/25
f 59/7/7 58/7/7 57/7/7
f 58/7/7 59/7/7 60/7/7
f 63/8/27 62/9/28 61/8/27
f 62/9/28 63/8/27 64/9/28
f 62/9/30 65/8/29 61/8/29
f 65/8/29 62/9/30 66/9/30
f 67/8/31 58/7/32 65/8/31
f 58/7/32 67/8/31 57/7/32
f 61/8/29 58/7/33 60/7/33
f 58/7/33 61/8/29 65/8/29
f 66/9/34 67/8/31 65/8/31
f 67/8/31 66/9/34 68/9/34
f 59/7/35 61/8/27 60/7/35
f 61/8/27 59/7/35 63/8/27
f 68/9/37 63/8/36 67/8/36
f 63/8/36 68/9/37 64/9/37
f 67/8/36 59/7/38 57/7/38
f 59/7/38 67/8/36 63/8/36
f 71/11/40 70/10/39 69/10/39
f 70/10/39 71/11/40 72/11/40
f 75/13/42 74/12/41 73/12/41
f 74/12/41 75/13/42 76/13/42
f 78/10/43 70/10/39 77/10/43
f 70/10/39 78/10/43 69/10/39
f 80/13/10 72/11/10 79/12/10
f 72/11/10 80/13/10 70/10/10
f 70/10/10 80/13/10 75/13/10
f 70/10/10 75/13/10 77/10/10
f 77/10/10 75/13/10 73/12/10
f 77/10/10 73/12/10 81/11/10
f 82/13/44 75/13/42 80/13/44
f 75/13/42 82/13/44 76/13/42
f 83/12/45 72/11/40 71/11/40
f 72/11/40 83/12/45 79/12/45
f 73/12/41 84/11/46 81/11/46
f 84/11/46 73/12/41 74/12/41
f 81/11/46 78/10/43 77/10/43
f 78/10/43 81/11/46 84/11/46
f 82/13/44 79/12/45 83/12/45
f 79/12/45 82/13/44 80/13/44
f 87/11/40 86/10/39 85/10/39
f 86/10/39 87/11/40 88/11/40
f 91/13/42 90/12/41 89/12/41
f 90/12/41 91/13/42 92/13/42
f 94/10/43 86/10/39 93/10/43
f 86/10/39 94/10/43 85/10/39
f 96/13/10 88/11/10 95/12/10
f 88/11/10 96/13/10 86/10/10
f 86/10/10 96/13/10 91/13/10
f 86/10/10 91/13/10 93/10/10
f 93/10/10 91/13/10 89/12/10
f 93/10/10 89/12/10 97/11/10
f 98/13/44 91/13/42 96/13/44
f 91/13/42 98/13/44 92/13/42
f 99/12/45 88/11/40 87/11/40
f 88/11/40 99/12/45 95/12/45
f 89/12/41 100/11/46 97/11/46
f 100/11/46 89/12/41 90/12/41
f 97/11/46 94/10/43 93/10/43
f 94/10/43 97/11/46 100/11/46
f 98/13/44 95/12/45 99/12/45
f 95/12/45 98/13/44 96/13/44
f 101/14/40 80/10/39 82/10/39
f 80/10/39 101/14/40 102/14/40
f 105/13/42 104/15/41 103/15/41
f 104/15/41 105/13/42 106/13/42
f 108/10/43 80/10/39 107/10/43
f 80/10/39 108/10/43 82/10/39
f 110/13/10 102/14/10 109/15/10
f 102/14/10 110/13/10 80/10/10
f 80/10/10 110/13/10 105/13/10
f 80/10/10 105/13/10 107/10/10
f 107/10/10 105/13/10 103/15/10
f 107/10/10 103/15/10 111/14/10
f 112/13/44 105/13/42 110/13/44
f 105/13/42 112/13/44 106/13/42
f 113/15/45 102/14/40 101/14/40
f 102/14/40 113/15/45 109/15/45
f 103/15/41 114/14/46 111/14/46
f 114/14/46 103/15/41 104/15/41
f 111/14/46 108/10/43 107/10/43
f 108/10/43 111/14/46 114/14/46
f 112/13/44 109/15/45 113/15/45
f 109/15/45 112/13/44 110/13/44
f 117/16/40 116/10/39 115/10/39
f 116/10/39 117/16/40 118/16/40
f 121/13/42 120/17/41 119/17/41
f 120/17/41 121/13/42 122/13/42
f 124/10/43 116/10/39 123/10/43
f 116/10/39 124/10/43 115/10/39
f 126/13/10 118/16/10 125/17/10
f 118/16/10 126/13/10 116/10/10
f 116/10/10 126/13/10 121/13/10
f 116/10/10 121/13/10 123/10/10
f 123/10/10 121/13/10 119/17/10
f 123/10/10 119/17/10 127/16/10
f 128/13/44 121/13/42 126/13/44
f 121/13/42 128/13/44 122/13/42
f 129/17/45 118/16/40 117/16/40
f 118/16/40 129/17/45 125/17/45
f 119/17/41 130/16/46 127/16/46
f 130/16/46 119/17/41 120/17/41
f 127/16/46 124/10/43 123/10/43
f 124/10/43 127/16/46 130/16/46
f 128/13/44 125/17/45 129/17/45
f 125/17/45 128/13/44 126/13/44
f 69/20/11 83/19/11 71/18/11
f 83/19/11 69/20/11 82/21/11
f 82/21/11 69/20/11 131/22/11
f 131/22/11 69/20/11 78/20/11
f 132/23/11 82/21/11 131/22/11
f 131/22/11 78/20/11 133/22/11
f 82/21/11 132/23/11 76/21/11
f 133/22/11 78/20/11 134/23/11
f 76/21/11 132/23/11 134/23/11
f 76/21/11 134/23/11 78/20/11
f 76/21/11 78/20/11 84/18/11
f 76/21/11 84/18/11 74/19/11
f 85/20/11 99/19/11 87/18/11
f 99/19/11 85/20/11 98/21/11
f 98/21/11 85/20/11 135/22/11
f 135/22/11 85/20/11 94/20/11
f 136/23/11 98/21/11 135/22/11
f 135/22/11 94/20/11 137/22/11
f 98/21/11 136/23/11 92/21/11
f 137/22/11 94/20/11 138/23/11
f 92/21/11 136/23/11 138/23/11
f 92/21/11 138/23/11 94/20/11
f 92/21/11 94/20/11 100/18/11
f 92/21/11 100/18/11 90/19/11
f 82/20/11 113/25/11 101/24/11
f 113/25/11 82/20/11 112/21/11
f 112/21/11 82/20/11 139/26/11
f 139/26/11 82/20/11 108/20/11
f 140/27/11 112/21/11 139/26/11
f 139/26/11 108/20/11 141/26/11
f 112/21/11 140/27/11 106/21/11
f 141/26/11 108/20/11 142/27/11
f 106/21/11 140/27/11 142/27/11
f 106/21/11 142/27/11 108/20/11
f 106/21/11 108/20/11 114/24/11
f 106/21/11 114/24/11 104/25/11
f 115/20/11 129/29/11 117/28/11
f 129/29/11 115/20/11 128/21/11
f 128/21/11 115/20/11 143/30/11
f 143/30/11 115/20/11 124/20/11
f 144/31/11 128/21/11 143/30/11
f 143/30/11 124/20/11 145/30/11
f 128/21/11 144/31/11 122/21/11
f 145/30/11 124/20/11 146/31/11
f 122/21/11 144/31/11 146/31/11
f 122/21/11 146/31/11 124/20/11
f 122/21/11 124/20/11 130/28/11
f 122/21/11 130/28/11 120/29/11
f 149/32/11 148/33/11 147/32/11
f 148/33/11 149/32/11 150/33/11
f 153/32/11 152/33/11 151/32/11
f 152/33/11 153/32/11 154/33/11
f 141/34/11 140/33/11 139/34/11
f 140/33/11 141/34/11 142/33/11
f 157/34/11 156/33/11 155/34/11
f 156/33/11 157/34/11 158/33/11
f 133/35/11 147/36/11 131/35/11
f 147/36/11 133/35/11 149/36/11
f 137/35/11 151/36/11 135/35/11
f 151/36/11 137/35/11 153/36/11

g sign-highway-detailed




usemtl colormap

f 3/2/2 2/1/1 1/1/1
f 2/1/1 3/2/2 4/2/2
f 7/3/3 6/4/4 5/3/3
f 6/4/4 7/3/3 8/4/4
f 6/4/4 4/2/2 3/2/2
f 4/2/2 6/4/4 8/4/4
f 11/2/5 10/1/5 9/1/5
f 10/1/5 11/2/5 12/2/5
f 15/2/6 14/1/5 13/1/5
f 14/1/5 15/2/6 16/2/6
f 11/2/7 17/2/7 12/2/7
f 17/2/7 11/2/7 18/2/7
f 21/4/9 20/3/8 19/3/8
f 20/3/8 21/4/9 22/4/9
f 22/4/9 16/2/6 15/2/6
f 16/2/6 22/4/9 21/4/9
f 19/3/8 7/3/3 5/3/3
f 7/3/3 19/3/8 20/3/8
f 1/1/10 6/4/10 3/2/10
f 10/1/10 6/4/10 1/1/10
f 12/2/10 6/4/10 10/1/10
f 12/2/10 5/3/10 6/4/10
f 17/2/10 5/3/10 12/2/10
f 5/3/10 17/2/10 19/3/10
f 23/1/10 19/3/10 17/2/10
f 23/1/10 21/4/10 19/3/10
f 14/1/10 21/4/10 23/1/10
f 21/4/10 14/1/10 16/2/10
f 2/1/11 11/2/11 9/1/11
f 11/2/11 2/1/11 7/3/11
f 7/3/11 2/1/11 8/4/11
f 8/4/11 2/1/11 4/2/11
f 20/3/11 11/2/11 7/3/11
f 20/3/11 18/2/11 11/2/11
f 20/3/11 24/1/11 18/2/11
f 22/4/11 24/1/11 20/3/11
f 15/2/11 24/1/11 22/4/11
f 24/1/11 15/2/11 13/1/11
f 17/2/1 24/1/1 23/1/1
f 24/1/1 17/2/1 18/2/1
f 27/5/13 26/1/12 25/1/12
f 26/1/12 27/5/13 28/5/13
f 30/1/14 26/1/12 29/1/14
f 26/1/12 30/1/14 25/1/12
f 33/3/15 32/6/15 31/3/15
f 32/6/15 33/3/15 29/1/15
f 29/1/15 33/3/15 34/5/15
f 29/1/15 35/6/15 32/6/15
f 26/1/15 35/6/15 29/1/15
f 26/1/15 36/3/15 35/6/15
f 28/5/15 36/3/15 26/1/15
f 36/3/15 28/5/15 37/3/15
f 38/3/5 28/5/13 27/5/13
f 28/5/13 38/3/5 37/3/5
f 34/5/16 40/3/1 39/5/16
f 40/3/1 34/5/16 33/3/1
f 29/1/14 39/5/16 30/1/14
f 39/5/16 29/1/14 34/5/16
f 40/3/17 30/1/17 39/5/17
f 41/3/17 30/1/17 40/3/17
f 42/6/17 30/1/17 41/3/17
f 43/6/17 30/1/17 42/6/17
f 30/1/17 43/6/17 25/1/17
f 44/3/17 25/1/17 43/6/17
f 38/3/17 25/1/17 44/3/17
f 25/1/17 38/3/17 27/5/17
f 36/3/1 43/6/1 35/6/1
f 43/6/1 36/3/1 44/3/1
f 35/6/18 42/6/18 32/6/18
f 42/6/18 35/6/18 43/6/18
f 42/6/5 31/3/5 32/6/5
f 31/3/5 42/6/5 41/3/5
f 47/7/7 46/7/7 45/7/7
f 46/7/7 47/7/7 48/7/7
f 51/8/19 50/9/20 49/8/19
f 50/9/20 51/8/19 52/9/20
f 50/9/22 53/8/21 49/8/21
f 53/8/21 50/9/22 54/9/22
f 55/8/23 46/7/10 53/8/23
f 46/7/10 55/8/23 45/7/10
f 49/8/21 46/7/5 48/7/5
f 46/7/5 49/8/21 53/8/21
f 54/9/24 55/8/23 53/8/23
f 55/8/23 54/9/24 56/9/24
f 47/7/11 49/8/19 48/7/11
f 49/8/19 47/7/11 51/8/19
f 56/9/26 51/8/25 55/8/25
f 51/8/25 56/9/26 52/9/26
f 55/8/25 47/7/1 45/7/1
f 47/7/1 55/8/25 51/8/25
f 59/7/7 58/7/7 57/7/7
f 58/7/7 59/7/7 60/7/7
f 63/8/27 62/9/28 61/8/27
f 62/9/28 63/8/27 64/9/28
f 62/9/30 65/8/29 61/8/29
f 65/8/29 62/9/30 66/9/30
f 67/8/31 58/7/32 65/8/31
f 58/7/32 67/8/31 57/7/32
f 61/8/29 58/7/33 60/7/33
f 58/7/33 61/8/29 65/8/29
f 66/9/34 67/8/31 65/8/31
f 67/8/31 66/9/34 68/9/34
f 59/7/35 61/8/27 60/7/35
f 61/8/27 59/7/35 63/8/27
f 68/9/37 63/8/36 67/8/36
f 63/8/36 68/9/37 64/9/37
f 67/8/36 59/7/38 57/7/38
f 59/7/38 67/8/36 63/8/36
f 71/11/40 70/10/39 69/10/39
f 70/10/39 71/11/40 72/11/40
f 75/13/42 74/12/41 73/12/41
f 74/12/41 75/13/42 76/13/42
f 78/10/43 70/10/39 77/10/43
f 70/10/39 78/10/43 69/10/39
f 80/13/10 72/11/10 79/12/10
f 72/11/10 80/13/10 70/10/10
f 70/10/10 80/13/10 75/13/10
f 70/10/10 75/13/10 77/10/10
f 77/10/10 75/13/10 73/12/10
f 77/10/10 73/12/10 81/11/10
f 82/13/44 75/13/42 80/13/44
f 75/13/42 82/13/44 76/13/42
f 83/12/45 72/11/40 71/11/40
f 72/11/40 83/12/45 79/12/45
f 73/12/41 84/11/46 81/11/46
f 84/11/46 73/12/41 74/12/41
f 81/11/46 78/10/43 77/10/43
f 78/10/43 81/11/46 84/11/46
f 82/13/44 79/12/45 83/12/45
f 79/12/45 82/13/44 80/13/44
f 87/11/40 86/10/39 85/10/39
f 86/10/39 87/11/40 88/11/40
f 91/13/42 90/12/41 89/12/41
f 90/12/41 91/13/42 92/13/42
f 94/10/43 86/10/39 93/10/43
f 86/10/39 94/10/43 85/10/39
f 96/13/10 88/11/10 95/12/10
f 88/11/10 96/13/10 86/10/10
f 86/10/10 96/13/10 91/13/10
f 86/10/10 91/13/10 93/10/10
f 93/10/10 91/13/10 89/12/10
f 93/10/10 89/12/10 97/11/10
f 98/13/44 91/13/42 96/13/44
f 91/13/42 98/13/44 92/13/42
f 99/12/45 88/11/40 87/11/40
f 88/11/40 99/12/45 95/12/45
f 89/12/41 100/11/46 97/11/46
f 100/11/46 89/12/41 90/12/41
f 97/11/46 94/10/43 93/10/43
f 94/10/43 97/11/46 100/11/46
f 98/13/44 95/12/45 99/12/45
f 95/12/45 98/13/44 96/13/44
f 101/14/40 80/10/39 82/10/39
f 80/10/39 101/14/40 102/14/40
f 105/13/42 104/15/41 103/15/41
f 104/15/41 105/13/42 106/13/42
f 108/10/43 80/10/39 107/10/43
f 80/10/39 108/10/43 82/10/39
f 110/13/10 102/14/10 109/15/10
f 102/14/10 110/13/10 80/10/10
f 80/10/10 110/13/10 105/13/10
f 80/10/10 105/13/10 107/10/10
f 107/10/10 105/13/10 103/15/10
f 107/10/10 103/15/10 111/14/10
f 112/13/44 105/13/42 110/13/44
f 105/13/42 112/13/44 106/13/42
f 113/15/45 102/14/40 101/14/40
f 102/14/40 113/15/45 109/15/45
f 103/15/41 114/14/46 111/14/46
f 114/14/46 103/15/41 104/15/41
f 111/14/46 108/10/43 107/10/43
f 108/10/43 111/14/46 114/14/46
f 112/13/44 109/15/45 113/15/45
f 109/15/45 112/13/44 110/13/44
f 117/16/40 116/10/39 115/10/39
f 116/10/39 117/16/40 118/16/40
f 121/13/42 120/17/41 119/17/41
f 120/17/41 121/13/42 122/13/42
f 124/10/43 116/10/39 123/10/43
f 116/10/39 124/10/43 115/10/39
f 126/13/10 118/16/10 125/17/10
f 118/16/10 126/13/10 116/10/10
f 116/10/10 126/13/10 121/13/10
f 116/10/10 121/13/10 123/10/10
f 123/10/10 121/13/10 119/17/10
f 123/10/10 119/17/10 127/16/10
f 128/13/44 121/13/42 126/13/44
f 121/13/42 128/13/44 122/13/42
f 129/17/45 118/16/40 117/16/40
f 118/16/40 129/17/45 125/17/45
f 119/17/41 130/16/46 127/16/46
f 130/16/46 119/17/41 120/17/41
f 127/16/46 124/10/43 123/10/43
f 124/10/43 127/16/46 130/16/46
f 128/13/44 125/17/45 129/17/45
f 125/17/45 128/13/44 126/13/44
f 69/20/11 83/19/11 71/18/11
f 83/19/11 69/20/11 82/21/11
f 82/21/11 69/20/11 131/22/11
f 131/22/11 69/20/11 78/20/11
f 132/23/11 82/21/11 131/22/11
f 131/22/11 78/20/11 133/22/11
f 82/21/11 132/23/11 76/21/11
f 133/22/11 78/20/11 134/23/11
f 76/21/11 132/23/11 134/23/11
f 76/21/11 134/23/11 78/20/11
f 76/21/11 78/20/11 84/18/11
f 76/21/11 84/18/11 74/19/11
f 85/20/11 99/19/11 87/18/11
f 99/19/11 85/20/11 98/21/11
f 98/21/11 85/20/11 135/22/11
f 135/22/11 85/20/11 94/20/11
f 136/23/11 98/21/11 135/22/11
f 135/22/11 94/20/11 137/22/11
f 98/21/11 136/23/11 92/21/11
f 137/22/11 94/20/11 138/23/11
f 92/21/11 136/23/11 138/23/11
f 92/21/11 138/23/11 94/20/11
f 92/21/11 94/20/11 100/18/11
f 92/21/11 100/18/11 90/19/11
f 82/20/11 113/25/11 101/24/11
f 113/25/11 82/20/11 112/21/11
f 112/21/11 82/20/11 139/26/11
f 139/26/11 82/20/11 108/20/11
f 140/27/11 112/21/11 139/26/11
f 139/26/11 108/20/11 141/26/11
f 112/21/11 140/27/11 106/21/11
f 141/26/11 108/20/11 142/27/11
f 106/21/11 140/27/11 142/27/11
f 106/21/11 142/27/11 108/20/11
f 106/21/11 108/20/11 114/24/11
f 106/21/11 114/24/11 104/25/11
f 115/20/11 129/29/11 117/28/11
f 129/29/11 115/20/11 128/21/11
f 128/21/11 115/20/11 143/30/11
f 143/30/11 115/20/11 124/20/11
f 144/31/11 128/21/11 143/30/11
f 143/30/11 124/20/11 145/30/11
f 128/21/11 144/31/11 122/21/11
f 145/30/11 124/20/11 146/31/11
f 122/21/11 144/31/11 146/31/11
f 122/21/11 146/31/11 124/20/11
f 122/21/11 124/20/11 130/28/11
f 122/21/11 130/28/11 120/29/11
f 149/32/11 148/33/11 147/32/11
f 148/33/11 149/32/11 150/33/11
f 153/32/11 152/33/11 151/32/11
f 152/33/11 153/32/11 154/33/11
f 141/34/11 140/33/11 139/34/11
f 140/33/11 141/34/11 142/33/11
f 157/34/11 156/33/11 155/34/11
f 156/33/11 157/34/11 158/33/11
f 133/35/11 147/36/11 131/35/11
f 147/36/11 133/35/11 149/36/11
f 137/35/11 151/36/11 135/35/11
f 151/36/11 137/35/11 153/36/11

