# Created by Kenney (www.kenney.nl)

mtllib sign-highway-wide.mtl

g sign-highway-wide

v 0.0125 0.15 0.4875 1 1 1
v -0.0125 0.15 0.4875 1 1 1
v 0.0125 0.575 0.4875 1 1 1
v -0.0125 0.575 0.4875 1 1 1
v 0.0125 0.6 0.4625 1 1 1
v 0.0125 0.59375 0.48125 1 1 1
v -0.0125 0.6 0.4625 1 1 1
v -0.0125 0.59375 0.48125 1 1 1
v -0.0125 0.15 0.4625 1 1 1
v 0.0125 0.15 0.4625 1 1 1
v -0.0125 0.575 0.4625 1 1 1
v 0.0125 0.575 0.4625 1 1 1
v -0.0125 0.15 -0.4875 1 1 1
v 0.0125 0.15 -0.4875 1 1 1
v -0.0125 0.575 -0.4875 1 1 1
v 0.0125 0.575 -0.4875 1 1 1
v 0.0125 0.575 -0.4625 1 1 1
v -0.0125 0.575 -0.4625 1 1 1
v 0.0125 0.6 -0.4625 1 1 1
v -0.0125 0.6 -0.4625 1 1 1
v 0.0125 0.59375 -0.48125 1 1 1
v -0.0125 0.59375 -0.48125 1 1 1
v 0.0125 0.15 -0.4625 1 1 1
v -0.0125 0.15 -0.4625 1 1 1
v -0.107375 0.507625 -0.4025 1 1 1
v -0.107375 0.487625 -0.4025 1 1 1
v -0.09737499 0.507625 -0.4125 1 1 1
v -0.097375 0.487625 -0.4125 1 1 1
v -0.107375 0.487625 0.4025 1 1 1
v -0.107375 0.507625 0.4025 1 1 1
v -0.03749999 0.487625 0.3925 1 1 1
v -0.087375 0.487625 0.3925 1 1 1
v -0.03749999 0.487625 0.4125 1 1 1
v -0.097375 0.487625 0.4125 1 1 1
v -0.087375 0.487625 -0.3925 1 1 1
v -0.03749999 0.487625 -0.3925 1 1 1
v -0.03749999 0.487625 -0.4125 1 1 1
v -0.03749999 0.507625 -0.4125 1 1 1
v -0.09737499 0.507625 0.4125 1 1 1
v -0.03749999 0.507625 0.4125 1 1 1
v -0.03749999 0.507625 0.3925 1 1 1
v -0.08737499 0.507625 0.3925 1 1 1
v -0.08737499 0.507625 -0.3925 1 1 1
v -0.03749999 0.507625 -0.3925 1 1 1
v 0.025 2.255973E-17 0.5 1 1 1
v 0.025 2.255973E-17 0.45 1 1 1
v -0.025 2.255973E-17 0.5 1 1 1
v -0.025 2.255973E-17 0.45 1 1 1
v -0.025 0.1 0.45 1 1 1
v -0.0125 0.15 0.4625 1 1 1
v -0.025 0.1 0.5 1 1 1
v -0.0125 0.15 0.4875 1 1 1
v 0.025 0.1 0.45 1 1 1
v 0.0125 0.15 0.4625 1 1 1
v 0.025 0.1 0.5 1 1 1
v 0.0125 0.15 0.4875 1 1 1
v -0.025 0 -0.5 1 1 1
v -0.025 0 -0.45 1 1 1
v 0.025 0 -0.5 1 1 1
v 0.025 0 -0.45 1 1 1
v 0.025 0.1 -0.45 1 1 1
v 0.0125 0.15 -0.4625 1 1 1
v 0.025 0.1 -0.5 1 1 1
v 0.0125 0.15 -0.4875 1 1 1
v -0.025 0.1 -0.45 1 1 1
v -0.0125 0.15 -0.4625 1 1 1
v -0.025 0.1 -0.5 1 1 1
v -0.0125 0.15 -0.4875 1 1 1
v -0.0375 0.467625 -0.4025 1 1 1
v 0 0.467625 -0.4025 1 1 1
v -0.0375 0.477625 -0.4125 1 1 1
v 0 0.477625 -0.4125 1 1 1
v 0 0.697375 0.4125 1 1 1
v -0.0375 0.697375 0.4125 1 1 1
v 0 0.707375 0.4025 1 1 1
v -0.0375 0.707375 0.4025 1 1 1
v 0 0.467625 0.4025 1 1 1
v -0.0375 0.467625 0.4025 1 1 1
v 0 0.697375 -0.4125 1 1 1
v 0 0.707375 -0.4025 1 1 1
v 0 0.477625 0.4125 1 1 1
v -0.0375 0.707375 -0.4025 1 1 1
v -0.0375 0.697375 -0.4125 1 1 1
v -0.0375 0.477625 0.4125 1 1 1
v -0.0375 0.487625 -0.3925 1 1 1
v -0.0375 0.687375 -0.3925 1 1 1
v -0.0375 0.487625 0.3925 1 1 1
v -0.0375 0.687375 0.3925 1 1 1
v -0.0375 0.487625 -0.3925 1 1 1
v -0.0375 0.6873749 -0.3925 1 1 1
v -0.0375 0.487625 0.3925 1 1 1
v -0.0375 0.6873749 0.3925 1 1 1

vn 0 0 1
vn 0 0.1601822 0.9870875
vn 0 0.9870875 0.1601822
vn 0 0.7071068 0.7071068
vn 0 0 -1
vn 0 0.1601822 -0.9870875
vn 0 -1 0
vn 0 0.9870875 -0.1601822
vn 0 0.7071068 -0.7071068
vn 1 0 0
vn -1 0 0
vn -0.9238796 1.10135E-07 -0.3826834
vn -0.3826835 4.561942E-08 -0.9238795
vn -0.9238796 1.10135E-07 0.3826834
vn -1.192093E-07 -1 0
vn -0.3826835 4.561942E-08 0.9238795
vn 1.192093E-07 1 0
vn 1 -1.192093E-07 0
vn -0.9936895 0.1121652 0
vn -0.9701425 0.2425356 0
vn 0 0.1121652 -0.9936895
vn 0 0.2425356 -0.9701425
vn 0.9936895 0.1121652 0
vn 0.9701425 0.2425356 0
vn 0 0.1121652 0.9936895
vn 0 0.2425356 0.9701425
vn 0.9936895 0.1121652 -7.004049E-14
vn 0.9701425 0.2425356 -6.838077E-14
vn 7.004049E-14 0.1121652 0.9936895
vn 6.838077E-14 0.2425356 0.9701425
vn -0.9936895 0.1121652 7.004049E-14
vn -1 0 7.048528E-14
vn 7.048528E-14 0 1
vn -0.9701425 0.2425356 6.838077E-14
vn 1 0 -7.048528E-14
vn -7.004049E-14 0.1121652 -0.9936895
vn -6.838077E-14 0.2425356 -0.9701425
vn -7.048528E-14 0 -1
vn 0 -0.9238795 -0.3826834
vn 0 -0.3826834 -0.9238795
vn 0 0.3826834 0.9238795
vn 0 0.9238795 0.3826834
vn 0 -0.9238795 0.3826834
vn 0 0.9238795 -0.3826834
vn 0 0.3826834 -0.9238795
vn 0 -0.3826834 0.9238795

vt 0.96875 0.025
vt 0.96875 0.2138889
vt 0.96875 0.225
vt 0.96875 0.2222222
vt 0.96875 0.05362254
vt 0.96875 0.08224508
vt 0.96875 0.075
vt 0.96875 0.1416667
vt 0.96875 0.175
vt 0.21875 0.025
vt 0.21875 0.03334202
vt 0.21875 0.216658
vt 0.21875 0.225
vt 0.09375 0.283342
vt 0.09375 0.466658
vt 0.09375 0.275
vt 0.09375 0.475
vt 0.09375 0.291684
vt 0.09375 0.458316
vt 0.71875 0.275
vt 0.71875 0.475

usemtl colormap

f 3/2/2 2/1/1 1/1/1
f 2/1/1 3/2/2 4/2/2
f 7/3/3 6/4/4 5/3/3
f 6/4/4 7/3/3 8/4/4
f 6/4/4 4/2/2 3/2/2
f 4/2/2 6/4/4 8/4/4
f 11/2/5 10/1/5 9/1/5
f 10/1/5 11/2/5 12/2/5
f 15/2/6 14/1/5 13/1/5
f 14/1/5 15/2/6 16/2/6
f 11/2/7 17/2/7 12/2/7
f 17/2/7 11/2/7 18/2/7
f 21/4/9 20/3/8 19/3/8
f 20/3/8 21/4/9 22/4/9
f 22/4/9 16/2/6 15/2/6
f 16/2/6 22/4/9 21/4/9
f 19/3/8 7/3/3 5/3/3
f 7/3/3 19/3/8 20/3/8
f 1/1/10 6/4/10 3/2/10
f 10/1/10 6/4/10 1/1/10
f 12/2/10 6/4/10 10/1/10
f 12/2/10 5/3/10 6/4/10
f 17/2/10 5/3/10 12/2/10
f 5/3/10 17/2/10 19/3/10
f 23/1/10 19/3/10 17/2/10
f 23/1/10 21/4/10 19/3/10
f 14/1/10 21/4/10 23/1/10
f 21/4/10 14/1/10 16/2/10
f 2/1/11 11/2/11 9/1/11
f 11/2/11 2/1/11 7/3/11
f 7/3/11 2/1/11 8/4/11
f 8/4/11 2/1/11 4/2/11
f 20/3/11 11/2/11 7/3/11
f 20/3/11 18/2/11 11/2/11
f 20/3/11 24/1/11 18/2/11
f 22/4/11 24/1/11 20/3/11
f 15/2/11 24/1/11 22/4/11
f 24/1/11 15/2/11 13/1/11
f 17/2/1 24/1/1 23/1/1
f 24/1/1 17/2/1 18/2/1
f 27/5/13 26/1/12 25/1/12
f 26/1/12 27/5/13 28/5/13
f 30/1/14 26/1/12 29/1/14
f 26/1/12 30/1/14 25/1/12
f 33/3/15 32/6/15 31/3/15
f 32/6/15 33/3/15 29/1/15
f 29/1/15 33/3/15 34/5/15
f 29/1/15 35/6/15 32/6/15
f 26/1/15 35/6/15 29/1/15
f 26/1/15 36/3/15 35/6/15
f 28/5/15 36/3/15 26/1/15
f 36/3/15 28/5/15 37/3/15
f 38/3/5 28/5/13 27/5/13
f 28/5/13 38/3/5 37/3/5
f 34/5/16 40/3/1 39/5/16
f 40/3/1 34/5/16 33/3/1
f 29/1/14 39/5/16 30/1/14
f 39/5/16 29/1/14 34/5/16
f 40/3/17 30/1/17 39/5/17
f 41/3/17 30/1/17 40/3/17
f 42/6/17 30/1/17 41/3/17
f 43/6/17 30/1/17 42/6/17
f 30/1/17 43/6/17 25/1/17
f 44/3/17 25/1/17 43/6/17
f 38/3/17 25/1/17 44/3/17
f 25/1/17 38/3/17 27/5/17
f 36/3/1 43/6/1 35/6/1
f 43/6/1 36/3/1 44/3/1
f 35/6/18 42/6/18 32/6/18
f 42/6/18 35/6/18 43/6/18
f 42/6/5 31/3/5 32/6/5
f 31/3/5 42/6/5 41/3/5
f 47/7/7 46/7/7 45/7/7
f 46/7/7 47/7/7 48/7/7
f 51/8/19 50/9/20 49/8/19
f 50/9/20 51/8/19 52/9/20
f 50/9/22 53/8/21 49/8/21
f 53/8/21 50/9/22 54/9/22
f 55/8/23 46/7/10 53/8/23
f 46/7/10 55/8/23 45/7/10
f 49/8/21 46/7/5 48/7/5
f 46/7/5 49/8/21 53/8/21
f 54/9/24 55/8/23 53/8/23
f 55/8/23 54/9/24 56/9/24
f 47/7/11 49/8/19 48/7/11
f 49/8/19 47/7/11 51/8/19
f 56/9/26 51/8/25 55/8/25
f 51/8/25 56/9/26 52/9/26
f 55/8/25 47/7/1 45/7/1
f 47/7/1 55/8/25 51/8/25
f 59/7/7 58/7/7 57/7/7
f 58/7/7 59/7/7 60/7/7
f 63/8/27 62/9/28 61/8/27
f 62/9/28 63/8/27 64/9/28
f 62/9/30 65/8/29 61/8/29
f 65/8/29 62/9/30 66/9/30
f 67/8/31 58/7/32 65/8/31
f 58/7/32 67/8/31 57/7/32
f 61/8/29 58/7/33 60/7/33
f 58/7/33 61/8/29 65/8/29
f 66/9/34 67/8/31 65/8/31
f 67/8/31 66/9/34 68/9/34
f 59/7/35 61/8/27 60/7/35
f 61/8/27 59/7/35 63/8/27
f 68/9/37 63/8/36 67/8/36
f 63/8/36 68/9/37 64/9/37
f 67/8/36 59/7/38 57/7/38
f 59/7/38 67/8/36 63/8/36
f 71/11/40 70/10/39 69/10/39
f 70/10/39 71/11/40 72/11/40
f 75/13/42 74/12/41 73/12/41
f 74/12/41 75/13/42 76/13/42
f 78/10/43 70/10/39 77/10/43
f 70/10/39 78/10/43 69/10/39
f 80/13/10 72/11/10 79/12/10
f 72/11/10 80/13/10 70/10/10
f 70/10/10 80/13/10 75/13/10
f 70/10/10 75/13/10 77/10/10
f 77/10/10 75/13/10 73/12/10
f 77/10/10 73/12/10 81/11/10
f 82/13/44 75/13/42 80/13/44
f 75/13/42 82/13/44 76/13/42
f 83/12/45 72/11/40 71/11/40
f 72/11/40 83/12/45 79/12/45
f 73/12/41 84/11/46 81/11/46
f 84/11/46 73/12/41 74/12/41
f 81/11/46 78/10/43 77/10/43
f 78/10/43 81/11/46 84/11/46
f 82/13/44 79/12/45 83/12/45
f 79/12/45 82/13/44 80/13/44
f 69/16/11 83/15/11 71/14/11
f 83/15/11 69/16/11 82/17/11
f 82/17/11 69/16/11 85/18/11
f 85/18/11 69/16/11 78/16/11
f 86/19/11 82/17/11 85/18/11
f 85/18/11 78/16/11 87/18/11
f 82/17/11 86/19/11 76/17/11
f 87/18/11 78/16/11 88/19/11
f 76/17/11 86/19/11 88/19/11
f 76/17/11 88/19/11 78/16/11
f 76/17/11 78/16/11 84/14/11
f 76/17/11 84/14/11 74/15/11
f 91/20/11 90/21/11 89/20/11
f 90/21/11 91/20/11 92/21/11

g sign-highway-wide




usemtl colormap

f 3/2/2 2/1/1 1/1/1
f 2/1/1 3/2/2 4/2/2
f 7/3/3 6/4/4 5/3/3
f 6/4/4 7/3/3 8/4/4
f 6/4/4 4/2/2 3/2/2
f 4/2/2 6/4/4 8/4/4
f 11/2/5 10/1/5 9/1/5
f 10/1/5 11/2/5 12/2/5
f 15/2/6 14/1/5 13/1/5
f 14/1/5 15/2/6 16/2/6
f 11/2/7 17/2/7 12/2/7
f 17/2/7 11/2/7 18/2/7
f 21/4/9 20/3/8 19/3/8
f 20/3/8 21/4/9 22/4/9
f 22/4/9 16/2/6 15/2/6
f 16/2/6 22/4/9 21/4/9
f 19/3/8 7/3/3 5/3/3
f 7/3/3 19/3/8 20/3/8
f 1/1/10 6/4/10 3/2/10
f 10/1/10 6/4/10 1/1/10
f 12/2/10 6/4/10 10/1/10
f 12/2/10 5/3/10 6/4/10
f 17/2/10 5/3/10 12/2/10
f 5/3/10 17/2/10 19/3/10
f 23/1/10 19/3/10 17/2/10
f 23/1/10 21/4/10 19/3/10
f 14/1/10 21/4/10 23/1/10
f 21/4/10 14/1/10 16/2/10
f 2/1/11 11/2/11 9/1/11
f 11/2/11 2/1/11 7/3/11
f 7/3/11 2/1/11 8/4/11
f 8/4/11 2/1/11 4/2/11
f 20/3/11 11/2/11 7/3/11
f 20/3/11 18/2/11 11/2/11
f 20/3/11 24/1/11 18/2/11
f 22/4/11 24/1/11 20/3/11
f 15/2/11 24/1/11 22/4/11
f 24/1/11 15/2/11 13/1/11
f 17/2/1 24/1/1 23/1/1
f 24/1/1 17/2/1 18/2/1
f 27/5/13 26/1/12 25/1/12
f 26/1/12 27/5/13 28/5/13
f 30/1/14 26/1/12 29/1/14
f 26/1/12 30/1/14 25/1/12
f 33/3/15 32/6/15 31/3/15
f 32/6/15 33/3/15 29/1/15
f 29/1/15 33/3/15 34/5/15
f 29/1/15 35/6/15 32/6/15
f 26/1/15 35/6/15 29/1/15
f 26/1/15 36/3/15 35/6/15
f 28/5/15 36/3/15 26/1/15
f 36/3/15 28/5/15 37/3/15
f 38/3/5 28/5/13 27/5/13
f 28/5/13 38/3/5 37/3/5
f 34/5/16 40/3/1 39/5/16
f 40/3/1 34/5/16 33/3/1
f 29/1/14 39/5/16 30/1/14
f 39/5/16 29/1/14 34/5/16
f 40/3/17 30/1/17 39/5/17
f 41/3/17 30/1/17 40/3/17
f 42/6/17 30/1/17 41/3/17
f 43/6/17 30/1/17 42/6/17
f 30/1/17 43/6/17 25/1/17
f 44/3/17 25/1/17 43/6/17
f 38/3/17 25/1/17 44/3/17
f 25/1/17 38/3/17 27/5/17
f 36/3/1 43/6/1 35/6/1
f 43/6/1 36/3/1 44/3/1
f 35/6/18 42/6/18 32/6/18
f 42/6/18 35/6/18 43/6/18
f 42/6/5 31/3/5 32/6/5
f 31/3/5 42/6/5 41/3/5
f 47/7/7 46/7/7 45/7/7
f 46/7/7 47/7/7 48/7/7
f 51/8/19 50/9/20 49/8/19
f 50/9/20 51/8/19 52/9/20
f 50/9/22 53/8/21 49/8/21
f 53/8/21 50/9/22 54/9/22
f 55/8/23 46/7/10 53/8/23
f 46/7/10 55/8/23 45/7/10
f 49/8/21 46/7/5 48/7/5
f 46/7/5 49/8/21 53/8/21
f 54/9/24 55/8/23 53/8/23
f 55/8/23 54/9/24 56/9/24
f 47/7/11 49/8/19 48/7/11
f 49/8/19 47/7/11 51/8/19
f 56/9/26 51/8/25 55/8/25
f 51/8/25 56/9/26 52/9/26
f 55/8/25 47/7/1 45/7/1
f 47/7/1 55/8/25 51/8/25
f 59/7/7 58/7/7 57/7/7
f 58/7/7 59/7/7 60/7/7
f 63/8/27 62/9/28 61/8/27
f 62/9/28 63/8/27 64/9/28
f 62/9/30 65/8/29 61/8/29
f 65/8/29 62/9/30 66/9/30
f 67/8/31 58/7/32 65/8/31
f 58/7/32 67/8/31 57/7/32
f 61/8/29 58/7/33 60/7/33
f 58/7/33 61/8/29 65/8/29
f 66/9/34 67/8/31 65/8/31
f 67/8/31 66/9/34 68/9/34
f 59/7/35 61/8/27 60/7/35
f 61/8/27 59/7/35 63/8/27
f 68/9/37 63/8/36 67/8/36
f 63/8/36 68/9/37 64/9/37
f 67/8/36 59/7/38 57/7/38
f 59/7/38 67/8/36 63/8/36
f 71/11/40 70/10/39 69/10/39
f 70/10/39 71/11/40 72/11/40
f 75/13/42 74/12/41 73/12/41
f 74/12/41 75/13/42 76/13/42
f 78/10/43 70/10/39 77/10/43
f 70/10/39 78/10/43 69/10/39
f 80/13/10 72/11/10 79/12/10
f 72/11/10 80/13/10 70/10/10
f 70/10/10 80/13/10 75/13/10
f 70/10/10 75/13/10 77/10/10
f 77/10/10 75/13/10 73/12/10
f 77/10/10 73/12/10 81/11/10
f 82/13/44 75/13/42 80/13/44
f 75/13/42 82/13/44 76/13/42
f 83/12/45 72/11/40 71/11/40
f 72/11/40 83/12/45 79/12/45
f 73/12/41 84/11/46 81/11/46
f 84/11/46 73/12/41 74/12/41
f 81/11/46 78/10/43 77/10/43
f 78/10/43 81/11/46 84/11/46
f 82/13/44 79/12/45 83/12/45
f 79/12/45 82/13/44 80/13/44
f 69/16/11 83/15/11 71/14/11
f 83/15/11 69/16/11 82/17/11
f 82/17/11 69/16/11 85/18/11
f 85/18/11 69/16/11 78/16/11
f 86/19/11 82/17/11 85/18/11
f 85/18/11 78/16/11 87/18/11
f 82/17/11 86/19/11 76/17/11
f 87/18/11 78/16/11 88/19/11
f 76/17/11 86/19/11 88/19/11
f 76/17/11 88/19/11 78/16/11
f 76/17/11 78/16/11 84/14/11
f 76/17/11 84/14/11 74/15/11
f 91/20/11 90/21/11 89/20/11
f 90/21/11 91/20/11 92/21/11

