# Created by Kenney (www.kenney.nl)

mtllib tile-high.mtl

g tile-high

v 0.5 0.25 -0.5 1 1 1
v 0.5 0 -0.5 1 1 1
v 0.5 0.25 0.5 1 1 1
v 0.5 0 0.5 1 1 1
v -0.5 0 0.5 1 1 1
v -0.5 0 -0.5 1 1 1
v -0.5 0.25 -0.5 1 1 1
v -0.5 0.25 0.5 1 1 1

vn 1 0 0
vn 0 -1 0
vn 0 0 -1
vn 0 0 1
vn 0 1 0
vn -1 0 0

vt 0.90625 0.125

usemtl colormap

f 3/1/1 2/1/1 1/1/1
f 2/1/1 3/1/1 4/1/1
f 5/1/2 2/1/2 4/1/2
f 2/1/2 5/1/2 6/1/2
f 7/1/3 2/1/3 6/1/3
f 2/1/3 7/1/3 1/1/3
f 3/1/4 5/1/4 4/1/4
f 5/1/4 3/1/4 8/1/4
f 7/1/5 3/1/5 1/1/5
f 3/1/5 7/1/5 8/1/5
f 5/1/6 7/1/6 6/1/6
f 7/1/6 5/1/6 8/1/6

g tile-high




usemtl colormap

f 3/1/1 2/1/1 1/1/1
f 2/1/1 3/1/1 4/1/1
f 5/1/2 2/1/2 4/1/2
f 2/1/2 5/1/2 6/1/2
f 7/1/3 2/1/3 6/1/3
f 2/1/3 7/1/3 1/1/3
f 3/1/4 5/1/4 4/1/4
f 5/1/4 3/1/4 8/1/4
f 7/1/5 3/1/5 1/1/5
f 3/1/5 7/1/5 8/1/5
f 5/1/6 7/1/6 6/1/6
f 7/1/6 5/1/6 8/1/6

