# Created by Kenney (www.kenney.nl)

mtllib tile-slantHigh.mtl

g tile-slantHigh

v 0.5 0 0.5 1 1 1
v 0.5 0 -0.5 1 1 1
v -0.5 0 0.5 1 1 1
v -0.5 0 -0.5 1 1 1
v -0.5 0.02 -0.5 1 1 1
v -0.5 0.02 0.5 1 1 1
v 0.5 0.52 0.5 1 1 1
v 0.5 0.52 -0.5 1 1 1

vn 0 -1 0
vn -1 0 0
vn 0 0 1
vn -0.4472136 0.8944272 0
vn 1 0 0
vn 0 0 -1

vt 0.90625 0.125

usemtl colormap

f 3/1/1 2/1/1 1/1/1
f 2/1/1 3/1/1 4/1/1
f 3/1/2 5/1/2 4/1/2
f 5/1/2 3/1/2 6/1/2
f 7/1/3 3/1/3 1/1/3
f 3/1/3 7/1/3 6/1/3
f 5/1/4 7/1/4 8/1/4
f 7/1/4 5/1/4 6/1/4
f 7/1/5 2/1/5 8/1/5
f 2/1/5 7/1/5 1/1/5
f 5/1/6 2/1/6 4/1/6
f 2/1/6 5/1/6 8/1/6

g tile-slantHigh




usemtl colormap

f 3/1/1 2/1/1 1/1/1
f 2/1/1 3/1/1 4/1/1
f 3/1/2 5/1/2 4/1/2
f 5/1/2 3/1/2 6/1/2
f 7/1/3 3/1/3 1/1/3
f 3/1/3 7/1/3 6/1/3
f 5/1/4 7/1/4 8/1/4
f 7/1/4 5/1/4 6/1/4
f 7/1/5 2/1/5 8/1/5
f 2/1/5 7/1/5 1/1/5
f 5/1/6 2/1/6 4/1/6
f 2/1/6 5/1/6 8/1/6

