# Created by Kenney (www.kenney.nl)

mtllib tile-low.mtl

g tile-low

v -0.5 0 -0.5 1 1 1
v 0.5 0 -0.5 1 1 1
v -0.5 0.02 -0.5 1 1 1
v 0.5 0.02 -0.5 1 1 1
v 0.5 0 0.5 1 1 1
v -0.5 0 0.5 1 1 1
v 0.5 0.02 0.5 1 1 1
v -0.5 0.02 0.5 1 1 1

vn 0 0 -1
vn 0 0 1
vn 1 0 0
vn 0 1 0
vn 0 -1 0
vn -1 0 0

vt 0.90625 0.125

usemtl colormap

f 3/1/1 2/1/1 1/1/1
f 2/1/1 3/1/1 4/1/1
f 7/1/2 6/1/2 5/1/2
f 6/1/2 7/1/2 8/1/2
f 7/1/3 2/1/3 4/1/3
f 2/1/3 7/1/3 5/1/3
f 3/1/4 7/1/4 4/1/4
f 7/1/4 3/1/4 8/1/4
f 6/1/5 2/1/5 5/1/5
f 2/1/5 6/1/5 1/1/5
f 6/1/6 3/1/6 1/1/6
f 3/1/6 6/1/6 8/1/6

g tile-low




usemtl colormap

f 3/1/1 2/1/1 1/1/1
f 2/1/1 3/1/1 4/1/1
f 7/1/2 6/1/2 5/1/2
f 6/1/2 7/1/2 8/1/2
f 7/1/3 2/1/3 4/1/3
f 2/1/3 7/1/3 5/1/3
f 3/1/4 7/1/4 4/1/4
f 7/1/4 3/1/4 8/1/4
f 6/1/5 2/1/5 5/1/5
f 2/1/5 6/1/5 1/1/5
f 6/1/6 3/1/6 1/1/6
f 3/1/6 6/1/6 8/1/6

